<?xml version="1.0" encoding="utf-8"?>
<!-- Generator: Adobe Illustrator 23.0.0, SVG Export Plug-In . SVG Version: 6.00 Build 0)  -->
<svg version="1.1" id="Layer_1" xmlns="http://www.w3.org/2000/svg" xmlns:xlink="http://www.w3.org/1999/xlink" x="0px" y="0px"
	 viewBox="0 0 1260.7 520.5" style="enable-background:new 0 0 1260.7 520.5;" xml:space="preserve">
<style type="text/css">
	.st0{fill:#0143BE;}
	.st1{fill:url(#SVGID_1_);}
	.st2{fill:#FFFFFF;}
	.st3{opacity:0.8;fill:#FFFFFF;}
</style>
<g>
	<g>
		<path class="st0" d="M488.8,222.1c0,8.2,3.5,14.6,10.6,19.3c7.1,4.7,15.6,8.3,25.7,10.9c10,2.6,20.1,5.3,30.3,8
			c10.1,2.7,18.7,7.5,25.6,14.6c6.9,7,10.4,16.5,10.4,28.2c0,14-5.6,25.5-16.7,34.5c-11.2,9-25.8,13.5-43.8,13.5
			c-16.2,0-29.9-3.4-41.1-10.3c-11.2-6.9-18.9-15.9-23.2-27.2l14.5-8.5c3.2,9.2,9.1,16.5,17.8,21.8c8.7,5.3,19.3,7.9,32,7.9
			c12.6,0,23-2.8,31.3-8.3c8.2-5.5,12.3-13.3,12.3-23.5c0-8.3-3.5-15-10.5-19.9c-7-5-15.5-8.7-25.5-11.4c-10-2.6-20.1-5.3-30.3-8
			c-10.1-2.7-18.7-7.4-25.7-14.1c-7-6.8-10.5-15.8-10.5-27.1c0-13.5,5.4-24.9,16.1-34.2c10.7-9.2,24.5-13.9,41.4-13.9
			c13.5,0,25.3,3,35.3,9.1c10,6.1,17.4,14.3,22.1,24.7l-14.2,8.1c-3.4-8.3-9-14.7-16.9-19.1c-7.9-4.4-16.7-6.6-26.4-6.6
			c-11.5,0-21.1,2.8-28.9,8.5C492.7,204.9,488.8,212.5,488.8,222.1z"/>
		<path class="st0" d="M748.8,178.3h17.2v169.1h-17.2v-38.2c-7.2,13.1-17.1,23.3-29.8,30.8c-12.6,7.4-26.9,11.2-42.9,11.2
			c-24.1,0-44.7-8.5-61.9-25.5c-17.1-17-25.7-37.9-25.7-62.7c0-24.8,8.6-45.7,25.7-62.7c17.1-17,37.8-25.5,61.9-25.5
			c16,0,30.3,3.7,42.9,11.2c12.6,7.4,22.5,17.7,29.8,30.8V178.3z M626.6,313.9c13.9,14,30.8,21,50.9,21c20.1,0,37-7,50.7-21
			c13.7-14,20.6-31,20.6-51.1c0-20.1-6.9-37.1-20.6-51.1c-13.8-14-30.7-21-50.7-21c-20.1,0-37,7-50.9,21c-13.9,14-20.8,31-20.8,51.1
			C605.8,282.9,612.7,299.9,626.6,313.9z"/>
		<path class="st0" d="M915.2,178.3h17.9l-71.3,169.1h-20.6l-71.7-169.1h18.3l63.5,151.5L915.2,178.3z"/>
		<path class="st0" d="M1006.1,174.6c24.8,0,44.9,8.8,60.4,26.4c15.4,17.6,23.2,38.4,23.2,62.6c0,0.9-0.1,2.3-0.2,4.1
			c-0.1,1.8-0.2,3.2-0.2,4.1H936.1c2,18.9,9.6,34.2,22.8,45.8c13.2,11.6,29.5,17.4,48.9,17.4c13.5,0,25.4-2.8,35.5-8.5
			c10.1-5.6,17.8-13.1,23-22.3l14.9,8.8c-7,11.7-16.9,21-29.8,27.9c-12.9,6.9-27.5,10.3-44,10.3c-25.9,0-47.2-8.3-63.9-24.9
			c-16.7-16.6-25-37.7-25-63.4c0-25.2,8.2-46.3,24.5-63.1C959.4,183,980.4,174.6,1006.1,174.6z M1006.1,190.8
			c-19.2,0-35.2,6-48,17.9c-12.8,12-20.2,27.4-22,46.3h135.9c-1.8-20.1-9-35.8-21.5-47.2C1038.1,196.5,1023.3,190.8,1006.1,190.8z"
			/>
		<path class="st0" d="M1117.7,158c-7.2,0-13.5-2.6-18.8-7.9c-5.3-5.3-7.9-11.5-7.9-18.8c0-7.2,2.6-13.5,7.9-18.9
			c5.3-5.4,11.5-8.1,18.8-8.1c7.4,0,13.8,2.7,19.1,8.1c5.3,5.4,7.9,11.7,7.9,18.9c0,7.2-2.7,13.5-7.9,18.8
			C1131.5,155.4,1125.1,158,1117.7,158z M1096.1,347.4V178.3h43.6v169.1H1096.1z"/>
		<path class="st0" d="M1249.2,220.2H1211v70.3c0,5.9,1.5,10.1,4.4,12.8c2.9,2.7,7.2,4.2,12.8,4.6c5.6,0.3,12.6,0.3,21-0.2v39.6
			c-30,3.4-51.1,0.6-63.4-8.5c-12.3-9-18.4-25.1-18.4-48.4v-70.3H1138v-41.9h29.4v-34.2L1211,131v47.3h38.2V220.2z"/>
	</g>
	<path class="st0" d="M404.1,238.1c0,108.4-87.9,196.3-196.3,196.3S11.5,346.6,11.5,238.1H404.1z"/>
	<linearGradient id="SVGID_1_" gradientUnits="userSpaceOnUse" x1="66.5989" y1="156.2097" x2="406.8425" y2="353.6985">
		<stop  offset="0" style="stop-color:#19E1E5"/>
		<stop  offset="1" style="stop-color:#0433CA"/>
	</linearGradient>
	<circle class="st1" cx="207.8" cy="238.1" r="152.1"/>
	<g>
		<g>
			<path class="st2" d="M210.2,328.3c-18.3,0-33.4-3.9-45.4-11.6c-12-7.7-20.4-18.2-25.2-31.4l37.8-22c6.4,15.3,17.8,23,34.1,23
				c13.5,0,20.3-3.8,20.3-11.5c0-5.1-3.9-9.1-11.7-12.2c-3.3-1.4-10.5-3.7-21.7-6.9c-15.8-4.6-28.3-11.1-37.5-19.4
				c-9.2-8.3-13.8-19.9-13.8-34.7c0-16,5.7-28.9,17.2-38.8c11.4-9.9,25.7-14.8,42.8-14.8c14.5,0,27.3,3.4,38.5,10.1
				c11.2,6.8,19.8,16.5,25.7,29.4l-37,21.7c-5.4-12.8-14.4-19.3-26.9-19.3c-5.3,0-9.3,1.1-12,3.2c-2.7,2.2-4.1,4.9-4.1,8.2
				c0,3.8,2,7,6,9.7c4,2.7,11.9,5.7,23.5,9.2c8.2,3,14.9,5.4,20.1,7.3c5.2,1.9,10.8,4.8,16.9,8.8c6.1,4,10.6,9.2,13.6,15.5
				s4.5,13.8,4.5,22.3c0,17-6,30.2-18,39.8C245.9,323.5,230,328.3,210.2,328.3z"/>
		</g>
	</g>
	<path class="st3" d="M318.1,165.9c-3.9-6.5-8.2-12.6-12.9-18.3c-1.1-1.5-2.5-2.8-3.7-4.2c-1.2-1.4-2.5-2.7-3.8-4l-1.9-2l-2-1.9
		l-2-1.9l-2.1-1.8c-1.4-1.2-2.8-2.4-4.3-3.5c-1.4-1.1-2.9-2.3-4.4-3.3c-1.5-1.1-3-2.2-4.5-3.1c-1.6-1-3.1-2-4.7-2.9
		c-6.4-3.7-13.1-6.9-20.3-9.1c7.6,0.2,15.2,2.5,22.1,5.8c1.8,0.8,3.5,1.7,5.1,2.6c1.7,0.9,3.3,2,4.9,3c1.6,1,3.2,2.2,4.7,3.3
		c1.6,1.1,3,2.3,4.5,3.6l2.2,1.9l2.1,2l2.1,2c0.7,0.7,1.3,1.4,2,2.1c1.3,1.4,2.6,2.9,3.7,4.4c1.2,1.5,2.4,3,3.4,4.6
		C312.6,151.6,316.1,158.5,318.1,165.9z"/>
</g>
</svg>
