<?xml version="1.0" encoding="utf-8"?>
<!-- Generator: Adobe Illustrator 23.0.0, SVG Export Plug-In . SVG Version: 6.00 Build 0)  -->
<svg version="1.1" id="Layer_1" xmlns="http://www.w3.org/2000/svg" xmlns:xlink="http://www.w3.org/1999/xlink" x="0px" y="0px"
	 viewBox="0 0 643.9 611.2" style="enable-background:new 0 0 643.9 611.2;" xml:space="preserve">
<style type="text/css">
	.st0{fill:#FFFFFF;}
	.st1{fill:none;stroke:#FFFFFF;stroke-width:4;stroke-miterlimit:10;}
	.st2{stroke:#606060;stroke-width:4;stroke-miterlimit:10;}
	.st3{fill:#606060;}
	.st4{fill:#40AE6D;}
	.st5{fill:none;stroke:#24894D;stroke-width:2;stroke-miterlimit:10;}
	.st6{fill:#24894D;}
	.st7{fill:#2FAE61;}
	.st8{fill:#43C678;}
	.st9{fill:#3B3FD8;}
	.st10{fill:#00008F;}
	.st11{fill:#00005B;}
	.st12{fill:#212E61;}
	.st13{fill-rule:evenodd;clip-rule:evenodd;fill:#212E61;}
</style>
<g>
	<g>
		<path class="st8" d="M456.8,26.3c2.6,0,4.6,2.5,3.9,5.1L457,44.4l-43.7,156.6c-0.5,1.7-2.1,2.9-3.9,2.9h-73.2
			c-2.7,0-4.6-2.5-3.8-5.1l34.4-121c0.7-2.6-1.2-5.1-3.8-5.1h-4.6c-2.6,0-4.6-2.5-3.9-5.1l6.9-24.6l3.9-13.9
			c0.5-1.7,2.1-2.9,3.9-2.9H456.8z"/>
		<path class="st7" d="M410.3,167.5c-0.2,0-0.4,0-0.6-0.1c-1.1-0.3-1.7-1.4-1.4-2.5l5.1-17.6c0.3-1.1,1.4-1.7,2.5-1.4
			c1.1,0.3,1.7,1.4,1.4,2.5l-5.1,17.6C412,167,411.2,167.5,410.3,167.5z"/>
		<path class="st8" d="M358.2,78.3c1.3,0,2.3,1.3,1.9,2.5l-6.2,21.8l-29.2,102.8c-0.2,0.9-1,1.5-1.9,1.5h-93.5
			c-1.3,0-2.3-1.3-1.9-2.5l31.4-110.6l4-14.1c0.2-0.9,1-1.5,1.9-1.5H358.2z"/>
		<circle class="st7" cx="288.2" cy="165.4" r="30.8"/>
		<circle class="st7" cx="395.6" cy="117.2" r="30.8"/>
		<path class="st6" d="M441.1,373.4H272.8c-49.5,0-89.6-40.1-89.6-89.6v-122h258V373.4z"/>
		<path class="st8" d="M431.1,365.1H275.8c-45.7,0-82.7-37-82.7-82.7V169.9h238V365.1z"/>
		<g>
			<path class="st7" d="M350.2,228.3L350.2,228.3c-3,5.9-9.9,8.5-16.1,6c-4.3-1.7-9.4-3.2-14.7-3.2c-9.6,0-14.6,4.3-14.6,11.1
				c0,6.9,11.7,11.8,25.7,17.8c13.8,5.8,28.9,17.5,28.9,33.6c0,29.4-22.4,39.8-46.5,39.8c-15.3,0-27.4-4.6-35.4-8.9
				c-6.3-3.4-8.6-11.4-4.9-17.6l1-1.8c3.6-6,11.3-8,17.3-4.5c5.8,3.4,13.1,6.7,19.8,6.7c6.1,0,17.8-0.6,17.8-12.1
				c0-9-13.2-13-27.8-20.3c-14.8-7.3-23.5-18.8-23.5-31.7c0-23,20.3-37.7,40.2-37.7c10.4,0,19.5,2.5,26.1,5.2
				C350.5,213.6,353.6,221.7,350.2,228.3z"/>
		</g>
		<g>
			<path class="st0" d="M347.2,226.3L347.2,226.3c-3,5.9-9.9,8.5-16.1,6c-4.3-1.7-9.4-3.2-14.7-3.2c-9.6,0-14.6,4.3-14.6,11.1
				c0,6.9,11.7,11.8,25.7,17.8c13.8,5.8,28.9,17.5,28.9,33.6c0,29.4-22.4,39.8-46.5,39.8c-15.3,0-27.4-4.6-35.4-8.9
				c-6.3-3.4-8.6-11.4-4.9-17.6l1-1.8c3.6-6,11.3-8,17.3-4.5c5.8,3.4,13.1,6.7,19.8,6.7c6.1,0,17.8-0.6,17.8-12.1
				c0-9-13.2-13-27.8-20.3c-14.8-7.3-23.5-18.8-23.5-31.7c0-23,20.3-37.7,40.2-37.7c10.4,0,19.5,2.5,26.1,5.2
				C347.5,211.6,350.6,219.7,347.2,226.3z"/>
		</g>
		<path class="st7" d="M431.1,99.9c-0.2,0-0.3,0-0.5-0.1c-1.1-0.3-1.7-1.4-1.4-2.5l16.1-59.3h-71l-9.8,28.8c-0.4,1-1.5,1.6-2.5,1.3
			c-1-0.4-1.6-1.5-1.3-2.5l10.2-30.1c0.3-0.8,1-1.4,1.9-1.4h75.1c0.6,0,1.2,0.3,1.6,0.8c0.4,0.5,0.5,1.1,0.3,1.7L433,98.4
			C432.8,99.3,432,99.9,431.1,99.9z"/>
		<path class="st7" d="M252,155.3c-0.2,0-0.4,0-0.6-0.1c-1.1-0.3-1.7-1.4-1.4-2.5l19.7-66.9c0.3-0.9,1-1.4,1.9-1.4h79.4
			c0.6,0,1.2,0.3,1.6,0.8c0.4,0.5,0.5,1.1,0.3,1.8l-18.9,66.9c-0.3,1.1-1.4,1.7-2.5,1.4c-1.1-0.3-1.7-1.4-1.4-2.5l18.2-64.3h-75.3
			l-19.2,65.5C253.7,154.7,252.9,155.3,252,155.3z"/>
	</g>
	<g>
		<path class="st7" d="M130.9,447.3L130.9,447.3c-3.9,7.7-13,11.1-20.9,7.9c-5.6-2.2-12.4-4.2-19.3-4.2c-12.5,0-19.2,5.7-19.2,14.5
			c0,9,15.3,15.5,33.7,23.3c18,7.6,37.8,22.9,37.8,44.1c0,38.6-29.4,52.1-60.9,52.1c-20.1,0-36-6-46.4-11.7
			c-8.3-4.5-11.1-15-6.3-23.1l1.4-2.3c4.7-7.8,14.8-10.5,22.6-5.8c7.6,4.4,17.2,8.8,26,8.8c8,0,23.3-0.8,23.3-15.9
			c0-11.7-17.2-17-36.4-26.6c-19.4-9.6-30.7-24.7-30.7-41.5c0-30.2,26.6-49.3,52.7-49.3c13.7,0,25.5,3.3,34.2,6.8
			C131.3,428,135.3,438.6,130.9,447.3z"/>
		<path class="st7" d="M193.8,478.6c13.5,0,24.7,4.5,32.9,12.5v-7.6c0-1.1,0.9-2,2-2h30.7c1.1,0,2,0.9,2,2V580c0,1.1-0.9,2-2,2
			h-30.3c-1.1,0-2-0.9-2-2v-9.4h-0.4c-7.4,8.2-19.2,14.3-32.9,14.3c-29.4,0-49.9-23.7-49.9-53.1
			C143.9,502.5,164.4,478.6,193.8,478.6z M204.2,555.4c13.5,0,23.3-9.8,23.3-23.5c0-13.9-10.4-23.7-23.3-23.7
			c-13.1,0-23.5,9.8-23.5,23.7C180.7,545.6,190.1,555.4,204.2,555.4z"/>
		<path class="st7" d="M328,536.2l23.9-53.4c0.3-0.7,1-1.2,1.8-1.2h36.5c1.5,0,2.5,1.6,1.8,2.9L340.3,581c-0.3,0.6-1,1.1-1.8,1.1
			h-21.1c-0.7,0-1.4-0.4-1.8-1.1L264,484.5c-0.7-1.3,0.3-2.9,1.8-2.9h36.5c0.8,0,1.5,0.5,1.8,1.2L328,536.2z"/>
		<path class="st7" d="M415.6,536.6c0,15.5,12.9,20.8,21.7,20.8c10.7,0,15.6-2,23.5-10.1c0.6-0.6,1.5-0.8,2.3-0.4l21.8,10.9
			c1.1,0.5,1.4,1.9,0.8,2.9c-11.4,17.6-29.3,24.3-50.9,24.3c-30.3,0-55.2-23.9-55.2-53.1c0-29.4,24.9-53.3,55.2-53.3
			c30.5,0,53.8,18,53.8,53.3c0,0.8,0,1.8,0,2.8c0,1.1-0.9,1.9-2,1.9H415.6z M454.8,517.4c-1.6-10.6-8.8-16.3-19-16.3
			c-11.9,0-18.6,7-19.2,16.3H454.8z"/>
		<path class="st7" d="M542.8,438c1.3,13-9.5,23.9-22.6,22.6c-9.6-1-17.4-8.7-18.4-18.4c-1.3-13,9.5-23.8,22.5-22.5
			C534,420.6,541.8,428.3,542.8,438z M519.8,582h4c8.5,0,15.3-6.9,15.3-15.3v-79.8c0-9.6-7.8-17.3-17.3-17.3h0
			c-9.6,0-17.3,7.8-17.3,17.3v79.8C504.5,575.2,511.4,582,519.8,582z"/>
		<path class="st7" d="M568.8,444.2h14.4c5.5,0,10,4.5,10,10v27.4h19.1c1.1,0,2,0.9,2,2V506c0,1.1-0.9,2-2,2h-19.1v31.9
			c0,9.4,2.3,13.9,7.8,13.9c1.5,0,3-0.3,4.2-0.8c2.5-0.9,5.2,0.4,6,2.9l5.5,17.9c0.9,2.9-0.6,6.1-3.5,7.2c-4.6,1.8-12,4-20.5,4
			c-27.6,0-34.3-20.6-34.3-38.4V508H546c-1.1,0-2-0.9-2-2v-22.4c0-1.1,0.9-2,2-2h12.5v-27.1C558.5,448.8,563.1,444.2,568.8,444.2z"
			/>
	</g>
</g>
</svg>
