<?xml version="1.0" encoding="utf-8"?>
<!-- Generator: Adobe Illustrator 23.0.0, SVG Export Plug-In . SVG Version: 6.00 Build 0)  -->
<svg version="1.1" id="Layer_1" xmlns="http://www.w3.org/2000/svg" xmlns:xlink="http://www.w3.org/1999/xlink" x="0px" y="0px"
	 viewBox="0 0 512 512" style="enable-background:new 0 0 512 512;" xml:space="preserve">
<style type="text/css">
	.st0{fill:#FFFFFF;}
	.st1{fill:none;stroke:#FFFFFF;stroke-width:4;stroke-miterlimit:10;}
	.st2{stroke:#606060;stroke-width:4;stroke-miterlimit:10;}
	.st3{fill:#604684;}
	.st4{opacity:0.7;fill:#FFFFFF;enable-background:new    ;}
	.st5{fill:#43325E;}
	.st6{fill:none;stroke:#604684;stroke-miterlimit:10;}
	.st7{fill:#2DC7C1;}
	.st8{fill:#26ADAA;}
	.st9{fill:#9BCEF8;}
	.st10{fill:#049AD7;}
	.st11{fill:#212E61;}
	.st12{fill:#40AE6D;}
	.st13{fill-rule:evenodd;clip-rule:evenodd;fill:#212E61;}
	.st14{fill:#606060;}
	.st15{fill:none;stroke:#24894D;stroke-width:2;stroke-miterlimit:10;}
	.st16{fill:#24894D;}
	.st17{fill:#2FAE61;}
	.st18{fill:#43C678;}
	.st19{fill:#3B3FD8;}
	.st20{fill:#00008F;}
	.st21{fill:#00005B;}
</style>
<rect x="-582.4" y="2795.8" class="st0" width="1260.7" height="520.5"/>
<rect x="-580.5" y="2152.7" class="st0" width="565.3" height="520.5"/>
<circle class="st1" cx="93.7" cy="2662.3" r="39.2"/>
<polygon points="233.1,1964.1 137.1,1964.1 186.7,1786.4 282.8,1786.4 "/>
<polygon class="st2" points="149,1964.1 51.3,1964.1 87.9,1835.4 185.5,1835.4 "/>
<path class="st3" d="M-822.8-581.8l-18.3-7.8c-1.5-0.6-2.6-1.8-3.2-3.3l-7.4-18.4c-0.6-1.5-0.6-3.1,0.1-4.6l7.8-18.3
	c0.6-1.5,1.8-2.6,3.3-3.2l18.4-7.4c1.5-0.6,3.1-0.6,4.6,0.1l18.3,7.8c1.5,0.6,2.6,1.8,3.2,3.3l7.4,18.4c0.6,1.5,0.6,3.1-0.1,4.6
	l-7.8,18.3c-0.6,1.5-1.8,2.6-3.3,3.2l-18.4,7.4C-819.7-581.1-821.4-581.2-822.8-581.8z"/>
<path class="st3" d="M-289-581.8l-18.3-7.8c-1.5-0.6-2.6-1.8-3.2-3.3l-7.4-18.4c-0.6-1.5-0.6-3.1,0.1-4.6l7.8-18.3
	c0.6-1.5,1.8-2.6,3.3-3.2l18.4-7.4c1.5-0.6,3.1-0.6,4.6,0.1l18.3,7.8c1.5,0.6,2.6,1.8,3.2,3.3l7.4,18.4c0.6,1.5,0.6,3.1-0.1,4.6
	l-7.8,18.3c-0.6,1.5-1.8,2.6-3.3,3.2l-18.4,7.4C-285.8-581.1-287.5-581.2-289-581.8z"/>
<text transform="matrix(1 0 0 1 -1256.7478 -83.3245)" style="font-family:'MyriadPro-Regular'; font-size:185.4629px;">S</text>
<polygon class="st3" points="-1302.1,-654.4 -1381.2,-632.6 -1421.6,-561.7 -1399.7,-483.3 -1328.2,-443.2 -1249.2,-464.9 
	-1208.7,-535.8 -1230.7,-614.3 "/>
<polygon class="st3" points="-1327.5,-397.2 -1406.6,-375.4 -1447,-304.5 -1425.1,-226.1 -1353.6,-186 -1274.6,-207.7 
	-1234.2,-278.6 -1256.1,-357.1 "/>
<path class="st4" d="M-1328.1-583.9l-0.6,0L-1339-554l-1.2,3.6c-0.4,1.1-0.4,2.4,0,3.5l10,29.2c0.5,1.5,1.7,2.8,3.2,3.3l1.9,0.7
	l10.3-30l1.4-4.1c0.4-1.1,0.4-2.4,0-3.5l-10-29C-1324.1-582.3-1326-583.8-1328.1-583.9L-1328.1-583.9z M-1257.3-585.9h-21.6
	c-1.2,0-2.3,0.8-2.8,2l-10.1,29.3l-0.8,2.4c-0.6,1.8-0.6,3.7,0,5.4l10.8,31.6c0.4,1.1,1.5,1.9,2.7,1.8c0.3,0,0.6-0.1,1-0.1
	l23.5-68.5c0.3-0.9,0.2-1.9-0.4-2.6C-1255.5-585.5-1256.3-585.9-1257.3-585.9z"/>
<path class="st0" d="M-1327.9-511.6h-21.6c-1.2,0-2.3-0.8-2.8-2l-23.5-68.5c-0.3-0.9-0.2-1.9,0.4-2.6c0.5-0.8,1.4-1.2,2.4-1.2h21.6
	c1.2,0,2.4,0.8,2.8,2l23.5,68.5c0.3,0.9,0.2,1.9-0.4,2.6C-1326.1-512.1-1326.9-511.6-1327.9-511.6z M-1280.8-511.6h-21.6
	c-1.2,0-2.3-0.8-2.8-2l-23.5-68.5c-0.3-0.9-0.2-1.9,0.4-2.6c0.5-0.8,1.4-1.2,2.4-1.2h21.7c1.2,0,2.4,0.8,2.8,2l23.5,68.5
	c0.3,0.9,0.2,1.9-0.4,2.6C-1279-512.1-1279.9-511.6-1280.8-511.6z"/>
<path class="st0" d="M-1309.7-320.9l-49.4-0.2l2.2-12.9c0.1-0.7,0.8-1.2,1.4-1.2l48.2,0.2c0.7,0,1.1,0.5,1,1.2l-2,11.7
	C-1308.4-321.4-1309-320.9-1309.7-320.9z"/>
<path class="st0" d="M-1323.2-247.9l-47.9-0.3c-0.7,0-1.3-0.7-1.2-1.4l2.1-11.4c0.1-0.7,0.8-1.2,1.4-1.2l49.3,0.3l-2.3,12.8
	C-1321.8-248.4-1322.5-247.8-1323.2-247.9z"/>
<path class="st0" d="M-1315.2-284.4l-49.4-0.2c-0.7,0-1.1-0.5-1-1.2l2.2-12.9l49.4,0.2c0.7,0,1.1,0.5,1,1.2L-1315.2-284.4z"/>
<path class="st4" d="M-1342.5-335.2l-9.1,50.6l-12.9,0c-0.7,0-1.1-0.5-1-1.2l8.7-48.2c0.1-0.7,0.8-1.2,1.4-1.2L-1342.5-335.2z"/>
<path class="st4" d="M-1312.9-297.3l-8.7,48.2c-0.1,0.7-0.8,1.2-1.4,1.2l-12.9,0l9.1-50.6l12.9,0
	C-1313.3-298.5-1312.8-297.9-1312.9-297.3z"/>
<rect x="-1672.8" y="-370.9" transform="matrix(0.866 0.5 -0.5 0.866 -397.5064 766.2303)" width="88.5" height="24.5"/>
<rect x="-1736.8" y="-260.1" transform="matrix(0.8632 0.5049 -0.5049 0.8632 -356.6696 820.6008)" width="88.5" height="24.5"/>
<rect x="-1705" y="-315.3" transform="matrix(0.866 0.5 -0.5 0.866 -373.9873 789.7495)" width="88.5" height="24.5"/>
<rect x="-1716.7" y="-359" transform="matrix(0.5011 -0.8654 0.8654 0.5011 -534.3039 -1620.3024)" width="88.5" height="24.5"/>
<rect x="-1693.3" y="-271.6" transform="matrix(0.5011 -0.8654 0.8654 0.5011 -598.2084 -1556.4385)" width="88.5" height="24.5"/>
<polygon points="-1464.7,-193.6 -1554.6,-194.3 -1554.4,-223.6 -1464.6,-223 "/>
<rect x="-1555.3" y="-90.5" transform="matrix(0.9999 1.180499e-02 -1.180499e-02 0.9999 -1.0288 17.8322)" width="88.5" height="24.5"/>
<rect x="-1554.9" y="-154.2" transform="matrix(1 6.174514e-03 -6.174514e-03 1 -0.9051 9.3247)" width="88.5" height="24.5"/>
<polygon points="-1524.6,-223.5 -1525.4,-133.6 -1554.6,-133.8 -1553.8,-223.6 "/>
<rect x="-1523.2" y="-122.1" transform="matrix(7.447877e-03 -1 1 7.447877e-03 -1358.1031 -1587.8572)" width="88.5" height="24.5"/>
<rect x="-1531.9" y="-451.5" width="88.5" height="24.5"/>
<path class="st5" d="M-878.2,78.8l-31.4,73.5c-0.2,0.5-0.6,0.9-1.1,1.1l-74.5,30c-0.5,0.2-1,0.2-1.5,0l-2.2-0.9l-71.8-30.2
	c-0.5-0.2-0.9-0.6-1.1-1.1l-30.1-73.9c-0.2-0.5-0.2-1,0-1.5l31.4-73.5c0.2-0.5,0.6-0.9,1.1-1.1l72.3-29.1l2.3-0.9
	c0.5-0.2,1-0.2,1.5,0l74,31.1c0.5,0.2,0.9,0.6,1.1,1.1l30.1,73.9C-878,77.7-878,78.3-878.2,78.8z"/>
<path class="st3" d="M-884.2,78.8l-31.4,73.5c-0.2,0.5-0.6,0.9-1.1,1.1l-68.4,27.5c-2.4,1-5.2,1-7.6-0.1l-68-28.6
	c-0.5-0.2-0.9-0.6-1.1-1.1l-30.1-73.9c-0.2-0.5-0.2-1,0-1.5l31.4-73.5c0.2-0.5,0.6-0.9,1.1-1.1l68.4-27.5c2.4-1,5.2-1,7.6,0.1
	l68,28.5c0.5,0.2,0.9,0.6,1.1,1.1l30.1,73.9C-884,77.7-884,78.3-884.2,78.8z"/>
<g>
	<path class="st0" d="M-954.6,135.6h-66.9c-0.9,0-1.6-0.7-1.6-1.6v-20.2c0-0.9,0.7-1.6,1.6-1.6h68.4V134
		C-953.1,134.9-953.8,135.6-954.6,135.6z"/>
	<path class="st0" d="M-953.1,88.9h-68.4c-0.9,0-1.6-0.7-1.6-1.6V65.6h68.4c0.9,0,1.6,0.7,1.6,1.6V88.9z"/>
	<path class="st4" d="M-953.1,65.6V134c0,0.9-0.7,1.6-1.6,1.6h-21.8v-70H-953.1z"/>
	<path class="st4" d="M-999.8,18.9v70h-21.8c-0.9,0-1.6-0.7-1.6-1.6V20.5c0-0.9,0.7-1.6,1.6-1.6H-999.8z"/>
	<path class="st0" d="M-954.6,42.2h-68.4V20.5c0-0.9,0.7-1.6,1.6-1.6h66.9c0.9,0,1.6,0.7,1.6,1.6v20.2
		C-953.1,41.5-953.8,42.2-954.6,42.2z"/>
</g>
<text transform="matrix(1 0 0 1 -1145.234 -61.7234)" style="font-family:'HansKendrickBold'; font-size:12px;">Save</text>
<text transform="matrix(0.974 0 0 1 -1145.319 -42.9802)" style="font-family:'AvenirNextLTPro-Bold'; font-size:12.3941px;">save</text>
<text transform="matrix(1 0 0 1 -1119.7234 -61.7234)" style="font-family:'HansKendrickMedium'; font-size:12px;">It</text>
<g>
	
		<text transform="matrix(1.0017 0 0 1 166.0059 -565.0687)" class="st0" style="font-family:'Gilroy-ExtraBold'; font-size:57.5339px; letter-spacing:-1;">Save</text>
	
		<text transform="matrix(1.0017 0 0 1 294.8623 -565.0687)" class="st0" style="font-family:'Gilroy-ExtraBold'; font-size:57.5339px;">it</text>
</g>
<g>
	<path class="st3" d="M-909.4-253.8c-0.8,0-1.5-0.2-2.2-0.5l-19.9-8.5c-1.4-0.6-2.5-1.7-3.1-3.1l-8.1-20.1c-0.6-1.4-0.6-3,0-4.4
		l8.5-19.9c0.6-1.4,1.7-2.5,3.1-3.1l20.1-8.1c1.4-0.6,3-0.6,4.4,0l19.9,8.5c1.4,0.6,2.5,1.7,3.1,3.1l8.1,20.1c0.6,1.4,0.6,3,0,4.4
		l-8.5,19.9c-0.6,1.4-1.7,2.5-3.1,3.1l-20.1,8.1C-907.9-254-908.7-253.8-909.4-253.8z M-908.7-320.8c-0.6,0-1.2,0.1-1.8,0.3
		l-20.1,8.1c-1.2,0.5-2.1,1.4-2.6,2.5l-8.5,19.9c-0.5,1.2-0.5,2.4,0,3.6l8.1,20.1c0.5,1.2,1.4,2.1,2.5,2.6l19.9,8.5
		c1.1,0.5,2.5,0.5,3.6,0l20.1-8.1c1.2-0.5,2.1-1.4,2.6-2.5l8.5-19.9c0.5-1.1,0.5-2.5,0-3.6l-8.1-20.1c-0.5-1.2-1.4-2.1-2.5-2.6
		l-19.9-8.5C-907.5-320.7-908.1-320.8-908.7-320.8z"/>
	<path class="st3" d="M-912.7-254.7l-19.1-8.1c-1.2-0.5-2.2-1.5-2.7-2.7l-7.7-19.2c-0.5-1.2-0.5-2.6,0-3.8l8.1-19.1
		c0.5-1.2,1.5-2.2,2.7-2.7l19.2-7.7c1.2-0.5,2.6-0.5,3.8,0l19.1,8.1c1.2,0.5,2.2,1.5,2.7,2.7l7.7,19.2c0.5,1.2,0.5,2.6,0,3.8
		l-8.1,19.1c-0.5,1.2-1.5,2.2-2.7,2.7l-19.2,7.7C-910.1-254.2-911.5-254.2-912.7-254.7z"/>
	<g>
		<path class="st0" d="M-899.9-267.9h-21.2c-0.3,0-0.5-0.2-0.5-0.5v-6.4c0-0.3,0.2-0.5,0.5-0.5h21.7v6.9
			C-899.4-268.2-899.6-267.9-899.9-267.9z"/>
		<path class="st0" d="M-899.4-282.7h-21.7c-0.3,0-0.5-0.2-0.5-0.5v-6.9h21.7c0.3,0,0.5,0.2,0.5,0.5V-282.7z"/>
		<path class="st4" d="M-899.4-290.1v21.7c0,0.3-0.2,0.5-0.5,0.5h-6.9v-22.2H-899.4z"/>
		<path class="st4" d="M-914.2-304.9v22.2h-6.9c-0.3,0-0.5-0.2-0.5-0.5v-21.2c0-0.3,0.2-0.5,0.5-0.5H-914.2z"/>
		<path class="st0" d="M-899.9-297.5h-21.7v-6.9c0-0.3,0.2-0.5,0.5-0.5h21.2c0.3,0,0.5,0.2,0.5,0.5v6.4
			C-899.4-297.7-899.6-297.5-899.9-297.5z"/>
	</g>
</g>
<g>
	<path class="st6" d="M-931.2-580.2l-19.9-8.5c-1.3-0.5-2.3-1.6-2.8-2.9l-8.1-20.1c-0.5-1.3-0.5-2.7,0-4l8.5-19.9
		c0.5-1.3,1.6-2.3,2.9-2.8l20.1-8.1c1.3-0.5,2.7-0.5,4,0l19.9,8.5c1.3,0.5,2.3,1.6,2.8,2.9l8.1,20.1c0.5,1.3,0.5,2.7,0,4l-8.5,19.9
		c-0.5,1.3-1.6,2.3-2.9,2.8l-20.1,8.1C-928.5-579.7-929.9-579.7-931.2-580.2z"/>
	<path class="st3" d="M-932.5-580.2l-19.1-8.1c-1.2-0.5-2.2-1.5-2.7-2.7l-7.7-19.2c-0.5-1.2-0.5-2.6,0-3.8l8.1-19.1
		c0.5-1.2,1.5-2.2,2.7-2.7l19.2-7.7c1.2-0.5,2.6-0.5,3.8,0l19.1,8.1c1.2,0.5,2.2,1.5,2.7,2.7l7.7,19.2c0.5,1.2,0.5,2.6,0,3.8
		l-8.1,19.1c-0.5,1.2-1.5,2.2-2.7,2.7l-19.2,7.7C-929.9-579.7-931.3-579.7-932.5-580.2z"/>
	<g>
		<path class="st0" d="M-919.7-593.4h-21.2c-0.3,0-0.5-0.2-0.5-0.5v-6.4c0-0.3,0.2-0.5,0.5-0.5h21.7v6.9
			C-919.2-593.6-919.4-593.4-919.7-593.4z"/>
		<path class="st0" d="M-919.2-608.2h-21.7c-0.3,0-0.5-0.2-0.5-0.5v-6.9h21.7c0.3,0,0.5,0.2,0.5,0.5V-608.2z"/>
		<path class="st4" d="M-919.2-615.6v21.7c0,0.3-0.2,0.5-0.5,0.5h-6.9v-22.2H-919.2z"/>
		<path class="st4" d="M-934-630.4v22.2h-6.9c-0.3,0-0.5-0.2-0.5-0.5v-21.2c0-0.3,0.2-0.5,0.5-0.5H-934z"/>
		<path class="st0" d="M-919.7-623h-21.7v-6.9c0-0.3,0.2-0.5,0.5-0.5h21.2c0.3,0,0.5,0.2,0.5,0.5v6.4
			C-919.2-623.2-919.4-623-919.7-623z"/>
	</g>
</g>
<g>
	
		<text transform="matrix(1.0017 0 0 1 -864.1496 -269.7983)" class="st3" style="font-family:'Gilroy-ExtraBold'; font-size:57.5339px; letter-spacing:-1;">Save</text>
	
		<text transform="matrix(1.0017 0 0 1 -735.2932 -269.7983)" class="st3" style="font-family:'Gilroy-ExtraBold'; font-size:57.5339px;">it</text>
</g>
<text transform="matrix(1 0 0 1 -1151.5868 -184.6011)" style="font-family:'MyriadPro-Regular'; font-size:185.4629px;">S</text>
<path class="st5" d="M-1374.3,30.6l-10,23.3c-0.1,0.2-0.2,0.3-0.3,0.3l-23.6,9.5c-0.2,0.1-0.3,0.1-0.5,0l-0.7-0.3l-22.8-9.6
	c-0.2-0.1-0.3-0.2-0.3-0.3l-9.5-23.4c-0.1-0.2-0.1-0.3,0-0.5l10-23.3c0.1-0.2,0.2-0.3,0.3-0.3l22.9-9.2l0.7-0.3
	c0.2-0.1,0.3-0.1,0.5,0l23.5,9.8c0.2,0.1,0.3,0.2,0.3,0.3l9.5,23.4C-1374.2,30.3-1374.2,30.5-1374.3,30.6z"/>
<path class="st3" d="M-1376.2,30.6l-10,23.3c-0.1,0.2-0.2,0.3-0.3,0.3l-21.7,8.7c-0.8,0.3-1.6,0.3-2.4,0l-21.6-9.1
	c-0.2-0.1-0.3-0.2-0.3-0.3l-9.5-23.4c-0.1-0.2-0.1-0.3,0-0.5l10-23.3c0.1-0.2,0.2-0.3,0.3-0.3l21.7-8.7c0.8-0.3,1.6-0.3,2.4,0
	l21.6,9.1c0.2,0.1,0.3,0.2,0.3,0.3l9.5,23.4C-1376.1,30.3-1376.1,30.5-1376.2,30.6z"/>
<g>
	<path class="st0" d="M-1401.6,48.4h-21.2c-0.3,0-0.5-0.2-0.4-0.5l1.1-6.4c0-0.3,0.3-0.5,0.6-0.5h21.7l-1.2,6.9
		C-1401.1,48.2-1401.3,48.4-1401.6,48.4z"/>
	<path class="st0" d="M-1398.5,33.6h-21.7c-0.3,0-0.5-0.2-0.4-0.5l1.2-6.9h21.7c0.3,0,0.5,0.2,0.4,0.5L-1398.5,33.6z"/>
	<path class="st4" d="M-1397.2,26.3l-3.8,21.7c0,0.3-0.3,0.5-0.6,0.5h-6.9l3.9-22.2H-1397.2z"/>
	<path class="st4" d="M-1409.4,11.5l-3.9,22.2h-6.9c-0.3,0-0.5-0.2-0.4-0.5l3.7-21.2c0-0.3,0.3-0.5,0.6-0.5H-1409.4z"/>
	<path class="st0" d="M-1396.4,18.9h-21.7l1.2-6.9c0-0.3,0.3-0.5,0.6-0.5h21.2c0.3,0,0.5,0.2,0.4,0.5l-1.1,6.4
		C-1395.9,18.6-1396.1,18.9-1396.4,18.9z"/>
</g>
<g>
	
		<text transform="matrix(1 0 0 1 -1509.5861 134.672)" class="st3" style="font-family:'Gilroy-ExtraBold'; font-size:71.2125px; letter-spacing:-2;">Save</text>
	<text transform="matrix(1 0 0 1 -1350.3673 134.672)" class="st3" style="font-family:'Gilroy-ExtraBold'; font-size:71.2125px;">it</text>
</g>
<g>
	<text transform="matrix(0.974 0 0 1 -1117.7235 -42.9802)" style="font-family:'AvenirNextLTPro-Regular'; font-size:12.3941px;">It</text>
</g>
<rect x="-890.1" y="-643.9" class="st3" width="12" height="64"/>
<g>
	<path class="st3" d="M-286.6-320.5c-0.8,0-1.5-0.2-2.2-0.5l-19.9-8.5c-1.4-0.6-2.5-1.7-3.1-3.1l-8.1-20.1c-0.6-1.4-0.6-3,0-4.4
		l8.5-19.9c0.6-1.4,1.7-2.5,3.1-3.1l20.1-8.1c1.4-0.6,3-0.6,4.4,0l19.9,8.5c1.4,0.6,2.5,1.7,3.1,3.1l8.1,20.1c0.6,1.4,0.6,3,0,4.4
		l-8.5,19.9c-0.6,1.4-1.7,2.5-3.1,3.1l-20.1,8.1C-285.2-320.7-285.9-320.5-286.6-320.5z M-286-387.5c-0.6,0-1.2,0.1-1.8,0.3
		l-20.1,8.1c-1.2,0.5-2.1,1.4-2.6,2.5l-8.5,19.9c-0.5,1.2-0.5,2.4,0,3.6l8.1,20.1c0.5,1.2,1.4,2.1,2.5,2.6l19.9,8.5
		c1.2,0.5,2.4,0.5,3.6,0l20.1-8.1c1.2-0.5,2.1-1.4,2.6-2.5l8.5-19.9c0.5-1.1,0.5-2.5,0-3.6l-8.1-20.1c-0.5-1.2-1.4-2.1-2.5-2.6
		l-19.9-8.5C-284.7-387.4-285.3-387.5-286-387.5z"/>
	<path class="st3" d="M-290-321.4l-19.1-8.1c-1.2-0.5-2.2-1.5-2.7-2.7l-7.7-19.2c-0.5-1.2-0.5-2.6,0-3.8l8.1-19.1
		c0.5-1.2,1.5-2.2,2.7-2.7l19.2-7.7c1.2-0.5,2.6-0.5,3.8,0l19.1,8.1c1.2,0.5,2.2,1.5,2.7,2.7l7.7,19.2c0.5,1.2,0.5,2.6,0,3.8
		l-8.1,19.1c-0.5,1.2-1.5,2.2-2.7,2.7l-19.2,7.7C-287.4-320.9-288.8-320.9-290-321.4z"/>
	<g>
		<path class="st0" d="M-277.1-334.6h-21.2c-0.3,0-0.5-0.2-0.5-0.5v-6.4c0-0.3,0.2-0.5,0.5-0.5h21.7v6.9
			C-276.6-334.9-276.8-334.6-277.1-334.6z"/>
		<path class="st0" d="M-276.6-349.4h-21.7c-0.3,0-0.5-0.2-0.5-0.5v-6.9h21.7c0.3,0,0.5,0.2,0.5,0.5V-349.4z"/>
		<path class="st4" d="M-276.6-356.8v21.7c0,0.3-0.2,0.5-0.5,0.5h-6.9v-22.2H-276.6z"/>
		<path class="st4" d="M-291.4-371.6v22.2h-6.9c-0.3,0-0.5-0.2-0.5-0.5v-21.2c0-0.3,0.2-0.5,0.5-0.5H-291.4z"/>
		<path class="st0" d="M-277.1-364.2h-21.7v-6.9c0-0.3,0.2-0.5,0.5-0.5h21.2c0.3,0,0.5,0.2,0.5,0.5v6.4
			C-276.6-364.4-276.8-364.2-277.1-364.2z"/>
	</g>
</g>
<g>
	<path class="st3" d="M-116.4-153c-0.8,0-1.5-0.2-2.2-0.5l-19.9-8.5c-1.4-0.6-2.5-1.7-3.1-3.1l-8.1-20.1c-0.6-1.4-0.6-3,0-4.4
		l8.5-19.9c0.6-1.4,1.7-2.5,3.1-3.1l20.1-8.1c1.4-0.6,3-0.6,4.4,0l19.9,8.5c1.4,0.6,2.5,1.7,3.1,3.1l8.1,20.1c0.6,1.4,0.6,3,0,4.4
		l-8.5,19.9c-0.6,1.4-1.7,2.5-3.1,3.1l-20.1,8.1C-115-153.2-115.7-153-116.4-153z M-115.8-220c-0.6,0-1.2,0.1-1.8,0.3l-20.1,8.1
		c-1.2,0.5-2.1,1.4-2.6,2.5l-8.5,19.9c-0.5,1.2-0.5,2.4,0,3.6l8.1,20.1c0.5,1.2,1.4,2.1,2.5,2.6l19.9,8.5c1.2,0.5,2.4,0.5,3.6,0
		l20.1-8.1c1.2-0.5,2.1-1.4,2.6-2.5l8.5-19.9c0.5-1.1,0.5-2.5,0-3.6l-8.1-20.1c-0.5-1.2-1.4-2.1-2.5-2.6l-19.9-8.5
		C-114.5-219.9-115.1-220-115.8-220z"/>
	<path class="st3" d="M-119.8-153.9l-19.1-8.1c-1.2-0.5-2.2-1.5-2.7-2.7l-7.7-19.2c-0.5-1.2-0.5-2.6,0-3.8l8.1-19.1
		c0.5-1.2,1.5-2.2,2.7-2.7l19.2-7.7c1.2-0.5,2.6-0.5,3.8,0l19.1,8.1c1.2,0.5,2.2,1.5,2.7,2.7l7.7,19.2c0.5,1.2,0.5,2.6,0,3.8
		l-8.1,19.1c-0.5,1.2-1.5,2.2-2.7,2.7l-19.2,7.7C-117.2-153.4-118.5-153.4-119.8-153.9z"/>
	<g>
		<path class="st0" d="M-106.9-167.1h-21.2c-0.3,0-0.5-0.2-0.5-0.5v-6.4c0-0.3,0.2-0.5,0.5-0.5h21.7v6.9
			C-106.4-167.4-106.6-167.1-106.9-167.1z"/>
		<path class="st0" d="M-106.4-181.9h-21.7c-0.3,0-0.5-0.2-0.5-0.5v-6.9h21.7c0.3,0,0.5,0.2,0.5,0.5V-181.9z"/>
		<path class="st4" d="M-106.4-189.3v21.7c0,0.3-0.2,0.5-0.5,0.5h-6.9v-22.2H-106.4z"/>
		<path class="st4" d="M-121.2-204.1v22.2h-6.9c-0.3,0-0.5-0.2-0.5-0.5v-21.2c0-0.3,0.2-0.5,0.5-0.5H-121.2z"/>
		<path class="st0" d="M-106.9-196.7h-21.7v-6.9c0-0.3,0.2-0.5,0.5-0.5h21.2c0.3,0,0.5,0.2,0.5,0.5v6.4
			C-106.4-196.9-106.6-196.7-106.9-196.7z"/>
	</g>
</g>
<g>
	
		<text transform="matrix(1.0017 0 0 1 -369.3983 -266.3453)" class="st3" style="font-family:'Gilroy-ExtraBold'; font-size:57.5339px; letter-spacing:-1;">Save</text>
	
		<text transform="matrix(1.0017 0 0 1 -240.5419 -266.3453)" class="st3" style="font-family:'Gilroy-ExtraBold'; font-size:57.5339px;">it</text>
</g>
<path d="M-294.2-126.3c-9.2,0-16.9-2.1-23-6.2c-2.8-1.9-5.2-4-7.3-6.5c-4-4.8-2.7-12.1,2.7-15.3l0.8-0.5c4.2-2.5,9.5-1.7,12.8,1.8
	c3.6,4,8.5,6,14.7,6c8.2,0,12.2-2.5,12.2-7.5c0-2.7-1.3-4.9-3.9-6.4c-2.6-1.5-7.5-3.3-14.8-5.4c-3.8-1.1-7.1-2.3-9.9-3.6
	c-2.8-1.3-5.6-3.1-8.3-5.2c-2.7-2.2-4.8-4.9-6.2-8.1c-1.4-3.3-2.1-7-2.1-11.3c0-8.6,3-15.4,9-20.5c6-5.1,13.1-7.7,21.3-7.7
	c7.4,0,13.9,1.8,19.6,5.4c2.3,1.4,4.4,3.1,6.3,5.1c4.6,4.8,3.6,12.6-2.1,16l0,0c-4.1,2.5-9.3,1.7-12.7-1.7c-0.5-0.5-1-1-1.6-1.4
	c-2.4-1.8-5.6-2.7-9.5-2.7c-3.1,0-5.5,0.7-7.2,2.1c-1.7,1.4-2.5,3-2.5,5c0,2.3,1.1,4.3,3.2,6c2.1,1.7,6.5,3.5,13.1,5.6
	c3.6,1.1,6.4,2.1,8.4,2.8c2,0.7,4.5,1.9,7.5,3.5c3,1.6,5.4,3.4,7,5.2c1.6,1.8,3,4.2,4.3,7.1c1.2,3,1.9,6.3,1.9,10.1
	c0,8.8-3.1,15.8-9.3,20.8C-276.1-128.8-284.2-126.3-294.2-126.3z"/>
<path class="st7" d="M648.4,1439.4c-1.5,0-2.9-0.3-4.3-0.9l-38.1-16.3c-2.7-1.2-4.8-3.3-5.9-6l-15.4-38.4c-1.1-2.7-1.1-5.7,0.1-8.4
	l16.3-38.1c1.1-2.7,3.3-4.8,6-5.9l38.4-15.4c2.7-1.1,5.7-1.1,8.4,0.1l38.1,16.3c2.7,1.1,4.8,3.3,5.9,6l15.4,38.4
	c1.1,2.7,1.1,5.7-0.1,8.4l-16.3,38.1c-1.1,2.7-3.3,4.8-6,5.9l-38.4,15.4C651.1,1439.1,649.7,1439.4,648.4,1439.4z M649.6,1311.2
	c-1.1,0-2.3,0.2-3.4,0.6l-38.4,15.4c-2.2,0.9-4,2.6-4.9,4.8l-16.3,38.1c-0.9,2.2-1,4.7-0.1,6.9l15.4,38.4c0.9,2.2,2.6,4,4.8,4.9
	l38.1,16.3c2.2,0.9,4.7,1,6.9,0.1l38.4-15.4c2.2-0.9,4-2.6,4.9-4.8l16.3-38.1c0.9-2.2,1-4.7,0.1-6.9l-15.4-38.4
	c-0.9-2.2-2.6-4-4.8-4.9l-38.1-16.3C652,1311.4,650.8,1311.2,649.6,1311.2z"/>
<path class="st8" d="M641.9,1437.6l-36.5-15.6c-2.3-1-4.2-2.9-5.1-5.2l-14.8-36.8c-0.9-2.4-0.9-5,0.1-7.3l15.6-36.5
	c1-2.3,2.9-4.2,5.2-5.1l36.8-14.8c2.4-0.9,5-0.9,7.3,0.1l36.5,15.6c2.3,1,4.2,2.9,5.1,5.2L707,1374c0.9,2.4,0.9,5-0.1,7.3
	l-15.6,36.5c-1,2.3-2.9,4.2-5.2,5.1l-36.8,14.8C646.9,1438.7,644.2,1438.6,641.9,1437.6z"/>
<path class="st0" d="M645.9,1411.7c-6.6,0-12.1-1.5-16.6-4.4c-2-1.3-3.7-2.9-5.2-4.7c-2.9-3.5-1.9-8.7,1.9-11l0.6-0.3
	c3-1.8,6.8-1.2,9.2,1.3c2.6,2.9,6.1,4.3,10.6,4.3c5.9,0,8.8-1.8,8.8-5.4c0-2-0.9-3.5-2.8-4.6c-1.9-1.1-5.4-2.4-10.6-3.9
	c-2.7-0.8-5.1-1.6-7.1-2.6c-2-1-4-2.2-6-3.8c-1.9-1.6-3.4-3.5-4.5-5.9c-1-2.3-1.5-5-1.5-8.1c0-6.2,2.1-11.1,6.4-14.8
	c4.3-3.7,9.4-5.5,15.4-5.5c5.3,0,10,1.3,14.1,3.9c1.6,1,3.2,2.3,4.5,3.7c3.3,3.4,2.6,9-1.5,11.5h0c-3,1.8-6.7,1.2-9.1-1.2
	c-0.4-0.4-0.7-0.7-1.1-1c-1.7-1.3-4-2-6.9-2c-2.2,0-3.9,0.5-5.2,1.5c-1.2,1-1.8,2.2-1.8,3.6c0,1.7,0.8,3.1,2.3,4.3
	c1.5,1.2,4.7,2.5,9.4,4c2.6,0.8,4.6,1.5,6,2c1.4,0.5,3.2,1.3,5.4,2.5c2.2,1.2,3.9,2.4,5,3.7c1.1,1.3,2.2,3,3.1,5.1
	c0.9,2.1,1.3,4.6,1.3,7.3c0,6.4-2.2,11.4-6.7,15C658.9,1409.9,653.1,1411.7,645.9,1411.7z"/>
<g>
	<path class="st8" d="M764.9,1414.9c-7.9,0-14.4-1.7-19.7-5.1c-2.4-1.5-4.4-3.3-6.1-5.3c-3.5-4-2.2-10.3,2.4-12.9l0.7-0.4
		c3.5-2,7.9-1.4,10.6,1.6c3.1,3.4,7.3,5.1,12.6,5.1c7,0,10.5-2.1,10.5-6.3c0-2.3-1.1-4.1-3.4-5.3c-2.2-1.3-6.5-2.8-12.6-4.5
		c-3.2-0.9-6.1-1.9-8.5-3s-4.8-2.5-7.1-4.3c-2.3-1.8-4.1-4.1-5.3-6.8c-1.2-2.7-1.8-5.8-1.8-9.4c0-7.1,2.6-12.8,7.7-17.1
		c5.1-4.3,11.2-6.4,18.3-6.4c6.3,0,11.9,1.5,16.8,4.5c1.9,1.1,3.6,2.5,5.1,4c4.1,4,3.2,10.8-1.7,13.6h0c-3.4,2-7.7,1.4-10.4-1.3
		c-0.5-0.5-1-1-1.6-1.4c-2.1-1.5-4.8-2.3-8.2-2.3c-2.6,0-4.7,0.6-6.1,1.7c-1.4,1.1-2.2,2.5-2.2,4.1c0,1.9,0.9,3.6,2.7,5
		c1.8,1.4,5.5,2.9,11.2,4.6c3.1,1,5.5,1.7,7.2,2.3c1.7,0.6,3.8,1.6,6.5,2.9c2.6,1.4,4.6,2.8,6,4.3c1.4,1.5,2.6,3.5,3.6,5.9
		c1.1,2.5,1.6,5.3,1.6,8.4c0,7.3-2.6,13.1-7.9,17.3C780.3,1412.8,773.4,1414.9,764.9,1414.9z"/>
	<path class="st8" d="M842.1,1358.3h12.7c1.1,0,1.9,0.9,1.9,1.9v52.2c0,0.5-0.4,1-1,1h-14.6c-0.5,0-1-0.4-1-1v-4.2
		c-3.9,4.5-9.4,6.7-16.4,6.7c-7.3,0-13.5-2.8-18.6-8.4c-5.1-5.6-7.7-12.5-7.7-20.6c0-8.1,2.6-15,7.7-20.6c5.1-5.6,11.4-8.4,18.6-8.4
		c7.1,0,12.5,2.2,16.4,6.7v-3.2C840.2,1359.2,841.1,1358.3,842.1,1358.3z M817.6,1395.7c2.4,2.4,5.6,3.6,9.5,3.6
		c3.9,0,7.1-1.2,9.5-3.6c2.4-2.4,3.6-5.7,3.6-9.8c0-4.1-1.2-7.4-3.6-9.8s-5.6-3.6-9.5-3.6c-3.9,0-7.1,1.2-9.5,3.6
		c-2.4,2.4-3.6,5.7-3.6,9.8C813.9,1390,815.2,1393.2,817.6,1395.7z"/>
	<path class="st8" d="M902.1,1358.3h14.4c1.3,0,2.1,1.3,1.7,2.4l-19.1,51.3c-0.3,0.8-1,1.3-1.9,1.3h-15.8c-0.8,0-1.5-0.5-1.8-1.2
		l-19.1-51.3c-0.4-1.2,0.4-2.5,1.7-2.5h14.3c0.8,0,1.5,0.5,1.7,1.3l11.1,33.5l11.1-33.5C900.6,1358.8,901.3,1358.3,902.1,1358.3z"/>
	<path class="st8" d="M934.4,1392.5c1.9,5.1,6.3,7.7,13.2,7.7c4,0,7.2-1.1,9.7-3.3c0.6-0.5,1.5-0.6,2.2-0.2l10,5.7
		c1.1,0.6,1.3,2.1,0.5,3c-5.4,6.3-12.9,9.5-22.6,9.5c-9.3,0-16.7-2.8-22.2-8.3c-5.6-5.5-8.3-12.4-8.3-20.8c0-8.3,2.7-15.2,8.2-20.8
		c5.5-5.5,12.5-8.3,21.1-8.3c8,0,14.7,2.8,20,8.3c5.3,5.5,8,12.5,8,20.8c0,2.4-0.2,4.6-0.7,6.6H934.4z M934,1380.1h23.7
		c-1.6-5.8-5.5-8.7-11.7-8.7C939.7,1371.4,935.7,1374.3,934,1380.1z"/>
	<path class="st8" d="M1043.9,1374.2h-10.4v19.5c0,2.2,0.9,3.6,2.6,4.2c1.6,0.5,4.2,0.7,7.7,0.6c0.5,0,1,0.4,1,0.9v13.1
		c0,0.5-0.4,0.9-0.9,1c-10,1-17-0.1-21-3.1c-4-3.1-6.1-8.7-6.1-16.7v-19.5h-7.9c-0.5,0-1-0.4-1-1v-13.9c0-0.5,0.4-1,1-1h7.9v-9.8
		c0-0.4,0.3-0.8,0.7-0.9l13.4-4c1.2-0.4,2.5,0.6,2.5,1.8v12.8h10.4c0.5,0,1,0.4,1,1v14C1044.9,1373.8,1044.4,1374.2,1043.9,1374.2z"
		/>
	<path class="st8" d="M985.2,1336.3h13.8c1.1,0,1.9,0.9,1.9,1.9v73.2c0,1.1-0.9,1.9-1.9,1.9h-13.8c-1.1,0-1.9-0.9-1.9-1.9v-73.2
		C983.3,1337.2,984.2,1336.3,985.2,1336.3z"/>
</g>
<path class="st9" d="M648.4,877.2c-1.5,0-2.9-0.3-4.3-0.9L606,860c-2.7-1.2-4.8-3.3-5.9-6l-15.4-38.4c-1.1-2.7-1.1-5.7,0.1-8.4
	l16.3-38.1c1.1-2.7,3.3-4.8,6-5.9l38.4-15.4c2.7-1.1,5.7-1.1,8.4,0.1l38.1,16.3c2.7,1.1,4.8,3.3,5.9,6l15.4,38.4
	c1.1,2.7,1.1,5.7-0.1,8.4l-16.3,38.1c-1.1,2.7-3.3,4.8-6,5.9l-38.4,15.4C651.1,876.9,649.7,877.2,648.4,877.2z M649.6,748.9
	c-1.1,0-2.3,0.2-3.4,0.6L607.8,765c-2.2,0.9-4,2.6-4.9,4.8l-16.3,38.1c-0.9,2.2-1,4.7-0.1,6.9l15.4,38.4c0.9,2.2,2.6,4,4.8,4.9
	l38.1,16.3c2.2,0.9,4.7,1,6.9,0.1l38.4-15.4c2.2-0.9,4-2.6,4.9-4.8l16.3-38.1c0.9-2.2,1-4.7,0.1-6.9L696,770.9
	c-0.9-2.2-2.6-4-4.8-4.9l-38.1-16.3C652,749.2,650.8,748.9,649.6,748.9z"/>
<path class="st10" d="M641.9,875.4l-36.5-15.6c-2.3-1-4.2-2.9-5.1-5.2l-14.8-36.8c-0.9-2.4-0.9-5,0.1-7.3l15.6-36.5
	c1-2.3,2.9-4.2,5.2-5.1l36.8-14.8c2.4-0.9,5-0.9,7.3,0.1l36.5,15.6c2.3,1,4.2,2.9,5.1,5.2l14.8,36.8c0.9,2.4,0.9,5-0.1,7.3
	l-15.6,36.5c-1,2.3-2.9,4.2-5.2,5.1l-36.8,14.8C646.9,876.5,644.2,876.4,641.9,875.4z"/>
<path class="st0" d="M645.9,849.5c-6.6,0-12.1-1.5-16.6-4.4c-2-1.3-3.7-2.9-5.2-4.7c-2.9-3.5-1.9-8.7,1.9-11l0.6-0.3
	c3-1.8,6.8-1.2,9.2,1.3c2.6,2.9,6.1,4.3,10.6,4.3c5.9,0,8.8-1.8,8.8-5.4c0-2-0.9-3.5-2.8-4.6c-1.9-1.1-5.4-2.4-10.6-3.9
	c-2.7-0.8-5.1-1.6-7.1-2.6c-2-1-4-2.2-6-3.8c-1.9-1.6-3.4-3.5-4.5-5.9c-1-2.3-1.5-5-1.5-8.1c0-6.2,2.1-11.1,6.4-14.8
	c4.3-3.7,9.4-5.5,15.4-5.5c5.3,0,10,1.3,14.1,3.9c1.6,1,3.2,2.3,4.5,3.7c3.3,3.4,2.6,9-1.5,11.5l0,0c-3,1.8-6.7,1.2-9.1-1.2
	c-0.4-0.4-0.7-0.7-1.1-1c-1.7-1.3-4-2-6.9-2c-2.2,0-3.9,0.5-5.2,1.5c-1.2,1-1.8,2.2-1.8,3.6c0,1.7,0.8,3.1,2.3,4.3
	c1.5,1.2,4.7,2.5,9.4,4c2.6,0.8,4.6,1.5,6,2c1.4,0.5,3.2,1.3,5.4,2.5c2.2,1.2,3.9,2.4,5,3.7c1.1,1.3,2.2,3,3.1,5.1
	c0.9,2.1,1.3,4.6,1.3,7.3c0,6.4-2.2,11.4-6.7,15C658.9,847.6,653.1,849.5,645.9,849.5z"/>
<g>
	<path class="st10" d="M764.9,852.7c-7.9,0-14.4-1.7-19.7-5.1c-2.4-1.5-4.4-3.3-6.1-5.3c-3.5-4-2.2-10.3,2.4-12.9l0.7-0.4
		c3.5-2,7.9-1.4,10.6,1.6c3.1,3.4,7.3,5.1,12.6,5.1c7,0,10.5-2.1,10.5-6.3c0-2.3-1.1-4.1-3.4-5.3s-6.5-2.8-12.6-4.5
		c-3.2-0.9-6.1-1.9-8.5-3c-2.4-1.1-4.8-2.5-7.1-4.3c-2.3-1.8-4.1-4.1-5.3-6.8c-1.2-2.7-1.8-5.8-1.8-9.4c0-7.1,2.6-12.8,7.7-17.1
		c5.1-4.3,11.2-6.4,18.3-6.4c6.3,0,11.9,1.5,16.8,4.5c1.9,1.1,3.6,2.5,5.1,4c4.1,4,3.2,10.8-1.7,13.6h0c-3.4,2-7.7,1.4-10.4-1.3
		c-0.5-0.5-1-1-1.6-1.4c-2.1-1.5-4.8-2.3-8.2-2.3c-2.6,0-4.7,0.6-6.1,1.7c-1.4,1.1-2.2,2.5-2.2,4.1c0,1.9,0.9,3.6,2.7,5
		c1.8,1.4,5.5,2.9,11.2,4.6c3.1,1,5.5,1.7,7.2,2.3c1.7,0.6,3.8,1.6,6.5,2.9c2.6,1.4,4.6,2.8,6,4.3c1.4,1.5,2.6,3.5,3.6,5.9
		c1.1,2.5,1.6,5.3,1.6,8.4c0,7.3-2.6,13.1-7.9,17.3C780.3,850.6,773.4,852.7,764.9,852.7z"/>
	<path class="st10" d="M842.1,796.1h12.7c1.1,0,1.9,0.9,1.9,1.9v52.2c0,0.5-0.4,1-1,1h-14.6c-0.5,0-1-0.4-1-1V846
		c-3.9,4.5-9.4,6.7-16.4,6.7c-7.3,0-13.5-2.8-18.6-8.4c-5.1-5.6-7.7-12.5-7.7-20.6c0-8.1,2.6-15,7.7-20.6c5.1-5.6,11.4-8.4,18.6-8.4
		c7.1,0,12.5,2.2,16.4,6.7V798C840.2,797,841.1,796.1,842.1,796.1z M817.6,833.4c2.4,2.4,5.6,3.6,9.5,3.6c3.9,0,7.1-1.2,9.5-3.6
		s3.6-5.7,3.6-9.8c0-4.1-1.2-7.4-3.6-9.8s-5.6-3.6-9.5-3.6c-3.9,0-7.1,1.2-9.5,3.6c-2.4,2.4-3.6,5.7-3.6,9.8
		C813.9,827.8,815.2,831,817.6,833.4z"/>
	<path class="st10" d="M902.1,796.1h14.4c1.3,0,2.1,1.3,1.7,2.4L899,849.9c-0.3,0.8-1,1.3-1.9,1.3h-15.8c-0.8,0-1.5-0.5-1.8-1.2
		l-19.1-51.3c-0.4-1.2,0.4-2.5,1.7-2.5h14.3c0.8,0,1.5,0.5,1.7,1.3l11.1,33.5l11.1-33.5C900.6,796.6,901.3,796.1,902.1,796.1z"/>
	<path class="st10" d="M934.4,830.3c1.9,5.1,6.3,7.7,13.2,7.7c4,0,7.2-1.1,9.7-3.3c0.6-0.5,1.5-0.6,2.2-0.2l10,5.7
		c1.1,0.6,1.3,2.1,0.5,3c-5.4,6.3-12.9,9.5-22.6,9.5c-9.3,0-16.7-2.8-22.2-8.3c-5.6-5.5-8.3-12.4-8.3-20.8c0-8.3,2.7-15.2,8.2-20.8
		c5.5-5.5,12.5-8.3,21.1-8.3c8,0,14.7,2.8,20,8.3c5.3,5.5,8,12.5,8,20.8c0,2.4-0.2,4.6-0.7,6.6H934.4z M934,817.9h23.7
		c-1.6-5.8-5.5-8.7-11.7-8.7C939.7,809.2,935.7,812.1,934,817.9z"/>
	<path class="st10" d="M1043.9,812h-10.4v19.5c0,2.2,0.9,3.6,2.6,4.2c1.6,0.5,4.2,0.7,7.7,0.6c0.5,0,1,0.4,1,0.9v13.1
		c0,0.5-0.4,0.9-0.9,1c-10,1-17-0.1-21-3.1c-4-3.1-6.1-8.7-6.1-16.7V812h-7.9c-0.5,0-1-0.4-1-1v-13.9c0-0.5,0.4-1,1-1h7.9v-9.8
		c0-0.4,0.3-0.8,0.7-0.9l13.4-4c1.2-0.4,2.5,0.6,2.5,1.8v12.8h10.4c0.5,0,1,0.4,1,1v14C1044.9,811.6,1044.4,812,1043.9,812z"/>
	<path class="st10" d="M985.2,774.1h13.8c1.1,0,1.9,0.9,1.9,1.9v73.2c0,1.1-0.9,1.9-1.9,1.9h-13.8c-1.1,0-1.9-0.9-1.9-1.9V776
		C983.3,775,984.2,774.1,985.2,774.1z"/>
</g>
<g>
	<g>
		<path class="st11" d="M648.4,321.1c-1.5,0-2.9-0.3-4.3-0.9L606,303.9c-2.7-1.2-4.8-3.3-5.9-6l-15.4-38.4c-1.1-2.7-1.1-5.7,0.1-8.4
			l16.3-38.1c1.1-2.6,3.3-4.8,6-5.9l38.4-15.4c2.7-1.1,5.7-1.1,8.4,0.1l38.1,16.3c2.7,1.1,4.8,3.3,5.9,6l15.4,38.4
			c1.1,2.7,1.1,5.7-0.1,8.4L696.9,299c-1.1,2.7-3.3,4.8-6,5.9l-38.4,15.4C651.1,320.8,649.7,321.1,648.4,321.1z M649.6,192.9
			c-1.1,0-2.3,0.2-3.4,0.6l-38.4,15.4c-2.2,0.9-4,2.6-4.9,4.8l-16.3,38.1c-0.9,2.2-1,4.7-0.1,6.9l15.4,38.4c0.9,2.2,2.6,4,4.8,4.9
			l38.1,16.3c2.2,0.9,4.7,1,6.9,0.1l38.4-15.4c2.2-0.9,4-2.6,4.9-4.8l16.3-38.1c0.9-2.2,1-4.7,0.1-6.9L696,214.8
			c-0.9-2.2-2.6-4-4.8-4.9l-38.1-16.3C652,193.1,650.8,192.9,649.6,192.9z"/>
		<path class="st11" d="M641.9,319.3l-36.5-15.6c-2.3-1-4.2-2.9-5.1-5.2l-14.8-36.8c-0.9-2.4-0.9-5,0.1-7.3l15.6-36.5
			c1-2.3,2.9-4.2,5.2-5.1l36.8-14.8c2.4-0.9,5-0.9,7.3,0.1l36.5,15.6c2.3,1,4.2,2.9,5.1,5.2l14.8,36.8c0.9,2.4,0.9,5-0.1,7.3
			l-15.6,36.5c-1,2.3-2.9,4.2-5.2,5.1l-36.8,14.8C646.9,320.4,644.2,320.3,641.9,319.3z"/>
		<path class="st0" d="M645.9,293.4c-6.6,0-12.1-1.5-16.6-4.4c-2-1.3-3.7-2.9-5.2-4.7c-2.9-3.5-1.9-8.7,1.9-11l0.6-0.3
			c3-1.8,6.8-1.2,9.2,1.3c2.6,2.9,6.1,4.3,10.6,4.3c5.9,0,8.8-1.8,8.8-5.4c0-2-0.9-3.5-2.8-4.6c-1.9-1.1-5.4-2.4-10.6-3.9
			c-2.7-0.8-5.1-1.6-7.1-2.6c-2-1-4-2.2-6-3.8c-1.9-1.6-3.4-3.5-4.5-5.9c-1-2.3-1.5-5-1.5-8.1c0-6.2,2.1-11.1,6.4-14.8
			c4.3-3.7,9.4-5.5,15.4-5.5c5.3,0,10,1.3,14.1,3.9c1.6,1,3.2,2.3,4.5,3.7c3.3,3.4,2.6,9-1.5,11.5l0,0c-3,1.8-6.7,1.2-9.1-1.2
			c-0.4-0.4-0.7-0.7-1.1-1c-1.7-1.3-4-2-6.9-2c-2.2,0-3.9,0.5-5.2,1.5c-1.2,1-1.8,2.2-1.8,3.6c0,1.7,0.8,3.1,2.3,4.3
			c1.5,1.2,4.7,2.5,9.4,4c2.6,0.8,4.6,1.5,6,2c1.4,0.5,3.2,1.3,5.4,2.5c2.2,1.2,3.9,2.4,5,3.7c1.1,1.3,2.2,3,3.1,5.1
			c0.9,2.1,1.3,4.6,1.3,7.3c0,6.4-2.2,11.4-6.7,15C658.9,291.6,653.1,293.4,645.9,293.4z"/>
	</g>
	<g>
		<path class="st11" d="M764.9,296.6c-7.9,0-14.4-1.7-19.7-5.1c-2.4-1.5-4.4-3.3-6.1-5.3c-3.5-4-2.2-10.3,2.4-12.9l0.7-0.4
			c3.5-2,7.9-1.4,10.6,1.6c3.1,3.4,7.3,5.1,12.6,5.1c7,0,10.5-2.1,10.5-6.3c0-2.3-1.1-4.1-3.4-5.3c-2.2-1.3-6.5-2.8-12.6-4.5
			c-3.2-0.9-6.1-1.9-8.5-3s-4.8-2.5-7.1-4.3c-2.3-1.8-4.1-4.1-5.3-6.8c-1.2-2.7-1.8-5.8-1.8-9.4c0-7.1,2.6-12.8,7.7-17.1
			c5.1-4.3,11.2-6.4,18.3-6.4c6.3,0,11.9,1.5,16.8,4.5c1.9,1.1,3.6,2.5,5.1,4c4.1,4,3.2,10.8-1.7,13.6l0,0c-3.4,2-7.7,1.4-10.4-1.3
			c-0.5-0.5-1-1-1.6-1.4c-2.1-1.5-4.8-2.3-8.2-2.3c-2.6,0-4.7,0.6-6.1,1.7c-1.4,1.1-2.2,2.5-2.2,4.1c0,1.9,0.9,3.6,2.7,5
			c1.8,1.4,5.5,2.9,11.2,4.6c3.1,1,5.5,1.7,7.2,2.3c1.7,0.6,3.8,1.6,6.5,2.9c2.6,1.4,4.6,2.8,6,4.3c1.4,1.5,2.6,3.5,3.6,5.9
			c1.1,2.5,1.6,5.3,1.6,8.4c0,7.3-2.6,13.1-7.9,17.3C780.3,294.5,773.4,296.6,764.9,296.6z"/>
		<path class="st11" d="M842.1,240h12.7c1.1,0,1.9,0.9,1.9,1.9v52.2c0,0.5-0.4,1-1,1h-14.6c-0.5,0-1-0.4-1-1v-4.2
			c-3.9,4.5-9.4,6.7-16.4,6.7c-7.3,0-13.5-2.8-18.6-8.4c-5.1-5.6-7.7-12.5-7.7-20.6c0-8.1,2.6-15,7.7-20.6
			c5.1-5.6,11.4-8.4,18.6-8.4c7.1,0,12.5,2.2,16.4,6.7V242C840.2,240.9,841.1,240,842.1,240z M817.6,277.4c2.4,2.4,5.6,3.6,9.5,3.6
			c3.9,0,7.1-1.2,9.5-3.6s3.6-5.7,3.6-9.8c0-4.1-1.2-7.4-3.6-9.8c-2.4-2.4-5.6-3.6-9.5-3.6c-3.9,0-7.1,1.2-9.5,3.6
			c-2.4,2.4-3.6,5.7-3.6,9.8C813.9,271.7,815.2,274.9,817.6,277.4z"/>
		<path class="st11" d="M902.1,240h14.4c1.3,0,2.1,1.3,1.7,2.4L899,293.8c-0.3,0.8-1,1.3-1.9,1.3h-15.8c-0.8,0-1.5-0.5-1.8-1.2
			l-19.1-51.3c-0.4-1.2,0.4-2.5,1.7-2.5h14.3c0.8,0,1.5,0.5,1.7,1.3l11.1,33.5l11.1-33.5C900.6,240.5,901.3,240,902.1,240z"/>
		<path class="st11" d="M934.4,274.2c1.9,5.1,6.3,7.7,13.2,7.7c4,0,7.2-1.1,9.7-3.3c0.6-0.5,1.5-0.6,2.2-0.2l10,5.7
			c1.1,0.6,1.3,2.1,0.5,3c-5.4,6.3-12.9,9.5-22.6,9.5c-9.3,0-16.7-2.8-22.2-8.3c-5.6-5.5-8.3-12.4-8.3-20.8c0-8.3,2.7-15.2,8.2-20.8
			c5.5-5.5,12.5-8.3,21.1-8.3c8,0,14.7,2.8,20,8.3c5.3,5.5,8,12.5,8,20.8c0,2.4-0.2,4.6-0.7,6.6H934.4z M934,261.8h23.7
			c-1.6-5.8-5.5-8.7-11.7-8.7C939.7,253.1,935.7,256,934,261.8z"/>
		<path class="st11" d="M1043.9,255.9h-10.4v19.5c0,2.2,0.9,3.6,2.6,4.2c1.6,0.5,4.2,0.7,7.7,0.6c0.5,0,1,0.4,1,0.9v13.1
			c0,0.5-0.4,0.9-0.9,1c-10,1-17-0.1-21-3.1c-4-3.1-6.1-8.7-6.1-16.7v-19.5h-7.9c-0.5,0-1-0.4-1-1V241c0-0.5,0.4-1,1-1h7.9v-9.8
			c0-0.4,0.3-0.8,0.7-0.9l13.4-4c1.2-0.4,2.5,0.6,2.5,1.8V240h10.4c0.5,0,1,0.4,1,1v14C1044.9,255.5,1044.4,255.9,1043.9,255.9z"/>
		<path class="st11" d="M985.2,218h13.8c1.1,0,1.9,0.9,1.9,1.9v73.2c0,1.1-0.9,1.9-1.9,1.9h-13.8c-1.1,0-1.9-0.9-1.9-1.9v-73.2
			C983.3,218.9,984.2,218,985.2,218z"/>
	</g>
</g>
<g>
	<g>
		<path class="st3" d="M648.4-222.8c-1.5,0-2.9-0.3-4.3-0.9L606-239.9c-2.7-1.2-4.8-3.3-5.9-6l-15.4-38.4c-1.1-2.7-1.1-5.7,0.1-8.4
			l16.3-38.1c1.1-2.6,3.3-4.8,6-5.9l38.4-15.4c2.7-1.1,5.7-1.1,8.4,0.1l38.1,16.3c2.7,1.1,4.8,3.3,5.9,6l15.4,38.4
			c1.1,2.7,1.1,5.7-0.1,8.4l-16.3,38.1c-1.1,2.7-3.3,4.8-6,5.9l-38.4,15.4C651.1-223,649.7-222.8,648.4-222.8z M649.6-351
			c-1.1,0-2.3,0.2-3.4,0.6l-38.4,15.4c-2.2,0.9-4,2.6-4.9,4.8L586.5-292c-0.9,2.2-1,4.7-0.1,6.9l15.4,38.4c0.9,2.2,2.6,4,4.8,4.9
			l38.1,16.3c2.2,0.9,4.7,1,6.9,0.1l38.4-15.4c2.2-0.9,4-2.6,4.9-4.8l16.3-38.1c0.9-2.2,1-4.7,0.1-6.9L696-329
			c-0.9-2.2-2.6-4-4.8-4.9l-38.1-16.3C652-350.7,650.8-351,649.6-351z"/>
		<path class="st3" d="M641.9-224.5l-36.5-15.6c-2.3-1-4.2-2.9-5.1-5.2l-14.8-36.8c-0.9-2.4-0.9-5,0.1-7.3l15.6-36.5
			c1-2.3,2.9-4.2,5.2-5.1l36.8-14.8c2.4-0.9,5-0.9,7.3,0.1l36.5,15.6c2.3,1,4.2,2.9,5.1,5.2l14.8,36.8c0.9,2.4,0.9,5-0.1,7.3
			l-15.6,36.5c-1,2.3-2.9,4.2-5.2,5.1l-36.8,14.8C646.9-223.5,644.2-223.5,641.9-224.5z"/>
		<path class="st0" d="M645.9-250.4c-6.6,0-12.1-1.5-16.6-4.4c-2-1.3-3.7-2.9-5.2-4.7c-2.9-3.5-1.9-8.7,1.9-11l0.6-0.3
			c3-1.8,6.8-1.2,9.2,1.3c2.6,2.9,6.1,4.3,10.6,4.3c5.9,0,8.8-1.8,8.8-5.4c0-2-0.9-3.5-2.8-4.6c-1.9-1.1-5.4-2.4-10.6-3.9
			c-2.7-0.8-5.1-1.6-7.1-2.6c-2-1-4-2.2-6-3.8c-1.9-1.6-3.4-3.5-4.5-5.9c-1-2.3-1.5-5-1.5-8.1c0-6.2,2.1-11.1,6.4-14.8
			c4.3-3.7,9.4-5.5,15.4-5.5c5.3,0,10,1.3,14.1,3.9c1.6,1,3.2,2.3,4.5,3.7c3.3,3.4,2.6,9-1.5,11.5h0c-3,1.8-6.7,1.2-9.1-1.2
			c-0.4-0.4-0.7-0.7-1.1-1c-1.7-1.3-4-2-6.9-2c-2.2,0-3.9,0.5-5.2,1.5c-1.2,1-1.8,2.2-1.8,3.6c0,1.7,0.8,3.1,2.3,4.3
			c1.5,1.2,4.7,2.5,9.4,4c2.6,0.8,4.6,1.5,6,2c1.4,0.5,3.2,1.3,5.4,2.5c2.2,1.2,3.9,2.4,5,3.7c1.1,1.3,2.2,3,3.1,5.1
			c0.9,2.1,1.3,4.6,1.3,7.3c0,6.4-2.2,11.4-6.7,15C658.9-252.3,653.1-250.4,645.9-250.4z"/>
	</g>
	<g>
		<path class="st3" d="M764.9-247.2c-7.9,0-14.4-1.7-19.7-5.1c-2.4-1.5-4.4-3.3-6.1-5.3c-3.5-4-2.2-10.3,2.4-12.9l0.7-0.4
			c3.5-2,7.9-1.4,10.6,1.6c3.1,3.4,7.3,5.1,12.6,5.1c7,0,10.5-2.1,10.5-6.3c0-2.3-1.1-4.1-3.4-5.3s-6.5-2.8-12.6-4.5
			c-3.2-0.9-6.1-1.9-8.5-3s-4.8-2.5-7.1-4.3c-2.3-1.8-4.1-4.1-5.3-6.8c-1.2-2.7-1.8-5.8-1.8-9.4c0-7.1,2.6-12.8,7.7-17.1
			c5.1-4.3,11.2-6.4,18.3-6.4c6.3,0,11.9,1.5,16.8,4.5c1.9,1.1,3.6,2.5,5.1,4c4.1,4,3.2,10.8-1.7,13.6h0c-3.4,2-7.7,1.4-10.4-1.3
			c-0.5-0.5-1-1-1.6-1.4c-2.1-1.5-4.8-2.3-8.2-2.3c-2.6,0-4.7,0.6-6.1,1.7c-1.4,1.1-2.2,2.5-2.2,4.1c0,1.9,0.9,3.6,2.7,5
			c1.8,1.4,5.5,2.9,11.2,4.6c3.1,1,5.5,1.7,7.2,2.3c1.7,0.6,3.8,1.6,6.5,2.9c2.6,1.4,4.6,2.8,6,4.3c1.4,1.5,2.6,3.5,3.6,5.9
			c1.1,2.5,1.6,5.3,1.6,8.4c0,7.3-2.6,13.1-7.9,17.3C780.3-249.3,773.4-247.2,764.9-247.2z"/>
		<path class="st3" d="M842.1-303.8h12.7c1.1,0,1.9,0.9,1.9,1.9v52.2c0,0.5-0.4,1-1,1h-14.6c-0.5,0-1-0.4-1-1v-4.2
			c-3.9,4.5-9.4,6.7-16.4,6.7c-7.3,0-13.5-2.8-18.6-8.4c-5.1-5.6-7.7-12.5-7.7-20.6c0-8.1,2.6-15,7.7-20.6
			c5.1-5.6,11.4-8.4,18.6-8.4c7.1,0,12.5,2.2,16.4,6.7v-3.2C840.2-302.9,841.1-303.8,842.1-303.8z M817.6-266.5
			c2.4,2.4,5.6,3.6,9.5,3.6c3.9,0,7.1-1.2,9.5-3.6s3.6-5.7,3.6-9.8c0-4.1-1.2-7.4-3.6-9.8s-5.6-3.6-9.5-3.6c-3.9,0-7.1,1.2-9.5,3.6
			c-2.4,2.4-3.6,5.7-3.6,9.8C813.9-272.2,815.2-268.9,817.6-266.5z"/>
		<path class="st3" d="M902.1-303.8h14.4c1.3,0,2.1,1.3,1.7,2.4L899-250c-0.3,0.8-1,1.3-1.9,1.3h-15.8c-0.8,0-1.5-0.5-1.8-1.2
			l-19.1-51.3c-0.4-1.2,0.4-2.5,1.7-2.5h14.3c0.8,0,1.5,0.5,1.7,1.3l11.1,33.5l11.1-33.5C900.6-303.3,901.3-303.8,902.1-303.8z"/>
		<path class="st3" d="M934.4-269.7c1.9,5.1,6.3,7.7,13.2,7.7c4,0,7.2-1.1,9.7-3.3c0.6-0.5,1.5-0.6,2.2-0.2l10,5.7
			c1.1,0.6,1.3,2.1,0.5,3c-5.4,6.3-12.9,9.5-22.6,9.5c-9.3,0-16.7-2.8-22.2-8.3c-5.6-5.5-8.3-12.4-8.3-20.8c0-8.3,2.7-15.2,8.2-20.8
			c5.5-5.5,12.5-8.3,21.1-8.3c8,0,14.7,2.8,20,8.3c5.3,5.5,8,12.5,8,20.8c0,2.4-0.2,4.6-0.7,6.6H934.4z M934-282h23.7
			c-1.6-5.8-5.5-8.7-11.7-8.7C939.7-290.7,935.7-287.8,934-282z"/>
		<path class="st3" d="M1043.9-287.9h-10.4v19.5c0,2.2,0.9,3.6,2.6,4.2c1.6,0.5,4.2,0.7,7.7,0.6c0.5,0,1,0.4,1,0.9v13.1
			c0,0.5-0.4,0.9-0.9,1c-10,1-17-0.1-21-3.1c-4-3.1-6.1-8.7-6.1-16.7v-19.5h-7.9c-0.5,0-1-0.4-1-1v-13.9c0-0.5,0.4-1,1-1h7.9v-9.8
			c0-0.4,0.3-0.8,0.7-0.9l13.4-4c1.2-0.4,2.5,0.6,2.5,1.8v12.8h10.4c0.5,0,1,0.4,1,1v14C1044.9-288.4,1044.4-287.9,1043.9-287.9z"/>
		<path class="st3" d="M985.2-325.8h13.8c1.1,0,1.9,0.9,1.9,1.9v73.2c0,1.1-0.9,1.9-1.9,1.9h-13.8c-1.1,0-1.9-0.9-1.9-1.9v-73.2
			C983.3-325,984.2-325.8,985.2-325.8z"/>
	</g>
</g>
<path class="st12" d="M254.4,1389.4c-1.8,0-3.5-0.4-5.2-1.1l-46-19.7c-3.3-1.4-5.8-4-7.1-7.2l-18.6-46.5c-1.3-3.3-1.3-6.9,0.1-10.1
	l19.7-46c1.4-3.2,4-5.8,7.2-7.1l46.5-18.6c3.3-1.3,6.9-1.3,10.1,0.1l46,19.7c3.3,1.4,5.8,4,7.1,7.2l18.6,46.5
	c1.3,3.3,1.3,6.9-0.1,10.1l-19.7,46c-1.4,3.3-4,5.8-7.2,7.1l-46.5,18.6C257.7,1389,256.1,1389.4,254.4,1389.4z M255.9,1234.4
	c-1.4,0-2.8,0.3-4.1,0.8l-46.5,18.6c-2.7,1.1-4.8,3.2-6,5.8l-19.7,46c-1.1,2.7-1.2,5.7-0.1,8.4l18.6,46.5c1.1,2.7,3.2,4.8,5.8,6
	l46,19.7c2.7,1.1,5.7,1.2,8.4,0.1l46.5-18.6c2.7-1.1,4.8-3.2,6-5.8l19.7-46c1.1-2.6,1.2-5.7,0.1-8.4l-18.6-46.5
	c-1.1-2.7-3.2-4.8-5.8-6l-46-19.7C258.8,1234.6,257.3,1234.4,255.9,1234.4z"/>
<path class="st12" d="M246.6,1387.3l-44.1-18.9c-2.8-1.2-5-3.5-6.2-6.3l-17.9-44.5c-1.1-2.8-1.1-6,0.1-8.9l18.9-44.1
	c1.2-2.8,3.5-5,6.3-6.2l44.5-17.9c2.8-1.1,6-1.1,8.9,0.1l44.1,18.9c2.8,1.2,5,3.5,6.2,6.3l17.9,44.5c1.1,2.8,1.1,6-0.1,8.9
	l-18.9,44.1c-1.2,2.8-3.5,5-6.3,6.2l-44.5,17.9C252.6,1388.5,249.4,1388.5,246.6,1387.3z"/>
<path class="st12" d="M103.6,1516.6c-9.5,0-17.4-2.1-23.8-6.2c-2.8-1.8-5.3-4-7.4-6.4c-4.2-4.9-2.6-12.4,2.9-15.6l0.9-0.5
	c4.2-2.4,9.5-1.7,12.8,1.9c3.8,4.1,8.9,6.1,15.3,6.1c8.4,0,12.7-2.5,12.7-7.6c0-2.7-1.4-4.9-4.1-6.5c-2.7-1.6-7.8-3.4-15.3-5.4
	c-3.9-1.1-7.3-2.3-10.3-3.6c-2.9-1.3-5.8-3.1-8.6-5.3c-2.8-2.2-4.9-4.9-6.4-8.2c-1.5-3.3-2.2-7.1-2.2-11.3c0-8.6,3.1-15.5,9.3-20.6
	c6.2-5.1,13.5-7.7,22.1-7.7c7.6,0,14.4,1.8,20.3,5.4c2.3,1.4,4.3,3,6.2,4.9c4.9,4.8,3.8,13-2.1,16.5h0c-4.1,2.4-9.3,1.8-12.6-1.6
	c-0.6-0.6-1.2-1.2-1.9-1.6c-2.5-1.8-5.8-2.7-9.9-2.7c-3.2,0-5.7,0.7-7.4,2.1c-1.7,1.4-2.6,3-2.6,5c0,2.3,1.1,4.3,3.3,6
	c2.2,1.7,6.7,3.6,13.5,5.6c3.7,1.2,6.6,2.1,8.7,2.8c2,0.7,4.6,1.9,7.8,3.5c3.2,1.6,5.6,3.4,7.2,5.2c1.6,1.8,3.1,4.2,4.4,7.2
	c1.3,3,1.9,6.4,1.9,10.2c0,8.9-3.2,15.9-9.6,21C122.2,1514,113.9,1516.6,103.6,1516.6z"/>
<path class="st12" d="M196.9,1448.2h15.4c1.3,0,2.3,1,2.3,2.3v63.1c0,0.6-0.5,1.2-1.2,1.2h-17.7c-0.6,0-1.2-0.5-1.2-1.2v-5.1
	c-4.7,5.4-11.3,8.1-19.9,8.1c-8.8,0-16.3-3.4-22.5-10.2c-6.2-6.8-9.3-15.1-9.3-25c0-9.8,3.1-18.2,9.3-25
	c6.2-6.8,13.7-10.2,22.5-10.2c8.5,0,15.2,2.7,19.9,8.1v-3.9C194.6,1449.2,195.7,1448.2,196.9,1448.2z M167.3,1493.3
	c2.9,2.9,6.8,4.4,11.5,4.4c4.7,0,8.5-1.5,11.5-4.4c2.9-2.9,4.4-6.9,4.4-11.8c0-5-1.5-8.9-4.4-11.8c-2.9-2.9-6.8-4.4-11.5-4.4
	c-4.7,0-8.5,1.5-11.5,4.4c-2.9,2.9-4.4,6.9-4.4,11.8C162.9,1486.4,164.4,1490.3,167.3,1493.3z"/>
<path class="st12" d="M271.2,1448.2h12.1c3.2,0,5.5,3.2,4.3,6.2l-21.3,57.1c-0.7,1.9-2.5,3.2-4.6,3.2h-15.7c-2,0-3.8-1.2-4.5-3.1
	l-21.3-57.2c-1.1-3.1,1.1-6.3,4.4-6.3h12c2,0,3.8,1.3,4.4,3.2l12.8,38.8l12.8-38.8C267.4,1449.4,269.2,1448.2,271.2,1448.2z"/>
<path class="st12" d="M308.5,1489.4c2.3,6.2,7.6,9.3,16,9.3c4.8,0,8.7-1.3,11.7-4c0.7-0.6,1.8-0.7,2.6-0.2l12.1,6.9
	c1.3,0.7,1.6,2.5,0.6,3.6c-6.5,7.6-15.6,11.4-27.3,11.4c-11.2,0-20.2-3.3-26.9-10c-6.7-6.7-10.1-15-10.1-25.2
	c0-10,3.3-18.4,9.9-25.1c6.6-6.7,15.1-10,25.5-10c9.7,0,17.8,3.4,24.2,10c6.4,6.7,9.7,15.1,9.7,25.1c0,2.8-0.3,5.5-0.8,8H308.5z
	 M308.1,1474.5h28.7c-2-7-6.7-10.5-14.1-10.5C314.9,1464,310,1467.5,308.1,1474.5z"/>
<path class="st12" d="M440.9,1467.3h-12.6v23.6c0,2.7,1.1,4.3,3.2,5.1c2,0.7,5.1,0.9,9.3,0.7c0.7,0,1.2,0.5,1.2,1.1l0,15.9
	c0,0.6-0.5,1.1-1.1,1.2c-12.1,1.2-20.6-0.1-25.3-3.8c-4.9-3.8-7.3-10.5-7.3-20.2v-23.6h-9.5c-0.6,0-1.2-0.5-1.2-1.2v-16.9
	c0-0.6,0.5-1.2,1.2-1.2h9.5v-11.8c0-0.5,0.3-1,0.8-1.1l16.2-4.8c1.5-0.4,3,0.7,3,2.2v15.5h12.6c0.6,0,1.1,0.5,1.1,1.1v16.9
	C442.1,1466.8,441.6,1467.3,440.9,1467.3z"/>
<path class="st0" d="M251.5,1355.9c-8,0-14.7-1.8-20-5.4c-2.4-1.6-4.5-3.5-6.3-5.6c-3.5-4.2-2.3-10.5,2.3-13.3l0.7-0.4
	c3.6-2.2,8.3-1.5,11.1,1.6c3.2,3.5,7.4,5.2,12.8,5.2c7.1,0,10.7-2.2,10.7-6.6c0-2.4-1.1-4.2-3.4-5.6c-2.3-1.3-6.6-2.9-12.8-4.7
	c-3.3-0.9-6.2-2-8.6-3.1c-2.5-1.2-4.9-2.7-7.2-4.5c-2.4-1.9-4.2-4.2-5.4-7.1c-1.2-2.8-1.9-6.1-1.9-9.8c0-7.4,2.6-13.4,7.8-17.9
	c5.2-4.5,11.4-6.7,18.6-6.7c6.4,0,12.1,1.6,17.1,4.7c2,1.3,3.8,2.7,5.5,4.4c4,4.1,3.1,10.9-1.8,13.9l0,0c-3.6,2.1-8.1,1.5-11-1.5
	c-0.4-0.4-0.9-0.8-1.4-1.2c-2.1-1.6-4.9-2.4-8.3-2.4c-2.7,0-4.8,0.6-6.2,1.8c-1.5,1.2-2.2,2.6-2.2,4.3c0,2,0.9,3.7,2.7,5.2
	c1.8,1.5,5.6,3.1,11.4,4.8c3.1,1,5.6,1.8,7.3,2.4c1.7,0.6,3.9,1.6,6.6,3.1c2.7,1.4,4.7,2.9,6.1,4.5c1.4,1.6,2.6,3.6,3.7,6.2
	c1.1,2.6,1.6,5.5,1.6,8.8c0,7.7-2.7,13.7-8.1,18.1C267.2,1353.7,260.2,1355.9,251.5,1355.9z"/>
<path class="st12" d="M370,1421.5h16.7c1.3,0,2.3,1,2.3,2.3v88.5c0,1.3-1,2.3-2.3,2.3H370c-1.3,0-2.3-1-2.3-2.3v-88.5
	C367.7,1422.6,368.7,1421.5,370,1421.5z"/>
<path class="st9" d="M254.4,827.1c-1.8,0-3.5-0.4-5.2-1.1l-46-19.7c-3.3-1.4-5.8-4-7.1-7.2l-18.6-46.5c-1.3-3.3-1.3-6.9,0.1-10.1
	l19.7-46c1.4-3.2,4-5.8,7.2-7.1l46.5-18.6c3.3-1.3,6.9-1.3,10.1,0.1l46,19.7c3.3,1.4,5.8,4,7.1,7.2l18.6,46.5
	c1.3,3.3,1.3,6.9-0.1,10.1l-19.7,46c-1.4,3.3-4,5.8-7.2,7.1l-46.5,18.6C257.7,826.8,256.1,827.1,254.4,827.1z M255.9,672.1
	c-1.4,0-2.8,0.3-4.1,0.8l-46.5,18.6c-2.7,1.1-4.8,3.2-6,5.8l-19.7,46c-1.1,2.7-1.2,5.7-0.1,8.4l18.6,46.5c1.1,2.7,3.2,4.8,5.8,6
	l46,19.7c2.7,1.1,5.7,1.2,8.4,0.1l46.5-18.6c2.7-1.1,4.8-3.2,6-5.8l19.7-46c1.1-2.6,1.2-5.7,0.1-8.4l-18.6-46.5
	c-1.1-2.7-3.2-4.8-5.8-6l-46-19.7C258.8,672.4,257.3,672.1,255.9,672.1z"/>
<path class="st10" d="M246.6,825.1l-44.1-18.9c-2.8-1.2-5-3.5-6.2-6.3l-17.9-44.5c-1.1-2.8-1.1-6,0.1-8.9l18.9-44.1
	c1.2-2.8,3.5-5,6.3-6.2l44.5-17.9c2.8-1.1,6-1.1,8.9,0.1l44.1,18.9c2.8,1.2,5,3.5,6.2,6.3l17.9,44.5c1.1,2.8,1.1,6-0.1,8.9
	l-18.9,44.1c-1.2,2.8-3.5,5-6.3,6.2l-44.5,17.9C252.6,826.3,249.4,826.3,246.6,825.1z"/>
<path class="st10" d="M103.6,954.4c-9.5,0-17.4-2.1-23.8-6.2c-2.8-1.8-5.3-4-7.4-6.4c-4.2-4.9-2.6-12.4,2.9-15.6l0.9-0.5
	c4.2-2.4,9.5-1.7,12.8,1.9c3.8,4.1,8.9,6.1,15.3,6.1c8.4,0,12.7-2.5,12.7-7.6c0-2.7-1.4-4.9-4.1-6.5c-2.7-1.6-7.8-3.4-15.3-5.4
	c-3.9-1.1-7.3-2.3-10.3-3.6c-2.9-1.3-5.8-3.1-8.6-5.3c-2.8-2.2-4.9-4.9-6.4-8.2c-1.5-3.3-2.2-7.1-2.2-11.3c0-8.6,3.1-15.5,9.3-20.6
	c6.2-5.1,13.5-7.7,22.1-7.7c7.6,0,14.4,1.8,20.3,5.4c2.3,1.4,4.3,3,6.2,4.9c4.9,4.8,3.8,13-2.1,16.5h0c-4.1,2.4-9.3,1.8-12.6-1.6
	c-0.6-0.6-1.2-1.2-1.9-1.6c-2.5-1.8-5.8-2.7-9.9-2.7c-3.2,0-5.7,0.7-7.4,2.1c-1.7,1.4-2.6,3-2.6,5c0,2.3,1.1,4.3,3.3,6
	c2.2,1.7,6.7,3.6,13.5,5.6c3.7,1.2,6.6,2.1,8.7,2.8c2,0.7,4.6,1.9,7.8,3.5c3.2,1.6,5.6,3.4,7.2,5.2c1.6,1.8,3.1,4.2,4.4,7.2
	c1.3,3,1.9,6.4,1.9,10.2c0,8.9-3.2,15.9-9.6,21C122.2,951.8,113.9,954.4,103.6,954.4z"/>
<path class="st10" d="M196.9,885.9h15.4c1.3,0,2.3,1,2.3,2.3v63.1c0,0.6-0.5,1.2-1.2,1.2h-17.7c-0.6,0-1.2-0.5-1.2-1.2v-5.1
	c-4.7,5.4-11.3,8.1-19.9,8.1c-8.8,0-16.3-3.4-22.5-10.2c-6.2-6.8-9.3-15.1-9.3-25c0-9.8,3.1-18.2,9.3-25
	c6.2-6.8,13.7-10.2,22.5-10.2c8.5,0,15.2,2.7,19.9,8.1v-3.9C194.6,887,195.7,885.9,196.9,885.9z M167.3,931.1
	c2.9,2.9,6.8,4.4,11.5,4.4c4.7,0,8.5-1.5,11.5-4.4c2.9-2.9,4.4-6.9,4.4-11.8c0-5-1.5-8.9-4.4-11.8s-6.8-4.4-11.5-4.4
	c-4.7,0-8.5,1.5-11.5,4.4c-2.9,2.9-4.4,6.9-4.4,11.8C162.9,924.2,164.4,928.1,167.3,931.1z"/>
<path class="st10" d="M271.2,885.9h12.1c3.2,0,5.5,3.2,4.3,6.2l-21.3,57.1c-0.7,1.9-2.5,3.2-4.6,3.2h-15.7c-2,0-3.8-1.2-4.5-3.1
	l-21.3-57.2c-1.1-3.1,1.1-6.3,4.4-6.3h12c2,0,3.8,1.3,4.4,3.2l12.8,38.8l12.8-38.8C267.4,887.2,269.2,885.9,271.2,885.9z"/>
<path class="st10" d="M308.5,927.2c2.3,6.2,7.6,9.3,16,9.3c4.8,0,8.7-1.3,11.7-4c0.7-0.6,1.8-0.7,2.6-0.2l12.1,6.9
	c1.3,0.7,1.6,2.5,0.6,3.6c-6.5,7.6-15.6,11.4-27.3,11.4c-11.2,0-20.2-3.3-26.9-10c-6.7-6.7-10.1-15-10.1-25.2
	c0-10,3.3-18.4,9.9-25.1c6.6-6.7,15.1-10,25.5-10c9.7,0,17.8,3.4,24.2,10c6.4,6.7,9.7,15.1,9.7,25.1c0,2.8-0.3,5.5-0.8,8H308.5z
	 M308.1,912.3h28.7c-2-7-6.7-10.5-14.1-10.5C314.9,901.8,310,905.3,308.1,912.3z"/>
<path class="st10" d="M440.9,905.1h-12.6v23.6c0,2.7,1.1,4.3,3.2,5.1c2,0.7,5.1,0.9,9.3,0.7c0.7,0,1.2,0.5,1.2,1.1l0,15.9
	c0,0.6-0.5,1.1-1.1,1.2c-12.1,1.2-20.6-0.1-25.3-3.8c-4.9-3.8-7.3-10.5-7.3-20.2v-23.6h-9.5c-0.6,0-1.2-0.5-1.2-1.2v-16.9
	c0-0.6,0.5-1.2,1.2-1.2h9.5v-11.8c0-0.5,0.3-1,0.8-1.1l16.2-4.8c1.5-0.4,3,0.7,3,2.2v15.5h12.6c0.6,0,1.1,0.5,1.1,1.1V904
	C442.1,904.6,441.6,905.1,440.9,905.1z"/>
<path class="st0" d="M251.5,793.7c-8,0-14.7-1.8-20-5.4c-2.4-1.6-4.5-3.5-6.3-5.6c-3.5-4.2-2.3-10.5,2.3-13.3l0.7-0.4
	c3.6-2.2,8.3-1.5,11.1,1.6c3.2,3.5,7.4,5.2,12.8,5.2c7.1,0,10.7-2.2,10.7-6.6c0-2.4-1.1-4.2-3.4-5.6c-2.3-1.3-6.6-2.9-12.8-4.7
	c-3.3-0.9-6.2-2-8.6-3.1c-2.5-1.2-4.9-2.7-7.2-4.5c-2.4-1.9-4.2-4.2-5.4-7.1c-1.2-2.8-1.9-6.1-1.9-9.8c0-7.4,2.6-13.4,7.8-17.9
	c5.2-4.5,11.4-6.7,18.6-6.7c6.4,0,12.1,1.6,17.1,4.7c2,1.3,3.8,2.7,5.5,4.4c4,4.1,3.1,10.9-1.8,13.9l0,0c-3.6,2.1-8.1,1.5-11-1.5
	c-0.4-0.4-0.9-0.8-1.4-1.2c-2.1-1.6-4.9-2.4-8.3-2.4c-2.7,0-4.8,0.6-6.2,1.8c-1.5,1.2-2.2,2.6-2.2,4.3c0,2,0.9,3.7,2.7,5.2
	c1.8,1.5,5.6,3.1,11.4,4.8c3.1,1,5.6,1.8,7.3,2.4c1.7,0.6,3.9,1.6,6.6,3.1c2.7,1.4,4.7,2.9,6.1,4.5c1.4,1.6,2.6,3.6,3.7,6.2
	c1.1,2.6,1.6,5.5,1.6,8.8c0,7.7-2.7,13.7-8.1,18.1C267.2,791.5,260.2,793.7,251.5,793.7z"/>
<path class="st10" d="M370,859.3h16.7c1.3,0,2.3,1,2.3,2.3v88.5c0,1.3-1,2.3-2.3,2.3H370c-1.3,0-2.3-1-2.3-2.3v-88.5
	C367.7,860.4,368.7,859.3,370,859.3z"/>
<g>
	<path class="st11" d="M254.4,271.1c-1.8,0-3.5-0.4-5.2-1.1l-46-19.7c-3.3-1.4-5.8-4-7.1-7.2l-18.6-46.5c-1.3-3.3-1.3-6.9,0.1-10.1
		l19.7-46c1.4-3.2,4-5.8,7.2-7.1l46.5-18.6c3.3-1.3,6.9-1.3,10.1,0.1l46,19.7c3.3,1.4,5.8,4,7.1,7.2l18.6,46.5
		c1.3,3.3,1.3,6.9-0.1,10.1l-19.7,46c-1.4,3.3-4,5.8-7.2,7.1l-46.5,18.6C257.7,270.7,256.1,271.1,254.4,271.1z M255.9,116.1
		c-1.4,0-2.8,0.3-4.1,0.8l-46.5,18.6c-2.7,1.1-4.8,3.2-6,5.8l-19.7,46c-1.1,2.7-1.2,5.7-0.1,8.4l18.6,46.5c1.1,2.7,3.2,4.8,5.8,6
		l46,19.7c2.7,1.1,5.7,1.2,8.4,0.1l46.5-18.6c2.7-1.1,4.8-3.2,6-5.8l19.7-46c1.1-2.6,1.2-5.7,0.1-8.4l-18.6-46.5
		c-1.1-2.7-3.2-4.8-5.8-6l-46-19.7C258.8,116.3,257.3,116.1,255.9,116.1z"/>
	<path class="st11" d="M246.6,269l-44.1-18.9c-2.8-1.2-5-3.5-6.2-6.3l-17.9-44.5c-1.1-2.8-1.1-6,0.1-8.9l18.9-44.1
		c1.2-2.8,3.5-5,6.3-6.2l44.5-17.9c2.8-1.1,6-1.1,8.9,0.1l44.1,18.9c2.8,1.2,5,3.5,6.2,6.3l17.9,44.5c1.1,2.8,1.1,6-0.1,8.9
		L306.3,245c-1.2,2.8-3.5,5-6.3,6.2l-44.5,17.9C252.6,270.2,249.4,270.2,246.6,269z"/>
	<path class="st11" d="M103.6,398.3c-9.5,0-17.4-2.1-23.8-6.2c-2.8-1.8-5.3-4-7.4-6.4c-4.2-4.9-2.6-12.4,2.9-15.6l0.9-0.5
		c4.2-2.4,9.5-1.7,12.8,1.9c3.8,4.1,8.9,6.1,15.3,6.1c8.4,0,12.7-2.5,12.7-7.6c0-2.7-1.4-4.9-4.1-6.5c-2.7-1.6-7.8-3.4-15.3-5.4
		c-3.9-1.1-7.3-2.3-10.3-3.6c-2.9-1.3-5.8-3.1-8.6-5.3c-2.8-2.2-4.9-4.9-6.4-8.2c-1.5-3.3-2.2-7.1-2.2-11.3c0-8.6,3.1-15.5,9.3-20.6
		c6.2-5.1,13.5-7.7,22.1-7.7c7.6,0,14.4,1.8,20.3,5.4c2.3,1.4,4.3,3,6.2,4.9c4.9,4.8,3.8,13-2.1,16.5h0c-4.1,2.4-9.3,1.8-12.6-1.6
		c-0.6-0.6-1.2-1.2-1.9-1.6c-2.5-1.8-5.8-2.7-9.9-2.7c-3.2,0-5.7,0.7-7.4,2.1c-1.7,1.4-2.6,3-2.6,5c0,2.3,1.1,4.3,3.3,6
		c2.2,1.7,6.7,3.6,13.5,5.6c3.7,1.2,6.6,2.1,8.7,2.8c2,0.7,4.6,1.9,7.8,3.5c3.2,1.6,5.6,3.4,7.2,5.2c1.6,1.8,3.1,4.2,4.4,7.2
		c1.3,3,1.9,6.4,1.9,10.2c0,8.9-3.2,15.9-9.6,21C122.2,395.7,113.9,398.3,103.6,398.3z"/>
	<path class="st11" d="M196.9,329.9h15.4c1.3,0,2.3,1,2.3,2.3v63.1c0,0.6-0.5,1.2-1.2,1.2h-17.7c-0.6,0-1.2-0.5-1.2-1.2v-5.1
		c-4.7,5.4-11.3,8.1-19.9,8.1c-8.8,0-16.3-3.4-22.5-10.2c-6.2-6.8-9.3-15.1-9.3-25c0-9.8,3.1-18.2,9.3-25
		c6.2-6.8,13.7-10.2,22.5-10.2c8.5,0,15.2,2.7,19.9,8.1v-3.9C194.6,330.9,195.7,329.9,196.9,329.9z M167.3,375
		c2.9,2.9,6.8,4.4,11.5,4.4c4.7,0,8.5-1.5,11.5-4.4s4.4-6.9,4.4-11.8c0-5-1.5-8.9-4.4-11.8c-2.9-2.9-6.8-4.4-11.5-4.4
		c-4.7,0-8.5,1.5-11.5,4.4c-2.9,2.9-4.4,6.9-4.4,11.8C162.9,368.1,164.4,372,167.3,375z"/>
	<path class="st11" d="M271.2,329.9h12.1c3.2,0,5.5,3.2,4.3,6.2l-21.3,57.1c-0.7,1.9-2.5,3.2-4.6,3.2h-15.7c-2,0-3.8-1.2-4.5-3.1
		l-21.3-57.2c-1.1-3.1,1.1-6.3,4.4-6.3h12c2,0,3.8,1.3,4.4,3.2l12.8,38.8l12.8-38.8C267.4,331.1,269.2,329.9,271.2,329.9z"/>
	<path class="st11" d="M308.5,371.1c2.3,6.2,7.6,9.3,16,9.3c4.8,0,8.7-1.3,11.7-4c0.7-0.6,1.8-0.7,2.6-0.2l12.1,6.9
		c1.3,0.7,1.6,2.5,0.6,3.6c-6.5,7.6-15.6,11.4-27.3,11.4c-11.2,0-20.2-3.3-26.9-10c-6.7-6.7-10.1-15-10.1-25.2
		c0-10,3.3-18.4,9.9-25.1c6.6-6.7,15.1-10,25.5-10c9.7,0,17.8,3.4,24.2,10c6.4,6.7,9.7,15.1,9.7,25.1c0,2.8-0.3,5.5-0.8,8H308.5z
		 M308.1,356.2h28.7c-2-7-6.7-10.5-14.1-10.5C314.9,345.7,310,349.2,308.1,356.2z"/>
	<path class="st11" d="M440.9,349h-12.6v23.6c0,2.7,1.1,4.3,3.2,5.1c2,0.7,5.1,0.9,9.3,0.7c0.7,0,1.2,0.5,1.2,1.1l0,15.9
		c0,0.6-0.5,1.1-1.1,1.2c-12.1,1.2-20.6-0.1-25.3-3.8c-4.9-3.8-7.3-10.5-7.3-20.2V349h-9.5c-0.6,0-1.2-0.5-1.2-1.2V331
		c0-0.6,0.5-1.2,1.2-1.2h9.5v-11.8c0-0.5,0.3-1,0.8-1.1l16.2-4.8c1.5-0.4,3,0.7,3,2.2v15.5h12.6c0.6,0,1.1,0.5,1.1,1.1v16.9
		C442.1,348.5,441.6,349,440.9,349z"/>
	<path class="st0" d="M251.5,237.6c-8,0-14.7-1.8-20-5.4c-2.4-1.6-4.5-3.5-6.3-5.6c-3.5-4.2-2.3-10.5,2.3-13.3l0.7-0.4
		c3.6-2.2,8.3-1.5,11.1,1.6c3.2,3.5,7.4,5.2,12.8,5.2c7.1,0,10.7-2.2,10.7-6.6c0-2.4-1.1-4.2-3.4-5.6c-2.3-1.3-6.6-2.9-12.8-4.7
		c-3.3-0.9-6.2-2-8.6-3.1c-2.5-1.2-4.9-2.7-7.2-4.5c-2.4-1.9-4.2-4.2-5.4-7.1c-1.2-2.8-1.9-6.1-1.9-9.8c0-7.4,2.6-13.4,7.8-17.9
		c5.2-4.5,11.4-6.7,18.6-6.7c6.4,0,12.1,1.6,17.1,4.7c2,1.3,3.8,2.7,5.5,4.4c4,4.1,3.1,10.9-1.8,13.9v0c-3.6,2.1-8.1,1.5-11-1.5
		c-0.4-0.4-0.9-0.8-1.4-1.2c-2.1-1.6-4.9-2.4-8.3-2.4c-2.7,0-4.8,0.6-6.2,1.8c-1.5,1.2-2.2,2.6-2.2,4.3c0,2,0.9,3.7,2.7,5.2
		c1.8,1.5,5.6,3.1,11.4,4.8c3.1,1,5.6,1.8,7.3,2.4c1.7,0.6,3.9,1.6,6.6,3.1c2.7,1.4,4.7,2.9,6.1,4.5c1.4,1.6,2.6,3.6,3.7,6.2
		c1.1,2.6,1.6,5.5,1.6,8.8c0,7.7-2.7,13.7-8.1,18.1C267.2,235.4,260.2,237.6,251.5,237.6z"/>
	<path class="st11" d="M370,303.2h16.7c1.3,0,2.3,1,2.3,2.3v88.5c0,1.3-1,2.3-2.3,2.3H370c-1.3,0-2.3-1-2.3-2.3v-88.5
		C367.7,304.3,368.7,303.2,370,303.2z"/>
</g>
<g>
	<path class="st3" d="M254.4-272.8c-1.8,0-3.5-0.4-5.2-1.1l-46-19.7c-3.3-1.4-5.8-4-7.1-7.2l-18.6-46.5c-1.3-3.3-1.3-6.9,0.1-10.1
		l19.7-46c1.4-3.2,4-5.8,7.2-7.1l46.5-18.6c3.3-1.3,6.9-1.3,10.1,0.1l46,19.7c3.3,1.4,5.8,4,7.1,7.2l18.6,46.5
		c1.3,3.3,1.3,6.9-0.1,10.1l-19.7,46c-1.4,3.3-4,5.8-7.2,7.1l-46.5,18.6C257.7-273.1,256.1-272.8,254.4-272.8z M255.9-427.8
		c-1.4,0-2.8,0.3-4.1,0.8l-46.5,18.6c-2.7,1.1-4.8,3.2-6,5.8l-19.7,46c-1.1,2.7-1.2,5.7-0.1,8.4l18.6,46.5c1.1,2.7,3.2,4.8,5.8,6
		l46,19.7c2.7,1.1,5.7,1.2,8.4,0.1l46.5-18.6c2.7-1.1,4.8-3.2,6-5.8l19.7-46c1.1-2.6,1.2-5.7,0.1-8.4l-18.6-46.5
		c-1.1-2.7-3.2-4.8-5.8-6l-46-19.7C258.8-427.5,257.3-427.8,255.9-427.8z"/>
	<path class="st3" d="M246.6-274.9l-44.1-18.9c-2.8-1.2-5-3.5-6.2-6.3l-17.9-44.5c-1.1-2.8-1.1-6,0.1-8.9l18.9-44.1
		c1.2-2.8,3.5-5,6.3-6.2l44.5-17.9c2.8-1.1,6-1.1,8.9,0.1l44.1,18.9c2.8,1.2,5,3.5,6.2,6.3l17.9,44.5c1.1,2.8,1.1,6-0.1,8.9
		l-18.9,44.1c-1.2,2.8-3.5,5-6.3,6.2l-44.5,17.9C252.6-273.6,249.4-273.7,246.6-274.9z"/>
	<path class="st3" d="M103.6-145.6c-9.5,0-17.4-2.1-23.8-6.2c-2.8-1.8-5.3-4-7.4-6.4c-4.2-4.9-2.6-12.4,2.9-15.6l0.9-0.5
		c4.2-2.4,9.5-1.7,12.8,1.9c3.8,4.1,8.9,6.1,15.3,6.1c8.4,0,12.7-2.5,12.7-7.6c0-2.7-1.4-4.9-4.1-6.5c-2.7-1.6-7.8-3.4-15.3-5.4
		c-3.9-1.1-7.3-2.3-10.3-3.6c-2.9-1.3-5.8-3.1-8.6-5.3c-2.8-2.2-4.9-4.9-6.4-8.2c-1.5-3.3-2.2-7.1-2.2-11.3c0-8.6,3.1-15.5,9.3-20.6
		c6.2-5.1,13.5-7.7,22.1-7.7c7.6,0,14.4,1.8,20.3,5.4c2.3,1.4,4.3,3,6.2,4.9c4.9,4.8,3.8,13-2.1,16.5h0c-4.1,2.4-9.3,1.8-12.6-1.6
		c-0.6-0.6-1.2-1.2-1.9-1.6c-2.5-1.8-5.8-2.7-9.9-2.7c-3.2,0-5.7,0.7-7.4,2.1c-1.7,1.4-2.6,3-2.6,5c0,2.3,1.1,4.3,3.3,6
		c2.2,1.7,6.7,3.6,13.5,5.6c3.7,1.2,6.6,2.1,8.7,2.8c2,0.7,4.6,1.9,7.8,3.5c3.2,1.6,5.6,3.4,7.2,5.2c1.6,1.8,3.1,4.2,4.4,7.2
		c1.3,3,1.9,6.4,1.9,10.2c0,8.9-3.2,15.9-9.6,21C122.2-148.1,113.9-145.6,103.6-145.6z"/>
	<path class="st3" d="M196.9-214h15.4c1.3,0,2.3,1,2.3,2.3v63.1c0,0.6-0.5,1.2-1.2,1.2h-17.7c-0.6,0-1.2-0.5-1.2-1.2v-5.1
		c-4.7,5.4-11.3,8.1-19.9,8.1c-8.8,0-16.3-3.4-22.5-10.2c-6.2-6.8-9.3-15.1-9.3-25c0-9.8,3.1-18.2,9.3-25
		c6.2-6.8,13.7-10.2,22.5-10.2c8.5,0,15.2,2.7,19.9,8.1v-3.9C194.6-212.9,195.7-214,196.9-214z M167.3-168.9
		c2.9,2.9,6.8,4.4,11.5,4.4c4.7,0,8.5-1.5,11.5-4.4s4.4-6.9,4.4-11.8c0-5-1.5-8.9-4.4-11.8c-2.9-2.9-6.8-4.4-11.5-4.4
		c-4.7,0-8.5,1.5-11.5,4.4c-2.9,2.9-4.4,6.9-4.4,11.8C162.9-175.7,164.4-171.8,167.3-168.9z"/>
	<path class="st3" d="M271.2-214h12.1c3.2,0,5.5,3.2,4.3,6.2l-21.3,57.1c-0.7,1.9-2.5,3.2-4.6,3.2h-15.7c-2,0-3.8-1.2-4.5-3.1
		l-21.3-57.2c-1.1-3.1,1.1-6.3,4.4-6.3h12c2,0,3.8,1.3,4.4,3.2L254-172l12.8-38.8C267.4-212.7,269.2-214,271.2-214z"/>
	<path class="st3" d="M308.5-172.7c2.3,6.2,7.6,9.3,16,9.3c4.8,0,8.7-1.3,11.7-4c0.7-0.6,1.8-0.7,2.6-0.2l12.1,6.9
		c1.3,0.7,1.6,2.5,0.6,3.6c-6.5,7.6-15.6,11.4-27.3,11.4c-11.2,0-20.2-3.3-26.9-10c-6.7-6.7-10.1-15-10.1-25.2
		c0-10,3.3-18.4,9.9-25.1c6.6-6.7,15.1-10,25.5-10c9.7,0,17.8,3.4,24.2,10c6.4,6.7,9.7,15.1,9.7,25.1c0,2.8-0.3,5.5-0.8,8H308.5z
		 M308.1-187.6h28.7c-2-7-6.7-10.5-14.1-10.5C314.9-198.1,310-194.6,308.1-187.6z"/>
	<path class="st3" d="M440.9-194.8h-12.6v23.6c0,2.7,1.1,4.3,3.2,5.1c2,0.7,5.1,0.9,9.3,0.7c0.7,0,1.2,0.5,1.2,1.1l0,15.9
		c0,0.6-0.5,1.1-1.1,1.2c-12.1,1.2-20.6-0.1-25.3-3.8c-4.9-3.8-7.3-10.5-7.3-20.2v-23.6h-9.5c-0.6,0-1.2-0.5-1.2-1.2v-16.9
		c0-0.6,0.5-1.2,1.2-1.2h9.5v-11.8c0-0.5,0.3-1,0.8-1.1l16.2-4.8c1.5-0.4,3,0.7,3,2.2v15.5h12.6c0.6,0,1.1,0.5,1.1,1.1v16.9
		C442.1-195.3,441.6-194.8,440.9-194.8z"/>
	<path class="st0" d="M251.5-306.2c-8,0-14.7-1.8-20-5.4c-2.4-1.6-4.5-3.5-6.3-5.6c-3.5-4.2-2.3-10.5,2.3-13.3l0.7-0.4
		c3.6-2.2,8.3-1.5,11.1,1.6c3.2,3.5,7.4,5.2,12.8,5.2c7.1,0,10.7-2.2,10.7-6.6c0-2.4-1.1-4.2-3.4-5.6c-2.3-1.3-6.6-2.9-12.8-4.7
		c-3.3-0.9-6.2-2-8.6-3.1c-2.5-1.2-4.9-2.7-7.2-4.5c-2.4-1.9-4.2-4.2-5.4-7.1c-1.2-2.8-1.9-6.1-1.9-9.8c0-7.4,2.6-13.4,7.8-17.9
		c5.2-4.5,11.4-6.7,18.6-6.7c6.4,0,12.1,1.6,17.1,4.7c2,1.3,3.8,2.7,5.5,4.4c4,4.1,3.1,10.9-1.8,13.9l0,0c-3.6,2.1-8.1,1.5-11-1.5
		c-0.4-0.4-0.9-0.8-1.4-1.2c-2.1-1.6-4.9-2.4-8.3-2.4c-2.7,0-4.8,0.6-6.2,1.8c-1.5,1.2-2.2,2.6-2.2,4.3c0,2,0.9,3.7,2.7,5.2
		c1.8,1.5,5.6,3.1,11.4,4.8c3.1,1,5.6,1.8,7.3,2.4c1.7,0.6,3.9,1.6,6.6,3.1c2.7,1.4,4.7,2.9,6.1,4.5c1.4,1.6,2.6,3.6,3.7,6.2
		c1.1,2.6,1.6,5.5,1.6,8.8c0,7.7-2.7,13.7-8.1,18.1C267.2-308.4,260.2-306.2,251.5-306.2z"/>
	<path class="st3" d="M370-240.6h16.7c1.3,0,2.3,1,2.3,2.3v88.5c0,1.3-1,2.3-2.3,2.3H370c-1.3,0-2.3-1-2.3-2.3v-88.5
		C367.7-239.6,368.7-240.6,370-240.6z"/>
</g>
<path class="st13" d="M942.8-726.5h-15.3c-0.6,0-1.1,0.5-1.1,1.1v47.4c0,0.6,0.5,1.1,1.1,1.1h15.3c0.6,0,1.1-0.5,1.1-1.1v-47.4
	C944-726,943.5-726.5,942.8-726.5 M1011.1-741.1h-15.3c-0.6,0-1.1,0.5-1.1,1.1v62c0,0.6,0.5,1.1,1.1,1.1h15.3c0.6,0,1.1-0.5,1.1-1.1
	v-62C1012.3-740.6,1011.8-741.1,1011.1-741.1 M935.2-750.7c-5.4,0-9.7,4.3-9.7,9.6s4.3,9.6,9.7,9.6c5.4,0,9.7-4.3,9.7-9.6
	C944.9-746.4,940.5-750.7,935.2-750.7 M1072.1-720.3v-5.1c0-0.6-0.5-1.1-1.1-1.1h-15.3c-0.6,0-1.1,0.5-1.1,1.1v25.9
	c0,5.4-3,8.3-7.1,8.3c-4.2,0-6.8-2.8-6.8-8.3v-25.8c0-0.6-0.5-1.1-1.1-1.1h-15.3c-0.6,0-1.1,0.5-1.1,1.1v25.8
	c0,10.2,1.5,15,3.2,17.3c3,4,7.5,6.4,13.4,6.4c5.3,0,9-2.5,12.3-5c1-0.8,2.6-1.3,2.6,0.9v4.4c-0.1,3-2,5.5-4.5,6.8
	c-0.1,0-0.1,0.1-0.2,0.1c-1.2,0.6-2.5,1-3.9,0.9c0,0-3.4,0-5.2-0.3c-0.7-0.1-1.3,0.3-1.3,1l-1.1,13.1c-0.1,0.6,0.4,1.1,0.9,1.2
	c5.7,0.9,11.8,0.7,18.2-1.5c10.1-3.4,14.7-10.9,14.7-21.7L1072.1-720.3C1072.1-720.2,1072.1-720.3,1072.1-720.3 M983.8-726.5h-6.9
	c-0.6,0-1.1-0.5-1.1-1.1V-740c0-0.6-0.5-1.1-1.1-1.1h-15.3c-0.6,0-1.1,0.5-1.1,1.1v12.3c0,0.6-0.5,1.1-1.1,1.1h-4.8
	c-0.6,0-1.1,0.5-1.1,1.1v13c0,0.6,0.5,1.1,1.1,1.1h4.8c0.6,0,1.1,0.5,1.1,1.1v21.5c0,7.1,4.9,12.8,12.9,12.8c5.9,0,10.9-0.9,13-1.9
	c0.5-0.2,0.8-0.6,0.8-1.1v-10.5c0-0.7-0.6-1.2-1.3-1.1c-2.5,0.4-7.8,1.5-7.8-5.1v-14.6c0-0.6,0.5-1.1,1.1-1.1h6.9
	c0.6,0,1.1-0.5,1.1-1.1v-13C984.9-726,984.4-726.5,983.8-726.5 M745.2-710.4c6.1,0,9.6-2.9,9.6-7.6v-0.2c0-5-3.7-7.6-9.7-7.6h-10.6
	c-0.6,0-1.1,0.5-1.1,1.1v13.1c0,0.6,0.5,1.1,1.1,1.1H745.2z M715.5-740c0-0.6,0.5-1.1,1.1-1.1H746c9.9,0,16.7,2.6,21,7
	c3.8,3.7,5.7,8.6,5.7,14.9v0.2c0,9.3-4.7,15.6-12,19.1c-0.6,0.3-0.9,1.1-0.5,1.6l13.4,19.5c0.4,0.5,0.2,1.2-0.3,1.6
	c-0.2,0.1-0.4,0.2-0.6,0.2H755c-0.5,0-1-0.3-1.3-0.7l-12-17.9c-0.4-0.5-1-0.9-1.6-0.9h-5.7c-0.6,0-1.1,0.5-1.1,1.1v17.2
	c0,0.6-0.5,1.1-1.1,1.1h-15.6c-0.6,0-1.1-0.5-1.1-1.1c0,0,0,0,0,0L715.5-740L715.5-740z M811.9-707.1c0,0.6-0.5,1.1-1.1,1.1h-15.6
	c-0.6,0-1.1-0.5-1.1-1.1c0-4.9,3.8-8.7,8.8-8.7C808.3-715.7,811.9-711.9,811.9-707.1L811.9-707.1L811.9-707.1z M802.2-727.5
	c-15.6,0-25.2,12.1-25.2,26.4c0,14.3,10.6,25.3,25.2,25.3c13.1,0,20.8-5.7,24.4-14.1c0.3-0.7-0.3-1.5-1.1-1.5h-13.4
	c-0.5,0-1,0.2-1.4,0.6c-1.7,1.8-3.9,3-7,3c0,0,0,0,0,0l0,0c-5.7,0-10.2-3-10.2-7.8c0-0.6,0.5-1.1,1.1-1.1h0l0,0h32
	c0.6,0,1.1-0.5,1.1-1.1v-3.2C827.8-715.4,818.9-727.5,802.2-727.5L802.2-727.5z M898.4-727.6c-6.8,0-11.7,2.8-15.9,7.2
	c-0.3,0.4-0.9,0.4-1.2,0.1c-0.1-0.1-0.1-0.1-0.2-0.2c-2.8-4.5-7.6-7.1-13.8-7.1c-0.2,0-0.4,0-0.7,0c-5.1,0.2-9.7,2.6-12.6,6.3
	c-0.5,0.6-1.5,0.3-1.5-0.5v-3.5c0-0.6-0.5-1.1-1.1-1.1l0,0H836c-0.6,0-1.1,0.5-1.1,1.1v47.4c0,0.6,0.5,1.1,1.1,1.1h15.3
	c0.6,0,1.1-0.5,1.1-1.1v-25.9c0-5.4,3-8.3,7.1-8.3c4.2,0,6.8,2.8,6.8,8.3v25.9c0,0.6,0.5,1.1,1.1,1.1h15.3c0.6,0,1.1-0.5,1.1-1.1
	v-25.9c0-5.4,3-8.3,7.2-8.3c4.2,0,6.8,2.8,6.8,8.3v25.9c0,0.6,0.5,1.1,1.1,1.1h15.3c0.6,0,1.1-0.5,1.1-1.1v-31.5
	C915.5-721,909-727.6,898.4-727.6 M673.2-693.3L635.1-721c-1.9-1.4-4.5-1.4-6.5,0l-17,12.4c-1,0.7-2.2,1-3.4,0.8
	c-1.2-0.2-2.3-0.8-3-1.8c-0.7-1-1-2.2-0.8-3.4c0.2-1.2,0.8-2.3,1.8-3l12.1-8.8h0l10.5-7.6c5.9-4.3,14-3.7,19.2,1.3
	c1.2,1.1,3,1.2,4.3,0.2l21-15.3L673.2-693.3L673.2-693.3z M672.8-682.5l-0.1,0.4c-0.1,0.8-0.7,2-1.2,2.5c-1.5,1.5-3.8,1.6-5.5,0.4
	l-18.6-13.5l-0.1-0.1c-1.1-0.8-3-0.8-4,0.1c-1.3,1.2-1.4,3.1-0.2,4.4c0.1,0.2,0.3,0.3,0.5,0.4l0.2,0.2l17.1,12.4
	c1,0.7,1.7,1.7,1.8,2.9c0.2,1.6-0.4,3.1-1.7,4.1l-0.4,0.3c-1.5,1.1-3.5,1.1-5,0l-21.2-15.4c-1.1-0.8-3-0.8-4,0.1
	c-1.3,1.2-1.4,3.1-0.2,4.4c0.1,0.2,0.3,0.3,0.5,0.4l17.3,12.6c1,0.7,1.7,1.7,1.8,2.9c0.2,1.6-0.4,3.1-1.7,4.1l-0.4,0.3
	c-1.5,1.1-3.5,1.1-5,0l-3.9-2.8l-17.3-12.6c-1.1-0.8-3-0.8-4,0.1c-1.3,1.1-1.4,3.1-0.2,4.4c0.1,0.2,0.3,0.3,0.5,0.4l17.3,12.6
	c1,0.7,1.6,1.7,1.8,2.9c0.2,1.6-0.4,3.1-1.7,4.1l-0.4,0.3c-1.3,1-3.1,1.1-4.5,0.3l-41.4-30.1v-67.1l18,13.1l5.7,4.1l-10.3,7.5
	c-2.4,1.8-4.1,4.4-4.5,7.4c-0.5,3,0.2,6,2,8.5c1.8,2.4,4.4,4.1,7.4,4.5c0.6,0.1,1.2,0.1,1.8,0.1c2.4,0,4.7-0.7,6.7-2.2l14.4-10.5
	c1.1-0.8,2.6-0.8,3.7,0l37.7,27.4C672.5-685.3,673-683.8,672.8-682.5L672.8-682.5z M668.4-751.1l-17.1,12.4
	c-0.5,0.4-1.2,0.4-1.8,0.1c-7-4.6-16.1-4.7-23.2-0.3c-0.2,0.1-0.4,0.2-0.6,0.4l-7.4,5.4l-24.6-17.9L668.4-751.1L668.4-751.1z
	 M679-756.9c-0.6-0.6-1.5-1-2.4-1h-91.2c-1.9,0-3.4,1.5-3.4,3.4c0,0,0,0,0,0v77c0,1.1,0.5,2.1,1.4,2.7l43.9,31.9h0
	c2.2,1.6,5.2,1.6,7.4,0l43.9-31.9c0.9-0.6,1.4-1.7,1.4-2.7v-77.1C680-755.4,679.6-756.2,679-756.9L679-756.9z M730.5-645.1
	c0-2.3-1.7-3.8-4.1-3.8h-5.8v7.6h5.8C728.8-641.4,730.5-642.9,730.5-645.1L730.5-645.1z M716.5-628.7v-23.9H727c5,0,7.8,3.4,7.8,7.5
	c0,4.1-2.8,7.5-7.8,7.5h-6.4v9L716.5-628.7L716.5-628.7z M737.5-628.7V-646h3.8v2.5c1.3-1.6,3.4-2.9,5.6-2.9v3.7
	c-0.4-0.1-0.8-0.1-1.1-0.1c-1.6,0-3.7,1.1-4.5,2.3v11.8L737.5-628.7 M762.1-637.4c0-3-1.8-5.7-5-5.7c-3.2,0-5,2.7-5,5.7
	c0,3.1,1.8,5.8,5,5.8C760.3-631.6,762.1-634.3,762.1-637.4L762.1-637.4z M748.2-637.4c0-5,3.4-9.1,8.9-9.1c5.5,0,8.9,4.1,8.9,9.1
	c0,5-3.4,9.1-8.9,9.1C751.6-628.3,748.2-632.4,748.2-637.4L748.2-637.4z M790.4-628.7V-640c0-1.9-0.8-3.1-2.9-3.1
	c-1.7,0-3.3,1.1-4,2.3v12.1h-3.8V-640c0-1.9-0.8-3.1-2.8-3.1c-1.7,0-3.2,1.2-4,2.3v12.1h-3.8V-646h3.8v2.3c0.8-1,3-2.8,5.7-2.8
	c2.6,0,4.2,1.3,4.7,3.2c1-1.5,3.3-3.2,5.9-3.2c3.2,0,5,1.7,5,5.2v12.5L790.4-628.7 M798.3-628.7h3.8V-646h-3.8V-628.7z M797.9-650.5
	c0-1.3,1-2.3,2.3-2.3c0,0,0,0,0,0c1.3,0,2.3,1,2.3,2.3c0,0,0,0,0,0c0,1.3-1,2.3-2.3,2.3c0,0,0,0,0,0
	C799-648.1,797.9-649.2,797.9-650.5C797.9-650.5,797.9-650.5,797.9-650.5L797.9-650.5z M805.5-631l1.7-2.7c1.2,1.3,3.6,2.4,5.8,2.4
	c2.3,0,3.4-0.9,3.4-2.3c0-3.4-10.5-1-10.5-7.6c0-2.8,2.4-5.2,6.8-5.2c2.9,0,5.2,1,6.7,2.4l-1.6,2.7c-1-1.1-2.9-2.1-5.1-2.1
	c-2,0-3.2,0.9-3.2,2.2c0,3,10.5,0.8,10.5,7.6c0,3.1-2.5,5.4-7.2,5.4C810-628.3,807.3-629.2,805.5-631 M830.9-643.4
	c-3.2,0-4.7,2.5-4.8,4.6h9.8C835.7-640.9,834.3-643.4,830.9-643.4L830.9-643.4z M822.2-637.4c0-5,3.7-9.1,8.8-9.1
	c5.2,0,8.5,3.9,8.5,9.4v0.9h-13.3c0.3,2.6,2.2,4.8,5.5,4.8c1.7,0,3.7-0.7,5-1.9l1.7,2.5c-1.8,1.7-4.3,2.6-7,2.6
	C826-628.3,822.2-631.9,822.2-637.4L822.2-637.4z M841-631l1.7-2.7c1.2,1.3,3.6,2.4,5.8,2.4c2.3,0,3.4-0.9,3.4-2.3
	c0-3.4-10.5-1-10.5-7.6c0-2.8,2.4-5.2,6.8-5.2c2.9,0,5.2,1,6.7,2.4l-1.6,2.7c-1-1.1-2.9-2.1-5.1-2.1c-2,0-3.2,0.9-3.2,2.2
	c0,3,10.5,0.8,10.5,7.6c0,3.1-2.5,5.4-7.2,5.4C845.5-628.3,842.8-629.2,841-631 M885.9-640.7c0-4.6-2.9-8.3-8.2-8.3H873v16.5h4.7
	C882.9-632.4,885.9-636.1,885.9-640.7z M868.8-628.7v-23.9h8.9c7.5,0,12.5,5,12.5,12c0,7.1-5,12-12.5,12H868.8L868.8-628.7z
	 M901.1-643.4c-3.2,0-4.7,2.5-4.8,4.6h9.8C905.9-640.9,904.5-643.4,901.1-643.4L901.1-643.4z M892.4-637.4c0-5,3.7-9.1,8.8-9.1
	c5.2,0,8.5,3.9,8.5,9.4v0.9h-13.3c0.3,2.6,2.2,4.8,5.5,4.8c1.7,0,3.7-0.7,5-1.9l1.7,2.5c-1.8,1.7-4.3,2.6-7,2.6
	C896.2-628.3,892.4-631.9,892.4-637.4L892.4-637.4z M912.7-628.7h3.8v-23.9h-3.8V-628.7z M920.6-628.7h3.8V-646h-3.8V-628.7z
	 M920.2-650.5c0-1.3,1-2.3,2.3-2.3c0,0,0,0,0,0c1.3,0,2.3,1,2.3,2.3c0,0,0,0,0,0c0,1.3-1,2.3-2.3,2.3c0,0,0,0,0,0
	C921.2-648.1,920.2-649.2,920.2-650.5C920.2-650.5,920.2-650.5,920.2-650.5L920.2-650.5z M933.8-628.7l-7.1-17.3h4.1l5.1,13l5.1-13
	h4l-7.1,17.3H933.8 M953.6-643.4c-3.2,0-4.7,2.5-4.8,4.6h9.8C958.4-640.9,957-643.4,953.6-643.4L953.6-643.4z M944.8-637.4
	c0-5,3.7-9.1,8.8-9.1c5.2,0,8.5,3.9,8.5,9.4v0.9h-13.3c0.3,2.6,2.2,4.8,5.5,4.8c1.7,0,3.7-0.7,5-1.9l1.7,2.5c-1.8,1.7-4.3,2.6-7,2.6
	C948.7-628.3,944.8-631.9,944.8-637.4L944.8-637.4z M965.2-628.7V-646h3.8v2.5c1.3-1.7,3.4-2.9,5.6-2.9v3.7
	c-0.4-0.1-0.8-0.1-1.1-0.1c-1.6,0-3.7,1.1-4.5,2.3v11.8L965.2-628.7 M983.9-643.4c-3.2,0-4.7,2.5-4.8,4.6h9.8
	C988.7-640.9,987.3-643.4,983.9-643.4L983.9-643.4z M975.1-637.4c0-5,3.7-9.1,8.8-9.1c5.2,0,8.5,3.9,8.5,9.4v0.9h-13.3
	c0.3,2.6,2.2,4.8,5.5,4.8c1.7,0,3.7-0.7,5-1.9l1.7,2.5c-1.8,1.7-4.3,2.6-7,2.6C979-628.3,975.1-631.9,975.1-637.4L975.1-637.4z
	 M1007.6-633.9v-6.9c-0.8-1.3-2.7-2.3-4.5-2.3c-3,0-4.9,2.4-4.9,5.7c0,3.4,1.9,5.8,4.9,5.8C1005-631.6,1006.8-632.6,1007.6-633.9z
	 M1007.6-628.7v-2.4c-1.3,1.7-3.3,2.8-5.6,2.8c-4.4,0-7.7-3.4-7.7-9.1c0-5.6,3.2-9.1,7.7-9.1c2.2,0,4.2,1,5.6,2.8v-9h3.8v23.9
	L1007.6-628.7L1007.6-628.7z"/>
<image style="overflow:visible;" width="579" height="845" xlink:href="../color-palette.jpg"  transform="matrix(0.75 0 0 0.75 2062.0186 2821.3206)">
</image>
<text transform="matrix(1 0 0 1 321.9517 2133.5012)" style="font-family:'LeagueSpartan-Bold'; font-size:247.3049px;">Saveit</text>
<text transform="matrix(1 0 0 1 922.9733 2688.4053)" class="st16" style="font-family:'LeagueSpartan-Bold'; font-size:195.8051px;">Saveit</text>
<path d="M261.9,2133.5H93.5c-49.5,0-89.6-40.1-89.6-89.6v-122h258V2133.5z"/>
<rect x="413.9" y="2571.4" width="92.1" height="128.7"/>
<rect x="522" y="2522.4" width="92.1" height="177.7"/>
<g>
	<g>
		<path class="st14" d="M171,1982.9L171,1982.9c-3.2,6.4-10.8,9.2-17.4,6.5c-4.6-1.8-10.2-3.4-15.9-3.4c-10.4,0-15.9,4.7-15.9,12
			c0,7.5,12.7,12.8,27.9,19.3c14.9,6.3,31.3,19,31.3,36.5c0,32-24.3,43.2-50.5,43.2c-16.6,0-29.7-5-38.4-9.6
			c-6.9-3.7-9.3-12.4-5.3-19.1l1.1-1.9c3.9-6.5,12.3-8.7,18.8-4.8c6.3,3.7,14.2,7.3,21.5,7.3c6.7,0,19.3-0.6,19.3-13.1
			c0-9.7-14.3-14.1-30.2-22.1c-16.1-8-25.5-20.4-25.5-34.4c0-25,22.1-40.9,43.7-40.9c11.3,0,21.1,2.7,28.4,5.7
			C171.3,1967,174.6,1975.8,171,1982.9z"/>
	</g>
</g>
<polygon class="st12" points="-135.5,2224.3 -185.1,2402 -266.6,2402 -229.4,2270.8 -244.5,2270.8 -231.5,2224.3 "/>
<path class="st0" d="M111,2658.6h-2c-0.1,0-0.1,0-0.2,0v-10.1c0-2.2-1.8-4-4-4h0c-2.2,0-4,1.8-4,4v18h-0.1l-12.9-20.2
	c-0.7-1.2-2-1.9-3.4-1.9h-1.8c-2.2,0-4,1.8-4,4v10.1c0,0-0.1,0-0.1,0h-2c-1.4,0-2.5,1.1-2.5,2.5s1.1,2.5,2.5,2.5h2
	c0.1,0,0.1,0,0.1,0v12.4c0,2.2,1.8,4,4,4c2.2,0,4-1.8,4-4v-18h0.1l12.9,20.2c0.7,1.2,2,1.9,3.4,1.9h1.8c2.2,0,4-1.8,4-4v-12.4
	c0.1,0,0.1,0,0.2,0h2c1.4,0,2.5-1.1,2.5-2.5S112.4,2658.6,111,2658.6z"/>
<g>
	<path class="st0" d="M256,2696.9L256,2696.9c-2.8,0-5.1-2.3-5.1-5.1v-34.4c0-2.8,2.3-5.1,5.1-5.1h2.3c1.7,0,3.3,0.9,4.3,2.3
		l16.2,25.3h0.1v-22.6c0-2.8,2.3-5.1,5.1-5.1h0c2.8,0,5.1,2.3,5.1,5.1v34.4c0,2.8-2.3,5.1-5.1,5.1h-2.3c-1.7,0-3.3-0.9-4.3-2.3
		l-16.2-25.3h-0.1v22.6C261.1,2694.6,258.8,2696.9,256,2696.9z"/>
</g>
<path class="st0" d="M291.8,2676.2h-2.5c-1.7,0-3.1-1.4-3.1-3.1l0,0c0-1.7,1.4-3.1,3.1-3.1h2.5c1.7,0,3.1,1.4,3.1,3.1l0,0
	C294.9,2674.8,293.5,2676.2,291.8,2676.2z"/>
<path class="st0" d="M250.8,2676.2h-2.5c-1.7,0-3.1-1.4-3.1-3.1l0,0c0-1.7,1.4-3.1,3.1-3.1h2.5c1.7,0,3.1,1.4,3.1,3.1l0,0
	C253.9,2674.8,252.5,2676.2,250.8,2676.2z"/>
<polygon class="st12" points="-269.2,2402 -366.9,2402 -330.3,2273.3 -232.7,2273.3 "/>
<g>
	<circle class="st15" cx="-305.3" cy="2356.1" r="30.8"/>
	<path class="st16" d="M-306.7,2342.2l-0.2,1.5c0,0,0,0.1,0,0.1l-7.9-0.8c-1.7-0.2-3.3,1.1-3.5,2.8l0,0c-0.2,1.7,1.1,3.3,2.8,3.5
		l14.1,1.5l0,0.1l-16.9,8.4c-1,0.5-1.6,1.4-1.7,2.5l-0.2,1.4c-0.2,1.7,1.1,3.3,2.8,3.5l7.9,0.8c0,0,0,0.1,0,0.1l-0.2,1.5
		c-0.1,1.1,0.7,2,1.7,2.1s2-0.7,2.1-1.7l0.2-1.5c0,0,0-0.1,0-0.1l9.7,1c1.7,0.2,3.3-1.1,3.5-2.8c0.2-1.7-1.1-3.3-2.8-3.5l-14.1-1.5
		l0-0.1l16.9-8.4c1-0.5,1.6-1.4,1.7-2.5l0.2-1.4c0.2-1.7-1.1-3.3-2.8-3.5l-9.7-1c0,0,0-0.1,0-0.1l0.2-1.5c0.1-1.1-0.7-2-1.7-2.1
		S-306.5,2341.1-306.7,2342.2z"/>
</g>
<g>
	<circle class="st15" cx="-201.9" cy="2315.2" r="30.8"/>
	<path class="st16" d="M-203.3,2301.4l-0.2,1.5c0,0,0,0.1,0,0.1l-7.9-0.8c-1.7-0.2-3.3,1.1-3.5,2.8l0,0c-0.2,1.7,1.1,3.3,2.8,3.5
		l14.1,1.5l0,0.1l-16.9,8.4c-1,0.5-1.6,1.4-1.7,2.5l-0.2,1.4c-0.2,1.7,1.1,3.3,2.8,3.5l7.9,0.8c0,0,0,0.1,0,0.1l-0.2,1.5
		c-0.1,1.1,0.7,2,1.7,2.1c1.1,0.1,2-0.7,2.1-1.7l0.2-1.5c0,0,0-0.1,0-0.1l9.7,1c1.7,0.2,3.3-1.1,3.5-2.8s-1.1-3.3-2.8-3.5l-14.1-1.5
		l0-0.1l16.9-8.4c1-0.5,1.6-1.4,1.7-2.5l0.2-1.4c0.2-1.7-1.1-3.3-2.8-3.5l-9.7-1c0,0,0-0.1,0-0.1l0.2-1.5c0.1-1.1-0.7-2-1.7-2.1
		C-202.2,2299.6-203.1,2300.3-203.3,2301.4z"/>
</g>
<path class="st16" d="M-156.4,2571.4h-168.3c-49.5,0-89.6-40.1-89.6-89.6v-122h258V2571.4z"/>
<path class="st12" d="M-166.4,2563.2h-155.3c-45.7,0-82.7-37-82.7-82.7V2368h238V2563.2z"/>
<g>
	<path class="st0" d="M-250.3,2424.4L-250.3,2424.4c-3,5.9-9.9,8.5-16.1,6c-4.3-1.7-9.4-3.2-14.7-3.2c-9.6,0-14.6,4.3-14.6,11.1
		c0,6.9,11.7,11.8,25.7,17.8c13.8,5.8,28.9,17.5,28.9,33.6c0,29.4-22.4,39.8-46.5,39.8c-15.3,0-27.4-4.6-35.4-8.9
		c-6.3-3.4-8.6-11.4-4.9-17.6l1-1.8c3.6-6,11.3-8,17.3-4.5c5.8,3.4,13.1,6.7,19.8,6.7c6.1,0,17.8-0.6,17.8-12.1
		c0-9-13.2-13-27.8-20.3c-14.8-7.3-23.5-18.8-23.5-31.7c0-23,20.3-37.7,40.2-37.7c10.4,0,19.5,2.5,26.1,5.2
		C-249.9,2409.7-246.9,2417.7-250.3,2424.4z"/>
</g>
<circle class="st16" cx="-256.9" cy="2291.4" r="7"/>
<circle class="st16" cx="-314.5" cy="2291.4" r="7"/>
<circle class="st16" cx="-160.3" cy="2242.4" r="7"/>
<circle class="st16" cx="-221" cy="2242.4" r="7"/>
<g>
	<g>
		<path class="st17" d="M-2.5,3068.1L-2.5,3068.1c-3.9,7.7-13,11.1-20.9,7.9c-5.6-2.2-12.4-4.2-19.3-4.2c-12.5,0-19.2,5.7-19.2,14.5
			c0,9,15.3,15.5,33.7,23.3c18,7.6,37.8,22.9,37.8,44.1c0,38.6-29.4,52.1-60.9,52.1c-20.1,0-36-6-46.4-11.7
			c-8.3-4.5-11.1-15-6.3-23.1l1.4-2.3c4.7-7.8,14.8-10.5,22.6-5.8c7.6,4.4,17.2,8.8,26,8.8c8,0,23.3-0.8,23.3-15.9
			c0-11.7-17.2-17-36.4-26.6c-19.4-9.6-30.7-24.7-30.7-41.5c0-30.2,26.6-49.3,52.7-49.3c13.7,0,25.5,3.3,34.2,6.8
			C-2.1,3048.8,1.9,3059.4-2.5,3068.1z"/>
		<path class="st17" d="M60.5,3099.4c13.5,0,24.7,4.5,32.9,12.5v-7.6c0-1.1,0.9-2,2-2H126c1.1,0,2,0.9,2,2v96.4c0,1.1-0.9,2-2,2
			H95.7c-1.1,0-2-0.9-2-2v-9.4h-0.4c-7.4,8.2-19.2,14.3-32.9,14.3c-29.4,0-49.9-23.7-49.9-53.1S31.1,3099.4,60.5,3099.4z
			 M70.8,3176.2c13.5,0,23.3-9.8,23.3-23.5c0-13.9-10.4-23.7-23.3-23.7c-13.1,0-23.5,9.8-23.5,23.7
			C47.3,3166.4,56.7,3176.2,70.8,3176.2z"/>
		<path class="st17" d="M194.7,3157l23.9-53.4c0.3-0.7,1-1.2,1.8-1.2h36.5c1.5,0,2.5,1.6,1.8,2.9l-51.7,96.4c-0.3,0.6-1,1.1-1.8,1.1
			h-21.1c-0.7,0-1.4-0.4-1.8-1.1l-51.7-96.4c-0.7-1.3,0.3-2.9,1.8-2.9h36.5c0.8,0,1.5,0.5,1.8,1.2L194.7,3157z"/>
		<path class="st17" d="M282.3,3157.4c0,15.5,12.9,20.8,21.7,20.8c10.7,0,15.6-2,23.5-10.1c0.6-0.6,1.5-0.8,2.3-0.4l21.8,10.9
			c1.1,0.5,1.4,1.9,0.8,2.9c-11.4,17.6-29.3,24.3-50.9,24.3c-30.3,0-55.2-23.9-55.2-53.1c0-29.4,24.9-53.3,55.2-53.3
			c30.5,0,53.8,18,53.8,53.3c0,0.8,0,1.8,0,2.8c0,1.1-0.9,1.9-2,1.9H282.3z M321.4,3138.2c-1.6-10.6-8.8-16.3-19-16.3
			c-11.9,0-18.6,7-19.2,16.3H321.4z"/>
		<path class="st17" d="M409.4,3058.7c1.3,13-9.5,23.9-22.6,22.6c-9.6-1-17.4-8.7-18.4-18.4c-1.3-13,9.5-23.8,22.5-22.5
			C400.7,3041.3,408.5,3049.1,409.4,3058.7z M386.5,3202.8h4c8.5,0,15.3-6.9,15.3-15.3v-79.8c0-9.6-7.8-17.3-17.3-17.3h0
			c-9.6,0-17.3,7.8-17.3,17.3v79.8C371.2,3195.9,378,3202.8,386.5,3202.8z"/>
		<path class="st17" d="M435.5,3065h14.4c5.5,0,10,4.5,10,10v27.4H479c1.1,0,2,0.9,2,2v22.4c0,1.1-0.9,2-2,2h-19.1v31.9
			c0,9.4,2.3,13.9,7.8,13.9c1.5,0,3-0.3,4.2-0.8c2.5-0.9,5.2,0.4,6,2.9l5.5,17.9c0.9,2.9-0.6,6.1-3.5,7.2c-4.6,1.8-12,4-20.5,4
			c-27.6,0-34.3-20.6-34.3-38.4v-38.6h-12.5c-1.1,0-2-0.9-2-2v-22.4c0-1.1,0.9-2,2-2h12.5v-27.1C425.2,3069.6,429.8,3065,435.5,3065
			z"/>
	</g>
	<g>
		<path class="st18" d="M-142.7,2867.5c2.6,0,4.6,2.5,3.9,5.1l-3.7,13.1l-43.7,156.6c-0.5,1.7-2.1,2.9-3.9,2.9h-73.2
			c-2.7,0-4.6-2.5-3.8-5.1l34.4-121c0.7-2.6-1.2-5.1-3.8-5.1h-4.6c-2.6,0-4.6-2.5-3.9-5.1l6.9-24.6l3.9-13.9
			c0.5-1.7,2.1-2.9,3.9-2.9H-142.7z"/>
		<path class="st17" d="M-189.1,3008.7c-0.2,0-0.4,0-0.6-0.1c-1.1-0.3-1.7-1.4-1.4-2.5l5.1-17.6c0.3-1.1,1.4-1.7,2.5-1.4
			c1.1,0.3,1.7,1.4,1.4,2.5l-5.1,17.6C-187.4,3008.1-188.2,3008.7-189.1,3008.7z"/>
		<path class="st18" d="M-241.2,2919.5c1.3,0,2.3,1.3,1.9,2.5l-6.2,21.8l-29.2,102.8c-0.2,0.9-1,1.5-1.9,1.5h-93.5
			c-1.3,0-2.3-1.3-1.9-2.5l31.4-110.6l4-14.1c0.2-0.9,1-1.5,1.9-1.5H-241.2z"/>
		<circle class="st17" cx="-311.2" cy="3006.6" r="30.8"/>
		<circle class="st17" cx="-203.8" cy="2958.4" r="30.8"/>
		<path class="st16" d="M-158.3,3214.5h-168.3c-49.5,0-89.6-40.1-89.6-89.6v-122h258V3214.5z"/>
		<path class="st18" d="M-168.3,3206.3h-155.3c-45.7,0-82.7-37-82.7-82.7v-112.5h238V3206.3z"/>
		<g>
			<path class="st17" d="M-249.2,3069.5L-249.2,3069.5c-3,5.9-9.9,8.5-16.1,6c-4.3-1.7-9.4-3.2-14.7-3.2c-9.6,0-14.6,4.3-14.6,11.1
				c0,6.9,11.7,11.8,25.7,17.8c13.8,5.8,28.9,17.5,28.9,33.6c0,29.4-22.4,39.8-46.5,39.8c-15.3,0-27.4-4.6-35.4-8.9
				c-6.3-3.4-8.6-11.4-4.9-17.6l1-1.8c3.6-6,11.3-8,17.3-4.5c5.8,3.4,13.1,6.7,19.8,6.7c6.1,0,17.8-0.6,17.8-12.1
				c0-9-13.2-13-27.8-20.3c-14.8-7.3-23.5-18.8-23.5-31.7c0-23,20.3-37.7,40.2-37.7c10.4,0,19.5,2.5,26.1,5.2
				C-248.9,3054.8-245.8,3062.9-249.2,3069.5z"/>
		</g>
		<g>
			<path class="st0" d="M-252.2,3067.5L-252.2,3067.5c-3,5.9-9.9,8.5-16.1,6c-4.3-1.7-9.4-3.2-14.7-3.2c-9.6,0-14.6,4.3-14.6,11.1
				c0,6.9,11.7,11.8,25.7,17.8c13.8,5.8,28.9,17.5,28.9,33.6c0,29.4-22.4,39.8-46.5,39.8c-15.3,0-27.4-4.6-35.4-8.9
				c-6.3-3.4-8.6-11.4-4.9-17.6l1-1.8c3.6-6,11.3-8,17.3-4.5c5.8,3.4,13.1,6.7,19.8,6.7c6.1,0,17.8-0.6,17.8-12.1
				c0-9-13.2-13-27.8-20.3c-14.8-7.3-23.5-18.8-23.5-31.7c0-23,20.3-37.7,40.2-37.7c10.4,0,19.5,2.5,26.1,5.2
				C-251.9,3052.8-248.8,3060.9-252.2,3067.5z"/>
		</g>
		<path class="st17" d="M-168.3,2941c-0.2,0-0.3,0-0.5-0.1c-1.1-0.3-1.7-1.4-1.4-2.5l16.1-59.3h-71l-9.8,28.8
			c-0.4,1-1.5,1.6-2.5,1.3c-1-0.4-1.6-1.5-1.3-2.5l10.2-30.1c0.3-0.8,1-1.4,1.9-1.4h75.1c0.6,0,1.2,0.3,1.6,0.8
			c0.4,0.5,0.5,1.1,0.3,1.7l-16.7,61.8C-166.6,2940.5-167.4,2941-168.3,2941z"/>
		<path class="st17" d="M-347.4,2996.5c-0.2,0-0.4,0-0.6-0.1c-1.1-0.3-1.7-1.4-1.4-2.5l19.7-66.9c0.3-0.9,1-1.4,1.9-1.4h79.4
			c0.6,0,1.2,0.3,1.6,0.8c0.4,0.5,0.5,1.1,0.3,1.8l-18.9,66.9c-0.3,1.1-1.4,1.7-2.5,1.4c-1.1-0.3-1.7-1.4-1.4-2.5l18.2-64.3h-75.3
			l-19.2,65.5C-345.7,2995.9-346.5,2996.5-347.4,2996.5z"/>
	</g>
</g>
<rect x="-582.4" y="3362.7" class="st0" width="1260.7" height="722.2"/>
<g>
	<path class="st18" d="M182.7,3440.5c2.6,0,4.6,2.5,3.9,5.1l-3.7,13.1l-43.7,156.6c-0.5,1.7-2.1,2.9-3.9,2.9H62.1
		c-2.7,0-4.6-2.5-3.8-5.1l34.4-121c0.7-2.6-1.2-5.1-3.8-5.1h-4.6c-2.6,0-4.6-2.5-3.9-5.1l6.9-24.6l3.9-13.9c0.5-1.7,2.1-2.9,3.9-2.9
		H182.7z"/>
	<path class="st17" d="M136.3,3581.7c-0.2,0-0.4,0-0.6-0.1c-1.1-0.3-1.7-1.4-1.4-2.5l5.1-17.6c0.3-1.1,1.4-1.7,2.5-1.4
		c1.1,0.3,1.7,1.4,1.4,2.5l-5.1,17.6C137.9,3581.1,137.1,3581.7,136.3,3581.7z"/>
	<path class="st18" d="M84.1,3492.5c1.3,0,2.3,1.3,1.9,2.5l-6.2,21.8l-29.2,102.8c-0.2,0.9-1,1.5-1.9,1.5h-93.5
		c-1.3,0-2.3-1.3-1.9-2.5l31.4-110.6l4-14.1c0.2-0.9,1-1.5,1.9-1.5H84.1z"/>
	<circle class="st17" cx="14.2" cy="3579.6" r="30.8"/>
	<circle class="st17" cx="121.6" cy="3531.4" r="30.8"/>
	<path class="st16" d="M167.1,3787.5H-1.3c-49.5,0-89.6-40.1-89.6-89.6v-122h258V3787.5z"/>
	<path class="st18" d="M157.1,3779.3H1.8c-45.7,0-82.7-37-82.7-82.7v-112.5h238V3779.3z"/>
	<g>
		<path class="st17" d="M76.2,3642.5L76.2,3642.5c-3,5.9-9.9,8.5-16.1,6c-4.3-1.7-9.4-3.2-14.7-3.2c-9.6,0-14.6,4.3-14.6,11.1
			c0,6.9,11.7,11.8,25.7,17.8c13.8,5.8,28.9,17.5,28.9,33.6c0,29.4-22.4,39.8-46.5,39.8c-15.3,0-27.4-4.6-35.4-8.9
			c-6.3-3.4-8.6-11.4-4.9-17.6l1-1.8c3.6-6,11.3-8,17.3-4.5c5.8,3.4,13.1,6.7,19.8,6.7c6.1,0,17.8-0.6,17.8-12.1
			c0-9-13.2-13-27.8-20.3c-14.8-7.3-23.5-18.8-23.5-31.7c0-23,20.3-37.7,40.2-37.7c10.4,0,19.5,2.5,26.1,5.2
			C76.5,3627.8,79.5,3635.9,76.2,3642.5z"/>
	</g>
	<g>
		<path class="st0" d="M73.2,3640.5L73.2,3640.5c-3,5.9-9.9,8.5-16.1,6c-4.3-1.7-9.4-3.2-14.7-3.2c-9.6,0-14.6,4.3-14.6,11.1
			c0,6.9,11.7,11.8,25.7,17.8c13.8,5.8,28.9,17.5,28.9,33.6c0,29.4-22.4,39.8-46.5,39.8c-15.3,0-27.4-4.6-35.4-8.9
			c-6.3-3.4-8.6-11.4-4.9-17.6l1-1.8c3.6-6,11.3-8,17.3-4.5c5.8,3.4,13.1,6.7,19.8,6.7c6.1,0,17.8-0.6,17.8-12.1
			c0-9-13.2-13-27.8-20.3c-14.8-7.3-23.5-18.8-23.5-31.7c0-23,20.3-37.7,40.2-37.7c10.4,0,19.5,2.5,26.1,5.2
			C73.5,3625.8,76.5,3633.9,73.2,3640.5z"/>
	</g>
	<path class="st17" d="M157.1,3514c-0.2,0-0.3,0-0.5-0.1c-1.1-0.3-1.7-1.4-1.4-2.5l16.1-59.3h-71l-9.8,28.8c-0.4,1-1.5,1.6-2.5,1.3
		c-1-0.4-1.6-1.5-1.3-2.5l10.2-30.1c0.3-0.8,1-1.4,1.9-1.4h75.1c0.6,0,1.2,0.3,1.6,0.8c0.4,0.5,0.5,1.1,0.3,1.7l-16.7,61.8
		C158.8,3513.5,158,3514,157.1,3514z"/>
	<path class="st17" d="M-22,3569.5c-0.2,0-0.4,0-0.6-0.1c-1.1-0.3-1.7-1.4-1.4-2.5l19.7-66.9c0.3-0.9,1-1.4,1.9-1.4H77
		c0.6,0,1.2,0.3,1.6,0.8c0.4,0.5,0.5,1.1,0.3,1.8L60.1,3568c-0.3,1.1-1.4,1.7-2.5,1.4c-1.1-0.3-1.7-1.4-1.4-2.5l18.2-64.3H-0.8
		l-19.2,65.5C-20.4,3568.9-21.2,3569.5-22,3569.5z"/>
</g>
<image style="overflow:visible;" width="532" height="286" xlink:href="CDA5EC4.jpg"  transform="matrix(1 0 0 1 -1145.234 3362.6802)">
</image>
<g>
	<path class="st17" d="M-143.2,3861.5L-143.2,3861.5c-3.9,7.7-13,11.1-20.9,7.9c-5.6-2.2-12.4-4.2-19.3-4.2
		c-12.5,0-19.2,5.7-19.2,14.5c0,9,15.3,15.5,33.7,23.3c18,7.6,37.8,22.9,37.8,44.1c0,38.6-29.4,52.1-60.9,52.1
		c-20.1,0-36-6-46.4-11.7c-8.3-4.5-11.1-15-6.3-23.1l1.4-2.3c4.7-7.8,14.8-10.5,22.6-5.8c7.6,4.4,17.2,8.8,26,8.8
		c8,0,23.3-0.8,23.3-15.9c0-11.7-17.2-17-36.4-26.6c-19.4-9.6-30.7-24.7-30.7-41.5c0-30.2,26.6-49.3,52.7-49.3
		c13.7,0,25.5,3.3,34.2,6.8C-142.8,3842.2-138.8,3852.8-143.2,3861.5z"/>
	<path class="st17" d="M-80.2,3892.8c13.5,0,24.7,4.5,32.9,12.5v-7.6c0-1.1,0.9-2,2-2h30.7c1.1,0,2,0.9,2,2v96.4c0,1.1-0.9,2-2,2
		H-45c-1.1,0-2-0.9-2-2v-9.4h-0.4c-7.4,8.2-19.2,14.3-32.9,14.3c-29.4,0-49.9-23.7-49.9-53.1S-109.6,3892.8-80.2,3892.8z
		 M-69.9,3969.6c13.5,0,23.3-9.8,23.3-23.5c0-13.9-10.4-23.7-23.3-23.7c-13.1,0-23.5,9.8-23.5,23.7
		C-93.4,3959.8-84,3969.6-69.9,3969.6z"/>
	<path class="st17" d="M54,3950.4l23.9-53.4c0.3-0.7,1-1.2,1.8-1.2h36.5c1.5,0,2.5,1.6,1.8,2.9l-51.7,96.4c-0.3,0.6-1,1.1-1.8,1.1
		H43.4c-0.7,0-1.4-0.4-1.8-1.1l-51.7-96.4c-0.7-1.3,0.3-2.9,1.8-2.9h36.5c0.8,0,1.5,0.5,1.8,1.2L54,3950.4z"/>
	<path class="st17" d="M141.6,3950.8c0,15.5,12.9,20.8,21.7,20.8c10.7,0,15.6-2,23.5-10.1c0.6-0.6,1.5-0.8,2.3-0.4l21.8,10.9
		c1.1,0.5,1.4,1.9,0.8,2.9c-11.4,17.6-29.3,24.3-50.9,24.3c-30.3,0-55.2-23.9-55.2-53.1c0-29.4,24.9-53.3,55.2-53.3
		c30.5,0,53.8,18,53.8,53.3c0,0.8,0,1.8,0,2.8c0,1.1-0.9,1.9-2,1.9H141.6z M180.7,3931.6c-1.6-10.6-8.8-16.3-19-16.3
		c-11.9,0-18.6,7-19.2,16.3H180.7z"/>
	<path class="st17" d="M268.7,3852.1c1.3,13-9.5,23.9-22.6,22.6c-9.6-1-17.4-8.7-18.4-18.4c-1.3-13,9.5-23.8,22.5-22.5
		C260,3834.7,267.8,3842.5,268.7,3852.1z M245.8,3996.2h4c8.5,0,15.3-6.9,15.3-15.3v-79.8c0-9.6-7.8-17.3-17.3-17.3h0
		c-9.6,0-17.3,7.8-17.3,17.3v79.8C230.5,3989.3,237.3,3996.2,245.8,3996.2z"/>
	<path class="st17" d="M294.8,3858.3h14.4c5.5,0,10,4.5,10,10v27.4h19.1c1.1,0,2,0.9,2,2v22.4c0,1.1-0.9,2-2,2h-19.1v31.9
		c0,9.4,2.3,13.9,7.8,13.9c1.5,0,3-0.3,4.2-0.8c2.5-0.9,5.2,0.4,6,2.9l5.5,17.9c0.9,2.9-0.6,6.1-3.5,7.2c-4.6,1.8-12,4-20.5,4
		c-27.6,0-34.3-20.6-34.3-38.4v-38.6H272c-1.1,0-2-0.9-2-2v-22.4c0-1.1,0.9-2,2-2h12.5v-27.1
		C284.5,3862.9,289.1,3858.3,294.8,3858.3z"/>
</g>
<rect x="747.3" y="2795.8" class="st0" width="1260.7" height="520.5"/>
<g>
	<path class="st19" d="M1327.2,3068.1L1327.2,3068.1c-3.9,7.7-13,11.1-20.9,7.9c-5.6-2.2-12.4-4.2-19.3-4.2
		c-12.5,0-19.2,5.7-19.2,14.5c0,9,15.3,15.5,33.7,23.3c18,7.6,37.8,22.9,37.8,44.1c0,38.6-29.4,52.1-60.9,52.1
		c-20.1,0-36-6-46.4-11.7c-8.3-4.5-11.1-15-6.3-23.1l1.4-2.3c4.7-7.8,14.8-10.5,22.6-5.8c7.6,4.4,17.2,8.8,26,8.8
		c8,0,23.3-0.8,23.3-15.9c0-11.7-17.2-17-36.4-26.6c-19.4-9.6-30.7-24.7-30.7-41.5c0-30.2,26.6-49.3,52.7-49.3
		c13.7,0,25.5,3.3,34.2,6.8C1327.6,3048.8,1331.6,3059.4,1327.2,3068.1z"/>
	<path class="st19" d="M1390.2,3099.4c13.5,0,24.7,4.5,32.9,12.5v-7.6c0-1.1,0.9-2,2-2h30.7c1.1,0,2,0.9,2,2v96.4c0,1.1-0.9,2-2,2
		h-30.3c-1.1,0-2-0.9-2-2v-9.4h-0.4c-7.4,8.2-19.2,14.3-32.9,14.3c-29.4,0-49.9-23.7-49.9-53.1S1360.8,3099.4,1390.2,3099.4z
		 M1400.5,3176.2c13.5,0,23.3-9.8,23.3-23.5c0-13.9-10.4-23.7-23.3-23.7c-13.1,0-23.5,9.8-23.5,23.7
		C1377,3166.4,1386.4,3176.2,1400.5,3176.2z"/>
	<path class="st19" d="M1524.4,3157l23.9-53.4c0.3-0.7,1-1.2,1.8-1.2h36.5c1.5,0,2.5,1.6,1.8,2.9l-51.7,96.4c-0.3,0.6-1,1.1-1.8,1.1
		h-21.1c-0.7,0-1.4-0.4-1.8-1.1l-51.7-96.4c-0.7-1.3,0.3-2.9,1.8-2.9h36.5c0.8,0,1.5,0.5,1.8,1.2L1524.4,3157z"/>
	<path class="st19" d="M1612,3157.4c0,15.5,12.9,20.8,21.7,20.8c10.7,0,15.6-2,23.5-10.1c0.6-0.6,1.5-0.8,2.3-0.4l21.8,10.9
		c1.1,0.5,1.4,1.9,0.8,2.9c-11.4,17.6-29.3,24.3-50.9,24.3c-30.3,0-55.2-23.9-55.2-53.1c0-29.4,24.9-53.3,55.2-53.3
		c30.5,0,53.8,18,53.8,53.3c0,0.8,0,1.8,0,2.8c0,1.1-0.9,1.9-2,1.9H1612z M1651.1,3138.2c-1.6-10.6-8.8-16.3-19-16.3
		c-11.9,0-18.6,7-19.2,16.3H1651.1z"/>
	<path class="st19" d="M1739.1,3058.7c1.3,13-9.5,23.9-22.6,22.6c-9.6-1-17.4-8.7-18.4-18.4c-1.3-13,9.5-23.8,22.5-22.5
		C1730.4,3041.3,1738.2,3049.1,1739.1,3058.7z M1716.2,3202.8h4c8.5,0,15.3-6.9,15.3-15.3v-79.8c0-9.6-7.8-17.3-17.3-17.3h0
		c-9.6,0-17.3,7.8-17.3,17.3v79.8C1700.9,3195.9,1707.7,3202.8,1716.2,3202.8z"/>
	<path class="st19" d="M1765.2,3065h14.4c5.5,0,10,4.5,10,10v27.4h19.1c1.1,0,2,0.9,2,2v22.4c0,1.1-0.9,2-2,2h-19.1v31.9
		c0,9.4,2.3,13.9,7.8,13.9c1.5,0,3-0.3,4.2-0.8c2.5-0.9,5.2,0.4,6,2.9l5.5,17.9c0.9,2.9-0.6,6.1-3.5,7.2c-4.6,1.8-12,4-20.5,4
		c-27.6,0-34.3-20.6-34.3-38.4v-38.6h-12.5c-1.1,0-2-0.9-2-2v-22.4c0-1.1,0.9-2,2-2h12.5v-27.1
		C1754.9,3069.6,1759.5,3065,1765.2,3065z"/>
</g>
<path class="st20" d="M1187.1,2867.5c2.6,0,4.6,2.5,3.9,5.1l-3.7,13.1l-43.7,156.6c-0.5,1.7-2.1,2.9-3.9,2.9h-73.2
	c-2.7,0-4.6-2.5-3.8-5.1l34.4-121c0.7-2.6-1.2-5.1-3.8-5.1h-4.6c-2.6,0-4.6-2.5-3.9-5.1l6.9-24.6l3.9-13.9c0.5-1.7,2.1-2.9,3.9-2.9
	H1187.1z"/>
<path class="st19" d="M1140.6,3008.7c-0.2,0-0.4,0-0.6-0.1c-1.1-0.3-1.7-1.4-1.4-2.5l5.1-17.6c0.3-1.1,1.4-1.7,2.5-1.4
	c1.1,0.3,1.7,1.4,1.4,2.5l-5.1,17.6C1142.3,3008.1,1141.5,3008.7,1140.6,3008.7z"/>
<path class="st20" d="M1088.5,2919.5c1.3,0,2.3,1.3,1.9,2.5l-6.2,21.8l-29.2,102.8c-0.2,0.9-1,1.5-1.9,1.5h-93.5
	c-1.3,0-2.3-1.3-1.9-2.5L989,2935l4-14.1c0.2-0.9,1-1.5,1.9-1.5H1088.5z"/>
<circle class="st19" cx="1018.5" cy="3006.6" r="30.8"/>
<circle class="st19" cx="1125.9" cy="2958.4" r="30.8"/>
<path class="st21" d="M1171.4,3214.5h-168.3c-49.5,0-89.6-40.1-89.6-89.6v-122h258V3214.5z"/>
<path class="st19" d="M1161.4,3206.3h-155.3c-45.7,0-82.7-37-82.7-82.7v-112.5h238V3206.3z"/>
<g>
	<path class="st21" d="M1080.5,3069.5L1080.5,3069.5c-3,5.9-9.9,8.5-16.1,6c-4.3-1.7-9.4-3.2-14.7-3.2c-9.6,0-14.6,4.3-14.6,11.1
		c0,6.9,11.7,11.8,25.7,17.8c13.8,5.8,28.9,17.5,28.9,33.6c0,29.4-22.4,39.8-46.5,39.8c-15.3,0-27.4-4.6-35.4-8.9
		c-6.3-3.4-8.6-11.4-4.9-17.6l1-1.8c3.6-6,11.3-8,17.3-4.5c5.8,3.4,13.1,6.7,19.8,6.7c6.1,0,17.8-0.6,17.8-12.1
		c0-9-13.2-13-27.8-20.3c-14.8-7.3-23.5-18.8-23.5-31.7c0-23,20.3-37.7,40.2-37.7c10.4,0,19.5,2.5,26.1,5.2
		C1080.8,3054.8,1083.9,3062.9,1080.5,3069.5z"/>
</g>
<g>
	<path class="st0" d="M1077.5,3067.5L1077.5,3067.5c-3,5.9-9.9,8.5-16.1,6c-4.3-1.7-9.4-3.2-14.7-3.2c-9.6,0-14.6,4.3-14.6,11.1
		c0,6.9,11.7,11.8,25.7,17.8c13.8,5.8,28.9,17.5,28.9,33.6c0,29.4-22.4,39.8-46.5,39.8c-15.3,0-27.4-4.6-35.4-8.9
		c-6.3-3.4-8.6-11.4-4.9-17.6l1-1.8c3.6-6,11.3-8,17.3-4.5c5.8,3.4,13.1,6.7,19.8,6.7c6.1,0,17.8-0.6,17.8-12.1
		c0-9-13.2-13-27.8-20.3c-14.8-7.3-23.5-18.8-23.5-31.7c0-23,20.3-37.7,40.2-37.7c10.4,0,19.5,2.5,26.1,5.2
		C1077.8,3052.8,1080.9,3060.9,1077.5,3067.5z"/>
</g>
<path class="st19" d="M1161.4,2941c-0.2,0-0.3,0-0.5-0.1c-1.1-0.3-1.7-1.4-1.4-2.5l16.1-59.3h-71l-9.8,28.8c-0.4,1-1.5,1.6-2.5,1.3
	c-1-0.4-1.6-1.5-1.3-2.5l10.2-30.1c0.3-0.8,1-1.4,1.9-1.4h75.1c0.6,0,1.2,0.3,1.6,0.8c0.4,0.5,0.5,1.1,0.3,1.7l-16.7,61.8
	C1163.1,2940.5,1162.3,2941,1161.4,2941z"/>
<path class="st19" d="M982.3,2996.5c-0.2,0-0.4,0-0.6-0.1c-1.1-0.3-1.7-1.4-1.4-2.5l19.7-66.9c0.3-0.9,1-1.4,1.9-1.4h79.4
	c0.6,0,1.2,0.3,1.6,0.8c0.4,0.5,0.5,1.1,0.3,1.8l-18.9,66.9c-0.3,1.1-1.4,1.7-2.5,1.4c-1.1-0.3-1.7-1.4-1.4-2.5l18.2-64.3h-75.3
	l-19.2,65.5C984,2995.9,983.2,2996.5,982.3,2996.5z"/>
<rect x="747.3" y="3362.7" class="st0" width="1260.7" height="722.2"/>
<path class="st19" d="M1512.4,3430.5c2.6,0,4.6,2.5,3.9,5.1l-3.7,13.1l-43.7,156.6c-0.5,1.7-2.1,2.9-3.9,2.9h-73.2
	c-2.7,0-4.6-2.5-3.8-5.1l34.4-121c0.7-2.6-1.2-5.1-3.8-5.1h-4.6c-2.6,0-4.6-2.5-3.9-5.1l6.9-24.6l3.9-13.9c0.5-1.7,2.1-2.9,3.9-2.9
	H1512.4z"/>
<path class="st20" d="M1466,3571.7c-0.2,0-0.4,0-0.6-0.1c-1.1-0.3-1.7-1.4-1.4-2.5l5.1-17.6c0.3-1.1,1.4-1.7,2.5-1.4
	c1.1,0.3,1.7,1.4,1.4,2.5l-5.1,17.6C1467.6,3571.1,1466.8,3571.7,1466,3571.7z"/>
<path class="st19" d="M1413.8,3482.5c1.3,0,2.3,1.3,1.9,2.5l-6.2,21.8l-29.2,102.8c-0.2,0.9-1,1.5-1.9,1.5h-93.5
	c-1.3,0-2.3-1.3-1.9-2.5l31.4-110.6l4-14.1c0.2-0.9,1-1.5,1.9-1.5H1413.8z"/>
<circle class="st20" cx="1343.9" cy="3569.6" r="30.8"/>
<circle class="st20" cx="1451.3" cy="3521.4" r="30.8"/>
<path class="st21" d="M1496.8,3777.5h-168.3c-49.5,0-89.6-40.1-89.6-89.6v-122h258V3777.5z"/>
<path class="st19" d="M1486.8,3769.3h-155.3c-45.7,0-82.7-37-82.7-82.7v-112.5h238V3769.3z"/>
<g>
	<path class="st21" d="M1405.9,3632.5L1405.9,3632.5c-3,5.9-9.9,8.5-16.1,6c-4.3-1.7-9.4-3.2-14.7-3.2c-9.6,0-14.6,4.3-14.6,11.1
		c0,6.9,11.7,11.8,25.7,17.8c13.8,5.8,28.9,17.5,28.9,33.6c0,29.4-22.4,39.8-46.5,39.8c-15.3,0-27.4-4.6-35.4-8.9
		c-6.3-3.4-8.6-11.4-4.9-17.6l1-1.8c3.6-6,11.3-8,17.3-4.5c5.8,3.4,13.1,6.7,19.8,6.7c6.1,0,17.8-0.6,17.8-12.1
		c0-9-13.2-13-27.8-20.3c-14.8-7.3-23.5-18.8-23.5-31.7c0-23,20.3-37.7,40.2-37.7c10.4,0,19.5,2.5,26.1,5.2
		C1406.2,3617.8,1409.2,3625.9,1405.9,3632.5z"/>
</g>
<g>
	<path class="st0" d="M1402.9,3630.5L1402.9,3630.5c-3,5.9-9.9,8.5-16.1,6c-4.3-1.7-9.4-3.2-14.7-3.2c-9.6,0-14.6,4.3-14.6,11.1
		c0,6.9,11.7,11.8,25.7,17.8c13.8,5.8,28.9,17.5,28.9,33.6c0,29.4-22.4,39.8-46.5,39.8c-15.3,0-27.4-4.6-35.4-8.9
		c-6.3-3.4-8.6-11.4-4.9-17.6l1-1.8c3.6-6,11.3-8,17.3-4.5c5.8,3.4,13.1,6.7,19.8,6.7c6.1,0,17.8-0.6,17.8-12.1
		c0-9-13.2-13-27.8-20.3c-14.8-7.3-23.5-18.8-23.5-31.7c0-23,20.3-37.7,40.2-37.7c10.4,0,19.5,2.5,26.1,5.2
		C1403.2,3615.8,1406.2,3623.9,1402.9,3630.5z"/>
</g>
<path class="st20" d="M1486.8,3504c-0.2,0-0.3,0-0.5-0.1c-1.1-0.3-1.7-1.4-1.4-2.5l16.1-59.3h-71l-9.8,28.8c-0.4,1-1.5,1.6-2.5,1.3
	c-1-0.4-1.6-1.5-1.3-2.5l10.2-30.1c0.3-0.8,1-1.4,1.9-1.4h75.1c0.6,0,1.2,0.3,1.6,0.8c0.4,0.5,0.5,1.1,0.3,1.7l-16.7,61.8
	C1488.5,3503.5,1487.7,3504,1486.8,3504z"/>
<path class="st20" d="M1307.7,3559.5c-0.2,0-0.4,0-0.6-0.1c-1.1-0.3-1.7-1.4-1.4-2.5l19.7-66.9c0.3-0.9,1-1.4,1.9-1.4h79.4
	c0.6,0,1.2,0.3,1.6,0.8c0.4,0.5,0.5,1.1,0.3,1.8l-18.9,66.9c-0.3,1.1-1.4,1.7-2.5,1.4c-1.1-0.3-1.7-1.4-1.4-2.5l18.2-64.3h-75.3
	l-19.2,65.5C1309.3,3558.9,1308.6,3559.5,1307.7,3559.5z"/>
<g>
	<path class="st11" d="M1186.5,3861.5L1186.5,3861.5c-3.9,7.7-13,11.1-20.9,7.9c-5.6-2.2-12.4-4.2-19.3-4.2
		c-12.5,0-19.2,5.7-19.2,14.5c0,9,15.3,15.5,33.7,23.3c18,7.6,37.8,22.9,37.8,44.1c0,38.6-29.4,52.1-60.9,52.1
		c-20.1,0-36-6-46.4-11.7c-8.3-4.5-11.1-15-6.3-23.1l1.4-2.3c4.7-7.8,14.8-10.5,22.6-5.8c7.6,4.4,17.2,8.8,26,8.8
		c8,0,23.3-0.8,23.3-15.9c0-11.7-17.2-17-36.4-26.6c-19.4-9.6-30.7-24.7-30.7-41.5c0-30.2,26.6-49.3,52.7-49.3
		c13.7,0,25.5,3.3,34.2,6.8C1186.9,3842.2,1190.9,3852.8,1186.5,3861.5z"/>
	<path class="st11" d="M1249.5,3892.8c13.5,0,24.7,4.5,32.9,12.5v-7.6c0-1.1,0.9-2,2-2h30.7c1.1,0,2,0.9,2,2v96.4c0,1.1-0.9,2-2,2
		h-30.3c-1.1,0-2-0.9-2-2v-9.4h-0.4c-7.4,8.2-19.2,14.3-32.9,14.3c-29.4,0-49.9-23.7-49.9-53.1S1220.1,3892.8,1249.5,3892.8z
		 M1259.8,3969.6c13.5,0,23.3-9.8,23.3-23.5c0-13.9-10.4-23.7-23.3-23.7c-13.1,0-23.5,9.8-23.5,23.7
		C1236.3,3959.8,1245.7,3969.6,1259.8,3969.6z"/>
	<path class="st11" d="M1383.7,3950.4l23.9-53.4c0.3-0.7,1-1.2,1.8-1.2h36.5c1.5,0,2.5,1.6,1.8,2.9l-51.7,96.4
		c-0.3,0.6-1,1.1-1.8,1.1h-21.1c-0.7,0-1.4-0.4-1.8-1.1l-51.7-96.4c-0.7-1.3,0.3-2.9,1.8-2.9h36.5c0.8,0,1.5,0.5,1.8,1.2
		L1383.7,3950.4z"/>
	<path class="st11" d="M1471.3,3950.8c0,15.5,12.9,20.8,21.7,20.8c10.7,0,15.6-2,23.5-10.1c0.6-0.6,1.5-0.8,2.3-0.4l21.8,10.9
		c1.1,0.5,1.4,1.9,0.8,2.9c-11.4,17.6-29.3,24.3-50.9,24.3c-30.3,0-55.2-23.9-55.2-53.1c0-29.4,24.9-53.3,55.2-53.3
		c30.5,0,53.8,18,53.8,53.3c0,0.8,0,1.8,0,2.8c0,1.1-0.9,1.9-2,1.9H1471.3z M1510.4,3931.6c-1.6-10.6-8.8-16.3-19-16.3
		c-11.9,0-18.6,7-19.2,16.3H1510.4z"/>
	<path class="st11" d="M1598.4,3852.1c1.3,13-9.5,23.9-22.6,22.6c-9.6-1-17.4-8.7-18.4-18.4c-1.3-13,9.5-23.8,22.5-22.5
		C1589.7,3834.7,1597.5,3842.5,1598.4,3852.1z M1575.5,3996.2h4c8.5,0,15.3-6.9,15.3-15.3v-79.8c0-9.6-7.8-17.3-17.3-17.3l0,0
		c-9.6,0-17.3,7.8-17.3,17.3v79.8C1560.2,3989.3,1567,3996.2,1575.5,3996.2z"/>
	<path class="st11" d="M1624.5,3858.3h14.4c5.5,0,10,4.5,10,10v27.4h19.1c1.1,0,2,0.9,2,2v22.4c0,1.1-0.9,2-2,2h-19.1v31.9
		c0,9.4,2.3,13.9,7.8,13.9c1.5,0,3-0.3,4.2-0.8c2.5-0.9,5.2,0.4,6,2.9l5.5,17.9c0.9,2.9-0.6,6.1-3.5,7.2c-4.6,1.8-12,4-20.5,4
		c-27.6,0-34.3-20.6-34.3-38.4v-38.6h-12.5c-1.1,0-2-0.9-2-2v-22.4c0-1.1,0.9-2,2-2h12.5v-27.1
		C1614.2,3862.9,1618.8,3858.3,1624.5,3858.3z"/>
</g>
<path class="st13" d="M2462.6,3755.2h-15.3c-0.6,0-1.1,0.5-1.1,1.1v47.4c0,0.6,0.5,1.1,1.1,1.1h15.3c0.6,0,1.1-0.5,1.1-1.1v-47.4
	C2463.7,3755.7,2463.2,3755.2,2462.6,3755.2 M2530.9,3740.6h-15.3c-0.6,0-1.1,0.5-1.1,1.1v62c0,0.6,0.5,1.1,1.1,1.1h15.3
	c0.6,0,1.1-0.5,1.1-1.1v-62C2532,3741.1,2531.5,3740.6,2530.9,3740.6 M2454.9,3731c-5.3,0-9.7,4.3-9.7,9.6c0,5.3,4.3,9.6,9.7,9.6
	c5.4,0,9.7-4.3,9.7-9.6C2464.6,3735.3,2460.3,3731,2454.9,3731 M2591.8,3761.4v-5.1c0-0.6-0.5-1.1-1.1-1.1h-15.3
	c-0.6,0-1.1,0.5-1.1,1.1v25.9c0,5.4-3,8.3-7.1,8.3c-4.2,0-6.8-2.8-6.8-8.3v-25.8c0-0.6-0.5-1.1-1.1-1.1h-15.3
	c-0.6,0-1.1,0.5-1.1,1.1v25.8c0,10.2,1.5,15,3.2,17.3c3,4,7.5,6.4,13.4,6.4c5.3,0,9-2.5,12.3-5c1-0.8,2.6-1.3,2.6,0.9v4.4
	c-0.1,3-2,5.5-4.5,6.8c-0.1,0-0.1,0.1-0.2,0.1c-1.2,0.6-2.5,1-3.9,0.9c0,0-3.4,0-5.2-0.3c-0.7-0.1-1.3,0.3-1.3,1l-1.1,13.1
	c-0.1,0.6,0.4,1.1,0.9,1.2c5.7,0.9,11.8,0.7,18.2-1.5c10.1-3.4,14.7-10.9,14.7-21.7L2591.8,3761.4
	C2591.8,3761.4,2591.8,3761.4,2591.8,3761.4 M2503.6,3755.2h-6.9c-0.6,0-1.1-0.5-1.1-1.1v-12.3c0-0.6-0.5-1.1-1.1-1.1h-15.3
	c-0.6,0-1.1,0.5-1.1,1.1v12.3c0,0.6-0.5,1.1-1.1,1.1h-4.8c-0.6,0-1.1,0.5-1.1,1.1v13c0,0.6,0.5,1.1,1.1,1.1h4.8
	c0.6,0,1.1,0.5,1.1,1.1v21.5c0,7.1,4.9,12.8,12.9,12.8c5.9,0,10.9-0.9,13-1.9c0.5-0.2,0.8-0.6,0.8-1.1v-10.5c0-0.7-0.6-1.2-1.3-1.1
	c-2.5,0.4-7.8,1.5-7.8-5.1v-14.6c0-0.6,0.5-1.1,1.1-1.1h6.9c0.6,0,1.1-0.5,1.1-1.1v-13C2504.7,3755.7,2504.2,3755.2,2503.6,3755.2
	 M2264.9,3771.3c6.1,0,9.6-2.9,9.6-7.6v-0.2c0-5-3.7-7.6-9.7-7.6h-10.6c-0.6,0-1.1,0.5-1.1,1.1v13.1c0,0.6,0.5,1.1,1.1,1.1H2264.9z
	 M2235.3,3741.6c0-0.6,0.5-1.1,1.1-1.1h29.4c9.9,0,16.7,2.6,21,7c3.8,3.7,5.7,8.6,5.7,14.9v0.2c0,9.3-4.7,15.6-12,19.1
	c-0.6,0.3-0.9,1.1-0.5,1.6l13.4,19.5c0.4,0.5,0.2,1.2-0.3,1.6c-0.2,0.1-0.4,0.2-0.6,0.2h-17.7c-0.5,0-1-0.3-1.3-0.7l-12-17.9
	c-0.4-0.5-1-0.9-1.6-0.9h-5.7c-0.6,0-1.1,0.5-1.1,1.1v17.2c0,0.6-0.5,1.1-1.1,1.1h-15.6c-0.6,0-1.1-0.5-1.1-1.1c0,0,0,0,0,0
	L2235.3,3741.6L2235.3,3741.6z M2331.6,3774.6c0,0.6-0.5,1.1-1.1,1.1h-15.6c-0.6,0-1.1-0.5-1.1-1.1c0-4.9,3.8-8.7,8.8-8.7
	C2328,3765.9,2331.6,3769.7,2331.6,3774.6L2331.6,3774.6L2331.6,3774.6z M2321.9,3754.2c-15.6,0-25.2,12.1-25.2,26.4
	c0,14.3,10.6,25.3,25.2,25.3c13.1,0,20.8-5.7,24.4-14.1c0.3-0.7-0.3-1.5-1.1-1.5h-13.4c-0.5,0-1,0.2-1.4,0.6c-1.7,1.8-3.9,2.9-7,2.9
	c0,0,0,0,0,0l0,0c-5.7,0-10.2-2.9-10.2-7.8c0-0.6,0.5-1.1,1.1-1.1h0l0,0h32c0.6,0,1.1-0.5,1.1-1.1v-3.2
	C2347.6,3766.3,2338.7,3754.2,2321.9,3754.2L2321.9,3754.2z M2418.2,3754.1c-6.8,0-11.7,2.8-15.9,7.2c-0.3,0.4-0.9,0.4-1.2,0.1
	c-0.1-0.1-0.1-0.1-0.2-0.2c-2.8-4.5-7.6-7.1-13.8-7.1c-0.2,0-0.4,0-0.7,0c-5.1,0.2-9.7,2.6-12.6,6.3c-0.5,0.6-1.6,0.3-1.6-0.5v-3.5
	c0-0.6-0.5-1.1-1.1-1.1l0,0h-15.3c-0.6,0-1.1,0.5-1.1,1.1v47.4c0,0.6,0.5,1.1,1.1,1.1h15.3c0.6,0,1.1-0.5,1.1-1.1v-25.9
	c0-5.4,3-8.3,7.1-8.3c4.2,0,6.8,2.8,6.8,8.3v25.9c0,0.6,0.5,1.1,1.1,1.1h15.3c0.6,0,1.1-0.5,1.1-1.1v-25.9c0-5.4,3-8.3,7.2-8.3
	c4.2,0,6.8,2.8,6.8,8.3v25.9c0,0.6,0.5,1.1,1.1,1.1h15.3c0.6,0,1.1-0.5,1.1-1.1v-31.4C2435.2,3760.7,2428.8,3754.1,2418.2,3754.1
	 M2193,3788.4l-38.2-27.7c-1.9-1.4-4.5-1.4-6.4,0l-17,12.4c-1,0.7-2.2,1-3.4,0.8c-1.2-0.2-2.3-0.8-3-1.8c-0.7-1-1-2.2-0.8-3.4
	c0.2-1.2,0.8-2.3,1.8-3l12.1-8.8h0l10.5-7.6c5.9-4.3,14-3.7,19.2,1.3c1.2,1.1,3,1.2,4.3,0.2l21-15.3L2193,3788.4L2193,3788.4z
	 M2192.5,3799.2l-0.1,0.4c-0.1,0.8-0.7,2-1.2,2.5c-1.5,1.5-3.8,1.6-5.5,0.4l-18.6-13.5l-0.1-0.1c-1.1-0.8-3-0.8-4,0.1
	c-1.3,1.2-1.4,3.1-0.2,4.4c0.1,0.2,0.3,0.3,0.5,0.4l0.2,0.2l17.1,12.4c0.9,0.7,1.7,1.7,1.8,2.9c0.2,1.6-0.4,3.1-1.7,4.1l-0.4,0.3
	c-1.5,1.1-3.5,1.1-5,0l-21.2-15.4c-1.1-0.8-3-0.8-4,0.1c-1.3,1.2-1.4,3.1-0.2,4.4c0.1,0.2,0.3,0.3,0.5,0.4l17.3,12.6
	c1,0.7,1.7,1.7,1.8,2.9c0.2,1.6-0.4,3.1-1.7,4.1l-0.4,0.3c-1.5,1.1-3.5,1.1-5,0l-3.9-2.8l-17.3-12.6c-1.1-0.8-3-0.8-4,0.1
	c-1.3,1.1-1.4,3.1-0.2,4.4c0.1,0.2,0.3,0.3,0.5,0.4l17.3,12.6c1,0.7,1.6,1.7,1.8,2.9c0.2,1.6-0.4,3.1-1.7,4.1l-0.4,0.3
	c-1.3,1-3.1,1.1-4.5,0.3l-41.4-30.1v-67.1l18,13.1l5.7,4.1l-10.3,7.5c-2.4,1.8-4.1,4.4-4.5,7.4c-0.5,3,0.2,6,2,8.5
	c1.8,2.4,4.4,4.1,7.4,4.5c0.6,0.1,1.2,0.1,1.8,0.1c2.4,0,4.7-0.7,6.7-2.2l14.4-10.5c1.1-0.8,2.6-0.8,3.7,0l37.7,27.4
	C2192.2,3796.4,2192.7,3797.8,2192.5,3799.2L2192.5,3799.2z M2188.1,3730.6L2171,3743c-0.5,0.4-1.2,0.4-1.8,0.1
	c-7-4.6-16.1-4.7-23.2-0.4c-0.2,0.1-0.4,0.2-0.6,0.4l-7.4,5.4l-24.6-17.9L2188.1,3730.6L2188.1,3730.6z M2198.8,3724.8
	c-0.6-0.6-1.5-1-2.4-1h-91.2c-1.9,0-3.4,1.5-3.4,3.4c0,0,0,0,0,0v77.1c0,1.1,0.5,2.1,1.4,2.7l43.9,31.9h0c2.2,1.6,5.2,1.6,7.4,0
	l43.9-31.9c0.9-0.6,1.4-1.7,1.4-2.7v-77.1C2199.8,3726.3,2199.4,3725.4,2198.8,3724.8L2198.8,3724.8z M2250.3,3836.5
	c0-2.3-1.7-3.8-4.1-3.8h-5.8v7.6h5.8C2248.6,3840.3,2250.3,3838.8,2250.3,3836.5L2250.3,3836.5z M2236.2,3853V3829h10.5
	c5,0,7.8,3.4,7.8,7.5c0,4.1-2.8,7.5-7.8,7.5h-6.3v9L2236.2,3853L2236.2,3853z M2257.3,3853v-17.3h3.8v2.5c1.3-1.7,3.4-2.9,5.6-2.9
	v3.7c-0.4-0.1-0.8-0.1-1.1-0.1c-1.6,0-3.7,1.1-4.5,2.3v11.8L2257.3,3853 M2281.8,3844.3c0-3.1-1.8-5.7-5-5.7c-3.2,0-5,2.7-5,5.7
	c0,3.1,1.8,5.8,5,5.8C2280.1,3850.1,2281.8,3847.4,2281.8,3844.3L2281.8,3844.3z M2268,3844.3c0-5,3.4-9.1,8.9-9.1
	c5.5,0,8.9,4.1,8.9,9.1c0,5-3.4,9.1-8.9,9.1C2271.3,3853.4,2268,3849.2,2268,3844.3L2268,3844.3z M2310.2,3853v-11.3
	c0-1.9-0.8-3.1-2.9-3.1c-1.7,0-3.3,1.1-4,2.3v12.1h-3.8v-11.3c0-1.9-0.8-3.1-2.8-3.1c-1.7,0-3.2,1.2-4,2.3v12.1h-3.8v-17.3h3.8v2.3
	c0.8-1,3-2.8,5.7-2.8c2.6,0,4.2,1.3,4.7,3.2c1-1.5,3.3-3.2,5.9-3.2c3.2,0,5,1.7,5,5.2v12.5L2310.2,3853 M2318.1,3853h3.8v-17.3h-3.8
	V3853z M2317.7,3831.2c0-1.3,1-2.3,2.3-2.3c0,0,0,0,0,0c1.3,0,2.3,1,2.3,2.3c0,0,0,0,0,0c0,1.3-1,2.3-2.3,2.3c0,0,0,0,0,0
	C2318.7,3833.5,2317.7,3832.5,2317.7,3831.2C2317.7,3831.2,2317.7,3831.2,2317.7,3831.2L2317.7,3831.2z M2325.3,3850.7l1.7-2.7
	c1.2,1.3,3.6,2.4,5.8,2.4c2.3,0,3.4-0.9,3.4-2.3c0-3.4-10.5-1-10.5-7.6c0-2.8,2.4-5.2,6.8-5.2c2.9,0,5.2,1,6.7,2.4l-1.6,2.7
	c-1-1.1-2.9-2.1-5.1-2.1c-2,0-3.2,0.9-3.2,2.2c0,3.1,10.5,0.8,10.5,7.6c0,3.1-2.5,5.4-7.2,5.4
	C2329.7,3853.4,2327.1,3852.4,2325.3,3850.7 M2350.7,3838.3c-3.2,0-4.7,2.5-4.8,4.6h9.8C2355.5,3840.8,2354.1,3838.3,2350.7,3838.3
	L2350.7,3838.3z M2341.9,3844.3c0-5,3.7-9.1,8.8-9.1c5.2,0,8.5,3.9,8.5,9.4v0.9h-13.3c0.3,2.6,2.2,4.8,5.5,4.8c1.7,0,3.7-0.7,5-1.9
	l1.7,2.5c-1.8,1.6-4.3,2.6-7,2.6C2345.8,3853.4,2341.9,3849.8,2341.9,3844.3L2341.9,3844.3z M2360.8,3850.7l1.7-2.7
	c1.2,1.3,3.6,2.4,5.8,2.4c2.3,0,3.4-0.9,3.4-2.3c0-3.4-10.5-1-10.5-7.6c0-2.8,2.4-5.2,6.8-5.2c2.9,0,5.2,1,6.7,2.4l-1.6,2.7
	c-1-1.1-2.9-2.1-5.1-2.1c-2,0-3.2,0.9-3.2,2.2c0,3.1,10.5,0.8,10.5,7.6c0,3.1-2.5,5.4-7.2,5.4
	C2365.2,3853.4,2362.5,3852.4,2360.8,3850.7 M2405.6,3841c0-4.6-2.9-8.3-8.2-8.3h-4.7v16.5h4.7
	C2402.6,3849.3,2405.6,3845.5,2405.6,3841z M2388.5,3853V3829h8.9c7.5,0,12.5,5,12.5,11.9c0,7.1-5,12-12.5,12H2388.5L2388.5,3853z
	 M2420.9,3838.3c-3.2,0-4.7,2.5-4.8,4.6h9.8C2425.7,3840.8,2424.3,3838.3,2420.9,3838.3L2420.9,3838.3z M2412.1,3844.3
	c0-5,3.7-9.1,8.8-9.1c5.2,0,8.5,3.9,8.5,9.4v0.9h-13.3c0.3,2.6,2.2,4.8,5.5,4.8c1.7,0,3.7-0.7,5-1.9l1.7,2.5c-1.8,1.6-4.3,2.6-7,2.6
	C2416,3853.4,2412.1,3849.8,2412.1,3844.3L2412.1,3844.3z M2432.4,3853h3.8V3829h-3.8V3853z M2440.4,3853h3.8v-17.3h-3.8V3853z
	 M2439.9,3831.2c0-1.3,1-2.3,2.3-2.3c0,0,0,0,0,0c1.3,0,2.3,1,2.3,2.3c0,0,0,0,0,0c0,1.3-1,2.3-2.3,2.3c0,0,0,0,0,0
	C2441,3833.5,2439.9,3832.5,2439.9,3831.2C2439.9,3831.2,2439.9,3831.2,2439.9,3831.2L2439.9,3831.2z M2453.6,3853l-7.1-17.3h4.1
	l5.1,13l5.1-13h4l-7.1,17.3H2453.6 M2473.4,3838.3c-3.2,0-4.7,2.5-4.8,4.6h9.8C2478.2,3840.8,2476.8,3838.3,2473.4,3838.3
	L2473.4,3838.3z M2464.6,3844.3c0-5,3.7-9.1,8.8-9.1c5.2,0,8.5,3.9,8.5,9.4v0.9h-13.3c0.3,2.6,2.2,4.8,5.5,4.8c1.7,0,3.7-0.7,5-1.9
	l1.7,2.5c-1.8,1.6-4.3,2.6-7,2.6C2468.4,3853.4,2464.6,3849.8,2464.6,3844.3L2464.6,3844.3z M2484.9,3853v-17.3h3.8v2.5
	c1.3-1.7,3.4-2.9,5.6-2.9v3.7c-0.4-0.1-0.8-0.1-1.2-0.1c-1.6,0-3.7,1.1-4.5,2.3v11.8L2484.9,3853 M2503.6,3838.3
	c-3.2,0-4.7,2.5-4.8,4.6h9.8C2508.4,3840.8,2507,3838.3,2503.6,3838.3L2503.6,3838.3z M2494.9,3844.3c0-5,3.7-9.1,8.8-9.1
	c5.2,0,8.5,3.9,8.5,9.4v0.9h-13.3c0.3,2.6,2.2,4.8,5.5,4.8c1.7,0,3.7-0.7,4.9-1.9l1.7,2.5c-1.8,1.6-4.3,2.6-7,2.6
	C2498.7,3853.4,2494.9,3849.8,2494.9,3844.3L2494.9,3844.3z M2527.4,3847.7v-6.9c-0.8-1.3-2.7-2.3-4.5-2.3c-3,0-4.9,2.4-4.9,5.7
	c0,3.4,1.9,5.8,4.9,5.8C2524.7,3850.1,2526.6,3849,2527.4,3847.7z M2527.4,3853v-2.4c-1.3,1.7-3.3,2.8-5.6,2.8
	c-4.4,0-7.7-3.4-7.7-9.1c0-5.6,3.2-9.1,7.7-9.1c2.2,0,4.2,1,5.6,2.8v-9h3.8v23.9L2527.4,3853L2527.4,3853z"/>
</svg>
