<?xml version="1.0" encoding="utf-8"?>
<!-- Generator: Adobe Illustrator 23.0.0, SVG Export Plug-In . SVG Version: 6.00 Build 0)  -->
<svg version="1.1" id="Layer_1" xmlns="http://www.w3.org/2000/svg" xmlns:xlink="http://www.w3.org/1999/xlink" x="0px" y="0px"
	 viewBox="0 0 400 400" style="enable-background:new 0 0 400 400;" xml:space="preserve">
<style type="text/css">
	.st0{fill:#BECCDD;}
	.st1{fill:#3973BC;}
	.st2{fill:#3162A1;}
	.st3{fill:#6B9FE0;}
	.st4{fill:#4183D7;}
	.st5{fill:#EB712E;}
	.st6{fill:#FFAA6A;}
	.st7{fill:#F8CC8A;}
	.st8{fill:#FF712E;}
	.st9{fill:#F4B350;}
	.st10{fill:#CD4B1A;}
	.st11{fill:none;stroke:#BECCDD;stroke-linecap:round;stroke-miterlimit:10;}
	.st12{fill:#BFBFBF;}
	.st13{opacity:0.15;fill:#F22613;enable-background:new    ;}
	.st14{fill:#F22613;}
	.st15{fill:#FFFFFF;}
	.st16{fill:#1D8ECC;}
	.st17{fill:#1979AD;}
	.st18{fill:#26C281;}
	.st19{fill:#049372;}
	.st20{fill:none;stroke:#049372;stroke-width:3;stroke-linecap:round;stroke-linejoin:round;stroke-dasharray:26,12,0,12,163,0;}
	.st21{fill:#037B5F;}
	.st22{fill:none;stroke:#037D61;stroke-width:3;stroke-linecap:round;stroke-linejoin:round;stroke-dasharray:26,12,0,12,163,0;}
	.st23{fill:#212F3C;}
	.st24{fill:#22A7F0;}
	.st25{fill:#ECEEF0;}
	.st26{fill:none;stroke:#BDC3C7;stroke-width:3;}
	.st27{fill:#5B6C7D;}
	.st28{fill:none;stroke:#1D8ECC;stroke-width:3;}
	.st29{fill:#036951;}
	.st30{fill:#20A56E;}
	.st31{fill:#037D61;}
</style>
<g id="Group_76_1_" transform="translate(27.133 -2.91)">
	<ellipse id="Ellipse_253_1_" class="st0" cx="171.3" cy="377.3" rx="184.4" ry="13.7"/>
	<path id="Path_337_1_" class="st1" d="M356.2,151.9L280.7,18.7c-0.5-1.1-1.5-1.8-2.7-1.8c-1.2,0.1-2.2,0.8-2.8,1.8l-75.5,133.2
		c-1.7,3-0.1,7.3,2.8,7.3h34.3v213.5c0.1,2.6,2.3,4.6,4.9,4.5h72.7c2.6,0.1,4.8-1.9,4.9-4.5V159.2h34.3
		C356.3,159.2,357.9,155,356.2,151.9z"/>
	<rect id="Rectangle_160_1_" x="258.5" y="16.9" class="st1" width="19.4" height="18.2"/>
	<path id="Path_338_1_" class="st2" d="M236.7,372.7c0.1,2.6,2.3,4.6,4.9,4.6h72.7c2.6,0.1,4.8-2,4.9-4.6V224.3h-82.4V372.7z"/>
	<path id="Path_339_1_" class="st3" d="M336.8,151.9L261.2,18.7c-0.5-1.1-1.5-1.8-2.7-1.8c-1.2,0.1-2.2,0.8-2.8,1.8l-75.5,133.2
		c-1.7,3-0.1,7.3,2.8,7.3h34.3v213.5c0.1,2.6,2.3,4.6,4.9,4.5h72.7c2.6,0.1,4.8-1.9,4.9-4.5V159.2H334
		C336.8,159.2,338.5,155,336.8,151.9z"/>
	<path id="Path_340_1_" class="st4" d="M217.3,372.7c0.1,2.6,2.3,4.6,4.9,4.6h72.7c2.6,0.1,4.8-2,4.9-4.6V224.3l-82.4,77.3
		L217.3,372.7z"/>
	<g id="Group_63_1_" transform="translate(52.068 61.61)">
		<path id="Path_341_1_" class="st5" d="M148.1,135.1c-37.6,0-68,40.4-68,90.3s30.4,90.3,68,90.3c37.5,0,68-40.4,68-90.3
			S185.7,135.1,148.1,135.1"/>
	</g>
	<rect id="Rectangle_161_1_" x="181" y="196.8" class="st5" width="19.2" height="180.5"/>
	<g id="Group_64_1_" transform="translate(45.896 61.61)">
		<path id="Path_342_1_" class="st6" d="M135.1,135.1c-37.6,0-68,40.4-68,90.3s30.4,90.3,68,90.3c37.5,0,68-40.4,68-90.3
			S172.6,135.1,135.1,135.1"/>
	</g>
	<g id="Group_65_1_" transform="translate(50.256 67.397)">
		<path id="Path_343_1_" class="st7" d="M130.7,147.4c-30.1,0-54.4,32.3-54.4,72.2s24.4,72.2,54.4,72.2s54.4-32.3,54.4-72.2
			S160.8,147.4,130.7,147.4"/>
	</g>
	<path id="Path_344_1_" class="st8" d="M210.9,271.1h-5.4v-28h-10.4v43.6l-17.3-43.6h-10.4v28h-5.4v8.7h5.4v33.6h10.4v-43.2
		l17.3,43.2h10.4v-33.6h5.4V271.1z"/>
	<path id="Path_345_1_" class="st5" d="M136.2,287c0-37.7,21.8-68.7,49.6-71.9c-1.6-0.2-3.2-0.3-4.8-0.3
		c-30.1,0-54.4,32.3-54.4,72.2s24.4,72.2,54.4,72.2c1.6,0,3.2-0.1,4.8-0.3C158,355.7,136.2,324.8,136.2,287z"/>
	<g id="Group_66_1_" transform="translate(49.91 73.866)">
		<path id="Path_346_1_" class="st8" d="M199.1,213.2c0.1-18.1-4.2-36-12.5-52.1l-11.1,10.4c6.7,12.9,10.1,27.2,10,41.7
			c0,39.9-24.4,72.2-54.4,72.2c-18.4,0-34.6-12.1-44.4-30.5l-11.1,10.4c12.3,23.1,32.6,38.2,55.5,38.2c6.6,0,13.1-1.3,19.2-3.7
			C178.5,288.7,199.1,254.2,199.1,213.2z"/>
		<path id="Path_347_1_" class="st9" d="M185.5,213.2c0,4.6-0.3,9.3-1,13.8c-0.4,2.2-0.8,4.4-1.2,6.5c-0.1,0.7-0.3,1.4-0.5,2.1
			c-0.3,1.3-0.6,2.5-1,3.7c-0.1,0.2-0.1,0.4-0.2,0.5c-0.2,0.8-0.5,1.7-0.8,2.5c-0.2,0.8-0.5,1.6-0.9,2.4c-0.5,1.5-1,3-1.7,4.4
			c0,0.1-0.1,0.2-0.1,0.3c-0.4,1.2-0.9,2.3-1.6,3.4l-0.3,0.5c-0.1,0.2-0.2,0.5-0.3,0.7c-0.8,1.5-1.6,2.9-2.4,4.3
			c-0.8,1.3-1.6,2.5-2.4,3.7c-0.2,0.3-0.4,0.6-0.6,0.9l-2,2.7c-0.3,0.4-0.6,0.7-0.9,1c-1.2,1.5-2.5,2.8-3.8,4.2
			c-0.1,0.1-0.2,0.2-0.2,0.3c-1.2,1.2-2.6,2.4-4,3.5c-1.4,1.1-2.8,2.2-4.3,3.2c-1.5,1-3.1,1.9-4.7,2.7c-1.6,0.7-3.1,1.5-4.8,2.1
			c-1.6,0.6-3.3,1.1-5,1.6c-0.8,0.2-1.6,0.4-2.5,0.5c-0.9,0.2-1.7,0.3-2.6,0.4c-18.3-2.1-34-16.3-42.6-36.4l24.3-22.8l8.8-8.3
			c0.5-0.5,1-0.8,1.6-1.5c1.2-0.9,2.8-2.5,5.8-5.4c1.2-1,2.4-2.3,3.9-3.7l3.9-3.6l3.7-3.5l10.4-9.7l19.9-18.7
			C182.2,184.4,185.6,198.7,185.5,213.2z"/>
		<path id="Path_348_1_" class="st10" d="M186.6,161.1c8.4,16.1,12.7,33.9,12.5,52.1c0,41-20.6,75.5-48.8,86.5
			c-6.1,2.4-12.7,3.7-19.2,3.7h19.2c37.5,0,68-40.4,68-90.3c0.1-18.1-4.2-36-12.5-52.1L186.6,161.1z"/>
		<path id="Path_349_1_" class="st10" d="M93.3,248.6l-6.7,6.2c9.9,18.5,26.1,30.5,44.4,30.5c1.6,0,3.2-0.1,4.8-0.3
			C117.6,282.9,101.9,268.8,93.3,248.6z"/>
	</g>
	<g id="Group_67_1_" transform="translate(31.844 76.09)">
		<path id="Path_350_1_" class="st5" d="M88.3,165.8c-28.2,0-51,30.3-51,67.7s22.8,67.7,51,67.7s51-30.3,51-67.7
			S116.5,165.8,88.3,165.8"/>
	</g>
	<rect id="Rectangle_162_1_" x="105.7" y="241.9" class="st5" width="14.4" height="135.4"/>
	<g id="Group_68_1_" transform="translate(27.214 76.09)">
		<path id="Path_351_1_" class="st6" d="M78.5,165.8c-28.2,0-51,30.3-51,67.7s22.8,67.7,51,67.7s51-30.3,51-67.7
			S106.7,165.8,78.5,165.8"/>
	</g>
	<g id="Group_69_1_" transform="translate(30.484 80.429)">
		<path id="Path_352_1_" class="st7" d="M75.3,175c-22.5,0-40.8,24.3-40.8,54.2s18.3,54.2,40.8,54.2s40.8-24.3,40.8-54.2
			S97.8,175,75.3,175"/>
	</g>
	<path id="Path_353_1_" class="st8" d="M125.5,301.1h-4.2V281h-8.1v31.2L99.5,281h-8.1v20.1h-4.2v6.3h4.2v24.1h8.1v-30.9l13.6,30.9
		h8.1v-24.1h4.2V301.1z"/>
	<path id="Path_354_1_" class="st5" d="M72.1,309.6c0-28.3,16.4-51.5,37.2-53.9c-1.2-0.2-2.4-0.2-3.6-0.2
		c-22.5,0-40.8,24.3-40.8,54.2s18.3,54.2,40.8,54.2c1.2,0,2.4-0.1,3.6-0.2C88.5,361.1,72.1,337.9,72.1,309.6z"/>
	<g id="Group_70_1_" transform="translate(30.225 85.281)">
		<path id="Path_355_1_" class="st8" d="M126.5,224.3c0.1-13.6-3.1-27-9.4-39l-8.3,7.8c5,9.6,7.6,20.4,7.5,31.3
			c0,29.9-18.3,54.2-40.8,54.2c-13.8,0-25.9-9.1-33.3-22.9l-8.3,7.8c9.2,17.3,24.4,28.6,41.6,28.6c4.9,0,9.8-1,14.4-2.8
			C111.1,281,126.5,255.1,126.5,224.3z"/>
		<path id="Path_356_1_" class="st9" d="M116.3,224.4c0.1,6.8-0.9,13.5-2.9,20c-0.4,1.4-0.8,2.7-1.4,4c-0.9,2.4-1.9,4.8-3.1,7
			c-0.5,1.1-1.1,2.1-1.7,3.1c-1,1.6-1.9,2.9-2.9,4.3c-1,1.3-2.1,2.6-3.3,3.8c-0.6,0.8-1.3,1.5-2,2.1c-0.3,0.4-0.7,0.7-1.1,0.9
			c-0.8,0.7-1.6,1.4-2.4,2c-0.2,0.2-0.5,0.4-0.8,0.5c-0.8,0.6-1.6,1.1-2.4,1.6c-0.4,0.3-0.8,0.6-1.2,0.7c-1.1,0.6-2.2,1.2-3.3,1.6
			c-1,0.4-2,0.8-3,1.1c-0.4,0.1-0.7,0.2-1.1,0.4c-1.2,0.3-2.3,0.5-3.5,0.6c-0.2,0.1-0.4,0.1-0.6,0.1h-0.1c-0.1,0.1-0.2,0.1-0.3,0.1
			h-0.4c-0.7-0.1-1.4-0.3-2.1-0.5c-6-1.3-11.6-4.1-16.1-8.2c-1.4-1.2-2.7-2.5-4-3.8c-3.9-4.5-7-9.5-9.3-14.9l14-13l8.1-7.6l2.8-2.6
			c0.7-0.6,1.3-1.2,1.9-1.8c1.5-1.4,3.1-3.1,6-5.6l0.5-0.5l2.4-2.3l8.2-7.6l17.8-16.8C113.9,202.7,116.4,213.5,116.3,224.4z"/>
		<path id="Path_357_1_" class="st10" d="M117.1,185.3c6.3,12.1,9.5,25.5,9.4,39c0,30.7-15.5,56.6-36.6,64.9
			c-4.6,1.8-9.5,2.8-14.4,2.8h14.4c28.2,0,51-30.3,51-67.7c0.1-13.6-3.1-27-9.4-39L117.1,185.3z"/>
		<path id="Path_358_1_" class="st10" d="M47.2,250.9l-5,4.7c7.4,13.9,19.5,22.9,33.3,22.9c1.2,0,2.4-0.1,3.6-0.2
			C65.4,276.6,53.7,266,47.2,250.9z"/>
	</g>
	<g id="Group_71_1_" transform="translate(14.733 90.569)">
		<path id="Path_359_1_" class="st5" d="M35.1,196.5c-18.8,0-34,20.2-34,45.1c0,24.9,15.2,45.1,34,45.1s34-20.2,34-45.1
			C69.1,216.6,53.9,196.5,35.1,196.5"/>
	</g>
	<rect id="Rectangle_163_1_" x="40.2" y="287" class="st5" width="9.6" height="90.3"/>
	<g id="Group_72_1_" transform="translate(11.647 90.569)">
		<path id="Path_360_1_" class="st6" d="M28.6,196.5c-18.8,0-34,20.2-34,45.1c0,24.9,15.2,45.1,34,45.1s34-20.2,34-45.1
			C62.6,216.6,47.3,196.5,28.6,196.5"/>
	</g>
	<g id="Group_73_1_" transform="translate(13.827 93.462)">
		<path id="Path_361_1_" class="st7" d="M26.4,202.6c-15,0-27.2,16.2-27.2,36.1s12.2,36.1,27.2,36.1s27.2-16.2,27.2-36.1
			S41.4,202.6,26.4,202.6"/>
	</g>
	<path id="Path_362_1_" class="st8" d="M56.1,328h-3.2v-12.7h-6.2v19.8l-10.4-19.8H30V328h-3.2v4H30v15.3h6.2v-19.6l10.4,19.6h6.2
		V332h3.2L56.1,328z"/>
	<path id="Path_363_1_" class="st5" d="M17.8,332.2c0-18.9,10.9-34.3,24.8-36c-0.8-0.1-1.6-0.2-2.4-0.2c-15,0-27.2,16.2-27.2,36.1
		c0,19.9,12.2,36.1,27.2,36.1c0.8,0,1.6-0.1,2.4-0.2C28.7,366.5,17.8,351,17.8,332.2z"/>
	<path id="Path_364_1_" class="st8" d="M74.2,332.2c0.1-9.1-2.1-18-6.3-26l-5.5,5.2c3.3,6.4,5.1,13.6,5,20.8
		c0,20-12.2,36.1-27.2,36.1c-9.2,0-17.3-6-22.2-15.3l-5.5,5.2c6.2,11.5,16.3,19.1,27.7,19.1c3.3,0,6.6-0.6,9.6-1.9
		C63.9,369.9,74.2,352.7,74.2,332.2z"/>
	<path id="Path_365_1_" class="st9" d="M67.4,332.1c0,18.9-10.9,34.3-24.8,36c-9.1-1-17-8.1-21.3-18.2l41.1-38.5
		C65.8,317.7,67.5,324.9,67.4,332.1z"/>
	<path id="Path_366_1_" class="st10" d="M67.9,306.1c4.2,8,6.3,17,6.3,26c0,20.5-10.3,37.8-24.4,43.3c-3.1,1.2-6.3,1.9-9.6,1.9h9.6
		c18.8,0,34-20.2,34-45.1c0.1-9.1-2.1-18-6.3-26L67.9,306.1z"/>
	<path id="Path_367_1_" class="st10" d="M21.3,349.9L18,353c4.9,9.2,13,15.3,22.2,15.3c0.8,0,1.6-0.1,2.4-0.2
		C33.5,367.1,25.6,360,21.3,349.9z"/>
	<g id="Group_75_1_" transform="translate(26.843 19.015)">
		<ellipse id="Ellipse_254_1_" class="st0" cx="73.6" cy="154.2" rx="19.4" ry="18.2"/>
		<ellipse id="Ellipse_255_1_" class="st0" cx="36.4" cy="119.4" rx="9.7" ry="9.1"/>
		<g id="Group_74_1_" transform="translate(8.803)">
			<line id="Line_38_1_" class="st11" x1="74.4" y1="54.1" x2="84.1" y2="45"/>
			<line id="Line_39_1_" class="st11" x1="45.4" y1="81.4" x2="55.1" y2="72.3"/>
			<line id="Line_40_1_" class="st11" x1="74.4" y1="72.3" x2="84.1" y2="81.4"/>
			<line id="Line_41_1_" class="st11" x1="45.4" y1="45" x2="55.1" y2="54.1"/>
		</g>
	</g>
	<path id="Path_368_1_" class="st10" d="M30,341.7l6.2-5.8v11.4H30V341.7z"/>
	<path id="Path_369_1_" class="st10" d="M56.2,328v3.9h-3.3v15.3h-6.2l-7.5-14.1l4.3-4l3.2,6v-9l6.2-5.8v7.7L56.2,328z"/>
	<path id="Path_370_1_" class="st10" d="M91.4,323.2l8.1-7.6v15.8h-8.1V323.2z"/>
	<path id="Path_371_1_" class="st10" d="M125.5,301.1v6.2h-4.2v24.1h-8.2l-8.9-20.2c1.5-1.4,3.1-3.1,6-5.6l2.9,6.6v-9.4l8.2-7.6v5.9
		H125.5z"/>
	<path id="Path_372_1_" class="st10" d="M176.3,291.6c0.5-0.5,1-0.8,1.6-1.5v23.2h-10.4v-13.5L176.3,291.6z"/>
	<path id="Path_373_1_" class="st10" d="M211,271v8.7h-5.4v33.6h-10.4l-11.5-28.6c1.2-1,2.4-2.3,3.9-3.7l3.9-3.6l3.7,9.2v-12.6
		l10.4-9.7v6.8L211,271z"/>
</g>
</svg>
