<?xml version="1.0" encoding="utf-8"?>
<!-- Generator: Adobe Illustrator 23.0.0, SVG Export Plug-In . SVG Version: 6.00 Build 0)  -->
<svg version="1.1" xmlns="http://www.w3.org/2000/svg" xmlns:xlink="http://www.w3.org/1999/xlink" x="0px" y="0px"
	 viewBox="0 0 160 160" style="enable-background:new 0 0 160 160;" xml:space="preserve">
<style type="text/css">
	.st0{fill:#F0F9FC;}
	.st1{fill:#FFFFFF;}
	.st2{fill:#6A79A8;}
	.st3{clip-path:url(#SVGID_2_);}
	.st4{fill:#BBDFF5;}
</style>
<g id="Ñëîé_1_1_">
</g>
<g id="Ñëîé_2">
</g>
<g id="Ñëîé_3">
</g>
<g id="Ñëîé_4">
	<g>
		<path class="st0" d="M46.3,140.9c-3.2-0.7-41.5-6.6-38.7-50c2.8-43.5,6.4-56.6,21.3-61.4S80,2,108.4,23.6s59.1,40.8,46.9,75.2
			s-14.2,45.8-45.9,44.1C77.6,141.1,61.5,144,46.3,140.9z"/>
		<g id="XMLID_2_">
			<path id="XMLID_34_" class="st1" d="M134.5,70.9H80.7c-1.9,0-3.5-1.6-3.5-3.5v-1.4c0-1.9,1.6-3.5,3.5-3.5h53.8
				c1.9,0,3.5,1.6,3.5,3.5v1.4C138,69.3,136.4,70.9,134.5,70.9z"/>
			<path id="XMLID_33_" class="st1" d="M138.9,59.4h-21.6c-1.9,0-3.4-1.5-3.4-3.4l0,0c0-1.9,1.5-3.4,3.4-3.4h21.6
				c1.9,0,3.4,1.5,3.4,3.4l0,0C142.3,57.9,140.8,59.4,138.9,59.4z"/>
			<path id="XMLID_30_" class="st1" d="M142.9,80.3h-21.6c-1.9,0-3.4-1.5-3.4-3.4l0,0c0-1.9,1.5-3.4,3.4-3.4h21.6
				c1.9,0,3.4,1.5,3.4,3.4l0,0C146.3,78.8,144.8,80.3,142.9,80.3z"/>
			<path id="XMLID_28_" class="st1" d="M131.6,73.8c-1.1,0-1.9-0.6-1.9-1.5c0-0.8,0.9-1.5,1.9-1.5h-8.3c1.1,0,1.9,0.6,1.9,1.5
				c0,0.8-0.9,1.5-1.9,1.5H131.6z"/>
			<path id="XMLID_4_" class="st1" d="M134.3,62.4c-1.1,0-2-0.7-2-1.5s0.9-1.5,2-1.5h-8.7c1.1,0,2,0.7,2,1.5s-0.9,1.5-2,1.5H134.3z"
				/>
		</g>
		<g id="XMLID_8_">
			<path id="XMLID_27_" class="st1" d="M13.8,92.6h53.8c1.9,0,3.5-1.6,3.5-3.5v-1.4c0-1.9-1.6-3.5-3.5-3.5H13.8
				c-1.9,0-3.5,1.6-3.5,3.5V89C10.3,91,11.9,92.6,13.8,92.6z"/>
			<path id="XMLID_14_" class="st1" d="M9.4,81.1H31c1.9,0,3.4-1.5,3.4-3.4l0,0c0-1.9-1.5-3.4-3.4-3.4H9.4c-1.9,0-3.4,1.5-3.4,3.4
				l0,0C6,79.6,7.5,81.1,9.4,81.1z"/>
			<path id="XMLID_13_" class="st1" d="M5.4,102h21.6c1.9,0,3.4-1.5,3.4-3.4l0,0c0-1.9-1.5-3.4-3.4-3.4H5.4c-1.9,0-3.4,1.5-3.4,3.4
				l0,0C2,100.5,3.5,102,5.4,102z"/>
			<path id="XMLID_10_" class="st1" d="M16.7,95.5c1.1,0,1.9-0.6,1.9-1.5s-0.9-1.5-1.9-1.5H25c-1.1,0-1.9,0.6-1.9,1.5
				s0.9,1.5,1.9,1.5H16.7z"/>
			<path id="XMLID_9_" class="st1" d="M14,84.2c1.1,0,2-0.7,2-1.5c0-0.8-0.9-1.5-2-1.5h8.7c-1.1,0-2,0.7-2,1.5c0,0.8,0.9,1.5,2,1.5
				H14z"/>
		</g>
		<g>
			<path class="st1" d="M27.2,136.7c0.1,0,18.9-22.7,19-22.8c3-2.6,6.1-4.9,9.2-7.3c2.1-1.6,3.7-3.7,4.8-6.1
				c1.2-2.6,2.4-5.4,3.2-8.2c0.3-0.9,0.9-2.2,0.8-3.1c-0.1-0.9-1.2-1.9-1.8-2.5c-0.9-0.8-1.9-1.5-2.9-2.1c-1.1-0.7-1.3-0.8-1.5-2
				c-0.3-3.1,0-6.4,0-9.5c0-3.1,0.4-8.5,0.4-14l3.9-7.9c1.3-2.6,1.3-5.4-0.7-7.6c-1.5-1.5-3.7-0.9-4.8-0.3c-3.9,2-6.3,5.5-8.7,9.1
				c-1.8,2.6-3.7,5.3-5.5,7.9c-1.5,2.1-3.3,4.1-4.2,6.6c-1.1,2.7-1.4,5.7-1.8,8.6c-0.5,4.2-0.9,8.4-1.3,12.6
				c-0.2,2.2-0.4,4.4-0.7,6.5c-0.2,1.6-0.3,3.2-0.9,4.6c-0.8,1.9-2.2,3.5-3.5,5.1c-0.4,0.5-19.4,19.9-19.4,19.9L27.2,136.7z"/>
			<g>
				<path class="st2" d="M27.2,137c0,0-0.1,0-0.1,0c-0.1-0.1-0.2-0.2-0.1-0.3c0,0,0-0.1,0.1-0.1c0.5-0.5,9-10.8,14.1-17
					c4.4-5.3,4.8-5.8,4.9-5.8c2.6-2.2,5.4-4.3,8.1-6.4c0.4-0.3,0.8-0.6,1.2-0.9c2-1.5,3.7-3.6,4.7-6c1.1-2.4,2.3-5.3,3.2-8.1
					c0.1-0.2,0.1-0.5,0.2-0.7c0.3-0.8,0.6-1.7,0.5-2.3c-0.1-0.8-1.2-1.8-1.7-2.3c-0.9-0.9-2-1.6-2.9-2.1l-0.1-0.1
					c-1-0.6-1.4-0.8-1.5-2.2c-0.2-2.1-0.1-4.3,0-6.4c0-1,0.1-2.1,0.1-3.1c0-1.4,0.1-3.3,0.2-5.5c0.1-2.6,0.2-5.5,0.3-8.5
					c0,0,0-0.1,0-0.1l3.9-7.9c1.4-2.8,1.1-5.4-0.7-7.3c-1.6-1.7-4.2-0.4-4.5-0.3c-3.8,2-6.1,5.3-8.5,8.8l-5.6,8.1
					c-0.4,0.5-0.8,1.1-1.2,1.6c-1.1,1.5-2.3,3.1-3,5c-1,2.6-1.4,5.4-1.7,8.1l-0.1,0.4c-0.4,3.4-0.7,6.8-1,10.1
					c-0.1,0.8-0.1,1.7-0.2,2.5c-0.1,1.5-0.3,3.1-0.5,4.6c-0.1,0.6-0.1,1.3-0.2,1.9c0,0.2,0,0.4-0.1,0.5c-0.1,1.4-0.3,2.8-0.8,4.2
					c-0.8,1.8-2,3.2-3.2,4.7c-0.1,0.2-0.3,0.3-0.4,0.5c-0.4,0.5-18.6,19.1-19.4,19.9c-0.1,0.1-0.3,0.1-0.4,0c-0.1-0.1-0.1-0.3,0-0.4
					c6.5-6.7,19-19.4,19.4-19.8c0.1-0.2,0.3-0.3,0.4-0.5c1.2-1.4,2.4-2.8,3.1-4.5c0.5-1.3,0.7-2.7,0.8-4c0-0.2,0-0.4,0.1-0.5
					c0.1-0.6,0.1-1.3,0.2-1.9c0.2-1.5,0.3-3.1,0.5-4.6c0.1-0.8,0.2-1.7,0.2-2.5c0.3-3.3,0.6-6.8,1-10.1l0.1-0.4
					c0.4-2.7,0.7-5.6,1.7-8.2c0.7-1.9,1.9-3.5,3.1-5.1c0.4-0.5,0.8-1.1,1.1-1.6l5.6-8.1c2.4-3.4,4.9-7,8.7-9
					c1.5-0.8,3.6-1.1,5.1,0.4c2,2.1,2.2,4.8,0.8,7.8l-3.9,7.9c0,2.9-0.2,5.9-0.3,8.4c-0.1,2.2-0.2,4.1-0.2,5.5c0,1,0,2.1-0.1,3.1
					c-0.1,2.1-0.1,4.3,0,6.3c0.1,1.1,0.2,1.2,1.2,1.8l0.1,0.1c0.9,0.5,2,1.2,3,2.1c0.6,0.6,1.8,1.6,1.9,2.6c0.1,0.7-0.2,1.7-0.5,2.5
					c-0.1,0.3-0.2,0.5-0.2,0.7c-0.8,2.8-2.1,5.7-3.2,8.2c-1.1,2.4-2.8,4.5-4.9,6.1c-0.4,0.3-0.8,0.6-1.2,0.9c-2.7,2-5.4,4.1-8,6.3
					c-0.2,0.2-2.2,2.7-4.8,5.8c-2.8,3.4-6.3,7.6-9.2,11c-1.5,1.8-2.7,3.3-3.6,4.3c-0.4,0.5-0.8,1-1.1,1.2c-0.1,0.1-0.2,0.3-0.3,0.3
					C27.4,136.9,27.3,137,27.2,137z M27.2,136.5c0,0,0.1,0,0.1,0C27.2,136.5,27.2,136.5,27.2,136.5z"/>
			</g>
		</g>
		<g id="XMLID_35_">
			<g>
				<path class="st1" d="M94.6,22.2H62.3c-2.9,0-5.3,2.3-5.3,5.1v62.2c0,2.8,2.4,5.1,5.3,5.1h32.3c2.9,0,5.3-2.3,5.3-5.1V27.3
					C99.9,24.5,97.5,22.2,94.6,22.2z"/>
				<path class="st2" d="M94.6,94.9H62.3c-3.1,0-5.6-2.4-5.6-5.4V27.3c0-3,2.5-5.4,5.6-5.4h32.3c3.1,0,5.6,2.4,5.6,5.4v62.2
					C100.1,92.5,97.6,94.9,94.6,94.9z M62.3,22.5c-2.8,0-5.1,2.2-5.1,4.9v62.2c0,2.7,2.3,4.9,5.1,4.9h32.3c2.8,0,5.1-2.2,5.1-4.9
					V27.3c0-2.7-2.3-4.9-5.1-4.9H62.3z"/>
			</g>
			<g>
				<path class="st2" d="M82.2,27.5h-7.5c-0.5,0-0.9-0.4-0.9-0.9v-0.2c0-0.5,0.4-0.9,0.9-0.9h7.5c0.5,0,0.9,0.4,0.9,0.9v0.2
					C83.1,27.1,82.7,27.5,82.2,27.5z M74.7,26c-0.2,0-0.4,0.2-0.4,0.4v0.2c0,0.2,0.2,0.4,0.4,0.4h7.5c0.2,0,0.4-0.2,0.4-0.4v-0.2
					c0-0.2-0.2-0.4-0.4-0.4H74.7z"/>
			</g>
			<g>
				<path class="st2" d="M81.6,93h-6.1c-0.9,0-1.6-0.7-1.6-1.6V91c0-0.9,0.7-1.6,1.6-1.6h6.1c0.9,0,1.6,0.7,1.6,1.6v0.4
					C83.2,92.3,82.5,93,81.6,93z M75.5,89.9c-0.6,0-1.1,0.5-1.1,1.1v0.4c0,0.6,0.5,1.1,1.1,1.1h6.1c0.6,0,1.1-0.5,1.1-1.1V91
					c0-0.6-0.5-1.1-1.1-1.1H75.5z"/>
			</g>
			<g>
				<defs>
					<rect id="SVGID_1_" x="59.3" y="30.9" width="38.2" height="56.8"/>
				</defs>
				<clipPath id="SVGID_2_">
					<use xlink:href="#SVGID_1_"  style="overflow:visible;"/>
				</clipPath>
				<g class="st3">
					<path id="XMLID_36_" class="st1" d="M62.1,94.4L94,94.8c3.1,0,5.6-6.2,5.5-13.9l-0.7-44.7C98.6,28.9,96.1,23,93.1,23l-30.6,0.3
						c-3,0-5.4,5.8-5.4,13l-0.3,44.2C56.6,88.2,59.1,94.4,62.1,94.4z"/>
					<g>
						<path class="st0" d="M99.1,58.6l-22,36L94,94.8c3.1,0,5.6-6.2,5.5-13.9L99.1,58.6z"/>
						<g>
							<path class="st0" d="M56.8,67.9l26.7-44.7l-21,0.2c-3,0-5.4,5.8-5.4,13L56.8,67.9z"/>
							<path class="st0" d="M98.2,31L60.3,93.6c0.6,0.5,1.2,0.8,1.8,0.8l4.1,0l32.5-53.6l-0.1-4.8C98.7,34.3,98.5,32.6,98.2,31z"/>
						</g>
					</g>
				</g>
			</g>
			<g>
				<path class="st2" d="M97.5,88H59.4c-0.1,0-0.2-0.1-0.2-0.2V30.9c0-0.1,0.1-0.2,0.2-0.2h38.1c0.1,0,0.2,0.1,0.2,0.2v56.8
					C97.8,87.8,97.7,88,97.5,88z M59.6,87.5h37.6V31.2H59.6V87.5z"/>
			</g>
		</g>
		<g>
			<path class="st1" d="M51,79.2V59.5c0-3,2.2-5.4,4.9-5.4h0c2.7,0,4.9,2.4,4.9,5.4c0,2.7,0,5.4,0,8.2c0,7.3-0.1,14.6-0.5,21.8
				c-0.1,2.5-0.5,3.7-1.5,6c-1.4,3.1-3.2,5.7-5.5,8.4L51,79.2z"/>
			<g>
				<path class="st2" d="M53.4,104.1c-0.1,0-0.1,0-0.2-0.1c-0.1-0.1-0.1-0.2,0-0.4c2.6-3.1,4.2-5.6,5.4-8.3c1-2.3,1.3-3.4,1.5-5.9
					c0.4-8,0.5-15.8,0.5-21.8v-8.2c0-2.8-2.1-5.1-4.6-5.1h0c-2.6,0-4.6,2.3-4.6,5.1v15.9c0,0.1-0.1,0.2-0.2,0.2
					c-0.1,0-0.2-0.1-0.2-0.2V59.5c0-3.1,2.3-5.6,5.1-5.6h0c2.8,0,5.1,2.5,5.1,5.6v8.2c0,6-0.1,13.9-0.5,21.8
					c-0.1,2.5-0.5,3.7-1.5,6.1c-1.2,2.8-2.8,5.3-5.5,8.4C53.5,104.1,53.5,104.1,53.4,104.1z"/>
			</g>
			<g>
				<path class="st2" d="M48.2,80.6c-0.1,0-0.2,0-0.2-0.1c-0.1-0.1,0-0.3,0.1-0.3l0,0c0,0,1-0.6,1.8-1.9c0.8-1.2,1-1.7,1-1.7
					c0.1-0.1,0.2-0.2,0.3-0.1c0.1,0.1,0.2,0.2,0.1,0.3c0,0-0.2,0.4-1,1.7c-0.8,1.3-1.9,2-1.9,2C48.3,80.6,48.3,80.6,48.2,80.6z"/>
			</g>
			<g>
				<path class="st2" d="M56.5,64.4h-1.1c-1.7,0-3.1-1.4-3.1-3.1v-2.7c0-1.7,1.4-3.1,3.1-3.1h1.1c1.7,0,3.1,1.4,3.1,3.1v2.7
					C59.6,63,58.2,64.4,56.5,64.4z M55.4,55.9c-1.5,0-2.6,1.2-2.6,2.6v2.7c0,1.5,1.2,2.6,2.6,2.6h1.1c1.5,0,2.6-1.2,2.6-2.6v-2.7
					c0-1.5-1.2-2.6-2.6-2.6H55.4z"/>
			</g>
		</g>
		<g>
			<g>
				<path class="st1" d="M113.3,129.5c0.6,0.5,1.1,0.9,1.7,1.4c1.6,1.4,2.4,3.4,3.8,5c0.9,1,1.7,2,2.4,3.2l4.9,6.3
					c0,0,18-13.2,18.1-13.3c-1.5-2.4-2.3-3.1-3.8-5.5c-0.6-1-1.2-1.8-1.4-2.9c-0.2-1.5-0.3-3-0.5-4.4c-0.4-2.2-0.9-4.3-1.6-6.4
					c-0.7-2-1.9-3.6-3.1-5.3c-0.5-0.8-0.5-0.9-1.4-0.9c-0.7,0-1.4,0.2-2,0.3c-1.4,0.2-2.7,0.6-4.1,1c-0.5,0.1-0.9,0.3-1.4,0.5
					c-3.4,1.2-6.6,2.9-9.4,5.2c-2.5,2-5.4,4.9-5.9,8.2c-0.2,1.6,0.3,3.3,1,4.8C111.3,127.6,112.3,128.6,113.3,129.5z"/>
				<g>
					<path class="st2" d="M144.2,132.3c-0.1,0-0.2,0-0.2-0.1c-0.8-1.2-1.3-2-1.8-2.8c-0.5-0.8-1.1-1.6-1.9-2.8
						c-0.1-0.2-0.2-0.3-0.3-0.4c-0.5-0.8-1-1.5-1.2-2.5c-0.1-0.7-0.2-1.5-0.2-2.2c-0.1-0.7-0.1-1.5-0.3-2.2
						c-0.4-2.1-0.9-4.3-1.6-6.3c-0.5-1.5-1.4-2.8-2.3-4.1c-0.3-0.4-0.5-0.8-0.8-1.2c-0.1-0.1,0-0.3,0.1-0.3c0.1-0.1,0.3,0,0.3,0.1
						c0.3,0.4,0.5,0.8,0.8,1.2c0.9,1.3,1.8,2.7,2.3,4.2c0.7,2.1,1.3,4.2,1.6,6.4c0.1,0.8,0.2,1.5,0.3,2.3c0.1,0.7,0.1,1.5,0.2,2.2
						c0.1,0.9,0.6,1.6,1.1,2.3c0.1,0.1,0.2,0.3,0.3,0.5c0.8,1.2,1.3,2,1.8,2.8c0.5,0.8,1.1,1.6,1.9,2.8c0.1,0.1,0,0.3-0.1,0.3
						C144.3,132.2,144.2,132.3,144.2,132.3z"/>
				</g>
				<g>
					<path class="st2" d="M126.1,145.6c-0.1,0-0.2,0-0.2-0.1c-1-1.6-4.9-6.2-4.9-6.3c-0.1-0.1-0.1-0.3,0-0.4c0.1-0.1,0.3-0.1,0.4,0
						c0.2,0.2,3.9,4.7,4.9,6.3c0.1,0.1,0,0.3-0.1,0.3C126.2,145.6,126.1,145.6,126.1,145.6z"/>
				</g>
			</g>
			<g>
				<path class="st1" d="M129.8,126.1c-0.4-0.5-0.7-0.9-1.1-1.4c-0.6-0.8-1.2-1.5-1.7-2.3c-1.7-2.3-3.8-3.9-6.8-4.4
					c-3.1-0.6-6.3,0.2-9.4,0.7c-1.4,0.2-3.1,0.3-4.5,0.7l-9.9-10.4c-1.7-1.8-4.6-1.9-6.5-0.2l0,0c-1.8,1.7-1.9,4.6-0.2,6.5
					l11.7,12.3c0.4,0.6,1,1,1.5,1.5c0.4,0.4,0.9,0.8,1.3,1.2c0.5,0.4,1,0.8,1.4,1.2c1.3,1,3.2,1.5,4.7,2.1c2,0.8,3.9,1.4,5.9,1.9
					c1.8,0.4,3.4,2.1,4.7,3.3L129.8,126.1z"/>
				<g>
					<path class="st2" d="M121.1,139.3c-0.1,0-0.1,0-0.2-0.1l-0.1-0.1c-1.2-1.2-2.9-2.8-4.5-3.2c-2.3-0.5-4.4-1.3-6-1.9
						c-0.4-0.1-0.8-0.3-1.2-0.4c-1.3-0.4-2.6-0.9-3.6-1.7c-0.5-0.4-1-0.8-1.5-1.2l-0.3-0.2c-0.3-0.3-0.7-0.6-1.1-0.9
						c-0.1-0.1-0.3-0.3-0.4-0.4c-0.4-0.3-0.8-0.7-1.1-1.1l-11.7-12.3c-1.8-1.9-1.7-5,0.2-6.8l0,0c0.9-0.9,2.2-1.4,3.4-1.3
						c1.3,0,2.5,0.6,3.4,1.5l9.9,10.4c0.1,0.1,0.1,0.3,0,0.4c-0.1,0.1-0.3,0.1-0.4,0l-9.9-10.4c-0.8-0.8-1.9-1.3-3-1.3
						c-1.2,0-2.3,0.4-3.1,1.2l0,0c-1.7,1.6-1.8,4.4-0.2,6.1l11.7,12.3c0,0,0,0,0,0c0.3,0.4,0.7,0.7,1,1c0.2,0.1,0.3,0.3,0.5,0.4
						c0.3,0.3,0.7,0.6,1,0.9l0.3,0.2c0.4,0.4,0.9,0.8,1.4,1.2c1,0.8,2.2,1.2,3.5,1.6c0.4,0.1,0.8,0.3,1.2,0.4
						c1.6,0.6,3.7,1.4,5.9,1.9c1.8,0.4,3.5,2.1,4.8,3.3l0.1,0.1c0.1,0.1,0.1,0.3,0,0.4C121.3,139.2,121.2,139.3,121.1,139.3z"/>
				</g>
				<g>
					<path class="st2" d="M93.7,117.3c0,0-0.1,0-0.1,0c-0.8,0-1.5-0.4-2.1-1l-1.7-1.8c-1.1-1.2-1-3.1,0.2-4.2l0.1-0.1
						c0.6-0.5,1.3-0.8,2.1-0.8c0.8,0,1.5,0.4,2.1,1l1.7,1.8c0.5,0.6,0.8,1.4,0.8,2.1c0,0.8-0.4,1.5-1,2.1l-0.1,0.1
						C95.2,117,94.5,117.3,93.7,117.3z M92.1,109.9c-0.6,0-1.2,0.2-1.7,0.7l-0.1,0.1c-1,0.9-1.1,2.5-0.1,3.5l1.7,1.8
						c0.5,0.5,1.1,0.8,1.7,0.8c0.7,0,1.3-0.2,1.8-0.7l0.1-0.1l0,0c0.5-0.5,0.8-1.1,0.8-1.7c0-0.7-0.2-1.3-0.7-1.8l-1.7-1.8
						c-0.4-0.5-1.1-0.8-1.7-0.8C92.2,109.9,92.2,109.9,92.1,109.9z"/>
				</g>
			</g>
			<g>
				<path class="st1" d="M132.2,111.6c-1.7,1.1-4,0.6-5.1-1.1l-11.2-17.7c-1.1-1.7-0.6-4,1.1-5.1l0,0c1.7-1.1,4-0.6,5.1,1.1
					l11.2,17.7C134.4,108.2,132.2,111.6,132.2,111.6z"/>
				<g>
					<path class="st2" d="M133.9,107.6c-0.1,0-0.2,0-0.2-0.1L121.9,89c-0.5-0.8-1.3-1.3-2.2-1.5c-0.9-0.2-1.8,0-2.6,0.5l0,0
						c-1.6,1-2,3.1-1,4.7l5.4,8.5c0.1,0.1,0,0.3-0.1,0.3c-0.1,0.1-0.3,0-0.3-0.1l-5.4-8.5c-1.2-1.8-0.6-4.2,1.2-5.4l0,0
						c0.9-0.6,1.9-0.8,3-0.5c1,0.2,1.9,0.8,2.5,1.7l11.8,18.5c0.1,0.1,0,0.3-0.1,0.3C134,107.6,133.9,107.6,133.9,107.6z"/>
				</g>
			</g>
			<g>
				<path class="st1" d="M124.9,113.7c0,0-5,0.7-6.4-1.5L105.7,92c-1.4-2.2-0.7-5,1.4-6.4l0.1,0c2.2-1.4,4.7-1.3,8,4.1l11.1,17.7
					C127.8,110,127.1,112.4,124.9,113.7z"/>
				<g>
					<path class="st2" d="M118,111.7c-0.1,0-0.2,0-0.2-0.1l-12.2-19.5c-0.7-1.1-0.9-2.4-0.6-3.7c0.3-1.3,1-2.3,2.1-3l0.1,0
						c1.1-0.7,2.2-0.9,3.2-0.7c1.7,0.4,3.3,2,5.1,4.9l6.9,10.9c0.1,0.1,0,0.3-0.1,0.3c-0.1,0.1-0.3,0-0.3-0.1L115,89.8
						c-1.7-2.8-3.3-4.3-4.8-4.6c-0.9-0.2-1.8,0-2.8,0.6l-0.1,0c-1,0.6-1.7,1.6-1.9,2.7c-0.3,1.1-0.1,2.3,0.6,3.3l12.2,19.5
						c0.1,0.1,0,0.3-0.1,0.3C118.1,111.7,118,111.7,118,111.7z"/>
				</g>
			</g>
			<g>
				<path class="st1" d="M116.4,114.6c0,0-3.1,4.1-4.4,2L95.4,90.9c-1.4-2.1-0.8-4.9,1.3-6.3l0.1,0c2.1-1.4,4.9-0.8,6.3,1.3l15,23.4
					C119.5,111.3,118.5,113.2,116.4,114.6z"/>
				<g>
					<path class="st2" d="M107.4,109.7c-0.1,0-0.2,0-0.2-0.1L95.2,91c-0.7-1.1-0.9-2.3-0.7-3.6c0.3-1.3,1-2.3,2.1-3l0.1,0
						c2.2-1.4,5.2-0.8,6.6,1.4l12,18.6c0.1,0.1,0,0.3-0.1,0.3c-0.1,0.1-0.3,0-0.3-0.1l-12-18.6c-1.3-2-3.9-2.5-5.9-1.2l-0.1,0
						c-1,0.6-1.6,1.6-1.8,2.7c-0.2,1.1,0,2.3,0.6,3.2l12,18.6c0.1,0.1,0,0.3-0.1,0.3C107.5,109.7,107.5,109.7,107.4,109.7z"/>
				</g>
			</g>
			<g>
				<path class="st1" d="M110.8,122.6c-2.2,1.4-5.1,0.7-6.5-1.5L80,82.7c-1.4-2.2-0.7-5.1,1.5-6.5l0,0c2.2-1.4,5.1-0.7,6.5,1.5
					l24.2,38.4C113.6,118.3,110.8,122.6,110.8,122.6z"/>
				<g>
					<path class="st2" d="M99.9,114.1c-0.1,0-0.2,0-0.2-0.1L79.8,82.8c-1.5-2.3-0.8-5.4,1.6-6.8l0,0c2.3-1.5,5.4-0.8,6.9,1.6
						l19.7,31.3c0.1,0.1,0,0.3-0.1,0.3c-0.1,0.1-0.3,0-0.3-0.1L87.9,77.8c-1.3-2.1-4.1-2.7-6.2-1.4l0,0c-1,0.6-1.7,1.6-2,2.8
						c-0.3,1.2-0.1,2.4,0.6,3.4l19.8,31.2c0.1,0.1,0,0.3-0.1,0.3C100,114.1,99.9,114.1,99.9,114.1z"/>
				</g>
				<g>
					<path class="st2" d="M84.8,84.8c-1.1,0-2.1-0.5-2.8-1.5l-1-1.6c-0.5-0.7-0.6-1.6-0.4-2.5c0.2-0.8,0.7-1.6,1.4-2l0.1-0.1
						c0.7-0.5,1.6-0.6,2.5-0.4c0.8,0.2,1.6,0.7,2,1.4l1,1.6c1,1.5,0.5,3.5-1,4.5l-0.1,0.1C86,84.7,85.4,84.8,84.8,84.8z M83.9,77.1
						c-0.5,0-1,0.1-1.5,0.4l-0.1,0.1c-0.6,0.4-1.1,1-1.2,1.7c-0.2,0.7,0,1.5,0.4,2.1l1,1.6c0.4,0.6,1,1.1,1.7,1.2
						c0.7,0.2,1.5,0,2.1-0.4l0.1-0.1l0,0c1.3-0.8,1.7-2.5,0.9-3.8l-1-1.6c-0.4-0.6-1-1.1-1.7-1.2C84.3,77.1,84.1,77.1,83.9,77.1z"/>
				</g>
				<g>
					<path class="st2" d="M109.4,124.3c0,0-0.1,0-0.1,0c-4.7-3.3-8.9-9.1-8.9-9.2c-0.1-0.1-0.1-0.3,0.1-0.3c0.1-0.1,0.3-0.1,0.3,0.1
						c0,0.1,4.2,5.8,8.8,9.1c0.1,0.1,0.1,0.2,0.1,0.3C109.6,124.3,109.5,124.3,109.4,124.3z"/>
				</g>
			</g>
		</g>
		<g>
			<g>
				<path class="st4" d="M90.6,74.7H66.2c-1.5,0-2.8-1.2-2.8-2.8v-1.7c0-1.5,1.2-2.8,2.8-2.8h24.4c1.5,0,2.8,1.2,2.8,2.8v1.7
					C93.4,73.4,92.2,74.7,90.6,74.7z"/>
				<path class="st2" d="M90.6,74.9H66.2c-1.7,0-3-1.4-3-3v-1.7c0-1.7,1.4-3,3-3h24.4c1.7,0,3,1.4,3,3v1.7
					C93.7,73.6,92.3,74.9,90.6,74.9z M66.2,67.7c-1.4,0-2.5,1.1-2.5,2.5v1.7c0,1.4,1.1,2.5,2.5,2.5h24.4c1.4,0,2.5-1.1,2.5-2.5v-1.7
					c0-1.4-1.1-2.5-2.5-2.5H66.2z"/>
			</g>
			<g>
				<path class="st2" d="M73.1,69c0.3,0,0.7-0.1,1.3-0.1c0.6,0,1,0.1,1.3,0.3c0.3,0.2,0.4,0.6,0.4,1c0,0.4-0.1,0.8-0.4,1
					c-0.3,0.3-0.8,0.4-1.4,0.4c-0.1,0-0.2,0-0.3,0v1.5h-0.9V69z M74.1,70.9c0.1,0,0.2,0,0.3,0c0.5,0,0.8-0.3,0.8-0.7
					c0-0.4-0.3-0.6-0.7-0.6c-0.2,0-0.3,0-0.4,0V70.9z"/>
				<path class="st2" d="M77.7,72.1l-0.3,1.1h-1l1.3-4.2h1.2l1.3,4.2h-1l-0.3-1.1H77.7z M78.7,71.4l-0.3-0.9
					c-0.1-0.2-0.1-0.6-0.2-0.8h0c-0.1,0.2-0.1,0.6-0.2,0.8l-0.2,0.9H78.7z"/>
				<path class="st2" d="M81.5,73.1v-1.7l-1.3-2.5h1.1l0.4,1c0.1,0.3,0.2,0.5,0.3,0.8h0c0.1-0.3,0.2-0.5,0.3-0.8l0.4-1h1.1l-1.4,2.5
					v1.8H81.5z"/>
			</g>
		</g>
		<g>
			<g>
				<path class="st1" d="M92.6,60.8H64.3c-1.2,0-2.1-0.9-2.1-2.1V41c0-1.2,0.9-2.1,2.1-2.1h28.3c1.2,0,2.1,0.9,2.1,2.1v17.6
					C94.7,59.8,93.8,60.8,92.6,60.8z"/>
				<g>
					<path class="st2" d="M92.6,61H64.3c-1.3,0-2.3-1.1-2.3-2.3V41c0-1.3,1.1-2.3,2.3-2.3h28.3c1.3,0,2.3,1.1,2.3,2.3v17.6
						C95,60,93.9,61,92.6,61z M64.3,39.2c-1,0-1.8,0.8-1.8,1.8v17.6c0,1,0.8,1.8,1.8,1.8h28.3c1,0,1.8-0.8,1.8-1.8V41
						c0-1-0.8-1.8-1.8-1.8H64.3z"/>
				</g>
			</g>
			<g>
				<path class="st2" d="M76.4,58H65c-0.1,0-0.2-0.1-0.2-0.2c0-0.1,0.1-0.2,0.2-0.2h11.5c0.1,0,0.2,0.1,0.2,0.2
					C76.7,57.9,76.6,58,76.4,58z"/>
			</g>
			<g>
				<path class="st2" d="M76.4,41.9H65c-0.1,0-0.2-0.1-0.2-0.2c0-0.1,0.1-0.2,0.2-0.2h11.5c0.1,0,0.2,0.1,0.2,0.2
					C76.7,41.8,76.6,41.9,76.4,41.9z"/>
			</g>
			<g>
				<circle class="st4" cx="89" cy="44.7" r="2.8"/>
				<circle class="st4" cx="86.9" cy="44.7" r="2.8"/>
			</g>
			<g>
				<path class="st2" d="M88.6,47.3c-0.1,0-0.2-0.1-0.2-0.2c0-0.1,0.1-0.2,0.2-0.2c1.4,0,2.6-1.2,2.6-2.6c0-1.4-1.2-2.6-2.6-2.6
					c-0.1,0-0.2-0.1-0.2-0.2c0-0.1,0.1-0.2,0.2-0.2c1.7,0,3.1,1.4,3.1,3.1C91.7,45.9,90.3,47.3,88.6,47.3z"/>
			</g>
			<g>
				<path class="st2" d="M86.5,47.3c-1.7,0-3.1-1.4-3.1-3.1c0-1.7,1.4-3.1,3.1-3.1c1.7,0,3.1,1.4,3.1,3.1
					C89.6,45.9,88.2,47.3,86.5,47.3z M86.5,41.6c-1.4,0-2.6,1.2-2.6,2.6c0,1.4,1.2,2.6,2.6,2.6c1.4,0,2.6-1.2,2.6-2.6
					C89.1,42.8,87.9,41.6,86.5,41.6z"/>
			</g>
			<path class="st4" d="M70,49.4h-2.6c-1.1,0-2-0.9-2-2v-0.9c0-1.1,0.9-2,2-2H70c1.1,0,2,0.9,2,2v0.9C72.1,48.5,71.2,49.4,70,49.4z"
				/>
			<g>
				<path class="st2" d="M69.6,49.2H67c-1.3,0-2.3-1-2.3-2.3V46c0-1.3,1-2.3,2.3-2.3h2.6c1.3,0,2.3,1,2.3,2.3V47
					C71.8,48.2,70.8,49.2,69.6,49.2z M67,44.2c-1,0-1.8,0.8-1.8,1.8V47c0,1,0.8,1.8,1.8,1.8h2.6c1,0,1.8-0.8,1.8-1.8V46
					c0-1-0.8-1.8-1.8-1.8H67z"/>
			</g>
			<g>
				<rect x="65" y="52.5" class="st4" width="5.9" height="2.3"/>
				<rect x="71.9" y="52.5" class="st4" width="5.9" height="2.3"/>
				<rect x="78.9" y="52.5" class="st4" width="5.9" height="2.3"/>
				<rect x="86" y="52.5" class="st4" width="5.9" height="2.3"/>
			</g>
			<g>
				<g>
					<path class="st2" d="M70.9,54.7H65c-0.1,0-0.2-0.1-0.2-0.2c0-0.1,0.1-0.2,0.2-0.2h5.9c0.1,0,0.2,0.1,0.2,0.2
						C71.2,54.6,71.1,54.7,70.9,54.7z"/>
				</g>
				<g>
					<path class="st2" d="M91.9,54.7H86c-0.1,0-0.2-0.1-0.2-0.2c0-0.1,0.1-0.2,0.2-0.2h5.9c0.1,0,0.2,0.1,0.2,0.2
						C92.1,54.6,92,54.7,91.9,54.7z"/>
				</g>
				<g>
					<path class="st2" d="M84.9,54.7H79c-0.1,0-0.2-0.1-0.2-0.2c0-0.1,0.1-0.2,0.2-0.2h5.9c0.1,0,0.2,0.1,0.2,0.2
						C85.1,54.6,85,54.7,84.9,54.7z"/>
				</g>
				<g>
					<path class="st2" d="M77.9,54.7H72c-0.1,0-0.2-0.1-0.2-0.2c0-0.1,0.1-0.2,0.2-0.2h5.9c0.1,0,0.2,0.1,0.2,0.2
						C78.1,54.6,78,54.7,77.9,54.7z"/>
				</g>
			</g>
		</g>
	</g>
</g>
</svg>
