<?xml version="1.0" encoding="utf-8"?>
<!-- Generator: Adobe Illustrator 23.0.0, SVG Export Plug-In . SVG Version: 6.00 Build 0)  -->
<svg version="1.1" xmlns="http://www.w3.org/2000/svg" xmlns:xlink="http://www.w3.org/1999/xlink" x="0px" y="0px"
	 viewBox="0 0 160 160" style="enable-background:new 0 0 160 160;" xml:space="preserve">
<style type="text/css">
	.st0{fill:#F0F9FC;}
	.st1{fill:#FFFFFF;}
	.st2{fill:#6A79A8;}
	.st3{fill:#BBDFF5;}
	.st4{fill:#FF9C81;}
	.st5{fill:#FFC261;}
</style>
<g id="Ñëîé_1_1_">
</g>
<g id="Ñëîé_2">
</g>
<g id="Ñëîé_3">
</g>
<g id="Ñëîé_4">
</g>
<g id="Ñëîé_5">
	<g>
		<path class="st0" d="M42.8,141.5c-3.3-0.6-42.4-6.5-39.5-49.6c2.9-43.1,6.5-56,21.7-60.8c15.2-4.7,52.2-27.2,81.2-5.8
			s60.3,40.5,47.9,74.5c-12.4,34.1-14.4,45.4-46.8,43.7S58.3,144.6,42.8,141.5z"/>
		<g id="XMLID_76_">
			<path id="XMLID_112_" class="st1" d="M60.6,109.9h68.1c2.5,0,4.5,2,4.5,4.5v1.8c0,2.5-2,4.5-4.5,4.5H60.6c-2.5,0-4.5-2-4.5-4.5
				v-1.8C56.1,111.9,58.1,109.9,60.6,109.9z"/>
			<path id="XMLID_106_" class="st1" d="M55,124.4h27.3c2.4,0,4.3,1.9,4.3,4.3l0,0c0,2.4-1.9,4.3-4.3,4.3H55c-2.4,0-4.3-1.9-4.3-4.3
				l0,0C50.7,126.3,52.6,124.4,55,124.4z"/>
			<path id="XMLID_81_" class="st1" d="M49.9,98h27.3c2.4,0,4.3,1.9,4.3,4.3v0c0,2.4-1.9,4.3-4.3,4.3H49.9c-2.4,0-4.3-1.9-4.3-4.3v0
				C45.6,99.9,47.5,98,49.9,98z"/>
			<path id="XMLID_78_" class="st1" d="M64.2,106.2c1.3,0,2.4,0.8,2.4,1.8s-1.1,1.8-2.4,1.8h10.5c-1.3,0-2.4-0.8-2.4-1.8
				s1.1-1.8,2.4-1.8H64.2z"/>
			<path id="XMLID_77_" class="st1" d="M60.8,120.6c1.4,0,2.5,0.9,2.5,1.9s-1.1,1.9-2.5,1.9h11c-1.4,0-2.5-0.9-2.5-1.9
				s1.1-1.9,2.5-1.9H60.8z"/>
		</g>
		<g id="XMLID_70_">
			<path id="XMLID_75_" class="st1" d="M100.8,65.5H32.7c-2.5,0-4.5-2-4.5-4.5v-1.8c0-2.5,2-4.5,4.5-4.5h68.1c2.5,0,4.5,2,4.5,4.5
				V61C105.3,63.5,103.3,65.5,100.8,65.5z"/>
			<path id="XMLID_74_" class="st1" d="M106.4,51H79.1c-2.4,0-4.3-1.9-4.3-4.3l0,0c0-2.4,1.9-4.3,4.3-4.3h27.3
				c2.4,0,4.3,1.9,4.3,4.3l0,0C110.7,49.1,108.8,51,106.4,51z"/>
			<path id="XMLID_73_" class="st1" d="M111.5,77.5H84.2c-2.4,0-4.3-1.9-4.3-4.3l0,0c0-2.4,1.9-4.3,4.3-4.3h27.3
				c2.4,0,4.3,1.9,4.3,4.3l0,0C115.8,75.5,113.9,77.5,111.5,77.5z"/>
			<path id="XMLID_72_" class="st1" d="M97.2,69.2c-1.3,0-2.4-0.8-2.4-1.8c0-1,1.1-1.8,2.4-1.8H86.7c1.3,0,2.4,0.8,2.4,1.8
				c0,1-1.1,1.8-2.4,1.8H97.2z"/>
			<path id="XMLID_71_" class="st1" d="M100.6,54.9c-1.4,0-2.5-0.9-2.5-1.9c0-1.1,1.1-1.9,2.5-1.9h-11c1.4,0,2.5,0.9,2.5,1.9
				c0,1.1-1.1,1.9-2.5,1.9H100.6z"/>
		</g>
		<g>
			<g>
				<path class="st1" d="M108.8,139.9l43.5,0.1c0.5,0,0.9-0.4,0.9-0.9v-30c0-0.5-0.4-0.9-0.9-0.9H110h-0.1c-1.5,0-1.9,1-2,1.8l0,0
					l0,28c0,0,0,0.8,0.2,1.1s0.3,0.7,0.3,0.7L108.8,139.9z"/>
				<g>
					<path class="st2" d="M152.3,140.4C152.3,140.4,152.3,140.4,152.3,140.4l-43.5-0.1c0,0,0,0,0,0l-0.4,0c-0.1,0-0.2-0.1-0.3-0.2
						c0,0-0.2-0.4-0.3-0.8c-0.1-0.4-0.2-1.1-0.2-1.2l0-28.1c0-0.9,0.6-2.1,2.3-2.1h42.4c0.7,0,1.2,0.5,1.2,1.2v30
						c0,0.3-0.1,0.6-0.4,0.9C153,140.3,152.7,140.4,152.3,140.4z M108.8,139.6l43.5,0.1c0,0,0,0,0,0c0.2,0,0.3-0.1,0.4-0.2
						c0.1-0.1,0.2-0.3,0.2-0.4v-30c0-0.3-0.3-0.6-0.6-0.6h-42.4c-1.5,0-1.6,1.1-1.7,1.5l0,0l0,28c0,0.2,0.1,0.7,0.1,1
						c0.1,0.2,0.2,0.4,0.2,0.5L108.8,139.6z"/>
				</g>
			</g>
			<g>
				<g>
					
						<rect x="117.5" y="75.4" transform="matrix(0.9561 -0.293 0.293 0.9561 -22.3881 42.4865)" class="st1" width="26.2" height="41.1"/>
					<path class="st2" d="M149.4,112.1C149.4,112.1,149.3,112.1,149.4,112.1l-25.2,7.7c-0.1,0-0.2,0-0.2,0c-0.1,0-0.1-0.1-0.2-0.2
						l-12-39.3c-0.1-0.2,0-0.3,0.2-0.4l25.1-7.7c0.1,0,0.2,0,0.2,0c0.1,0,0.1,0.1,0.2,0.2l12,39.3
						C149.6,111.8,149.5,112,149.4,112.1z M124.3,119.1l24.5-7.5L137,72.9l-24.5,7.5L124.3,119.1z"/>
				</g>
				<g id="XMLID_258_">
					<g id="XMLID_261_">
						<g id="XMLID_262_">
							<path class="st2" d="M114.3,87.6l-0.1-0.3c3.9-1.2,6-5.3,4.9-9.2l0.3-0.1C120.6,82.1,118.3,86.4,114.3,87.6z"/>
							<path class="st2" d="M116.2,87c-0.6,0.3-1.2,0.6-1.8,0.8l-0.2,0l-0.2-0.6l0.2,0c1.8-0.6,3.3-1.8,4.2-3.5
								c0.9-1.7,1.1-3.6,0.5-5.5l0-0.2l0.6-0.2l0,0.2C120.6,81.5,119.1,85.1,116.2,87z"/>
						</g>
					</g>
					<g id="XMLID_259_">
						<g id="XMLID_260_">
							<path class="st2" d="M139.3,80c-4,1.2-8.3-1-9.5-5.1l0.3-0.1c1.2,3.9,5.3,6,9.2,4.9L139.3,80z"/>
							<path class="st2" d="M139.5,80.1l-0.2,0c-4.1,1.3-8.5-1.1-9.7-5.2l0-0.2l0.6-0.2l0,0.2c1.2,3.8,5.2,5.9,9,4.8l0.2,0
								L139.5,80.1z"/>
						</g>
					</g>
				</g>
				<g id="XMLID_242_">
					<g id="XMLID_255_">
						<g id="XMLID_257_">
							<path class="st2" d="M131.4,117.3l-0.3,0.1c-1.2-3.9-5.3-6-9.2-4.9l-0.1-0.3C125.9,111,130.1,113.3,131.4,117.3z"/>
							<path class="st2" d="M131.6,117.4l-0.6,0.2l0-0.2c-0.6-1.8-1.8-3.3-3.5-4.2c-1.7-0.9-3.6-1.1-5.5-0.5l-0.2,0l-0.2-0.6l0.2,0
								c4.1-1.3,8.5,1.1,9.7,5.2L131.6,117.4z"/>
						</g>
					</g>
					<g id="XMLID_243_">
						<g id="XMLID_252_">
							<path class="st2" d="M142.1,114l-0.3,0.1c-1.2-4,1-8.3,5.1-9.5l0.1,0.3C143.1,106.1,140.9,110.2,142.1,114z"/>
							<path class="st2" d="M142.3,114.1l-0.6,0.2l0-0.2c-1.3-4.1,1.1-8.5,5.2-9.7l0.2,0l0.2,0.6l-0.2,0c-1.8,0.6-3.3,1.8-4.2,3.5
								c-0.9,1.7-1.1,3.6-0.5,5.5L142.3,114.1z"/>
						</g>
					</g>
				</g>
				<g id="XMLID_227_">
					
						<ellipse id="XMLID_241_" transform="matrix(0.8434 -0.5373 0.5373 0.8434 -30.3956 85.8715)" class="st3" cx="132.1" cy="95.1" rx="8.2" ry="8.2"/>
					<g id="XMLID_231_">
						<g id="XMLID_238_">
							<path class="st2" d="M133.2,104.1c-4.4,1.4-9.1-1.1-10.5-5.6c-1.4-4.4,1.1-9.1,5.6-10.5c4.4-1.4,9.1,1.1,10.5,5.6
								C140.1,98,137.6,102.7,133.2,104.1z M128.3,88.3c-4.3,1.3-6.7,5.8-5.4,10.1c1.3,4.3,5.8,6.7,10.1,5.4
								c4.3-1.3,6.7-5.8,5.4-10.1C137.1,89.4,132.6,87,128.3,88.3z"/>
							<path class="st2" d="M135.2,103.3c-0.6,0.4-1.3,0.7-2,0.9l0,0c-4.5,1.4-9.3-1.2-10.7-5.7c-0.7-2.2-0.4-4.5,0.6-6.5
								c1.1-2,2.9-3.5,5-4.2c4.5-1.4,9.3,1.2,10.7,5.7C140,97.3,138.4,101.3,135.2,103.3z M126.5,89.3c-3,1.9-4.5,5.6-3.4,9.1
								c0.6,2,2,3.7,3.9,4.7c1.9,1,4,1.2,6,0.6c4.2-1.3,6.5-5.7,5.3-9.9c-1.3-4.2-5.7-6.5-9.9-5.3C127.7,88.7,127.1,89,126.5,89.3z"
								/>
						</g>
					</g>
					<path class="st2" d="M132.3,99l-0.2-0.9l3.3-0.8l-0.1-0.5l-4.7,1.1c-0.7,0.2-1.5,0.4-2.2,0.6l0,0l1.3-1.2l4.7-4.2l-0.1-0.5
						l-3.3,0.8l-0.2-0.8l-0.5,0.1l0.2,0.8l-3.9,0.9l0.1,0.5l4.8-1.1c0.7-0.2,1.4-0.4,2.2-0.6l0,0l-1.3,1.2l-4.7,4.2l0.1,0.5l3.9-0.9
						l0.2,0.9L132.3,99z"/>
				</g>
			</g>
			<g>
				<path id="XMLID_224_" class="st1" d="M107.9,138.1l0-28l0-0.3c0,0,0.2,0.6,1.1,0.5h41c0.5,0,0.8,0.4,0.8,0.8v30
					c0,0.5-0.4,0.8-0.8,0.8h-38.4C109.7,142,107.9,140.2,107.9,138.1z"/>
				<g id="XMLID_223_">
					<path class="st2" d="M150.2,142.3h-38.4c-2.3,0-4.2-1.9-4.2-4.2c0,0,0,0,0,0l0-28c0,0,0,0,0,0l0-0.3c0-0.1,0.1-0.2,0.3-0.3
						c0.1,0,0.3,0.1,0.3,0.2c0,0,0.2,0.4,0.8,0.3c0,0,0,0,0,0h41c0.6,0,1.2,0.5,1.2,1.2v30C151.3,141.8,150.8,142.3,150.2,142.3z
						 M108.2,138.1c0,2,1.6,3.6,3.6,3.6h38.4c0.3,0,0.5-0.2,0.5-0.5v-30c0-0.3-0.2-0.5-0.5-0.5h-41c-0.4,0-0.7-0.1-0.9-0.2
						L108.2,138.1L108.2,138.1z"/>
				</g>
			</g>
			<g>
				<path id="XMLID_222_" class="st1" d="M153.6,123.1h-10.5l-1.9,1.9c-0.9,0.9-0.8,2.3,0.1,3.1l1.7,1.6l10.6,0V123.1z"/>
				<g id="XMLID_221_">
					<path class="st2" d="M153.6,130L153.6,130l-10.6,0c-0.1,0-0.2,0-0.2-0.1l-1.7-1.6c-0.5-0.5-0.8-1.1-0.8-1.8
						c0-0.7,0.2-1.3,0.7-1.8l1.9-1.9c0.1-0.1,0.1-0.1,0.2-0.1h2.1c0.2,0,0.3,0.1,0.3,0.3s-0.1,0.3-0.3,0.3h-1.9l-1.8,1.8
						c-0.4,0.4-0.5,0.8-0.5,1.3c0,0.5,0.2,1,0.6,1.3l1.6,1.5l10.2,0v-6h-6c-0.2,0-0.3-0.1-0.3-0.3s0.1-0.3,0.3-0.3h6.3
						c0.2,0,0.3,0.1,0.3,0.3v6.6c0,0.1,0,0.2-0.1,0.2C153.8,130,153.7,130,153.6,130z"/>
				</g>
				<g id="XMLID_220_">
					<path class="st2" d="M146.2,128.2c-0.9,0-1.7-0.7-1.7-1.7c0-0.9,0.7-1.7,1.7-1.7c0.9,0,1.7,0.7,1.7,1.7
						C147.9,127.4,147.1,128.2,146.2,128.2z M146.2,125.5c-0.6,0-1,0.5-1,1c0,0.6,0.5,1,1,1c0.6,0,1-0.5,1-1
						C147.3,125.9,146.8,125.5,146.2,125.5z"/>
				</g>
			</g>
			<g>
				<path id="XMLID_219_" class="st2" d="M123.9,127.8c-0.2,0-0.4-0.1-0.5-0.3l0,0c-0.3-0.3-0.2-0.8,0.1-1.1
					c0.2-0.1,0.4-0.2,0.6-0.2c0.2,0,0.4,0.1,0.5,0.3c0.3,0.3,0.2,0.8-0.1,1.1C124.3,127.8,124.1,127.9,123.9,127.8z"/>
				<path id="XMLID_218_" class="st2" d="M134.6,127.4c-0.2,0-0.4-0.1-0.5-0.3l0,0c-0.3-0.3-0.2-0.8,0.1-1.1
					c0.3-0.3,0.8-0.2,1.1,0.1c0.1,0.2,0.2,0.4,0.2,0.6c0,0.2-0.1,0.4-0.3,0.5C135,127.3,134.8,127.4,134.6,127.4z"/>
				<path id="XMLID_217_" class="st2" d="M126.6,132.3c-0.6,0-1.1,0.6-0.9,1.2c0.5,1.7,2.2,3,4,2.9c1.9,0,3.5-1.3,4-3
					c0.2-0.6-0.3-1.2-0.9-1.2L126.6,132.3z"/>
				<g>
					
						<ellipse id="XMLID_216_" transform="matrix(9.644425e-02 -0.9953 0.9953 9.644425e-02 -22.406 238.4091)" class="st3" cx="120.1" cy="131.5" rx="1.7" ry="1.3"/>
					<path id="XMLID_215_" class="st3" d="M140,133.5c-0.1,1-0.7,1.7-1.5,1.6c-0.7-0.1-1.2-0.9-1.1-1.9c0.1-1,0.7-1.7,1.5-1.6
						C139.6,131.7,140.1,132.5,140,133.5z"/>
				</g>
			</g>
			<g>
				<g>
					<path class="st2" d="M149.3,121.4c-0.2,0-0.3-0.1-0.3-0.3v-4.8c0-0.2,0.1-0.3,0.3-0.3c0.2,0,0.3,0.1,0.3,0.3v4.8
						C149.6,121.3,149.5,121.4,149.3,121.4z"/>
				</g>
				<g>
					<path class="st2" d="M134.8,140.5h-2.4c-0.2,0-0.3-0.1-0.3-0.3c0-0.2,0.1-0.3,0.3-0.3h2.4c0.2,0,0.3,0.1,0.3,0.3
						C135.1,140.4,135,140.5,134.8,140.5z"/>
				</g>
				<g>
					<path class="st2" d="M141.3,140.5h-3.7c-0.2,0-0.3-0.1-0.3-0.3c0-0.2,0.1-0.3,0.3-0.3h3.7c0.2,0,0.3,0.1,0.3,0.3
						C141.7,140.4,141.5,140.5,141.3,140.5z"/>
				</g>
				<g>
					<path class="st2" d="M128.3,140.5h-10.8c-0.2,0-0.3-0.1-0.3-0.3c0-0.2,0.1-0.3,0.3-0.3h10.8c0.2,0,0.3,0.1,0.3,0.3
						C128.6,140.4,128.5,140.5,128.3,140.5z"/>
				</g>
				<g>
					<path class="st2" d="M109.6,124.9c-0.2,0-0.3-0.1-0.3-0.3v-8.8c0-0.2,0.1-0.3,0.3-0.3s0.3,0.1,0.3,0.3v8.8
						C109.9,124.8,109.8,124.9,109.6,124.9z"/>
				</g>
				<g>
					<path class="st2" d="M109.5,132c-0.2,0-0.3-0.1-0.3-0.3v-3.2c0-0.2,0.1-0.3,0.3-0.3c0.2,0,0.3,0.1,0.3,0.3v3.2
						C109.8,131.8,109.7,132,109.5,132z"/>
				</g>
			</g>
		</g>
		<g>
			
				<rect x="82.7" y="22.4" transform="matrix(-0.4739 0.8806 -0.8806 -0.4739 179.0709 -21.0747)" class="st1" width="26.2" height="41.1"/>
			
				<rect x="83.4" y="24.4" transform="matrix(-0.4739 0.8806 -0.8806 -0.4739 181.8626 -18.6998)" class="st3" width="26.2" height="41.1"/>
			<g>
				<path class="st2" d="M71.3,45c-0.1-0.1-0.1-0.3-0.1-0.4l12.4-23.1c0.1-0.2,0.3-0.2,0.4-0.1l36.2,19.5c0.1,0,0.1,0.1,0.2,0.2
					c0,0.1,0,0.2,0,0.2L108,64.4c0,0.1-0.1,0.1-0.2,0.2c-0.1,0-0.2,0-0.2,0L71.3,45C71.3,45,71.3,45,71.3,45z M84.1,22.1L71.9,44.6
					l35.6,19.2l12.1-22.5L84.1,22.1z"/>
			</g>
			<g id="XMLID_251_">
				<g id="XMLID_256_">
					<g id="XMLID_263_">
						<path class="st2" d="M113.3,37.4l0.3,0.1c-1.9,3.6-0.6,8,3,9.9l-0.1,0.3C112.7,45.7,111.3,41.1,113.3,37.4z"/>
						<path class="st2" d="M115.1,47c-1.2-1-2-2.3-2.5-3.8c-0.6-2-0.4-4.1,0.6-5.9l0.1-0.1l0.5,0.3l-0.1,0.1
							c-0.9,1.7-1.1,3.6-0.6,5.5c0.6,1.8,1.8,3.3,3.5,4.3l0.1,0.1l-0.3,0.5l-0.1-0.1C115.9,47.6,115.5,47.3,115.1,47z"/>
					</g>
				</g>
				<g id="XMLID_253_">
					<g id="XMLID_254_">
						<path class="st2" d="M100.9,60.4c2-3.7,6.6-5.1,10.3-3.1l-0.1,0.3c-3.6-1.9-8-0.6-9.9,3L100.9,60.4z"/>
						<path class="st2" d="M100.7,60.5l0.1-0.1c1-1.8,2.6-3.2,4.6-3.8c2-0.6,4.1-0.4,5.9,0.6l0.1,0.1l-0.3,0.5l-0.1-0.1
							c-3.5-1.9-7.8-0.6-9.7,2.9l-0.1,0.1L100.7,60.5z"/>
					</g>
				</g>
			</g>
			<g id="XMLID_246_">
				<g id="XMLID_249_">
					<g id="XMLID_250_">
						<path class="st2" d="M80.3,28.3l0.1-0.3c3.6,1.9,8,0.6,9.9-3l0.3,0.1C88.7,28.9,84,30.3,80.3,28.3z"/>
						<path class="st2" d="M80.1,28.3l0.3-0.5l0.1,0.1c1.7,0.9,3.6,1.1,5.5,0.6c1.8-0.6,3.3-1.8,4.3-3.5l0.1-0.1l0.5,0.3l-0.1,0.1
							c-1,1.8-2.6,3.2-4.6,3.8c-2,0.6-4.1,0.4-5.9-0.6L80.1,28.3z"/>
					</g>
				</g>
				<g id="XMLID_247_">
					<g id="XMLID_248_">
						<path class="st2" d="M75,38.2l0.1-0.3c3.7,2,5.1,6.6,3.1,10.3L78,48.1C79.9,44.5,78.6,40.1,75,38.2z"/>
						<path class="st2" d="M77.8,48.1l0.1-0.1c0.9-1.7,1.1-3.6,0.6-5.5c-0.6-1.8-1.8-3.3-3.5-4.3l-0.1-0.1l0.3-0.5l0.1,0.1
							c3.8,2,5.2,6.8,3.2,10.5l-0.1,0.1L77.8,48.1z"/>
					</g>
				</g>
			</g>
			<g id="XMLID_232_">
				<g id="XMLID_236_">
					<g id="XMLID_237_">
						<path class="st2" d="M88.4,39c2.2-4.1,7.3-5.6,11.4-3.4c4.1,2.2,5.6,7.3,3.4,11.4c-2.2,4.1-7.3,5.6-11.4,3.4
							C87.7,48.1,86.2,43,88.4,39z M102.9,46.8c2.1-3.9,0.6-8.8-3.3-11c-3.9-2.1-8.8-0.6-11,3.3c-2.1,3.9-0.6,8.8,3.3,11
							C95.8,52.2,100.8,50.7,102.9,46.8z"/>
						<path class="st2" d="M90.3,49.5c-1.3-1.1-2.2-2.5-2.7-4.1c-0.7-2.2-0.4-4.5,0.7-6.5c1.1-2,2.9-3.5,5.1-4.1
							c2.2-0.7,4.5-0.4,6.5,0.7c2,1.1,3.5,2.9,4.1,5.1c0.7,2.2,0.4,4.5-0.7,6.5c-2.2,4.1-7.4,5.7-11.6,3.5
							C91.2,50.2,90.7,49.9,90.3,49.5z M100.8,36.8c-0.4-0.3-0.8-0.6-1.3-0.9c-3.9-2.1-8.7-0.6-10.7,3.2c-1,1.9-1.2,4-0.6,6
							c0.6,2,2,3.7,3.8,4.7c3.9,2.1,8.7,0.6,10.7-3.2C104.6,43.3,103.7,39.2,100.8,36.8z"/>
					</g>
				</g>
				<path class="st2" d="M99.1,44l-0.8-0.4l1.6-3l-0.4-0.2l-2.2,4.3c-0.4,0.7-0.7,1.4-1,2.1l0,0l0-1.8L96,38.6l-0.5-0.2l-1.6,3
					l-0.8-0.4l-0.3,0.5l0.8,0.4l-1.8,3.5l0.4,0.2l2.3-4.4c0.4-0.7,0.7-1.3,1-2l0,0l0,1.8l0.1,6.3l0.5,0.2l1.8-3.5l0.8,0.4L99.1,44z"
					/>
			</g>
		</g>
		<g id="XMLID_67_">
			<g>
				<path class="st1" d="M44.3,98.7V135v0.1v1.2v1.4v0.8l-0.1,0.5l-0.1,0.4c0,0.1-0.1,0.2-0.1,0.3l-0.2,0.3
					c-0.1,0.1-0.1,0.2-0.2,0.3l-0.3,0.4l-0.2,0.2l-0.3,0.3c-0.1,0.1-0.1,0.1-0.2,0.2l-0.1,0.1c-0.1,0.1-0.2,0.1-0.3,0.1l-0.3,0.1
					c-0.1,0-0.2,0.1-0.3,0.1l-0.3,0.1c-0.1,0-0.2,0-0.3,0.1l-0.6,0H16.2c0,0-0.1,0-0.1,0l-0.9-0.2c-0.2,0-0.4-0.1-0.5-0.2l-0.2-0.1
					c-0.2-0.1-0.4-0.2-0.5-0.3l-0.2-0.2c-0.2-0.2-0.4-0.3-0.6-0.5l-0.1-0.1c-0.2-0.2-0.3-0.4-0.4-0.6c-0.1-0.2-0.2-0.3-0.2-0.5
					l-0.2-0.4l0-0.2l0-0.3l0-0.4v-0.7v-0.7v-1.6V135V98.7v-1.1v-1.3V95v-0.8l0.1-0.5l0.1-0.4c0-0.1,0.1-0.2,0.1-0.3l0.2-0.3
					c0.1-0.1,0.1-0.2,0.2-0.3l0.3-0.4l0.2-0.2l0.3-0.3c0.1-0.1,0.1-0.1,0.2-0.2l0.1-0.1c0.1-0.1,0.2-0.1,0.3-0.1l0.3-0.1
					c0.1,0,0.2-0.1,0.3-0.1l0.3-0.1c0.1,0,0.2,0,0.3-0.1l0.6,0h24.1c0,0,0.1,0,0.1,0l0.9,0.2c0.2,0,0.4,0.1,0.5,0.2L42,91
					c0.2,0.1,0.4,0.2,0.5,0.3l0.2,0.2c0.2,0.2,0.4,0.3,0.6,0.5l0.1,0.1c0.2,0.2,0.3,0.4,0.4,0.6c0.1,0.2,0.2,0.3,0.2,0.5l0.2,0.4
					l0,0.2l0,0.3l0,0.4v0.7V96v1.6V98.7z"/>
				<path class="st2" d="M40.3,142.3H16.2c0,0-0.1,0-0.1,0l-0.9-0.2c-0.2,0-0.4-0.1-0.6-0.2l-0.2-0.1c-0.2-0.1-0.4-0.2-0.6-0.3
					l-0.2-0.2c-0.2-0.2-0.4-0.4-0.6-0.6l-0.1-0.1c-0.2-0.2-0.3-0.4-0.5-0.6c-0.1-0.2-0.2-0.4-0.3-0.6L12,139c0,0,0,0,0,0l0-0.2
					c0,0,0,0,0,0l0-0.3c0,0,0,0,0,0l0-0.4l0-3.1V94.1c0,0,0,0,0-0.1l0.1-0.5c0,0,0,0,0,0l0.1-0.4c0-0.1,0.1-0.2,0.2-0.4l0.2-0.3
					c0.1-0.1,0.1-0.2,0.2-0.3l0.3-0.4c0,0,0,0,0,0l0.2-0.2c0,0,0,0,0,0l0.3-0.3c0.1-0.1,0.2-0.1,0.3-0.2l0.1-0.1
					c0.1-0.1,0.2-0.1,0.3-0.2l0.3-0.1c0.1-0.1,0.2-0.1,0.4-0.1l0.3-0.1c0.1,0,0.2-0.1,0.4-0.1l0.6,0c0,0,0,0,0,0h24.1
					c0,0,0.1,0,0.1,0l0.9,0.2c0.2,0,0.4,0.1,0.6,0.2l0.2,0.1c0.2,0.1,0.4,0.2,0.6,0.3l0.2,0.2c0.2,0.2,0.4,0.4,0.6,0.6l0.1,0.1
					c0.2,0.2,0.3,0.4,0.5,0.6c0.1,0.2,0.2,0.4,0.3,0.6l0.2,0.4c0,0,0,0,0,0l0,0.2c0,0,0,0,0,0l0,0.3c0,0,0,0,0,0l0,0.4l0,4.1v39.8
					c0,0,0,0,0,0.1l-0.1,0.5c0,0,0,0,0,0l-0.1,0.4c0,0.1-0.1,0.2-0.2,0.4l-0.2,0.3c-0.1,0.1-0.1,0.2-0.2,0.3l-0.3,0.4c0,0,0,0,0,0
					l-0.2,0.2c0,0,0,0,0,0l-0.3,0.3c-0.1,0.1-0.2,0.1-0.3,0.2l-0.1,0.1c-0.1,0.1-0.2,0.1-0.3,0.2l-0.3,0.1c-0.1,0.1-0.2,0.1-0.4,0.1
					l-0.3,0.1c-0.1,0-0.2,0.1-0.4,0.1L40.3,142.3C40.3,142.3,40.3,142.3,40.3,142.3z M12.6,138.9l0.1,0.4c0.1,0.2,0.1,0.3,0.2,0.5
					c0.1,0.2,0.2,0.4,0.4,0.5l0.1,0.1c0.2,0.2,0.3,0.3,0.5,0.5l0.2,0.2c0.1,0.1,0.3,0.2,0.5,0.3l0.2,0.1c0.1,0.1,0.3,0.1,0.5,0.1
					l0.9,0.2c0,0,0,0,0,0h24.1l0.5,0c0.1,0,0.2,0,0.3,0l0.3-0.1c0.1,0,0.2-0.1,0.3-0.1l0.3-0.1c0.1,0,0.2-0.1,0.2-0.1l0.1-0.1
					c0.1,0,0.1-0.1,0.2-0.1l0.3-0.3l0.2-0.2l0.3-0.4c0.1-0.1,0.1-0.2,0.2-0.2l0.2-0.3c0-0.1,0.1-0.2,0.1-0.3l0.1-0.4l0.1-0.5V94.6
					l0-0.3l0-0.3l0-0.2l-0.1-0.4c-0.1-0.2-0.1-0.3-0.2-0.5c-0.1-0.2-0.2-0.4-0.4-0.5l-0.1-0.1c-0.2-0.2-0.3-0.3-0.5-0.5l-0.2-0.2
					c-0.1-0.1-0.3-0.2-0.5-0.3l-0.2-0.1c-0.1-0.1-0.3-0.1-0.5-0.1L40.3,91c0,0,0,0,0,0H16.2l-0.5,0c-0.1,0-0.2,0-0.3,0l-0.3,0.1
					c-0.1,0-0.2,0.1-0.3,0.1l-0.3,0.1c-0.1,0-0.2,0.1-0.2,0.1l-0.1,0.1c-0.1,0-0.1,0.1-0.2,0.1L13.6,92l-0.2,0.2l-0.3,0.4
					c-0.1,0.1-0.1,0.2-0.2,0.2l-0.2,0.3c0,0.1-0.1,0.2-0.1,0.3l-0.1,0.4l-0.1,0.5V138l0,0.3l0,0.3L12.6,138.9z M44.3,138.5
					L44.3,138.5L44.3,138.5z"/>
			</g>
			<g>
				<path class="st1" d="M44.3,94.2l0-0.3l0-0.2L44,93.2c-0.1-0.2-0.1-0.4-0.2-0.5c-0.1-0.2-0.3-0.4-0.4-0.6L43.3,92
					c-0.2-0.2-0.4-0.4-0.6-0.5l-0.2-0.2c-0.2-0.1-0.3-0.2-0.5-0.3L41.8,91c-0.2-0.1-0.3-0.1-0.5-0.2l-0.9-0.2c0,0-0.1,0-0.1,0H16.2
					l-0.6,0c-0.1,0-0.2,0-0.3,0.1L15,90.8c-0.1,0-0.2,0.1-0.3,0.1l-0.3,0.1c-0.1,0-0.2,0.1-0.3,0.1L14,91.3c-0.1,0-0.2,0.1-0.2,0.2
					l-0.3,0.3l-0.2,0.2l-0.3,0.4c-0.1,0.1-0.1,0.2-0.2,0.3l-0.2,0.3c-0.1,0.1-0.1,0.2-0.1,0.3l-0.1,0.4l-0.1,0.5V95v1.4v1.3v1.1V135
					v0.1v1.6v0.7v0.7l0,0.4l0,0.3l0,0.2l0.2,0.4c0.1,0.2,0.1,0.4,0.2,0.5c0.1,0.2,0.3,0.4,0.4,0.6l0.1,0.1c0.2,0.2,0.4,0.4,0.6,0.5
					l0.2,0.2c0.2,0.1,0.3,0.2,0.5,0.3l0.2,0.1c0.2,0.1,0.3,0.1,0.5,0.2l0.9,0.2c0,0,0.1,0,0.1,0h24.1l0.6,0c0.1,0,0.2,0,0.3-0.1
					l0.3-0.1c0.1,0,0.2-0.1,0.3-0.1l0.3-0.1c0.1,0,0.2-0.1,0.3-0.1l0.1-0.1c0.1,0,0.2-0.1,0.2-0.2l0.3-0.3l0.2-0.2l0.3-0.4
					c0.1-0.1,0.1-0.2,0.2-0.3l0.2-0.3c0.1-0.1,0.1-0.2,0.1-0.3l0.1-0.4l0.1-0.5v-0.8v-1.4v-1.2V135V98.7v-1.1V96v-0.7v-0.7
					L44.3,94.2z M42.5,135.2H13.9V97.4h28.6V135.2z"/>
				<path class="st2" d="M40.3,142.3H16.2c0,0-0.1,0-0.1,0l-0.9-0.2c-0.2,0-0.4-0.1-0.6-0.2l-0.2-0.1c-0.2-0.1-0.4-0.2-0.6-0.3
					l-0.2-0.2c-0.2-0.2-0.4-0.4-0.6-0.6l-0.1-0.1c-0.2-0.2-0.3-0.4-0.5-0.6c-0.1-0.2-0.2-0.4-0.3-0.6L12,139c0,0,0,0,0,0l0-0.2
					c0,0,0,0,0,0l0-0.3c0,0,0,0,0,0l0-0.4l0-3.1V94.1c0,0,0,0,0-0.1l0.1-0.5c0,0,0,0,0,0l0.1-0.4c0-0.1,0.1-0.2,0.2-0.4l0.2-0.3
					c0.1-0.1,0.1-0.2,0.2-0.3l0.3-0.4c0,0,0,0,0,0l0.2-0.2c0,0,0,0,0,0l0.3-0.3c0.1-0.1,0.2-0.1,0.3-0.2l0.1-0.1
					c0.1-0.1,0.2-0.1,0.3-0.2l0.3-0.1c0.1-0.1,0.2-0.1,0.4-0.1l0.3-0.1c0.1,0,0.2-0.1,0.4-0.1l0.6,0c0,0,0,0,0,0h24.1
					c0,0,0.1,0,0.1,0l0.9,0.2c0.2,0,0.4,0.1,0.6,0.2l0.2,0.1c0.2,0.1,0.4,0.2,0.6,0.3l0.2,0.2c0.2,0.2,0.4,0.4,0.6,0.6l0.1,0.1
					c0.2,0.2,0.3,0.4,0.5,0.6c0.1,0.2,0.2,0.4,0.3,0.6l0.2,0.4c0,0,0,0,0,0l0,0.2c0,0,0,0,0,0l0,0.3c0,0,0,0,0,0l0,0.4l0,4.1v39.8
					c0,0,0,0,0,0.1l-0.1,0.5c0,0,0,0,0,0l-0.1,0.4c0,0.1-0.1,0.2-0.2,0.4l-0.2,0.3c-0.1,0.1-0.1,0.2-0.2,0.3l-0.3,0.4c0,0,0,0,0,0
					l-0.2,0.2c0,0,0,0,0,0l-0.3,0.3c-0.1,0.1-0.2,0.1-0.3,0.2l-0.1,0.1c-0.1,0.1-0.2,0.1-0.3,0.2l-0.3,0.1c-0.1,0.1-0.2,0.1-0.4,0.1
					l-0.3,0.1c-0.1,0-0.2,0.1-0.4,0.1L40.3,142.3C40.3,142.3,40.3,142.3,40.3,142.3z M12.6,138.9l0.1,0.4c0.1,0.2,0.1,0.3,0.2,0.5
					c0.1,0.2,0.2,0.4,0.4,0.5l0.1,0.1c0.2,0.2,0.3,0.3,0.5,0.5l0.2,0.2c0.1,0.1,0.3,0.2,0.5,0.3l0.2,0.1c0.1,0.1,0.3,0.1,0.5,0.1
					l0.9,0.2c0,0,0,0,0,0h24.1l0.5,0c0.1,0,0.2,0,0.3,0l0.3-0.1c0.1,0,0.2-0.1,0.3-0.1l0.3-0.1c0.1,0,0.2-0.1,0.2-0.1l0.1-0.1
					c0.1,0,0.1-0.1,0.2-0.1l0.3-0.3l0.2-0.2l0.3-0.4c0.1-0.1,0.1-0.2,0.2-0.2l0.2-0.3c0-0.1,0.1-0.2,0.1-0.3l0.1-0.4l0.1-0.5V94.6
					l0-0.3l0-0.3l0-0.2l-0.1-0.4c-0.1-0.2-0.1-0.3-0.2-0.5c-0.1-0.2-0.2-0.4-0.4-0.5l-0.1-0.1c-0.2-0.2-0.3-0.3-0.5-0.5l-0.2-0.2
					c-0.1-0.1-0.3-0.2-0.5-0.3l-0.2-0.1c-0.1-0.1-0.3-0.1-0.5-0.1L40.3,91c0,0,0,0,0,0H16.2l-0.5,0c-0.1,0-0.2,0-0.3,0l-0.3,0.1
					c-0.1,0-0.2,0.1-0.3,0.1l-0.3,0.1c-0.1,0-0.2,0.1-0.2,0.1l-0.1,0.1c-0.1,0-0.1,0.1-0.2,0.1L13.6,92l-0.2,0.2l-0.3,0.4
					c-0.1,0.1-0.1,0.2-0.2,0.2l-0.2,0.3c0,0.1-0.1,0.2-0.1,0.3l-0.1,0.4l-0.1,0.5V138l0,0.3l0,0.3L12.6,138.9z M42.5,135.5H13.9
					c-0.2,0-0.3-0.1-0.3-0.3V97.4c0-0.2,0.1-0.3,0.3-0.3h28.6c0.2,0,0.3,0.1,0.3,0.3v37.7C42.9,135.3,42.7,135.5,42.5,135.5z
					 M14.3,134.9h28V97.8h-28V134.9z"/>
			</g>
			<g id="XMLID_69_">
				<path class="st2" d="M28.2,141.6c-1.5,0-2.6-1.2-2.6-2.6s1.2-2.6,2.6-2.6c1.5,0,2.6,1.2,2.6,2.6S29.7,141.6,28.2,141.6z
					 M28.2,136.9c-1.1,0-2,0.9-2,2c0,1.1,0.9,2,2,2c1.1,0,2-0.9,2-2C30.2,137.8,29.3,136.9,28.2,136.9z"/>
			</g>
			<g id="XMLID_68_">
				<path class="st2" d="M31.4,94.3h-6.3c-0.2,0-0.3-0.1-0.3-0.3s0.1-0.3,0.3-0.3h6.3c0.2,0,0.3,0.1,0.3,0.3S31.6,94.3,31.4,94.3z"
					/>
			</g>
			<g>
				<g>
					<path class="st2" d="M15.6,106.4c-0.1,0-0.2,0-0.2-0.1c-0.1-0.1-0.1-0.3,0-0.4l6.7-6.7c0.1-0.1,0.3-0.1,0.4,0
						c0.1,0.1,0.1,0.3,0,0.4l-6.7,6.7C15.7,106.3,15.7,106.4,15.6,106.4z"/>
				</g>
				<g>
					<path class="st2" d="M15.6,103c-0.1,0-0.2,0-0.2-0.1c-0.1-0.1-0.1-0.3,0-0.4l3.6-3.6c0.1-0.1,0.3-0.1,0.4,0
						c0.1,0.1,0.1,0.3,0,0.4l-3.6,3.6C15.7,103,15.6,103,15.6,103z"/>
				</g>
			</g>
			<g>
				<g>
					<path class="st2" d="M34,132.8c-0.1,0-0.2,0-0.2-0.1c-0.1-0.1-0.1-0.3,0-0.4l5.9-5.9c0.1-0.1,0.3-0.1,0.4,0
						c0.1,0.1,0.1,0.3,0,0.4l-5.9,5.9C34.2,132.7,34.1,132.8,34,132.8z"/>
				</g>
				<g>
					<path class="st2" d="M37,133.1c-0.1,0-0.2,0-0.2-0.1c-0.1-0.1-0.1-0.3,0-0.4l3.1-3.1c0.1-0.1,0.3-0.1,0.4,0
						c0.1,0.1,0.1,0.3,0,0.4l-3.1,3.1C37.1,133.1,37.1,133.1,37,133.1z"/>
				</g>
			</g>
			<g>
				<path id="XMLID_82_" class="st4" d="M20.2,118.2c-0.1,1-0.7,1.7-1.5,1.6c-0.7-0.1-1.2-0.9-1.1-1.9c0.1-1,0.7-1.7,1.5-1.6
					C19.8,116.4,20.3,117.2,20.2,118.2z"/>
				<path id="XMLID_8_" class="st4" d="M38.8,120c-0.1,1-0.7,1.7-1.5,1.6c-0.7-0.1-1.2-0.9-1.1-1.9c0.1-1,0.7-1.7,1.5-1.6
					C38.4,118.2,38.9,119,38.8,120z"/>
				<g>
					<path class="st2" d="M33.3,115.2C33.3,115.2,33.3,115.2,33.3,115.2c-0.5,0-0.9-0.2-1.2-0.5c-0.3-0.3-0.5-0.7-0.5-1.2
						c0-0.2,0.1-0.3,0.3-0.3c0,0,0,0,0,0c0.2,0,0.3,0.1,0.3,0.3c0,0.3,0.1,0.5,0.3,0.8c0.2,0.2,0.5,0.3,0.7,0.3
						c0.3,0,0.5-0.1,0.8-0.3c0.2-0.2,0.3-0.5,0.3-0.7c0-0.2,0.1-0.3,0.3-0.3c0,0,0,0,0,0c0.2,0,0.3,0.1,0.3,0.3
						c0,0.5-0.2,0.9-0.5,1.2C34.2,115.1,33.7,115.2,33.3,115.2z"/>
				</g>
				<g>
					<path class="st2" d="M22.8,115.1C22.8,115.1,22.8,115.1,22.8,115.1c-0.5,0-0.9-0.2-1.2-0.5c-0.3-0.3-0.5-0.7-0.5-1.2
						c0-0.2,0.1-0.3,0.3-0.3c0.2,0,0.3,0.1,0.3,0.3c0,0.3,0.1,0.5,0.3,0.8c0.2,0.2,0.5,0.3,0.7,0.3c0.3,0,0.5-0.1,0.8-0.3
						c0.2-0.2,0.3-0.5,0.3-0.7c0-0.2,0.2-0.3,0.3-0.3c0.2,0,0.3,0.1,0.3,0.3c0,0.5-0.2,0.9-0.5,1.2C23.7,115,23.3,115.1,22.8,115.1z
						"/>
				</g>
				<g>
					<path class="st2" d="M28,122.7c-1.8,0-3.4-0.7-4-1.8c-0.1-0.2,0-0.3,0.1-0.4c0.2-0.1,0.3,0,0.4,0.1c0.5,0.9,1.9,1.4,3.5,1.4
						c1.6,0,3-0.6,3.5-1.5c0.1-0.2,0.3-0.2,0.4-0.1c0.2,0.1,0.2,0.3,0.1,0.4C31.5,121.9,29.9,122.6,28,122.7
						C28,122.7,28,122.7,28,122.7z"/>
				</g>
			</g>
		</g>
		<g>
			<g>
				
					<rect x="27.7" y="39.3" transform="matrix(-0.8789 -0.477 0.477 -0.8789 48.1592 131.9084)" class="st1" width="26.2" height="41.1"/>
				<path class="st2" d="M19.2,71.8c-0.1-0.1-0.1-0.2,0-0.3l19.6-36.1c0.1-0.2,0.3-0.2,0.4-0.1l23.1,12.5c0.1,0,0.1,0.1,0.2,0.2
					c0,0.1,0,0.2,0,0.2L42.8,84.3c0,0.1-0.1,0.1-0.2,0.2c-0.1,0-0.2,0-0.2,0L19.3,71.9C19.3,71.9,19.3,71.9,19.2,71.8z M39.2,35.9
					L19.9,71.5l22.5,12.2l19.3-35.6L39.2,35.9z"/>
			</g>
			<g id="XMLID_192_">
				<g id="XMLID_195_">
					<g id="XMLID_196_">
						<path class="st2" d="M46.3,77.4l-0.1,0.3c-3.6-1.9-8-0.6-9.9,2.9L36,80.4C38,76.7,42.6,75.4,46.3,77.4z"/>
						<path class="st2" d="M35.8,80.5l0.1-0.1c1-1.8,2.6-3.2,4.6-3.7c2-0.6,4.1-0.4,5.9,0.6l0.1,0.1l-0.3,0.5l-0.1-0.1
							c-1.7-0.9-3.6-1.1-5.5-0.6c-1.8,0.5-3.4,1.8-4.3,3.5l-0.1,0.1L35.8,80.5z"/>
					</g>
				</g>
				<g id="XMLID_193_">
					<g id="XMLID_194_">
						<path class="st2" d="M23.3,64.9c3.7,2,5.1,6.6,3.1,10.3l-0.3-0.1c1.9-3.6,0.6-8-2.9-9.9L23.3,64.9z"/>
						<path class="st2" d="M25.9,75.1L26,75c0.9-1.7,1.1-3.6,0.6-5.5c-0.5-1.8-1.8-3.4-3.5-4.3L23,65.2l0.3-0.5l0.1,0.1
							c3.8,2,5.2,6.8,3.1,10.6l-0.1,0.1L25.9,75.1z"/>
					</g>
				</g>
			</g>
			<g id="XMLID_187_">
				<g id="XMLID_190_">
					<g id="XMLID_191_">
						<path class="st2" d="M55.6,44.4l0.3,0.1c-1.9,3.6-0.6,8,2.9,9.9l-0.1,0.3C54.9,52.7,53.5,48.1,55.6,44.4z"/>
						<path class="st2" d="M55.8,52.3c-1.5-2.3-1.8-5.4-0.3-8l0.1-0.1l0.5,0.3L56,44.6c-1.9,3.5-0.6,7.8,2.9,9.7l0.1,0.1l-0.3,0.5
							l-0.1-0.1C57.4,54.2,56.4,53.3,55.8,52.3z"/>
					</g>
				</g>
				<g id="XMLID_188_">
					<g id="XMLID_189_">
						<path class="st2" d="M45.7,39l0.3,0.1c-2,3.7-6.6,5.1-10.3,3.1l0.1-0.3C39.3,43.9,43.8,42.6,45.7,39z"/>
						<path class="st2" d="M35.4,42.3l0.3-0.5l0.1,0.1c1.7,0.9,3.6,1.1,5.5,0.6c1.8-0.5,3.4-1.8,4.3-3.5l0.1-0.1l0.5,0.3l-0.1,0.1
							c-1,1.8-2.6,3.2-4.6,3.7c-2,0.6-4.1,0.4-5.9-0.6L35.4,42.3z"/>
					</g>
				</g>
			</g>
			<g id="XMLID_148_">
				
					<ellipse id="XMLID_186_" transform="matrix(0.8104 -0.5859 0.5859 0.8104 -27.9008 36.1622)" class="st3" cx="41.9" cy="61.2" rx="8.2" ry="8.2"/>
				<g id="XMLID_152_">
					<g id="XMLID_153_">
						<path class="st2" d="M44.8,52.4c4.1,2.2,5.6,7.3,3.4,11.4c-2.2,4.1-7.3,5.6-11.4,3.4c-4.1-2.2-5.6-7.3-3.4-11.4
							C35.7,51.7,40.8,50.2,44.8,52.4z M37,66.9c3.9,2.1,8.8,0.7,11-3.3c2.1-3.9,0.7-8.8-3.3-11c-3.9-2.1-8.8-0.7-11,3.3
							C31.6,59.8,33.1,64.7,37,66.9z"/>
						<path class="st2" d="M33.7,64.5c-1.7-2.5-1.9-5.9-0.4-8.8c2.2-4.1,7.4-5.7,11.6-3.4l0,0c4.1,2.2,5.7,7.4,3.4,11.6
							c-1.1,2-2.9,3.5-5.1,4.1c-2.2,0.6-4.5,0.4-6.5-0.7C35.5,66.6,34.4,65.6,33.7,64.5z M47.5,55.4c-0.7-1.1-1.7-2-2.8-2.6
							c-1.9-1-4-1.2-6-0.6c-2,0.6-3.7,2-4.7,3.8c-2.1,3.8-0.7,8.7,3.2,10.8l0,0c3.8,2.1,8.7,0.7,10.8-3.2
							C49.2,60.9,49,57.8,47.5,55.4z"/>
					</g>
				</g>
				<path class="st2" d="M39.9,63.3l0.5-0.8l3,1.7l0.2-0.4l-4.2-2.4c-0.7-0.4-1.4-0.7-2-1.1l0,0l1.8,0.1l6.3,0.1l0.3-0.5l-3-1.7
					l0.4-0.8l-0.5-0.3L42.2,58l-3.4-2l-0.2,0.4l4.3,2.4c0.7,0.4,1.3,0.7,2,1l0,0L43,59.9l-6.3-0.1l-0.3,0.5l3.4,2L39.4,63L39.9,63.3
					z"/>
			</g>
		</g>
		<g>
			<g>
				<path class="st2" d="M128.5,68.9c-0.1,0-0.1-0.1-0.2-0.2c-1-3.4-3.4-6.3-7.4-8.8c-0.1-0.1-0.2-0.3-0.1-0.4
					c0.1-0.1,0.3-0.2,0.4-0.1c4.1,2.5,6.6,5.5,7.7,9.1c0,0.2,0,0.3-0.2,0.4C128.7,68.9,128.6,68.9,128.5,68.9z"/>
			</g>
			<g>
				<path class="st2" d="M125.1,71.8c-0.1,0-0.1-0.1-0.2-0.2c-1-3.4-3.4-6.3-7.4-8.8c-0.1-0.1-0.2-0.3-0.1-0.4
					c0.1-0.1,0.3-0.2,0.4-0.1c4.1,2.5,6.6,5.5,7.7,9.1c0,0.2,0,0.3-0.2,0.4C125.2,71.9,125.2,71.9,125.1,71.8z"/>
			</g>
		</g>
		<g>
			<g>
				<path class="st2" d="M54.3,33.1C54.3,33.1,54.3,33,54.3,33.1c-0.2-0.2-0.1-0.4,0-0.5c3.8-3,7.4-4.4,11.2-4.1
					c0.2,0,0.3,0.2,0.3,0.3c0,0.2-0.2,0.3-0.3,0.3c-3.6-0.2-7.1,1.1-10.7,4C54.6,33.2,54.4,33.2,54.3,33.1z"/>
			</g>
			<g>
				<path class="st2" d="M56,37.3C56,37.3,55.9,37.3,56,37.3c-0.2-0.2-0.1-0.4,0-0.5c3.8-3,7.4-4.4,11.2-4.1c0.2,0,0.3,0.2,0.3,0.3
					c0,0.2-0.2,0.3-0.3,0.3c-3.6-0.2-7.1,1.1-10.7,4C56.2,37.4,56.1,37.4,56,37.3z"/>
			</g>
		</g>
		<g>
			<g>
				<path class="st4" d="M52.3,100.8c-0.4,0-0.8-0.3-0.8-0.7c0-0.6-0.1-1.2-0.1-1.7c0-0.2,0-0.5,0-0.7c0-0.4,0.4-0.8,0.8-0.8
					c0.4,0,0.8,0.4,0.8,0.8c0,0.2,0,0.4,0,0.7c0,0.5,0,1.1,0,1.7C53.1,100.4,52.8,100.8,52.3,100.8
					C52.3,100.8,52.3,100.8,52.3,100.8z M52.4,96.1C52.4,96.1,52.3,96.1,52.4,96.1c-0.5-0.1-0.8-0.4-0.8-0.9
					c0.1-0.8,0.2-1.6,0.4-2.4c0.1-0.4,0.5-0.7,0.9-0.6c0.4,0.1,0.7,0.5,0.6,0.9c-0.1,0.8-0.3,1.5-0.3,2.3
					C53.1,95.8,52.8,96.1,52.4,96.1z M53.3,91.4c-0.1,0-0.1,0-0.2,0c-0.4-0.1-0.7-0.6-0.6-1c0.2-0.8,0.5-1.6,0.7-2.3
					c0.1-0.4,0.6-0.6,1-0.5c0.4,0.1,0.6,0.6,0.5,1c-0.3,0.7-0.5,1.5-0.7,2.2C53.9,91.2,53.6,91.4,53.3,91.4z M54.9,87
					c-0.1,0-0.2,0-0.3-0.1c-0.4-0.2-0.6-0.7-0.4-1c0.3-0.7,0.7-1.5,1.1-2.2c0.2-0.4,0.7-0.5,1.1-0.3c0.4,0.2,0.5,0.7,0.3,1.1
					c-0.4,0.7-0.7,1.4-1,2.1C55.5,86.8,55.2,87,54.9,87z M57.2,82.8c-0.2,0-0.3,0-0.4-0.1c-0.4-0.2-0.5-0.7-0.2-1.1
					c0.5-0.7,0.9-1.3,1.4-2c0.3-0.3,0.8-0.4,1.1-0.1c0.3,0.3,0.4,0.8,0.1,1.1c-0.5,0.6-0.9,1.2-1.4,1.9
					C57.7,82.7,57.5,82.8,57.2,82.8z M103.7,80.6c-0.2,0-0.5-0.1-0.6-0.3c-0.4-0.5-0.8-0.9-1.2-1.4c-0.3-0.3-0.3-0.8,0-1.1
					c0.3-0.3,0.8-0.3,1.1,0c0.4,0.5,0.9,1,1.3,1.5c0.3,0.3,0.2,0.8-0.1,1.1C104.1,80.6,103.9,80.6,103.7,80.6z M60.2,79.1
					c-0.2,0-0.4-0.1-0.5-0.2c-0.3-0.3-0.3-0.8,0-1.1c0.6-0.6,1.1-1.2,1.7-1.7c0.3-0.3,0.8-0.3,1.1,0.1c0.3,0.3,0.3,0.8-0.1,1.1
					c-0.6,0.5-1.1,1.1-1.6,1.6C60.6,79.1,60.4,79.1,60.2,79.1z M100.8,77.6c-0.2,0-0.4-0.1-0.5-0.2c-0.6-0.5-1.2-1-1.8-1.5
					c-0.3-0.3-0.4-0.8-0.1-1.1c0.3-0.3,0.8-0.4,1.1-0.1c0.6,0.5,1.3,1,1.9,1.6c0.3,0.3,0.3,0.8,0.1,1.1
					C101.2,77.5,101,77.6,100.8,77.6z M63.7,76c-0.2,0-0.5-0.1-0.6-0.3c-0.3-0.3-0.2-0.8,0.2-1.1c0.6-0.5,1.3-1,2-1.4
					c0.4-0.2,0.9-0.1,1.1,0.2c0.2,0.4,0.1,0.9-0.2,1.1c-0.6,0.4-1.3,0.9-1.9,1.3C64,75.9,63.8,76,63.7,76z M97,74.7
					c-0.1,0-0.3,0-0.4-0.1c-0.6-0.4-1.3-0.8-2-1.2c-0.4-0.2-0.5-0.7-0.3-1.1c0.2-0.4,0.7-0.5,1.1-0.3c0.7,0.4,1.4,0.8,2.1,1.2
					c0.4,0.2,0.5,0.7,0.2,1.1C97.6,74.5,97.3,74.7,97,74.7z M67.7,73.4c-0.3,0-0.6-0.2-0.7-0.4c-0.2-0.4-0.1-0.9,0.3-1.1
					c0.7-0.4,1.5-0.7,2.2-1c0.4-0.2,0.9,0,1,0.4c0.2,0.4,0,0.9-0.4,1c-0.7,0.3-1.4,0.6-2.1,1C67.9,73.4,67.8,73.4,67.7,73.4z
					 M92.9,72.4c-0.1,0-0.2,0-0.3-0.1c-0.7-0.3-1.4-0.6-2.2-0.8c-0.4-0.1-0.6-0.6-0.5-1c0.1-0.4,0.6-0.6,1-0.5
					c0.8,0.3,1.5,0.6,2.3,0.9c0.4,0.2,0.6,0.6,0.4,1C93.5,72.3,93.2,72.4,92.9,72.4z M72,71.6c-0.3,0-0.6-0.2-0.7-0.5
					c-0.1-0.4,0.1-0.9,0.5-1c0.8-0.3,1.6-0.5,2.3-0.7c0.4-0.1,0.9,0.2,1,0.6c0.1,0.4-0.2,0.9-0.6,1c-0.7,0.2-1.5,0.4-2.2,0.6
					C72.2,71.6,72.1,71.6,72,71.6z M88.4,70.9c-0.1,0-0.1,0-0.2,0c-0.7-0.2-1.5-0.3-2.3-0.5c-0.4-0.1-0.7-0.5-0.6-0.9
					c0.1-0.4,0.5-0.7,0.9-0.6c0.8,0.1,1.6,0.3,2.4,0.5c0.4,0.1,0.7,0.5,0.6,1C89.1,70.7,88.7,70.9,88.4,70.9z M76.6,70.4
					c-0.4,0-0.7-0.3-0.8-0.7c-0.1-0.4,0.2-0.8,0.7-0.9c0.8-0.1,1.6-0.2,2.4-0.3c0.4,0,0.8,0.3,0.9,0.7c0,0.4-0.3,0.8-0.7,0.9
					c-0.8,0.1-1.5,0.2-2.3,0.3C76.7,70.4,76.7,70.4,76.6,70.4z M83.7,70.1C83.7,70.1,83.7,70.1,83.7,70.1c-0.8-0.1-1.6-0.1-2.4-0.1
					c-0.4,0-0.8-0.4-0.8-0.8c0-0.4,0.4-0.8,0.8-0.8c0,0,0,0,0,0c0.8,0,1.6,0,2.4,0.1c0.4,0,0.8,0.4,0.7,0.9
					C84.5,69.8,84.1,70.1,83.7,70.1z"/>
			</g>
			<g id="XMLID_226_">
				<g>
					<path class="st4" d="M104.9,82.7c-0.3,0-0.5-0.1-0.7-0.4l-1.2-2.1c-0.2-0.4-0.1-0.9,0.3-1.1c0.4-0.2,0.9-0.1,1.1,0.3l1.2,2.1
						c0.2,0.4,0.1,0.9-0.3,1.1C105.2,82.7,105,82.7,104.9,82.7z"/>
				</g>
				<g>
					<polygon class="st4" points="101.1,80.5 104.7,81.6 105.7,77.9 106.9,79.9 105.8,83.6 102.2,82.5 					"/>
				</g>
			</g>
		</g>
		<g id="XMLID_3_">
			<circle id="XMLID_10_" class="st5" cx="79.7" cy="98.4" r="5.8"/>
			<path id="XMLID_9_" class="st1" d="M78.7,101.8c-0.1,0-0.2,0-0.2-0.1l-2.8-2.8c-0.1-0.1-0.1-0.3,0-0.4c0.1-0.1,0.3-0.1,0.4,0
				l2.6,2.6l5.3-5.3c0.1-0.1,0.3-0.1,0.4,0c0.1,0.1,0.1,0.3,0,0.4l-5.5,5.5C78.9,101.8,78.8,101.8,78.7,101.8z"/>
		</g>
	</g>
</g>
</svg>
