<svg version="1.1" id="Layer_1" xmlns="http://www.w3.org/2000/svg" xmlns:xlink="http://www.w3.org/1999/xlink" x="0" y="0" viewBox="0 0 50 50" xml:space="preserve"><style>.st2{fill:#fff}.st3{fill:#52565b}.st6{fill:none}.st7{fill:#cb3f75}</style><path id="XMLID_6_" transform="rotate(-89.908 22.971 30.25)" fill="#ffe07b" d="M9.3 8.7h27.3v43.2H9.3z"/><path id="XMLID_7_" fill="#ffeea4" d="M1.4 16.6h43.2L23.1 33.5z"/><path class="st2" d="M4.5 39.3c2-.1 7.7 1.6 13.4-.2-.3-3.2-.5-5.7-.8-8.8-3.4-.5-9.1-.5-13.3-.5.1-.1 0 6.6.7 9.5z"/><path class="st3" d="M5.9 31.6c3.2.1 6.5.1 9.7.2.1 0 .1-.1.1-.2-.1-.1-.2-.1-.3-.1-3.2-.1-6.5-.1-9.7-.2-.1 0-.1.1-.1.2s.2.1.3.1zM5.8 34.8c3.2.2 6.3.2 9.6.2.2 0 .4-.4.2-.4-3.2 0-6.4 0-9.6-.2-.2.1-.5.4-.2.4zM5.8 37.2c3.3.4 6.6.5 9.8.2.1 0 0-.1 0-.2-.1-.1-.2-.1-.3-.1-3.2.3-6.4.3-9.7-.2-.2 0 0 .3.2.3z"/><path id="SVGID_1_" d="M43.8 26.1c-1.3.4-2.8.4-4.3-.2-2.7-1-4.8-3.5-4.9-6.4-.1-2.5 1.3-5.8 3.7-6.7 4.5-1.8 5.7-1.1 7.8.7 1.8 1.6 2.8 4.1 2.5 6.5-.2 2-1.3 3.8-2.9 5-.6.5-1.2.9-1.9 1.1z" fill="#ff8571"/><defs><path id="SVGID_2_" d="M43.8 26.1c-1.3.4-2.8.4-4.3-.2-2.7-1-4.8-3.5-4.9-6.4-.1-2.5 1.3-5.8 3.7-6.7 4.5-1.8 5.7-1.1 7.8.7 1.8 1.6 2.8 4.1 2.5 6.5-.2 2-1.3 3.8-2.9 5-.6.5-1.2.9-1.9 1.1z"/></defs><clipPath id="SVGID_3_"><use xlink:href="#SVGID_2_" overflow="visible"/></clipPath><g clip-path="url(#SVGID_3_)"><path transform="rotate(-17.118 48.35 25.069)" class="st6" d="M44.9 21.7h6.9v6.7h-6.9z"/><path class="st7" d="M47.4 24.7v-.1s0-.1-.1-.1h-.1c-.1 0-.1.1-.1.1l.3.1c-.1 0-.1 0 0 0zM46.8 24.2s0 .1 0 0c.1 0 .1 0 0 0 .1 0 .1 0 0 0l.1-.1c-.1 0-.1 0-.1.1-.1 0-.1 0 0 0zM48.6 21.6zM44.5 24.1c-.1 0-.1 0 0 0-.1 0 0 0 0 0zM47.6 24.6v-.1-.1c0-.1-.1-.1-.1-.1h-.1v.1s0 .1.1.1l.1.1zM48.8 24.1V24h-.1s-.1 0-.1.1v.1l.2-.1zM47.1 22.2c.1 0 .1 0 0 0 .1 0 .1 0 0 0zM47.4 24.1c0 .1 0 .1 0 0V24.3v-.1c-.1-.1-.1-.2 0-.1zm-.2.1zM46.7 23.2c0 .1 0 .1 0 0v0c.1 0 .1 0 0 0zM48.4 22.9c-.1-.1-.1 0 0 0zM46.4 24.5c-.1-.1-.1-.1 0 0l-.1-.1v.1h.1zM45.5 25c0 .1 0 .1 0 0 0 .1 0 .1 0 0zM45.4 26s-.1 0 0 0c0 .1 0 .1 0 0zM48.2 25.4c-.1.1-.1.1 0 0v.1h.1s.1 0 .1-.1c0 0 .1 0 .1-.1v-.1l-.1-.1c-.1.2-.2.3-.2.3zM48.7 26.1c0-.1 0-.1 0 0V26h-.1l.1.1zM48.3 25.8v.2-.2c.1 0 0 0 0 0zM48.6 25.1c0 .1.1.1.1.1s.1 0 .1-.1-.1-.1-.1-.1-.1 0-.1.1z"/><path class="st7" d="M48.4 24.1c.1.1.2.1.2.1l-.2-.1c0-.1 0-.1 0 0zM49.1 23.9v-.2s-.1 0-.1.1v.2l.1-.1zM47.8 24.2c-.1 0-.1 0 0 0v.1s.1 0 .1-.1v-.1c0 .1 0 0-.1.1zM47.8 24.7c0-.1 0-.1-.1-.1v.1s0 .1.1.1v-.1zM48.8 24.4c0 .1.1.1.2.1v-.1c0-.1-.1-.1-.2-.1h-.1l.1.1zM45.5 23c0-.1 0-.1 0 0zM49 23l.1.1c0-.2 0-.2-.1-.1 0-.1 0 0 0 0zM46.4 22.2zM48.3 23.3h-.1s-.1.1-.1.2v.1h.1c0-.2.1-.2.1-.3zM46.9 23.7c0 .1 0 .1 0 0zM47.8 23.5v-.1s0-.1-.1-.1h-.1c.1.3.1.3.2.2zM47.2 23.6c0-.1 0-.1 0 0-.1 0-.1.1 0 0 0 .1 0 0 0 0zM47.8 23.8l.1.1c.1 0 .1 0-.1-.1l.2.1v-.1l-.1-.1v.1-.1l-.1.1zM49.1 22.4zM48.4 23.6c-.1 0-.1 0-.1.1v.1s.1 0 .1-.1.1 0 0-.1zM49.4 23.3c.1.1.2 0 .2 0-.1-.1-.1-.1-.2 0 0-.1 0 0 0 0zM48.6 23.4v.1h.1s.1 0 .1-.1v-.1c-.1 0-.2 0-.2.1zM49.2 23.7l.1.1c0-.2 0-.2-.1-.1z"/><path class="st7" d="M47.5 23.2l.1.1v-.1c0-.1 0-.1-.1 0 0-.1 0-.1 0 0zM47.5 22.6c0 .1 0 .1 0 0l.1.1h-.1v-.1zM48.1 23c0 .1.1.1 0 0 .1.1.1.1 0 0h.1v-.1l-.1.1c.1 0 .1 0 0 0zM48.6 22.9zM49.3 22.9c0 .1 0 .1.1.1 0-.1 0-.1-.1-.1zM49.3 24.4s0 .1 0 0c0 .1 0 .1 0 0l-.2.1v.2H49v.1h.2v-.2c.2 0 .2-.1.1-.2.1 0 .1 0 0 0zM47.5 25.1s.1 0 0 0h.1V25s0-.1-.1-.1h-.1c.1.1 0 .1.1.2zM46.7 26.2zM48.6 27.3c0 .1 0 .1 0 0zM48.4 24.6c.1 0 .1 0 0 0v-.2h-.1s-.1 0-.1.1.1.2.2.1zM48.3 24.3c0-.1-.1-.2-.1-.1-.1 0-.1.1-.1.1v.1c.1 0 .1 0 .2-.1-.1.1 0 0 0 0zM46.9 24.9s.1 0 0 0c.1 0 .1-.1 0 0l.1-.1v-.1-.1h-.1V24.9c0-.1 0-.1 0 0 0-.1 0 0 0 0zM45.7 23.9s0 .1 0 0c.1.1.1.1 0 0 .1.1.1.1 0 0zM46.9 24.9h-.2.1v.1l.1-.1zM49.2 24.1s0 .1 0 0v.1h.1v-.1s0-.1-.1-.1c.1 0 .1 0 0 .1zM47.9 24.5c-.1-.1-.2-.1-.2-.1v.1h.1c.1.1.1 0 .1 0zM47.3 25.7h0c.1 0 .2 0 .2-.1v-.1h-.1l-.1.2zM48.1 26.3H48c0 .1 0 .1.1 0zM49.1 25.8l.1.1c0-.1 0-.1-.1-.1.1-.1 0-.1 0 0zM49.3 25.8h0zM48.6 26.4h.2v-.1l-.2.1c0-.1 0 0 0 0zM49.2 25.3c0 .1.1.2.1.1v-.1c0-.1-.1-.1-.1 0 0-.1 0 0 0 0zM49.4 21.6c-.1 0-.1 0 0 0zM47.8 26.7s-.1-.1 0 0l-.1-.1c-.1.1 0 .1.1.1-.1 0-.1 0 0 0zM48 28zM49.4 25.4v.1c.1 0 .1 0 0-.1.1 0 .1 0 0 0 .1 0 .1 0 0 0zM48.4 26.6c.1 0 .1 0 0 0 .1-.1 0-.1 0 0s0 .1 0 0zM48.8 26.5s-.1 0 0 0v.1-.1zM47.9 25.6c-.1-.1-.2-.1-.2 0h.1c.1.1.1.1.1 0zM49.1 25.5c0-.1 0-.1-.1-.1h-.1v.1c0 .1.1.1.1.1s0-.1.1-.1zM47.4 26.3v-.1.1c-.1-.1-.1-.1 0 0-.1 0-.1 0 0 0zM47.1 25.8v-.1c-.1 0-.1 0 0 .1-.1.1-.1.1 0 0-.1.1 0 .1 0 0zM46.9 25.3c-.1 0-.1 0 0 0-.1 0-.1 0 0 0-.1.1-.1.1 0 0zM48.9 24.9c0-.1 0-.1 0 0 0-.2 0-.2-.1-.2v.2h.1zM49.1 28.3s.1 0 0 0c.1 0 .1 0 0 0 .1 0 .1 0 0 0 .1 0 .1 0 0 0 .1 0 .1 0 0 0zM47.3 27c.1.1 0 0 0 0zM47.8 26.1s0 .1 0 0c.1.1.1 0 .1 0h-.1zM46.2 26.7zM49.2 26.7s0-.1 0 0zM48.5 25.9h.2s0-.1-.1-.1l-.1.1z"/><path class="st7" d="M47.4 25.4c-.1-.1-.1-.1 0 0-.1 0-.1 0 0 0-.1.1-.1.1 0 0 0 .1 0 .1 0 0zM48.4 25v-.1c0-.1-.1-.1-.2-.1v.1l.2.1zM46.5 27.9c0 .1 0 .1 0 0zM48.2 22c.1 0 .1 0 0 0 .1 0 .1 0 0 0zM46.3 25.4c0 .1 0 .1 0 0zM48.2 25.1s-.1 0 0 0c-.1.1-.1.1-.1.2s.1.1.1.1h.1c0-.2-.1-.2-.1-.3z"/><g><path transform="rotate(-17.397 47.007 25.526)" class="st6" d="M43.8 22.2h6.5v6.7h-6.5z"/><path class="st7" d="M47.2 24.3c0-.1 0 0 0 0-.1 0 0 0 0 0zM46.6 26.5h-.2v.1c0 .1.1.1.1.1l.1-.2c.1.1 0 0 0 0zM46.2 27s.1 0 0 0c0 0 0 .1 0 0 0 .1.1.1 0 0zM43.6 25.3c0 .1 0 .1 0 0zM46.1 29.3c-.1.1 0 0 0 0zM46.6 26.2h-.1-.1l-.1.1h.1c.1.1.1.1.2-.1 0 .1 0 .1 0 0zM46.1 25.1H46v.1s0 .1.1.1h.1l-.1-.2zM44.3 23.9c0-.1 0-.1 0 0 0-.1 0-.1 0 0zM44.2 26.7c.1 0 .1 0 0 0zM46.1 26.5s.1 0 0 0H46.3h-.1c-.2.1-.2.1-.1 0zm.1.2zM45.3 27.2c0-.1 0-.1 0 0l.1-.1h-.1c-.1-.1-.1 0 0 .1zM44.9 25.5c-.1.1 0 .1 0 0 0 .1 0 0 0 0zM46.4 27.5v.1h.1l-.1-.1zM47 28.3zM48 28.4s-.1 0 0 0c0 0 0 .1 0 0zM47.4 25.7h.1v-.1s0-.1-.1-.1c0 0 0-.1-.1-.1h-.1l-.1.1c.2.1.2.2.3.2zM47.9 24c.1 0 .1 0 0 0 .1 0 .1 0 0 0 0 .1 0 .1 0 0zM48 25.2c-.1 0-.1 0 0 0h-.1v.1c0 .1 0 0 .1-.1zM47.7 25.6c.1 0 .1 0 0 0h.1-.1c0-.1 0-.1 0 0zM48.9 24.1s0 .1 0 0c.1.1.1.1 0 0 .1 0 .1 0 0 0 0 0 .1 0 0 0zM47.1 25.3c.1 0 .1-.1.1-.1s0-.1-.1-.1-.1.1-.1.1c-.1.1-.1.1.1.1-.1 0-.1 0 0 0zM46 25.6c.1-.1.1-.2.1-.2l-.1.2c-.1-.1 0-.1 0 0zM45.9 24.8h-.1s0 .1.1.1h.2l-.2-.1c.1.1.1.1 0 0zM46.2 26.1c0 .1 0 .1 0 0h.1s0-.1-.1-.1h-.1l.1.1c-.1 0-.1 0 0 0zM45.5 22.5zM46.7 26c-.1 0-.1 0-.1.1h.1V26c0 .1 0 .1 0 0zM46.4 25.1c.1 0 .1-.1.1-.2h-.1c-.1 0-.1.1-.1.1v.1h.1zM45 28.3s-.1 0 0 0zM45 24.9l.1-.1c-.2 0-.2.1-.1.1-.1 0 0 0 0 0zM44.2 27.5zM45.3 25.6v.1s.1.1.2.1h.1v-.1c-.1-.1-.2-.1-.3-.1zM45.7 26.9c.1.1.1.1 0 0zM45.5 26.1h-.1s-.1 0-.1.1v.1c.3-.1.3-.1.2-.2zM45 23.8zM45.6 26.6c0 .1-.1.1 0 0 0 .1 0 .1 0 0zM45.8 26l.1-.1-.1.1.1-.2h-.1l-.1.1h.1-.1l.1.1zM44.4 24.8s-.1 0 0 0c-.1 0 0 0 0 0zM45.6 25.5c0 .1 0 .1.1.1h.1s0-.1-.1-.1c0-.1 0-.1-.1 0zM45.3 24.5c.1-.1 0-.2 0-.2-.1.1-.1.2 0 .2-.1 0 0 0 0 0zM45.3 25.3h.1v-.1s0-.1-.1-.1h-.1c.1.1.1.2.1.2zM43.3 23.6zM45.6 24.7l.1-.1c-.1 0-.1 0-.1.1z"/><path class="st7" d="M45.2 26.4c.1 0 .1-.1 0 0l.1-.1h-.1s-.1 0 0 .1c-.1 0 0 0 0 0zM44.6 26.4c.1 0 .1 0 0 0l.1-.1v.1h-.1zM45 25.8c.1 0 .1-.1 0 0 .1-.1.1-.1 0 0v-.1h-.1l.1.1c0-.1 0-.1 0 0zM44.9 25.3zM44.9 24.7c.1 0 .1 0 .1-.1-.1-.1-.1-.1-.1.1 0-.1 0-.1 0 0zM46.4 24.6c0 .1 0 .1 0 0 0 .1 0 .1 0 0l.1.2h.2v.1h.1v-.2h-.2l-.1-.1c-.1-.1-.1-.1-.1 0zM47.1 26.4c0-.1 0-.1 0 0v-.1H47s-.1 0-.1.1v.1c0-.1 0-.1.2-.1-.1 0 0 0 0 0zM48.1 27.1c0 .1 0 .1 0 0zM45.6 24.3s.1 0 0 0c.1-.1.1-.1 0 0v-.1.1zM46.1 24.2s.1 0 0 0h.1-.1zM49.2 25.3zM45.9 23.4c0-.1 0-.1 0 0 0-.1 0-.1 0 0zM46.6 25.5c0-.1-.1-.1 0 0h-.2v.1s0 .1.1.1c.1-.1.1-.1.1-.2zM45.7 24.1h.1-.1c.1 0 .1 0 0 0zM46.3 25.6s-.1 0 0 0c-.1 0-.2.1-.1.1 0 .1.1.1.1.1h.1c0-.1 0-.1-.1-.2zM45.8 24.4c.1.1.1 0 0 0 .1 0 0-.1 0 0zM46.8 26.9c0-.1-.1-.1 0 0l-.1-.1h-.1v.1h.2c-.1 0-.1 0 0 0 0 .1 0 .1 0 0zM45.9 28.1c.1-.1.1-.1 0 0 .1-.1.1-.1 0 0 0-.1 0-.1 0 0 0-.1 0-.1 0 0zM46.9 27h-.1v.1h.1V27zM46 24.7c.1 0 .1 0 0 0h.1v-.1H46s-.1 0-.1.1c.1-.1.1-.1.1 0zM46.4 26c-.1.1-.1.2-.1.2h.1v-.1c.1-.1.1-.1 0-.1zM46.9 23.2c0-.1 0-.1 0 0 0-.1 0-.1 0 0-.1-.1-.1-.1 0 0zM47.6 26.6v-.1s0-.1-.1 0h-.1v.1h.2zM47.5 23.8s.1 0 0 0zM48.2 25.8l-.1.1c.2 0 .2 0 .1-.1zM47.7 24.9s0-.1 0 0v-.1c-.1-.1-.1 0 0 .1-.1-.1-.1-.1 0 0zM47.7 24.6c.1 0 .1 0 0 0v-.1.1zM48.3 25.3v-.2h-.1l.1.2c-.1 0-.1 0 0 0zM47.2 24.7c.1 0 .1-.1.1-.1h-.1c-.1 0-.1.1 0 .1-.1 0 0 0 0 0zM47 24zM43.6 24.5c0 .1 0 .1 0 0 0 .1 0 0 0 0zM48.6 26.1s-.1 0 0 0l-.1.1c.1 0 .1 0 .1-.1 0 .1 0 .1 0 0zM47.1 24.2l.1-.1h-.1v.1c0-.1 0-.1 0 0zM49.5 23c-.1 0-.1 0 0 0 0 .1 0 0 0 0zM47.3 24.5h.1c0-.1 0-.1-.1 0 .1-.1.1-.1 0 0 0-.1 0 0 0 0zM48.5 25.5c0-.1 0-.1 0 0-.1-.1-.1 0 0 0s.1 0 0 0zM48.3 25.1s0 .1 0 0h.1-.1zM47.5 26c-.1.1-.1.2 0 .2V26c.1 0 .1 0 0 0zM47.4 24.9c-.1 0-.1 0-.1.1v.1h.1c.1 0 .1-.1.1-.1 0-.1-.1-.1-.1-.1zM48.2 26.5h-.1.1c0 .1 0 .1 0 0zM47.8 26.8c-.1-.1-.1-.1 0 0-.1 0-.1 0 0 0 0 .1 0 0 0 0zM47.2 27s0 .1 0 0c.1 0 .1 0 0 0zM46.8 25c-.1 0-.1 0 0 0-.2 0-.2 0-.2.1h.2V25zM48.9 26.5zM48 26.1s.1 0 0 0c.1-.1 0-.1 0-.1v.1zM48.6 27.6c0 .1 0 .1 0 0 0 .1 0 .1 0 0zM48.6 24.7c-.1 0-.1 0 0 0-.1 0-.1 0 0 0zM47.8 25.4v-.1-.1s-.1 0-.1.1l.1.1zM48.6 23.1zM47.3 26.5c0 .1 0 .1 0 0 .1.1.1.1 0 0 .1.1.1.1 0 0 .1 0 .1 0 0 0zM47.6 22.6c-.1 0-.1 0 0 0zM46.9 25.5c-.2 0-.2 0-.2.1h.1l.1-.1c.1.1.1 0 0 0zM46.6 24c.1 0 .1-.1 0-.1h-.1l.1.1zM44 25.7c0-.1 0-.1 0 0 0-.1 0-.1 0 0 0-.1 0 0 0 0zM47.4 27.5s0 .1 0 0zM47.1 25.7s0 .1 0 0c.1.1.1.1.2.1l.1-.1v-.1c-.2 0-.3 0-.3.1z"/></g><g><path transform="rotate(-42.32 45.656 25.88)" class="st6" d="M42.5 22.6h6.3v6.5h-6.3z"/><path class="st7" d="M46 27c0 .1 0 .1 0 0 .1.1.1.1 0 0zM45.6 24.9c.1 0 .1-.1.1-.1v-.1s-.1-.1-.2 0l.1.2c-.1-.1 0 0 0 0zM45.7 24.2s0 .1 0 0c.1.1.1.1 0 0 .1 0 .1 0 0 0zM48.7 24.7zM44.9 22.2s0-.1 0 0c0-.1 0-.1 0 0zM45.7 25.1l.1-.1v-.1h-.1v.2c0-.1 0 0 0 0zM46.6 25.9l.1-.2h-.1-.1l.1.2zM48.7 26.3zM47.6 23.7zM46 24.6c0 .1 0 .1 0 0l-.1.1h-.1v-.1c.1-.1.1-.1.2 0v-.1h.2l.1.1H46zm-.1 0zM46.5 23.7v.1h.1l-.1-.1zM47.5 25v-.1.1zM45.4 24v-.1.1zM44.5 23.4zM43.6 23.8zM45.3 25.9s-.1 0 0 0c-.1 0-.1 0-.1.1l.1.1h.2V26c-.1-.1-.2-.1-.2-.1zM45.4 27.6s0 .1 0 0c.1 0 .1 0 0 0zM44.9 26.6c.1 0 .1 0 0 0h0c.1-.1.1-.1 0 0zM45 26.2h-.1.1zM44.5 27.9s0 .1 0 0zM45.7 26.1v.1l.1.1v-.1l-.1-.1zM46.5 25.5v.2-.1c.1-.1.1-.1 0-.1zM46.9 26.1c.1-.1.1-.1 0 0l.1-.1s0-.1-.1-.1h-.1-.1v.1l.2.1zM46.2 25c-.1 0-.1 0 0 0l-.1.1s.1 0 .1.1h.1l-.1-.2c0 .1 0 0 0 0zM48.2 27.9c.1 0 0 0 0 0zM45.7 25.3c.1 0 .1-.1.1-.1h-.1c-.1 0-.1 0 0 .1-.1 0-.1 0 0 0zM46.4 26c-.1.1 0 .1 0 .2h.1V26h-.1zM46.3 22.6s0 .1 0 0zM47.6 25.6v.1c.2 0 .2-.1 0-.1.1 0 .1 0 0 0zM47.3 23.1zM47.1 25.1V25s-.1-.1-.2 0v.1s0 .1.1.1l.1-.1c0 .1 0 .1 0 0zM46.2 24.2c0-.1 0 0 0 0zM46.7 24.8c.1 0 .1 0 0 0l.1-.1s0-.1-.1-.1v.2zM48.1 26.7s0-.1 0 0c0-.1 0-.1 0 0zM46.4 24.4c.1-.1.1-.1 0 0v-.1.1zM46.5 25v.1h.1s.1-.1 0-.1h-.1zM48.3 25.4c-.1 0-.1 0 0 0-.1.1-.1.1 0 0 0 .1 0 .1 0 0zM46.9 25.4c0-.1 0-.1 0 0-.1-.1-.2-.1-.2-.1l.1.1s.1.1.1 0zM47.6 26c0 .1 0 .1 0 0 0 .1 0 .2.1.1l-.1-.1c.1 0 .1 0 0 0zM47.2 25.4h-.1v.1s.1 0 .1.1h.1c0-.1 0-.2-.1-.2zM47.2 26v0c0-.1.1.1 0 0zM46.9 24.4c-.1.1 0 .1 0 .1h.1l-.1-.1c.1 0 0 0 0 0zM47.4 24.2v.1-.1zM47.3 24.9c-.1 0-.1 0 0 0l-.1.1h.1c.1-.1.1-.1 0-.1zM47.6 25.3c.1 0 .1 0 0 0 0 0 0-.1 0 0zM47.9 25.8l-.1.1c.1 0 .1 0 .1-.1zM46.6 26.4l-.1-.1h-.1H46.1v.2H46.4c.1 0 .2 0 .2-.1 0 .1 0 .1 0 0zM45.3 25.2s0 .1 0 0c.1.1.2.1.2 0v-.1-.1h-.1c-.1.1-.1.2-.1.2zM44 24.9zM47.4 26.4c0 .1 0 .1 0 0-.1.1-.1.1 0 0 0 .2 0 .1 0 0 0 .1 0 0 0 0zM47 26.7s-.1 0 0 0c-.1 0-.1 0-.1.1l.1-.1c0 .1 0 .1 0 0zM43.8 27c0 .1 0 .1 0 0zM47.5 27.4c.1 0 .1 0 0 0 .1 0 .1-.1 0 0 .1-.1 0-.1 0 0zM46 25.7h.1v-.1-.1H46v.2zM47.4 26.7c-.1 0-.1 0 0 0zM46.3 25.5c.1-.1.1-.1.1-.2h-.1l-.1.1v.1h.1c-.1 0-.1 0 0 0zM47.2 26.4h-.1v.1l.1-.1z"/><path class="st7" d="M45.3 24.6s0 .1 0 0c.1.1.1.1.2.1h.1v-.1-.1h-.1c-.1.1-.1.1-.2.1 0-.1 0-.1 0 0zM45.6 23.2z"/><path class="st7" d="M45.2 24.6l.1-.1h-.2l.1.1zM46.8 26.2s-.1 0 0 0l-.1.1s0 .1.1.1h.1c0-.1 0-.1-.1-.2.1.1 0 0 0 0zM46 25.3c.1-.1.1-.2 0-.2h-.1v.1c0 .1.1.1.1.1zM46.7 27.9c.1 0 .1 0 0 0zM44.7 25.2l.1.1h.1v-.1-.1l-.2.1c.1-.1 0-.1 0 0zM45.9 27.6c0 .1 0 .1 0 0 0 .1 0 .1 0 0 0 .1 0 .1 0 0 0 .1 0 0 0 0zM44.5 26.2V26c-.1.1-.1.1 0 .2zM45.3 26.8v.1c.1 0 .1 0 0-.1.1 0 .1 0 0 0zM45.4 27zM44.6 26.6v.1h.1l-.1-.1c.1 0 .1 0 0 0zM45.8 26.7c-.1.1-.1.1-.1.2h.1c.1-.2.1-.2 0-.2.1 0 0 0 0 0zM46.3 27.2zM49 25.4c0-.1 0-.1 0 0zM44 26s.1 0 0 0v-.1c-.1 0-.1.1 0 .1-.1 0-.1 0 0 0zM46.1 27.1v.1h.2v-.1c0-.1-.1.1-.2 0zM43 26.8c0-.1 0 0 0 0zM44.5 29.1zM45.8 26.9l-.1.1h.2c-.1 0 0 0-.1-.1zM44.4 26.6c.1 0 .1-.1 0 0-.1 0-.1 0 0 0zM44.6 26.8s0-.1 0 0h-.1.1zM45.1 25.7v-.2.2l.1.1-.1-.1zM45.6 26.7c.1-.1.1-.1 0 0 .1-.1.1-.2.1-.2h-.1c-.1 0-.1 0 0 .2-.1-.1 0-.1 0 0zM44.2 25.5h.1-.1c0-.1 0-.1 0 0zM44.5 25.1c.1-.1 0-.1 0-.1-.1.1-.1.1 0 .1zM44.9 24.7v-.1h-.1l.1.1c-.1 0-.1 0 0 0zM46 26.2c.1 0 .1 0 0 0 .1-.1.1-.1.1-.2H46v.2zM43.2 27.8c0 .1 0 .1 0 0 0 .1 0 .1 0 0 .1.1 0 .1 0 0 0 .1 0 .1 0 0 0 .1 0 .1 0 0zM43.6 25.8zM44.5 25.8c0 .1 0 .1 0 0zM43.4 24.7zM44.6 27.2c0 .1 0 .1 0 0zM45 26.4c0 .1 0 .1.1.1 0-.1 0-.1-.1-.1 0-.1 0-.1 0 0zM45.3 28.7z"/><path class="st7" d="M45 25.2c0-.1 0-.1 0 0-.1-.1-.1-.1 0 0-.1 0-.1 0 0 0-.1 0-.1 0 0 0zM46.4 28.7zM45.7 25.9h.1s.1-.1 0-.2h-.2l.1.2c0-.1 0 0 0 0zM46.6 27.1v.1c.1-.1.1-.1 0-.1zM42.4 25.5c.1 0 .1 0 0 0zM48.2 24.5c0 .1 0 .1 0 0 0 .1 0 .1 0 0zM44.5 24.3s0-.1 0 0zM45.5 25.7l-.1-.1v.1h.1c0 .1 0 .1 0 0z"/></g><g><path transform="matrix(.00826 -1 1 .00826 17.795 70.105)" class="st6" d="M40.9 22.8h6.8v6.6h-6.8z"/><path class="st7" d="M43.7 27.2c0 .1 0 0 0 0zM44.9 25.3c.1.1.2.1.2.1v-.1c0-.1 0-.1-.1-.1l-.1.1c0-.1 0-.1 0 0zM45.5 24.9s-.1 0 0 0l.1.1v-.1c0-.1 0-.1-.1 0zM47.4 27.3s.1 0 0 0zM46.3 22.7c.1 0 0 0 0 0z"/><path class="st7" d="M44.9 25.6h.2c.1 0 .1-.1.1-.1v-.1h-.1-.1c-.1.1-.1.1-.1.2zM45 26.8h.2v-.1-.1h-.1l-.1.2zM46.3 28.5s0 .1 0 0c0 .1 0 .1 0 0 .1.1 0 0 0 0zM47.3 25.8c-.1 0-.1 0 0 0z"/><path class="st7" d="M45.4 25.4c0 .1-.1.1 0 0H45.1 45.4v.2-.2zm-.1-.1c.1 0 .1 0 0 0 .1 0 .1 0 0 0zM46.4 25.1h-.1.1c0 .1 0 .1 0 0zM46.3 26.8c0-.1 0-.1 0 0 0-.1 0-.1 0 0zM45.4 24.4c.1 0 .1 0 0 0l.1-.1v.1h-.1zM45.1 23.4c.1 0 .1 0 0 0 .1 0 0 0 0 0zM44.2 23.1c0-.1 0-.1 0 0 0-.1 0-.1 0 0zM44 25.8c-.1 0-.1-.1 0 0l-.1-.1v.1s0 .1.1.1h.1s.1 0 .1-.1c-.2.1-.2.1-.2 0zM42.9 27.2c-.1 0-.1.1 0 0 0 .1 0 .1 0 0zM43.2 26.1c0 .1 0 .1 0 0 .1.1.1.1 0 0h.1s0-.1-.1 0zM43.5 25.8h-.1.1c-.1.1-.1.1 0 0 0 .1 0 .1 0 0zM42 26.8c-.1 0-.1 0 0 0-.1 0-.1 0 0 0zM44.1 26.3s-.1 0 0 0c-.1.1-.1.2-.1.2.1 0 .1 0 .1-.1.1 0 .1 0 0-.1.1 0 .1 0 0 0zM45.2 26.4c-.2 0-.2.1-.2.1h.1l.1-.1c.1 0 .1 0 0 0zM45.1 27.1h.1V27h-.1-.1v.1h.1zM45.3 25.8c0-.1-.1-.1 0 0l-.1-.1v.1h.1c-.1.1 0 .1 0 0 0 .1 0 0 0 0zM44.8 29.4c0 .1 0 .1 0 0zM44.7 25.7c.1 0 .1 0 .2-.1h-.1-.1c-.1 0-.1 0 0 .1zM44.8 26.7c-.1 0-.1.1-.1.1h.1v-.1zM47 24c0 .1 0 .1 0 0 .1.1.1.1 0 0zM46 27.3c-.1 0-.1 0 0 0v.1s.1 0 .1-.1H46zM47.5 25.1zM45.9 26.5c.1-.1.1-.2 0-.2h-.1v.1c0 .1 0 .1.1.1zM45.9 25.2c0-.1 0-.1 0 0zM45.8 26h.2v-.1c-.1 0-.2.1-.2.1zM45.6 28.4zM45.9 25.5c.1 0 .1 0 0 0l.1-.1-.1.1zM45.6 26c-.1.1-.1.1 0 0l-.1.1h.1s.1 0 .1-.1h-.1l.1.1-.1-.1zM46.5 27.6c.1 0 .1 0 0 0 .1 0 .1 0 0 0zM45.6 26.6v-.1h-.1v.1h.1zM45.6 27.6s-.1 0 0 0c-.1.1-.1.1-.1.2.1 0 .1-.1.1-.2.1.1.1 0 0 0zM45.8 26.8l-.1-.1h-.1v.2h.1l.1-.1c0 .1 0 .1 0 0zM47.2 29.1c-.1 0-.1 0 0 0-.1.1-.1.1 0 0zM45.3 27.3l-.1.1h.1v-.1zM46.3 25.8c-.1 0-.1 0-.1.1h.1c-.1.1 0 0 0-.1 0 .1 0 0 0 0zM46.8 26c-.1 0-.1 0 0 0l-.1.1.1-.1c0 .1 0 .1 0 0zM46.2 26.5h-.1v.1s0 .1.1.1v-.2zM46.1 27c.1.1.1.1 0 0 .1 0 .1 0 0 0 .1 0 .1 0 0 0zM46 27.6h-.1.1c0 .1 0 .1 0 0zM44.6 27.2c0-.1 0-.1 0 0V27h-.1-.1v-.1h-.2v.2h.1c0 .1.1.1.1.1h.2zM44.5 25.3c-.1 0-.1 0 0 0v.1h.2v-.1h-.2c0-.1 0 0 0 0zM43.7 24.2zM45.2 27.7c-.1 0-.1 0 0 0-.1.1-.1.1 0 0-.1.1 0 .1 0 .1v-.1zM44.7 27.6c-.1-.1-.2-.1-.2 0s.1.1.2 0zM42.1 25.6c-.1.1-.1.1 0 0 0 .1 0 .1 0 0 0 .1 0 .1 0 0zM44.7 28.6c-.1 0-.1 0 0 0 0-.1 0-.1 0 0zM44.6 26.3s.1.1 0 0l.2.1c.1 0 .1-.1.1-.1s0-.1-.1-.1c-.1-.1-.2 0-.2.1zM45 27.8c-.1 0-.1 0 0 0-.1 0-.1 0 0 0zM45 26.2s0 .1 0 0c.2.1.2 0 .2 0 0-.1 0-.1-.1-.1H45v.1c-.1-.1-.1 0 0 0-.1 0-.1 0 0 0zM45.1 27.5c-.1 0-.1 0 0 0-.1.1-.1.1 0 0zM44.9 24.8c0 .1 0 .1 0 0 0 .1 0 .1 0 0 0 .1 0 .1.1.1l-.1-.1.1.1h.2v-.1H44.9zM46.1 24s-.1 0 0 0zM44.8 24.8h.1v-.2h-.1v.2zM44.9 27.2c0-.1 0-.1 0 0h-.1v.1l.1.1h.1l-.1-.2zM44.9 25.9h.1s.1-.1 0-.1h-.1v.1c-.1-.1 0 0 0 0zM43.7 28.4c-.1 0-.1 0 0 0zM44 24.9v.1c-.1 0-.1 0 0-.1v.1s0 .1.1.1h.2V25l-.3-.1zM43.2 27.6c-.1 0-.1 0 0 0zM43.2 25.5l.1-.1c-.1 0-.2 0-.1.1zM43.4 26.5c-.1 0-.1.1 0 0l-.1.1c.1.1.1.1.1-.1 0 .1 0 .1 0 0zM43.3 26.7c-.1 0-.1 0 0 0v.1c.1.1.1 0 0-.1 0 .1 0 0 0 0zM43 25.9l-.1.1h.1v-.1c0 .1 0 0 0 0zM43.8 26.8c-.1 0-.2 0-.2.1 0 0 0 .1.1.1.2-.1.2-.2.1-.2.1 0 0 0 0 0zM43.8 27.5zM47.2 28.1s0-.1 0 0c0-.1 0-.1 0 0zM42.9 25c.1 0 .1 0 0 0l.1-.1h-.1v.1zM43.7 27.3h-.1v.1h.1v-.1c0 .1 0 .1 0 0zM41.6 24.9zM41.1 27.8c0-.1 0-.1 0 0zM43.6 27h-.1v.1l.1-.1c0 .1 0 0 0 0zM42.8 25.7c.1 0 .1 0 0 0 0-.1 0-.1 0 0zM42.8 26.1s0-.1 0 0h-.1.1zM43.9 25.6c.1-.1.1-.2.1-.2h-.1v.1c-.1 0-.1.1 0 .1zM43.7 26.6h.2v-.1h-.2v.1zM43.4 24.8h.1-.1c0-.1 0-.1 0 0zM43.9 24.6c0 .1 0 .1 0 0h0l.1-.1c-.1 0-.1 0-.1.1zM44.5 24.6s0-.1 0 0c-.1 0-.1 0 0 0zM44.3 26.6c0 .1.1.1 0 0 .2.1.2 0 .2 0v-.1s0-.1-.1-.1h-.1v.2zM41 25.9zM42.7 24.6c.1 0 .1-.1 0 0 0-.1 0 0 0 0zM43.4 25.2c0 .1 0 .1 0 0 .1 0 .1 0 0 0zM43.4 23.6c0-.1 0 0 0 0zM42.5 26.4zM43.4 26v.1s.1 0 .1-.1h-.1zM41.9 28c.1 0 .1 0 0 0z"/><path class="st7" d="M44.2 25.1c.1-.1.1-.1 0 0 .1-.1 0-.1 0-.1v.1c0-.1 0-.1 0 0zM42.8 28.7zM44.3 26.2c.2.1.2 0 .2-.1V26h-.1c-.1 0-.1.1-.1.2zM44.1 27.7c-.1 0-.1 0 0 0l-.1.1h.1v-.1c.1.1.1 0 0 0zM42.1 23.5zM47.2 26.9s-.1 0 0 0c-.1 0-.1 0 0 0zM44.5 24.1s0-.1 0 0zM44.3 25.9s0-.1 0 0v-.1h-.1s-.1 0-.1.1v.1c0 .1.1.1.1.1l.1-.2z"/></g><g><path transform="scale(.99998) rotate(-4.276 42.82 26.06)" class="st6" d="M39.3 22.7h7.1v6.8h-7.1z"/><path class="st7" d="M41.6 25.6zM43.7 26.7c-.1.1 0 .2 0 .2h.1c.1 0 .1-.1.1-.1l-.2-.1c.1 0 .1 0 0 0zM44.2 27.3s0-.1 0 0c-.1 0-.1 0 0 0-.1 0-.1 0 0 0l-.1.1h.1v-.1zM41.9 29.5c-.1 0-.1 0 0 0-.1 0-.1 0 0 0-.1 0 0 0 0 0zM46.5 27.9c0 .1 0 0 0 0zM43.4 26.7v.2c0 .1.1.1.1.1h.1v-.1s0-.1-.1-.1c0-.1 0-.1-.1-.1zM42.2 26.9v.2h.2V27l-.2-.1zM40.5 28.4c-.1 0-.1 0 0 0 0 .1 0 .1 0 0 0 .1 0 .1 0 0zM43.4 29.2z"/><path class="st7" d="M43.6 27.2V26.9 27.2h-.1c.2.2.1.2.1 0zm.2 0zM44.1 28.3s0-.1 0 0v-.1.1c0 .1 0 .1.1.1l-.1-.1zM42.3 28.3c.1 0 .1 0 0 0zM44.6 27.1c.1.1.1.1 0 0l.1.1v-.1h-.1zM45.6 26.8s.1 0 0 0c.1 0 .1 0 0 0 .1-.1 0-.1 0 0zM46 25.8zM43.1 25.8c0-.1 0-.1 0 0v-.1H43h-.1s-.1 0-.1.1v.1l.1.1c.1-.2.1-.2.2-.2zM41.5 24.8c0-.1 0-.1 0 0-.1-.1-.1-.1 0 0-.1 0-.1 0 0 0zM42.7 25c-.1.1-.1.1 0 0v.1s.1 0 0-.1zM43 25.3c.1 0 .1 0 0 0v-.1.1zM41.8 23.8c.1-.1 0-.1 0 0zM42.6 26c0-.1-.1-.1 0 0-.1-.1-.2-.1-.2-.1 0 .1.1.1.1.1 0 .1 0 .1.1 0zM42.6 27.1c0-.2-.1-.1-.1-.1v.1h.1c-.1.1 0 0 0 0zM41.8 27v.1h.1V27v-.1l-.1.1zM43.2 27.1c.1 0 .1 0 0 0l.1-.1h-.1v.1c-.1 0-.1 0 0 0-.1 0 0 0 0 0zM39.4 27c0-.1 0-.1 0 0zM43.3 26.6c0 .1 0 .1.1.2v-.1-.1c0-.1 0-.1-.1 0zM42.3 26.7c0-.1-.1-.1-.1-.1v.1c-.2 0-.1.1.1 0zM45.2 28.8zM41.7 28c0-.1 0-.1 0 0l-.1-.1s0 .1.1.1c0 .1 0 0 0 0zM44.2 29.4c-.1 0 0 0 0 0zM42.5 27.8l.1.1s.1 0 .1-.1v-.1h-.1c0 .1 0 .1-.1.1zM43.9 27.8c.1-.1.1-.1 0 0zM43 27.8v.1s0 .1.1.1h.1c0-.2-.1-.2-.2-.2zM40.5 27.7c.1 0 .1 0 0 0zM43.6 27.8s.1 0 0 0l.1.1s0-.1-.1-.1c0-.1 0 0 0 0zM43.1 27.4c-.1 0-.1 0 0 0l-.1-.1v.1s0 .1.1.1v-.1l-.1.1.1-.1zM41.5 28.6s-.1 0 0 0c-.1 0-.1 0 0 0zM42.4 27.5h.1v-.1h-.1v.1zM41.4 27.7c0-.1 0-.1 0 0-.1-.1-.2-.1-.2 0h.2c-.1 0-.1 0 0 0zM42.2 27.8l.1-.1v-.1h-.2v.1c0 .1 0 .1.1.1zM40 29.4s-.1 0 0 0c-.1 0-.1 0 0 0zM41.6 27.3l-.1-.1c0 .1 0 .1.1.1 0 0 0 .1 0 0zM43.3 28.2c0-.1 0-.1-.1-.1v.1c-.1-.1 0 0 .1 0-.1 0 0 0 0 0zM43.1 28.7c0-.1 0-.1 0 0H43h.1zM42.6 28.2v-.1h-.1v.1h.1zM42.1 28.2c0-.1-.1-.1 0 0H42h.1c-.1 0-.1 0 0 0zM41.5 28.1c0-.1 0-.1-.1-.1l.1.1-.2-.1s0 .1.2.1c-.1 0-.1 0 0 0zM41.7 26.5c.1 0 .1 0 0 0h.2v-.1-.1h.1v-.2h-.2v.2c-.1 0-.1.1-.1.1-.1.1 0 .1 0 .1zM43.7 26.2s-.1 0 0 0h-.1v.2h.1s.1 0 0-.2c0 .1 0 .1 0 0zM44.7 25.3c.1 0 .1 0 0 0zM41.2 27.2s0-.1 0 0c0-.1 0-.1 0 0-.1-.1-.2 0-.2 0 .1.1.1.1.2 0zM41.3 26.7c.1-.1 0-.2 0-.2-.1.1-.1.1 0 .2zM43.1 23.8zM40.3 26.7c0 .1 0 0 0 0zM42.7 26.5c-.1 0-.1.1 0 0l-.1.2c0 .1.1.1.1.1s.1 0 .1-.1c0-.2 0-.2-.1-.2zM41.1 27.1V27v.1c-.1-.1-.1-.1 0 0z"/><path class="st7" d="M42.7 26.8s0 .1 0 0c0 .2 0 .2.1.2s.1-.1.1-.1v-.1h-.2c.1 0 0 0 0 0zM41.4 27.1c0-.1 0-.1 0 0-.1-.1-.1-.1 0 0zM44.2 26.7c0-.1 0-.1 0 0-.1-.1-.1 0 0 0-.1 0-.1 0-.1.1l.1-.1-.1.1v.2h.1V26.7zM45.2 27.8c-.1 0-.1 0 0 0-.1 0 0 0 0 0zM44.2 26.6l.1.1h.1v-.1h-.1v-.1.1zM41.8 26.9c0-.1 0-.1 0 0v-.1h-.1l-.1.1v.1c.1-.1.1-.1.2-.1zM43.1 26.7v.1s.1.1.1 0v-.1h-.1zM40.4 25.7c0-.1 0 0 0 0-.1 0-.1 0 0 0-.1 0-.1 0 0 0zM44 25.7h-.1.1-.1s-.1 0-.1.1v.2h.1l.1-.3s.1 0 0 0zM41.2 25.1c-.1.1 0 .1 0 0zM43.4 24.9l.1.1c0-.1-.1-.1-.1-.1zM42.3 25.3c0-.1 0-.1 0 0l-.1-.1v.1h.1zM42 25.1h-.1c.1.1.1.1.1 0 0 .1 0 0 0 0zM42.9 24.7l-.1-.1v.1h.1c-.1.1 0 .1 0 0zM42.1 25.7c0-.1-.1-.2-.1-.2s-.1.1 0 .1c0 .2 0 .2.1.1-.1.1 0 0 0 0zM41.3 25.8s0-.1 0 0zM41 29.3s.1 0 0 0c.1 0 .1 0 0 0zM43.8 24.6c0 .1 0 .1 0 0l.1.1v-.1s0-.1-.1 0zM41.5 25.6c-.1-.1-.1-.1 0 0-.1-.1-.1 0-.1 0h.1c-.1.1-.1.1 0 0zM43.8 23.2c.1.1 0 0 0 0zM40.8 23c.1 0 .1 0 0 0zM41.8 25.6v-.1.1c0-.1-.1-.1 0 0 0-.1 0 0 0 0zM43.1 24.5s0 .1 0 0c0 .1 0 .1 0 0 .1 0 0 0 0 0zM42.7 24.6s.1 0 0 0l.1-.1-.1.1v-.1.1zM43.4 25.7c.1.1.2.1.2.1v-.1h-.1c-.1-.1-.1-.1-.1 0zM42.2 25.6v.2h.1l.1-.1c0-.1 0-.1-.1-.1 0-.1 0-.1-.1 0zM44.1 25.1v.1-.1c.1.1.1.1 0 0 .1 0 0 0 0 0zM44.3 25.6c-.1 0-.1.1 0 0 0 .1 0 .1 0 0h0zM44.3 26.2c.1.1.1.1 0 0 .1.1.1 0 0 0 .1-.1.1-.1 0 0zM42.3 26.2c-.1 0-.1.1 0 0 0 .2 0 .2.1.2h.1l.1-.1v-.1h-.3zM42.8 22.7c-.1 0-.1 0 0 0-.1 0-.1 0 0 0-.1 0-.1 0 0 0-.1 0-.1 0 0 0zM44.3 24.4zM43.7 25.2s0-.1 0 0c-.1-.1-.1 0 0 0zM45.3 25c.1 0 .1 0 0 0 .1 0 .1-.1 0 0zM42.4 24.3s-.1 0 0 0c-.1 0-.1.1 0 0zM42.9 25.2h-.1-.1s0 .1.1.1l.1-.1c0 .1 0 .1 0 0zM40.7 23.8c0 .1 0 .1 0 0z"/><path class="st7" d="M43.9 26h.1s0-.1-.1 0c0-.1 0-.1 0 0zM40 24.8c0 .1 0 .1 0 0 0 .1 0 0 0 0zM42.7 26.2c-.1.2 0 .2.1.2h.1v-.1c0-.2-.1-.2-.2-.1zM41.2 26.1c0-.1-.1-.1 0 0L41 26v.1h.2c-.1.1-.1.1 0 0zM45.3 23.7c0-.1 0-.1 0 0zM42.3 29.2c-.1 0-.1 0 0 0-.1 0-.1 0 0 0zM44.9 26.2c.1 0 .1 0 0 0 .1 0 .1 0 0 0 0-.1 0 0 0 0zM43.1 26.1h.1V26c0-.1 0-.1-.1-.1H43c-.1 0-.1.1-.1.1l.2.1z"/></g><g><path transform="rotate(-11.409 41.405 25.927)" class="st6" d="M37.7 22.4H45v7.1h-7.3z"/><path class="st7" d="M42.7 26.3c.1-.1 0-.1 0 0 0-.1 0-.1 0 0zM40.4 25.4c.1-.1 0-.2 0-.2h-.1c-.1 0-.1.1-.1.1.1.1.2.1.2.1zM39.9 24.9c.1-.1.1-.1 0 0 .1-.1.1-.1 0 0l.1-.1h-.1c-.1 0-.1 0 0 .1zM42 22.3zM37.4 24.5c0-.1 0 0 0 0zM40.7 25.3v-.1-.1c0-.1-.1-.1-.1-.1h-.1v.1s0 .1.1.1c0 .2.1.2.1.1zM42 24.9v-.2h-.1-.1v.1h.1l.1.1zM43.5 23.2c.1 0 .1 0 0 0zM40.4 22.8c.1 0 .1 0 0 0 .1-.1.1-.1 0 0 0-.1 0-.1 0 0z"/><path class="st7" d="M40.5 24.8c0 .1 0 .1 0 0 .1.1.1.2 0 .2v.1-.1-.2h.1c-.3-.1-.2-.1-.1 0zm-.2.1zM39.8 23.8v0c.2 0 .2 0 0 0zM41.7 23.6l-.1-.1c0 .1 0 .1.1.1-.1 0 0 0 0 0zM39.4 25.1c0-.1 0-.1 0 0l-.1-.1v.1h.1zM38.4 25.6c0-.1 0-.1 0 0zM38.2 26.6s-.1 0 0 0c0 .1 0 .1 0 0zM41.2 26.3v.1h.2s.1 0 .1-.1v-.1l-.1-.1c-.1.1-.2.1-.2.2zM42.9 27.1s.1 0 0 0c.1 0 .1 0 0 0 .1 0 .1 0 0 0 .1 0 .1-.1 0 0zM41.7 27c.1-.1.1-.1 0-.1h-.1l.1.1zM41.3 26.7v.1-.1zM42.7 28.2zM41.6 26c0 .1.1.1.1.1h.1c0-.1-.1-.1-.1-.1 0-.1 0-.1-.1 0 .1-.1 0 0 0 0zM41.5 24.8c.1.1.2.1.2.1v-.1h-.2c.1-.1 0 0 0 0zM42.3 24.8v-.2s-.1 0-.1.1v.2l.1-.1zM40.9 24.9s-.1.1 0 0v.1c.1 0 .1 0 .1-.1v-.1s0-.1-.1-.1v.2zM44.8 24.6c.1 0 .1 0 0 0 0-.1 0-.1 0 0zM40.9 25.5c0-.1 0-.1-.1-.1h-.1v.1s0 .1.1.1l.1-.1zM41.9 25.2c0 .1.1.1.2.1v-.1c0-.1-.1-.1-.2-.1h-.1l.1.1zM38.6 23.4s.1 0 0 0c.1 0 .1 0 0 0zM42.3 23.8l.1.1c0-.2 0-.2-.1-.1 0-.1 0 0 0 0zM39.6 22.7zM41.5 24h-.1s-.1 0-.1.2v.1h.1c.1-.1.1-.1.1-.3 0 .1 0 .1 0 0zM40.1 24.3c-.1.1-.1.1 0 0zM41 24.2v-.1s0-.1-.1-.1h-.1c0 .2.1.2.2.2zM43.5 24c.1 0 .1 0 0 0 .1 0 .1 0 0 0zM40.4 24.2s-.1 0 0 0h-.1c0 .1 0 .1.1 0 0 .1 0 .1 0 0zM41 24.5c.1.1.1.1 0 0l.1.1v-.1s0-.1-.1-.1v.1l.1-.1-.1.1zM42.5 23.1c0 .1 0 .1 0 0 0 .1.1 0 0 0zM41.6 24.4h-.2v.1h.2c.1 0 .1 0 0-.1zM42.7 24.1c0 .1 0 .1 0 0 .1.1.2.1.2 0h-.2zM41.9 24.1v.2h.1c.1 0 .1 0 .1-.1v-.1h-.2zM43.9 22.1c.1 0 .1 0 0 0 .1 0 .1 0 0 0zM42.5 24.5l.1.1v-.1h-.1zM40.7 23.8c0 .1.1.1 0 0l.1.1v-.1h-.1zM40.7 23.2c.1.1.1.1 0 0l.1.1h-.1v-.1zM41.4 23.7v.1h.1l-.1-.1h.1-.1zM41.9 23.7s.1 0 0 0h0c.1 0 .1 0 0 0 0-.1 0 0 0 0zM42.6 23.7c0 .1 0 .1.1.1l-.1-.1c.1 0 .1 0 0 0zM42.5 25.3c-.1 0-.1 0 0 0h-.2v.2h-.1v.2h.2v-.2c.1 0 .1-.1.1-.1.1-.1 0-.1 0-.1zM40.5 25.9s.1 0 0 0h.1v-.1s0-.1-.1-.1h-.1c.1 0 .1.1.1.2 0-.1 0 0 0 0zM39.6 27c-.1 0-.1 0 0 0zM42.9 24.6c.1 0 .1 0 0 0h.1c-.1-.1-.1-.1-.1 0zM42.9 25.1v.1-.1zM41.4 28.3c.1 0 .1 0 0 0 .1 0 .1-.1 0 0 .1 0 0 0 0 0zM43.9 24.9zM41.5 25.5c.1-.1.1-.1 0 0v-.2h-.1s-.1 0-.1.1c.1.1.1.1.2.1zM43.1 24.7v.1-.1c0 .1 0 .1 0 0zM41.4 25.1s0-.1 0 0c0-.2-.1-.2-.1-.2-.1 0-.1.1-.1.1v.1c.1.1.1.1.2 0zM42.8 24.7s-.1 0 0 0c-.1.1-.1.2 0 .2v-.2zM39.9 25.5c0 .1.1 0 0 0 .1 0 .1 0 0 0l.1-.1v-.1-.1h-.1v.1c.1.1.1.1 0 .2zM38.8 24.4s0 .1 0 0c0 .1 0 .1 0 0 0 .1 0 .1 0 0zM39.9 25.6v-.1h-.1v.1h.1zM42.4 25v.1h.1V25c.1 0 0-.1-.1 0 .1-.1 0-.1 0 0zM41 25.3v-.2h-.1v.1h.1v.1zM44 26zM40.2 26.5h.1s.1 0 .1-.1v-.1c0-.1 0 0 0 0h-.1l-.1.2c0-.1 0-.1 0 0zM43.2 26.7c.1 0 .1 0 0 0 .1 0 .1 0 0 0 .1 0 .1 0 0 0 .1 0 .1 0 0 0zM41 27.2l-.1-.1c0 .1 0 .2.1.1zM42.1 26.7c0 .1 0 .1 0 0l.1.1c0-.1 0-.1-.1-.1.1 0 0 0 0 0zM42.3 26.8h.1s0-.1-.1 0c.1-.1 0 0 0 0zM41.5 27.3h.2v-.1l-.2.1c.1-.1 0 0 0 0zM42.3 26.2c0 .1.1.2.1.2v-.1c0-.2 0-.2-.1-.1 0-.1 0 0 0 0zM43.1 26s0 .1 0 0zM42.8 22.4c0-.1 0-.1 0 0zM40.6 27.6c0-.1 0-.1 0 0l-.1-.1v.1h.1zM42.9 26.2l.1.1v-.1-.1c0 .1-.1.1-.1.1zM40.7 29c.1 0 .1 0 0 0 .1-.1.1-.1 0 0 0-.1 0 0 0 0zM43.9 28.9c0-.1 0-.1 0 0-.1 0-.1 0 0 0zM42.5 26.4v.1c.1 0 .1 0 0-.1.1 0 .1 0 0 0 .1 0 .1-.1 0 0zM41.3 27.5c.1 0 .1 0 0 0 .1 0 0-.1 0 0-.1.1 0 .1 0 0zM41.7 27.4s-.1 0 0 0l-.1.1.1-.1v.1-.1zM40.9 26.4c-.1-.1-.2-.1-.2-.1v.1h.1c.1.1.1.1.1 0zM42.1 26.4v-.1H42v.1s0 .1.1 0c0 .1 0 .1 0 0zM40.2 27.1V27v.1c0-.1 0-.1 0 0zM40 26.6s0-.1 0 0v-.1c-.1 0-.1 0 0 .1l-.1-.1c-.1.1-.1.1.1.1-.1 0-.1 0 0 0zM39.8 26c0 .1 0 .1 0 0zM42 25.7s0-.1 0 0c0-.2 0-.2-.1-.2h-.1v.2h.2zM41.9 29.4s.1 0 0 0c.1 0 0 0 0 0zM40.2 27.8c-.1 0-.1 0 0 0-.1 0-.1 0 0 0 0 .1 0 0 0 0zM40.7 26.9c0 .1 0 .1 0 0 0 .1 0 .1 0 0 .1.1.1 0 .1 0h-.1zM39 27.4c-.1-.1-.1-.1 0 0zM42.1 27.7s0-.1 0 0c0-.1 0-.1 0 0zM41.5 26.8h.2s0-.1-.1-.1l-.1.1c0-.1 0 0 0 0zM43.9 27.9z"/><path class="st7" d="M40.3 26.2c0-.1 0-.1 0 0-.1 0-.1 0 0 0-.1 0 0 .1 0 0 0 .1.1.1 0 0zM44.5 26.8c0 .1 0 .1 0 0zM41.5 25.8l.1-.1c0-.1-.1-.1-.2-.1h-.1v.1l.2.1c-.1 0 0 0 0 0zM43.1 25.7c0 .1.1.1.1.1v-.1h-.1c.1-.1 0-.1 0 0zM39.1 28.7c.1.1.1.1 0 0zM41.6 22.6s0 .1 0 0c.1.1.1.1 0 0zM39.2 26.1c0-.1 0 0 0 0s-.1 0 0 0zM41.2 25.9h-.1v.1c0 .1 0 .1.1.1h.1c.1 0 .1-.1.1-.1l-.2-.1z"/></g><g><path transform="rotate(-57.961 40.095 25.402)" class="st6" d="M36.5 21.7h7.1v7.4h-7.1z"/><path class="st7" d="M40.8 26.5c0 .1 0 .1 0 0 .1.1.1 0 0 0zM39.7 24.3c.1 0 .1-.1 0 0 .1-.1.1-.1 0-.2h-.2l.2.2zM39.7 23.6l.1.1-.1-.1s0-.2 0 0zM43 23.1c.1.1.1 0 0 0 .1 0 0 0 0 0zM38.2 21.6c0-.1 0-.1 0 0 0-.1-.1-.1 0 0-.1 0 0 0 0 0zM40 24.5h.1v-.1-.2H40s-.1 0-.1.1c0 0 0 .1.1.2-.1 0-.1 0 0 0zM41.2 25.1l.1-.1v-.1h-.1s-.1 0-.1.1l.1.1zM43.5 24.9c.1 0 .1 0 0 0zM41.6 22.4s0 .1 0 0c0 .1 0 .1 0 0zM40.2 23.9v.1H40v-.1s.1 0 .1-.1h.2s.1 0 .1.1h-.2zm-.2 0zM40.4 22.8v.1h.1v-.1h-.1zM41.9 23.9v-.1.1c0-.1 0 0 0 0zM39.2 23.4v-.1c-.1 0-.1 0 0 .1zM38.1 23.1c0-.1 0-.1 0 0 0-.1 0-.1 0 0zM37.2 23.7zM39.7 25.5c-.1 0-.1 0 0 0l-.1.2h.2v-.1-.1h-.1zM40.4 27.3c0 .1 0 .1 0 0zM39.5 26.4c.1 0 .1 0 0 0l.1-.1c0-.1-.1 0-.1.1 0-.1 0-.1 0 0zM39.5 25.9c-.1 0-.1 0 0 0l-.1.1c.1 0 .1 0 .1-.1zM39.5 27.9c-.1 0-.1 0 0 0-.1.1-.1.1 0 0 0 .1 0 .1 0 0zM40.2 25.6v.2h.1v-.2h-.1c.1 0 0 0 0 0zM40.9 24.7v.2h.1v-.2c0-.1 0-.1-.1 0zM41.5 25.2l.1-.1s-.1-.1-.1 0h-.1s-.1 0-.1.1v.1l.2-.1zM40.4 24.3s-.1 0 0 0l-.1.1h.1s.1 0 .1-.1c0 .1 0 .1-.1 0 .1 0 0 0 0 0zM43.5 26.8s.1 0 0 0c0-.1 0 0 0 0zM40 24.7c.1-.1.1-.1.1-.2H40s-.1 0-.1.1v.1h.1zM40.9 25.3c0 .1 0 .1.1.2 0 0 .1 0 .1-.1v-.2l-.2.1zM39.8 21.6zM42.2 24.5v0c.1-.1 0-.1 0 0zM41 21.8zM41.4 24.1V24h-.2v.1l.1.1.1-.1c0 .1 0 0 0 0s.1 0 0 0zM40.2 23.3c-.1 0-.1 0 0 0zM40.9 23.9c.1-.1.1-.1.1-.2 0 0 0-.1-.1-.1-.1.2-.1.2 0 .3zM43 25.5c0-.1 0-.1 0 0 0-.1 0-.1 0 0zM40.5 23.5c0-.1 0-.1 0 0l-.1-.1v.1h.1zM40.7 24.1v.1h.1v-.1h-.1.2-.2zM42.8 24.1s0 .1 0 0c0 .1 0 .1 0 0zM41.3 24.4l-.1-.1s-.1 0-.1.1v.1h.1s.1 0 .1-.1zM42.3 24.9v.1h.1l-.1-.1c.1 0 .1 0 0 0zM41.6 24.4h-.1v.2h.1s.1 0 .1-.1c0 0 0-.1-.1-.1zM44.6 24.4c-.1 0-.1 0 0 0zM41.8 25.1v0c.2 0 .1 0 0 0zM41 23.4v.2h.1c0-.2 0-.2-.1-.2.1 0 0 0 0 0zM41.5 23s-.1 0 0 0v.1s.1 0 0-.1c.1 0 .1 0 0 0zM41.6 23.8c-.1 0-.1.1 0 0-.1.1 0 .1 0 .1h.1c0-.1 0-.1-.1-.1zM42 24.1c0 .1 0 .1 0 0 0 .1 0 .1 0 0zM42.5 24.6s-.1.1 0 .2h.1c0-.1 0-.1-.1-.2.1 0 0 0 0 0zM41.3 25.7h-.5v.2H41.1c.1 0 .2-.1.2-.2 0 .1 0 0 0 0zM39.4 24.7c0 .1.1.1 0 0l.1.1s.1 0 .1-.1v-.1s0-.1-.1-.1h-.1v.2zM38 24.9zM42.1 25.5c0 .1 0 .1.1.1h.1c0-.1 0-.2-.2-.1.1-.1 0 0 0 0zM41.8 25.9s-.1 0 0 0l-.1.1.1-.1zM38.4 27.1c.1 0 .1 0 0 0zM42.6 26.4zM40.5 25.1h.1V25c0-.1 0-.1-.1-.1h-.1c-.1.1-.1.2.1.2zM42.2 25.7l-.1.1.1-.1c0 .1 0 .1 0 0zM40.6 24.8s.1 0 0 0c.1-.2.1-.2 0-.2h-.1v.1l.1.1zM41.9 25.4h-.1s0 .1.1 0c0 .1 0 .1 0 0z"/><path class="st7" d="M39.3 24.1c.1.1.1.1.2 0V24h.1v-.1l-.1-.1h-.1l-.1.3c0-.1 0-.1 0 0-.1-.1-.1-.1 0 0 0-.1 0 0 0 0zM39.2 22.5z"/><path class="st7" d="M39.2 24.1V24h-.1v.1h.1zM41.5 25.4c-.1 0-.1 0 0 0l-.1.1.1.1s.1 0 .1-.1l-.1-.1c.1 0 0 0 0 0zM40.3 24.7c0-.2 0-.2-.1-.2h-.1l-.1.1v.1h.3zM41.9 27.3zM38.8 25s.1.1 0 0c.1.1.1.1 0 0 .1.1.1.1.2.1V25v-.1c-.1 0-.2 0-.2.1 0-.1 0-.1 0 0zM40.9 27.2c0 .1 0 .1 0 0 0 .1 0 .1 0 0 0 .1 0 .1 0 0zM38.9 26v-.1.1zM40 26.4v.1c.1.1.1 0 0-.1.1.1.1.1 0 0zM40.2 26.7c-.1 0-.1.1 0 0 0 .1 0 .1 0 0s0-.1 0 0zM39.2 26.5v.1h.2l-.2-.1c.1 0 0 0 0 0zM40.5 26.2c-.1.1 0 .2 0 .2s.1 0 .1-.1 0-.1-.1-.1c0-.1 0 0 0 0zM41.2 26.6zM43.6 23.8zM38.3 26s.1-.1 0-.1v.1zM40.9 26.6v.1h.2c-.1 0-.1 0-.2-.1.1.1.1.1 0 0zM37.5 27.2c0-.1 0-.1 0 0zM39.8 29.3c.1-.1.1-.1 0 0 0-.1 0 0 0 0zM40.6 26.5l-.1.1h.2l-.1-.1zM38.9 26.5s.1 0 0 0c.1 0 .1-.1 0 0v-.1c-.1 0-.1.1 0 .1zM39.3 26.7s-.1 0 0 0h-.1.1l-.1.1.1-.1zM39.4 25.4c0-.2-.1-.2-.1-.2v.2c-.1.1 0 .1.1 0zM40.3 26.2l.1-.1s0-.1-.1-.1h-.2v.1c.1.1.1.1.2.1zM38.4 25.5s.1 0 0 0l.1-.1c-.1-.1-.2-.1-.1.1-.1-.1-.1-.1 0 0zM38.6 24.9l.1-.1h-.1c-.1 0-.1 0 0 .1-.1 0-.1 0 0 0zM38.9 24.4v-.2h-.1l.1.2c-.1-.1-.1-.1 0 0zM40.6 25.6c.1 0 .1 0 0 0 .1-.1.1-.2.1-.2h-.1-.1v.1c0 .1 0 .1.1.1zM38 28.3s.1 0 0 0c.1 0 .1 0 0 0 .1 0 .1 0 0 0 .1 0 .1 0 0 0zM37.8 25.9c0 .1 0 0 0 0zM38.8 25.6c0 .1 0 .1 0 0 .1.1.1.1 0 0 .1 0 .1 0 0 0zM37.3 24.8c0-.1 0-.1 0 0zM39.4 27.2c0-.1 0-.1 0 0zM39.5 26.1v.1h.1c.1-.1.1-.1-.1-.1 0-.1 0-.1 0 0zM40.5 28.6c.1 0 0 0 0 0zM39.1 24.8c0-.1 0-.1 0 0l-.1-.1v.1c0 .1.1.1.1 0zM41.7 28.2zM40.2 25.4c.1-.1.1-.2 0-.2H40l.2.2zM41.5 26.4v.2c.1-.2.1-.2 0-.2zM36.5 25.9zM42.5 23.1c0 .1 0 .1 0 0zM38.4 24c-.1 0-.1 0 0 0-.1 0-.1 0 0 0-.1 0-.1 0 0 0zM39.9 25.3s0-.1 0 0l-.1-.1v.1h.1c0 .1 0 .1 0 0z"/></g><g><path transform="rotate(-83.131 38.85 24.712)" class="st6" d="M35.3 21h7.1v7.4h-7.1z"/><path class="st7" d="M37.7 24c-.1 0 0 0 0 0zM39.7 25.6c-.1.1-.1.2-.1.2h.1c.1 0 .1 0 .1-.1l-.1-.1c.1-.1 0-.1 0 0zM40 26.2s0-.1 0 0h-.1.1s0 .1 0 0zM37.2 28c-.1 0-.1 0 0 0zM42.2 27.3c.1.1.1.1 0 0 .1 0 0 0 0 0zM39.4 25.5l-.1.1v.1c0 .1 0 .1.1.1h.1s.1 0 .1-.1v-.1l-.2-.1zM38 25.4v.2h.2v-.2H38zM36 26.6c-.1 0-.1 0 0 0 0 .1 0 .1 0 0zM38.8 28c-.1 0-.1 0 0 0z"/><path class="st7" d="M39.4 26c-.1-.1 0-.1 0-.1v-.2.1s0 .1-.1.1v.1h-.1c.3.2.2.2.2 0zm.2 0zM39.7 27.2v-.1.1c-.1 0-.1 0 0 0zM37.9 26.8c0 .1 0 .1 0 0zM40.5 26.1v.1-.1c.1.1.1.1.1 0h-.1zM41.6 26zM42.2 25c-.1 0 0 .1 0 0 0 .1 0 .1 0 0zM39.2 24.5c.1-.1.1-.1 0 0l.1-.1v-.1h-.1-.1s-.1 0-.1.1v.1c0 .1 0 .1.1.1 0-.1 0-.1.1-.1zM37.8 23.1s0-.1 0 0c-.1-.1-.1-.1 0 0-.1 0-.1 0 0 0zM39 23.6c-.1 0-.1 0 0 0l-.1.1h.1v-.1zM39.2 24c.1 0 .1 0 0 0l.1-.1c-.1 0-.1 0-.1.1zM38.3 22.1s.1 0 0 0zM38.7 24.5c0-.1 0-.1-.1-.1h-.1c0 .1 0 .1.1.1 0 .1 0 .1.1 0-.1.1 0 .1 0 0zM38.4 25.7c0-.2-.1-.2-.1-.2v.1h.1c-.1.2 0 .1 0 .1zM37.7 25.5c-.1.1-.1.1 0 .2h.1v-.1-.1h-.1zM39.1 25.8l.1-.1v-.1h-.1v.1c0 .1-.1.1 0 .1-.1 0-.1.1 0 0zM35.2 24.9c-.1 0-.1 0 0 0-.1 0-.1 0 0 0zM39.2 25.3v.2s0-.1.1-.1v-.1c0-.1 0-.1-.1 0zM38.2 25.2c0-.1-.1-.1-.1-.1v.1c0 .1 0 .1.1.1v-.1zM40.7 27.9c0 .1 0 .1 0 0 .1.1.1.1 0 0zM37.4 26.4c0-.1 0-.1-.1-.1-.1.2-.1.2.1.1-.1.1 0 .1 0 0zM39.6 28.4c0-.1 0-.1 0 0-.1 0-.1 0 0 0zM38.2 26.4c.1.1.2.1.2 0v-.1h-.1c-.1 0-.1.1-.1.1zM39.7 26.6h0zM38.7 26.4c0 .1 0 .1-.1.1v.1h.1c.2-.1.2-.1 0-.2zM36.2 25.9zM39.3 26.6c0 .1.1.1 0 0l.1.1v-.1h-.1c.1 0 0 0 0 0zM38.8 26.1c-.1-.1-.1-.1 0 0l-.1-.1h-.1s0 .1.1.1V26v.1h.1zM37 27c-.1 0-.1 0 0 0-.1 0-.1 0 0 0zM38.2 26.1h.1s0-.1.1-.1v-.1h-.1l-.1.1v.1zM37.1 26s0-.1 0 0c-.1-.1-.2-.1-.2-.1 0 .1 0 .1.2.1-.1.1-.1.1 0 0zM37.9 26.3l.1-.2h-.2l-.1.1c.1.1.1.1.2.1zM35.3 27.5c-.1 0-.1 0 0 0zM37.4 25.7v-.1c-.1 0-.1 0 0 .1-.1 0-.1 0 0 0zM38.9 26.9c0-.1 0-.1-.1-.1v.1c0 .1 0 0 .1 0-.1.1 0 0 0 0zM38.7 27.5v-.1.1l-.1-.1.1.1c-.1 0-.1 0 0 0zM38.2 26.8v-.1h-.1s-.1 0-.1.1h.2zM37.7 26.7c0-.1-.1-.1 0 0h-.1v.1c0-.1 0-.1.1-.1-.1 0 0 0 0 0zM37.1 26.4v-.2H37v.1c-.1.1 0 .1.1.1zM37.6 24.9h.2v-.1-.1h.1v-.2h-.4c-.1 0-.1 0-.1.1l.2.3zM39.7 25h-.1l-.1.1v.1h.1c.1 0 .1 0 .1-.2.1.1.1.1 0 0zM40.9 24.3c.1 0 .1 0 0 0zM37 25.5c0-.1 0-.1 0 0-.1-.1-.1 0-.1 0h.1zM37.2 25c.1-.1.1-.1 0-.2-.1.1-.1.1 0 .2zM39.6 22.4zM36.2 24.9c-.1 0-.1 0 0 0-.1 0-.1 0 0 0zM38.7 25.1c-.1 0-.1 0 0 0l-.1.1c0 .1.1.1.1.1s.1 0 .1-.1-.1-.1-.1-.1zM36.9 25.3v-.1.1c-.1-.1-.1-.1 0 0zM38.6 25.5l-.1.1c0 .1.1.1.1.1.1 0 .1 0 .1-.1v-.1h-.1c.1 0 .1 0 0 0zM37.2 25.4h.1s0-.1-.1-.1v.1zM40.2 25.6c0-.1-.1-.1 0 0h-.1V25.9h.1v-.1-.2zM40.9 26.9c0 .1 0 .1 0 0 0 .1 0 .1 0 0zM40.2 25.5v.1h.1l.1-.1h-.2zM37.6 25.3s.1-.1 0 0l.1-.1h-.1l-.1.1c0-.1 0 0 .1 0z"/><path class="st7" d="M39 25.4v.1l.1.1h.1v-.1l-.1-.1H39zM36.5 23.8c-.1 0-.1 0 0 0-.1 0-.1 0 0 0-.1 0-.1 0 0 0zM40.2 24.5s-.1 0 0 0c-.1 0-.1 0 0 0-.1-.1-.2-.1-.2 0v.2l.1.1.1-.3c0 .1 0 .1 0 0zM37.4 23.4c-.1 0-.1 0 0 0-.1 0-.1 0 0 0-.1 0-.1 0 0 0-.1 0-.1 0 0 0-.1 0-.1 0 0 0zM39.7 23.6l.1.1c0-.1 0-.1-.1-.1zM38.5 23.7s0-.1 0 0l-.1-.1c-.1.1-.1.1.1.1-.1 0-.1.1 0 0zM38.3 23.6c0-.1 0-.1 0 0-.1-.1-.1-.1-.1 0-.1.1 0 .1.1 0zM39.2 23.3l-.1-.1v.1h.1c-.1.1 0 .1 0 0zM38.2 24.2c0-.1 0-.2-.1-.2 0 0-.1 0-.1.1s.1.1.2.1c-.1 0 0 0 0 0zM37.4 24.1zM36.4 27.7c0-.1 0-.1 0 0zM40.2 23.4v.1c.1-.1.1-.1 0-.1zM37.6 23.9v-.1h-.1l.1.1c-.1 0-.1 0 0 0zM40.5 22zM37.5 21.1zM38 23.9l.1-.1H38v.1c-.1 0-.1 0 0 0zM39.5 23.2c-.1 0-.1 0 0 0-.1.1 0 .1 0 .1v-.1c.1 0 0 0 0 0zM39.1 23.2v-.1.1zM39.5 24.4c.1.1.2.1.2.1v-.1h-.1c-.1-.1-.1-.1-.1 0zM38.3 24v.2h.2v-.1-.1h-.2zM40.4 23.9c-.1 0-.1 0 0 0l-.1.1c.1 0 .1 0 .1-.1zM40.5 24.5c-.1 0-.1 0 0 0l-.1.1h.1v-.1c0 .1 0 .1 0 0zM40.4 25.1c0 .1.1.1 0 0l.1.1-.1-.1c.1 0 .1 0 0 0zM38.3 24.7s-.1.1 0 0c-.1.2 0 .2 0 .2h.1s.1 0 .1-.1v-.1h-.2zM39.5 21.2c-.1 0-.1 0 0 0zM40.7 23.3c0-.1 0 0 0 0zM39.9 24c0-.1 0-.1 0 0-.1-.1-.1-.1-.1 0h.1c-.1 0-.1 0 0 0zM41.7 24.1zM38.8 22.8s-.1 0 0 0c-.1 0-.1 0 0 0-.1 0-.1 0 0 0zM39.1 23.8c-.1-.1-.1-.1-.1 0 0 0 0 .1.1 0 0 .1 0 .1 0 0zM37.1 22zM40 24.8c0 .1 0 .1 0 0 .1.1.1 0 .1 0H40zM36.2 22.8c0 .1 0 0 0 0zM38.8 24.8c-.1.2 0 .2.1.2h.1v-.1c-.1-.1-.1-.1-.2-.1zM37.1 24.4c0-.1 0-.1-.1-.1v.1c.1.1.1 0 .1 0zM41.9 22.7zM37.6 27.8c0-.1 0-.1 0 0zM41 25.3c.1 0 .1 0 0 0 0-.1 0-.1 0 0zM39.1 24.8h.1v-.1s0-.1-.1-.1H39c-.1 0-.1.1-.1.1l.2.1z"/></g><g><path transform="rotate(-66.64 37.718 23.87)" class="st6" d="M34.2 20.2h7.1v7.3h-7.1z"/><path class="st7" d="M36.9 22.8c-.1 0-.1 0 0 0-.1.1 0 .1 0 0zM38.3 24.9c-.1 0-.1 0 0 0-.1.1-.1.1 0 .2.1 0 .1 0 .2-.1l-.2-.1zM38.4 25.6h-.1l.1.1v-.1zM35.2 26.5zM40.2 27.3c0 .1 0 .1 0 0 0 .1 0 .1 0 0zM38 24.7h-.1v.1c0 .1 0 .1.1.1h.1s.1 0 .1-.1c-.1 0-.1 0-.2-.1.1.1 0 0 0 0zM36.7 24.3v.1h.1s.1 0 .1-.1v-.1l-.2.1zM34.4 24.9zM36.8 27s0-.1 0 0c-.1-.1-.1 0 0 0-.1 0-.1 0 0 0-.1 0-.1 0 0 0zM37.9 25.3s0-.1 0 0c.1-.1.1-.1.1-.2l.1-.1v.1s0 .1-.1.1h-.1c0 .2-.1.2 0 .1zm.2 0zM37.8 26.5c.1 0 .1-.1 0 0v-.1c-.1 0-.1 0 0 .1-.1-.1-.1-.1 0 0zM36.2 25.6c0 .1 0 0 0 0zM38.9 25.7v.1c.1 0 .1 0 0-.1zM40 25.9s.1 0 0 0c0 0 0-.1 0 0zM40.8 25.1zM38.1 23.7c.1 0 .1 0 .1-.1v-.1h-.1-.1v.1l.1.1c-.1 0-.1 0 0 0zM37.2 22c-.1 0-.1 0 0 0zM38.1 22.8c-.1 0-.1 0 0 0-.1.1 0 .1 0 0 0 .1 0 .1 0 0 .1 0 0 0 0 0zM38.3 23.3l.1-.1c-.1-.1-.2-.1-.1.1 0-.1 0 0 0 0zM37.9 21.3c.1 0 .1 0 0 0 .1-.1.1-.1 0 0 .1-.1.1-.1 0 0zM37.6 23.6c0-.1 0-.1-.1-.1h-.1c0 .1 0 .1.1.1 0 .1 0 .1.1 0-.1.1 0 .1 0 0zM37 24.7c0-.2 0-.2-.1-.2h-.1v.1c.1.1.2.1.2.1zM36.4 24.2c-.1.1-.1.1-.1.2h.1s.1 0 .1-.1v-.1h-.1zM37.6 25s.1-.1 0 0l.1-.2h-.1s-.1 0-.1.1l.1.1c-.1 0 0 0 0 0zM34.2 23s-.1 0 0 0c-.1 0-.1 0 0 0-.1 0 0 0 0 0zM37.9 24.5v.2h.1s.1 0 .1-.1v-.1s0-.1-.1-.1l-.1.1zM36.9 24.1c0-.1 0-.1-.1-.2 0 0-.1 0-.1.1s0 .1.1.2l.1-.1zM38.6 27.5zM35.8 25.1V25v.1zM37.4 27.5c-.1 0-.1 0 0 0zM36.6 25.3l.1.1s.1 0 .2-.1v-.1l-.1-.1c-.2.1-.2.2-.2.2zM38 25.9zM37.1 25.5l-.1.1.1.1c.1-.1.1-.2 0-.2zM34.9 24.2c-.1 0-.1 0 0 0-.1 0-.1 0 0 0 0 .1 0 0 0 0zM37.6 25.8c0 .1 0 .1 0 0l.1.1v-.1c0-.1-.1 0-.1 0zM37.3 25.2l-.1-.1h-.1v.1l.1-.1v.1h.1zM35.3 25.5s-.1 0 0 0c-.1 0-.1 0 0 0-.1 0-.1 0 0 0z"/><path class="st7" d="M36.7 25l.1.1s.1 0 .1-.1v-.1h-.1s-.1 0-.1.1zM35.6 24.6v-.1h-.1v.1h.1zM36.3 25.1l.1-.1h-.1s-.1 0-.1.1h.1c-.1-.1 0 0 0 0zM33.5 25.5zM36.1 24.4v-.1.1c0 .1-.1 0 0 0zM37.1 26v-.2H37c0 .1 0 .1.1.2zM36.8 26.4v-.1c-.1 0-.1 0 0 .1-.1 0-.1 0 0 0zM36.5 25.7c.1-.1.1-.1 0 0 .1-.1 0-.1 0-.1s-.1 0-.1.1h.1zM36.1 25.4c-.1-.1-.1-.1 0 0-.1 0-.1 0 0 0-.1 0 0 0 0 0zM35.5 25s.1-.1 0-.2h-.1v.1c0 .1 0 .1.1.1zM36.5 23.7H36.8v-.1h.2v-.2H36.7c-.1.2-.2.2-.2.3zM38.4 24.4s0-.1 0 0l-.1-.1s-.1 0-.1.1v.1s0 .1.1.1c.1-.1.1-.1.1-.2.1.1.1 0 0 0zM39.8 24.1c.1 0 .1 0 0 0zM35.7 24.1c0-.1 0-.1-.1-.1h-.1c.1.1.1.1.2.1zM36 23.7s.1 0 0 0c.1-.1.1-.1.1-.2l-.1.2zM39.1 21.9zM35.1 23.2c0 .1 0 .1 0 0zM37.4 24.2h-.1v.1c0 .1.1.1.1.1h.1c-.1-.1-.1-.1-.1-.2.1 0 .1 0 0 0zM35.6 23.9l.1-.1-.1.1c.1-.1.1-.1 0 0zM37.3 24.5s-.1 0 0 0c-.1.2-.1.2 0 .2h.1v-.1s0-.1-.1-.1zM35.9 24.1h.1c.1 0 0-.1-.1 0 .1-.1 0-.1 0 0zM38.7 25c-.1-.1-.1-.1-.1 0h-.1-.1v.1h.1l.2-.1c0 .1 0 .1 0 0 0 .1 0 .1 0 0 0 .1 0 0 0 0zM39.1 26.6zM38.8 25v.1h.1V25h-.1zM36.4 24.1c0-.1 0-.1 0 0l.1-.1s-.1-.1-.1 0c0 0-.1 0-.1.1v.1c-.1-.1 0-.1.1-.1zM37.7 24.6v.1c0 .1 0 .1.1.1h.1v-.2c-.2-.1-.2 0-.2 0zM35.7 22.3c-.1 0-.1.1 0 0zM39.1 24.1c0-.1-.1-.1 0 0-.1-.1-.1-.1 0 0-.1-.1-.1-.1-.2 0v.2l.2-.2c-.1 0-.1 0 0 0zM36.7 22.2c0-.1 0-.1 0 0 0-.1 0-.1 0 0-.1-.1-.1-.1 0 0-.1 0-.1 0 0 0zM38.8 23l.1.1s0-.1-.1-.1zM37.6 22.8v-.1.1c0-.1 0 0 0 0zM37.5 22.6c0-.1 0-.1 0 0l-.1-.1c0 .2 0 .2.1.1-.1 0 0 0 0 0zM38.4 22.7v-.1h-.2l.2.1zM37.2 23.1c.1-.1 0-.2 0-.2s-.1 0-.1.1c0 .2 0 .2.1.1 0 .1 0 0 0 0zM36.5 22.8zM34.5 26zM39.4 23v0c.1 0 0 0 0 0zM36.7 22.8v-.1h-.1-.1c.1 0 .1 0 .2.1-.1-.1-.1-.1 0 0zM40.1 21.7c-.1 0-.1 0 0 0-.1 0-.1 0 0 0-.1.1 0 0 0 0zM37.4 20c0 .1 0 .1 0 0 0 .1 0 0 0 0zM37.1 22.9l.1-.1h-.1c-.1 0-.1.1 0 .1zM38.7 22.6s0 .1 0 0v.1-.1c.1 0 .1 0 0 0zM38.3 22.4s.1.1 0 0v-.1.1zM38.4 23.8c0 .2.1.2.1.2v-.1c0-.2 0-.2-.1-.1zM37.4 23.1l-.1.1s0 .1.1.1h.1v-.1-.1h-.1zM39.4 23.5s-.1 0 0 0l-.1.1c.1.1.1.1.1-.1 0 .1 0 0 0 0zM39.3 24.1s-.1.1 0 0l-.1.1h.1c.1 0 .1 0 0-.1.1.1 0 .1 0 0zM39.1 24.7v0c.1 0 0 0 0 0zM37.2 23.7c-.1 0-.1.1 0 0-.1.2-.1.2 0 .2h.2v-.1-.1h-.2zM39.3 20.7zM39.9 23zM38.9 23.4c.1 0 .1 0 0 0 0 0-.1 0 0 0 0 0 0 .1 0 0zM40.6 24.1zM38.2 22s-.1 0 0 0c-.1 0-.1 0 0 0-.1 0-.1 0 0 0zM38.2 23.1V23h-.1c0 .1 0 .1.1.1zM36.8 20.8zM38.7 24.3c.1 0 .1.1 0 0 .1 0 .1 0 0 0 .1 0 .1-.1 0 0 .1-.1.1-.1 0 0zM35.7 21.3zM37.6 23.9c-.1.1-.1.2 0 .2h.1l-.1-.2zM36.2 23.1c0-.1 0-.1-.1-.1v.1h.1zM41.2 22.8zM35.7 26.4zM39.6 25s.1 0 0 0c.1 0 .1 0 0 0 .1-.1 0-.1 0 0zM37.9 24s.1 0 0 0h.1v-.1h-.1c-.1 0-.1.1-.1.1h.1z"/></g><g><path transform="rotate(-57.758 36.745 22.802)" class="st6" d="M33.2 19.2h7.1v7.3h-7.1z"/><path class="st7" d="M37.5 23.9c0 .1 0 .1 0 0 .1.1.1 0 0 0zM36.4 21.7c.1 0 .1-.1 0 0 .1-.1.1-.1 0-.2h-.2c.1.2.2.2.2.2zM36.4 21l.1.1-.1-.1c0-.1 0-.1 0 0zM39.7 20.6zM34.9 19s0-.1 0 0c0 0-.1 0 0 0-.1 0 0 0 0 0zM36.6 21.9h.1v-.1-.2h-.1c-.1 0-.1 0-.1.1s0 .1.1.2zM37.8 22.5l.1-.1v-.1h-.1s-.1 0-.1.1v.1h.1zM40.2 22.3zM38.2 19.8c0 .1 0 .1 0 0 .1.1.1.1 0 0 .1 0 .1 0 0 0zM36.8 21.3v.1h-.2v-.1s.1 0 .1-.1h.2s.1 0 .1.1h-.2zm-.2 0c.1 0 .1 0 0 0 .1 0 0 0 0 0zM37.1 20.2c-.1 0-.1 0 0 0v.1h.1v-.1h-.1zM38.6 21.3v-.1c-.1 0-.1.1 0 .1-.1 0-.1 0 0 0zM35.9 20.8v-.1c-.1 0-.1 0 0 .1zM34.8 20.5s0-.1 0 0c0-.1 0-.1 0 0zM34 21.1c-.1 0-.1 0 0 0zM36.3 22.9l-.1.2h.2V23v-.1h-.1zM37 24.7c0 .1 0 .1 0 0 .1 0 .1 0 0 0zM36.2 23.8c.1 0 .1 0 0 0l.1-.1c-.1-.1-.1 0-.1.1 0-.1 0-.1 0 0zM36.1 23.3l-.1.1c.1 0 .2 0 .1-.1zM36.1 25.3c0 .1 0 .1 0 0 0 .1 0 .1 0 0zM36.9 23.1v.2h.1v-.2c0-.1 0-.1-.1 0 0-.1 0-.1 0 0zM37.6 22.1v.1-.1c.1 0 0 0 0 0zM38.2 22.6l.1-.1s-.1-.1-.1 0h-.1s-.1 0-.1.1v.1l.2-.1zM37.1 21.7c-.1 0-.1 0 0 0l-.1.1h.1s.1 0 .1-.1c0 .1 0 .1-.1 0zM40.2 24.2zM36.7 22.1c.1-.1.1-.1.1-.2h-.1s-.1 0-.1.1v.1c-.1 0 0 .1.1 0zM37.6 22.7c0 .1 0 .1.1.2 0 0 .1 0 .1-.1v-.2l-.2.1zM36.5 19.1zM38.8 21.9v0c.1-.1.1 0 0 0zM37.7 19.2c0 .1 0 .1 0 0zM38.1 21.5v-.1h-.2v.1l.1.1.1-.1c0 .1 0 .1 0 0 0 .1 0 0 0 0zM36.9 20.7c-.1 0-.1 0 0 0zM37.6 21.3c.1-.1.1-.1.1-.2 0 0 0-.1-.1-.1-.1.2-.1.3 0 .3zM39.6 22.9c.1 0 .1 0 0 0 .1-.1.1-.1 0 0 .1-.1 0 0 0 0zM37.2 20.9s0-.1 0 0l-.2-.1v.1h.2zM37.4 21.6v.1h.1v-.1h-.1l.1-.1-.1.1zM39.4 21.6c0-.1 0 0 0 0s.1 0 0 0c.1-.1.1-.1 0 0zM38 21.9l-.1-.1s-.1 0-.1.1v.1h.1s.1 0 .1-.1zM38.9 22.4v.1h.1s0-.1-.1-.1c.1 0 .1 0 0 0zM38.3 21.8h-.1V22.1h.1s.1 0 .1-.1 0-.2-.1-.2zM41.2 21.8zM38.5 22.5v0c.1 0 .1 0 0 0zM37.7 20.8v.2h.1c0-.1 0-.1-.1-.2zM38.1 20.4v.1c.1 0 .1 0 0-.1.1 0 .1 0 0 0zM38.2 21.2c-.1.1 0 .1 0 0-.1.1 0 .1 0 .1h.1c.1-.1 0-.1-.1-.1zM38.6 21.6c.1 0 .1 0 0 0 .1 0 .1 0 0 0 .1-.1.1-.1 0 0zM39.1 22s-.1.1 0 .2h.1c0-.1 0-.1-.1-.2.1 0 .1 0 0 0zM38 23.1c-.1 0-.1 0 0 0-.1 0-.1 0 0 0l-.2-.1H37.5v.2H37.8c.1.1.2 0 .2-.1 0 .1 0 0 0 0zM36.1 22.2l.1.1s.1 0 .1-.1v-.1s0-.1-.1-.1h-.1v.2zM34.7 22.3zM38.8 22.9c0 .1 0 .1 0 0 .1.1.1.1.2.1-.1-.2-.1-.2-.2-.1zM38.4 23.3l-.1.1.1-.1zM35.1 24.5c.1 0 .1 0 0 0 .1 0 0 0 0 0zM39.2 23.8s.1 0 0 0c.1 0 .1 0 0 0 .1 0 .1 0 0 0 .1 0 0 0 0 0zM37.1 22.5h.1v-.1c0-.1 0-.1-.1-.1H37c0 .1 0 .2.1.2zM38.8 23.1l-.1.1.1-.1c0 .1 0 .1 0 0zM37.3 22.2s.1 0 0 0c.1-.2.1-.2 0-.2h-.1v.1s0 .1.1.1c-.1 0 0 0 0 0zM38.6 22.9s0-.1 0 0h0c-.1.1 0 0 0 0z"/><path class="st7" d="M36 21.5s0 .1 0 0c0 .1 0 .1 0 0 .1.1.1.1.2 0h.1v-.1l-.1-.1h-.1l-.1.2c0-.1 0-.1 0 0-.1-.1-.1-.1 0 0-.1 0-.1 0 0 0zM35.9 19.9s-.1 0 0 0zM35.9 21.5v-.1h-.1v.1zM38.1 22.8l-.1.1.1.1s.1 0 .1-.1c.1 0 .1 0-.1-.1.1 0 .1 0 0 0zM36.9 22.1v-.2h-.1v.2h.1zM38.5 24.6c0 .1.1.1 0 0 .1.1.1.1 0 0zM35.5 22.4s0 .1 0 0c.1.1.1.1 0 0 .1.1.1.1.2.1v-.1-.1c-.2 0-.2 0-.2.1zM37.5 24.6c.1 0 .1 0 0 0 .1 0 .1 0 0 0 0 0 .1 0 0 0 .1 0 .1 0 0 0 .1 0 .1 0 0 0zM35.6 23.4v-.1.1zM36.7 23.8c0 .1 0 .1 0 0v.2c.1-.1.1-.1 0-.2.1.1.1.1 0 0zM36.8 24.1c0 .1 0 .1 0 0 .1.1.1.1 0 0 .1-.1.1-.1 0 0 .1 0 0 0 0 0zM35.9 23.9v.1h.2l-.2-.1zM37.2 23.6c-.1.1 0 .2 0 .2s.1 0 .1-.1 0-.1-.1-.1c0-.1 0 0 0 0zM37.8 24zM40.2 21.2zM35 23.4s.1-.1 0-.1v.1c-.1 0-.1 0 0 0-.1 0 0 0 0 0zM37.6 24v.1h.2c-.1 0-.1 0-.2-.1.1.1 0 .1 0 0zM34.2 24.5c0 .1 0 .1 0 0 0 .1 0 .1 0 0 0 0-.1 0 0 0zM36.5 26.6s0-.1 0 0zM37.2 23.9l-.1.1h.2c0-.1 0-.1-.1-.1zM35.6 23.9c.1 0 0-.1 0 0v-.1c-.1 0-.1.1 0 .1zM35.9 24.1s0-.1 0 0h-.1.1l-.1.1.1-.1zM36.1 22.8c0-.2-.1-.2-.1-.2v.2c-.1.1-.1.1.1 0zM36.9 23.6l.1-.1s0-.1-.1-.1h-.2v.1c.1.1.2.1.2.1zM35.1 22.9l.1-.1c-.1-.1-.2-.1-.1.1 0-.1 0-.1 0 0zM35.3 22.3l.1-.1h-.1c-.1 0-.1 0 0 .1-.1 0-.1 0 0 0zM35.6 21.8v-.1c-.1-.1-.1-.1 0 .1-.1 0-.1 0 0 0zM37.3 23.1s0-.1 0 0c.1-.1.1-.1.1-.2h-.1-.1v.1s0 .1.1.1zM34.7 25.6c0 .1 0 .1 0 0 .1.1.1.1 0 0zM34.5 23.3zM35.5 23c0 .1 0 .1 0 0 0 .1 0 .1 0 0 0 .1.1.1 0 0 .1 0 .1 0 0 0zM34 22.2c0-.1 0-.1 0 0zM36 24.5c0 .1 0 .1 0 0 .1 0 .1 0 0 0zM36.2 23.5v.1h.1c0-.1 0-.1-.1-.1 0-.1 0-.1 0 0zM37.2 26z"/><path class="st7" d="M35.8 22.2c0-.1 0-.1 0 0l-.1-.1v.1c0 .1 0 .1.1 0zM38.3 25.6zM36.9 22.8c.1-.1.1-.2 0-.2h-.2l.2.2zM38.2 23.8v.2c.1-.2 0-.2 0-.2zM33.2 23.3zM39.1 20.6s.1 0 0 0c.1 0 .1 0 0 0zM35.1 21.4s-.1 0 0 0c-.1.1 0 0 0 0zM36.6 22.7s0-.1 0 0l-.1-.1v.1h.1c-.1.1 0 .1 0 0z"/></g><g><path transform="rotate(-22.104 35.892 21.716)" class="st6" d="M32.2 18.2h7.3v7.1h-7.3z"/><path class="st7" d="M37.2 21.8c.1 0 0 0 0 0zM34.8 21.4v-.1s0-.1-.1-.1h-.1c-.1 0-.1.1-.1.2h.3zM34.2 21c.1-.1.1-.1 0 0 .1-.1.1-.1 0 0l.1-.1c-.1 0-.1 0-.1.1-.1-.1-.1-.1 0 0zM35.8 18.1s0-.1 0 0c0-.1 0-.1 0 0zM31.7 21c0 .1 0 0 0 0zM35.1 21.3v-.1l-.1-.1c0-.1-.1-.1-.1-.1h-.1v.1c.1.1.1.2.3.2-.1 0-.1 0 0 0zM36.2 20.7v-.1h-.1s-.1 0-.1.1v.1l.2-.1zM37.4 18.7c.1 0 .1 0 0 0 .1-.1.1-.1 0 0 0-.1 0-.1 0 0zM34.3 18.8c0 .1 0 .1 0 0z"/><path class="st7" d="M34.7 20.8c.1 0 .1.1 0 0l.1.1-.1-.1.1.2v-.2c-.2 0-.1-.1-.1 0zm-.1.1zM34 20l.1.1V20s0-.1-.1 0zM35.7 19.4c-.1 0 0 0 0 0zM33.7 21.3h-.1v.1l.1-.1zM32.9 21.9c-.1 0-.1 0 0 0 0 .1 0 .1 0 0zM32.9 23s-.1 0 0 0zM35.7 22.1v.1h.1s.1 0 .1-.1l.1-.1v-.1l-.1-.1c-.1.2-.1.2-.2.3zM37.6 22.6c.1 0 .1 0 0 0 .1 0 .1 0 0 0 0-.1 0-.1 0 0zM36.3 22.7v-.1h-.1s0 .1.1.1zM35.9 22.5v.1-.1zM37.6 23.7s-.1 0 0 0c-.1 0-.1 0 0 0zM36.1 21.7c0 .1.1.1.1.1s.1 0 .1-.1-.1-.1-.1-.1-.1 0-.1.1zM35.8 20.6c.1.1.2.1.2.1l-.2-.1c0-.1 0 0 0 0zM36.5 20.5c0-.1 0-.2-.1-.2h-.1s-.1 0-.1.1v.2h.1l.2-.1zM35.1 20.9v.1c.1 0 .1 0 .1-.1v-.1c.1.1.1 0-.1.1.1-.1.1-.1 0 0zM39 19.8c0-.1 0 0 0 0zM35.3 21.4c0-.1-.1-.1-.1-.1h-.1v.1s0 .1.1.1c-.1-.1 0-.1.1-.1zM36.2 20.9c0 .1.1.1.2 0v-.1c0-.1-.1-.1-.2-.1l-.1.1.1.1zM32.7 19.8s0-.1 0 0zM36.3 19.5h0c0-.1 0-.1 0 0zM33.5 18.9zM35.6 19.9h-.1s-.1.1-.1.2l.1.1h.1v-.3zM34.3 20.4c-.1.1 0 .1 0 0zM35.1 20.2v-.1s0-.1-.1-.1h-.1c.1.2.2.2.2.2zM37.6 19.4zM34.6 20.3c-.1-.1-.1-.1 0 0h-.1.1zM35.2 20.5l.1.1c.1-.1.1-.1-.1-.1l.2.1v-.1l-.1-.1v.1-.1l-.1.1zM36.4 18.8zM35.8 20.2c-.1 0-.1 0-.2.1v.1h.1s.1 0 .1-.1c.1 0 .1 0 0-.1zM36.8 19.7c0 .1.1.1 0 0 .1.1.2 0 .2 0-.1-.1-.1-.1-.2 0 0-.1 0 0 0 0zM36 19.9v.1h.1c.1 0 .1 0 .1-.1v-.1c-.1 0-.2 0-.2.1zM37.6 17.6c0-.1 0 0 0 0zM36.6 20.2l.1.1c0-.2 0-.2-.1-.1zM34.8 19.8l.1.1v-.1h-.1zM34.7 19.2l.1.1-.1-.1zM35.4 19.6c0 .1 0 .1 0 0l.1.1v-.1c0-.1-.1-.1-.1 0zM35.9 19.4h0c.1 0 .1 0 0 0zM36.6 19.4c0 .1 0 .1.1.1 0-.1 0-.1-.1-.1.1-.1.1-.1 0 0zM36.8 20.9s0 .1 0 0c0 .1 0 .1 0 0l-.1.1v.2l-.1.1v.2h.1l.1-.1v-.2c.1-.1.1-.2 0-.3.1 0 .1 0 0 0zM35 21.8h.1v-.1s0-.1-.1-.1h-.1s0 .1.1.2c-.1 0-.1 0 0 0zM34.3 23.1c-.1 0-.1 0 0 0zM37.1 20.2c.1 0 .1 0 0 0h.1-.1c.1-.1 0-.1 0 0 0-.1 0-.1 0 0zM37.2 20.6s0 .1 0 0v.1-.1zM36.3 24c.1 0 .1 0 0 0zM38.1 20.3c0-.1 0 0 0 0zM35.9 21.3c.1 0 .1-.1.1-.1l-.1-.1h-.1s-.1 0-.1.1c.1 0 .1.1.2.1zM37.3 20.2v.1-.1c0 .1 0 .1 0 0zM35.7 20.9s.1 0 0 0c0-.1-.1-.2-.1-.1-.1 0-.1.1-.1.1v.1c.1 0 .1 0 .2-.1 0 .1 0 0 0 0zM37 20.3s-.1 0 0 0c-.1.1 0 .2 0 .1v-.1zM34.3 21.6s.1 0 0 0c.1 0 .1 0 0 0l.1-.1h-.1v-.1h-.1-.1v.1l.2.1c0-.1 0-.1 0 0zM33 20.8c.1 0 .1 0 0 0 0-.1 0-.1 0 0z"/><path class="st7" d="M34.3 21.7v-.1h-.1v.1h.1zM36.7 20.6s-.1.1 0 0v.1h.1v-.1c0-.1 0-.1-.1 0 0-.1 0-.1 0 0zM35.4 21.2c-.1-.1-.2-.1-.2-.1v.2h.1l.1-.1zM38.4 21.3zM34.8 22.5h0c.1 0 .2 0 .1-.1v-.1c0-.1 0 0 0 0h-.1v.2c0-.1 0 0 0 0zM37.8 22.1zM35.7 23h-.1c0 .1.1.1.1 0zM36.7 22.4h.1c0-.1 0-.1-.1 0 0-.1 0-.1 0 0zM36.9 22.4h0zM36.2 23.1h.2V23l-.2.1c0-.1 0-.1 0 0zM36.7 21.8c0 .1.1.1.1.1v-.1c0-.1-.1-.1-.1 0zM37.5 21.6zM36.6 18s0-.1 0 0zM35.4 23.5c0-.1 0-.1 0 0h-.1.1c-.1 0-.1 0 0 0zM37.3 21.7c.1.1.2.1.2.1v-.1c0-.1 0 0 0 0h-.2zM35.8 24.9c0-.1 0-.1 0 0 0-.1 0-.1 0 0-.1-.1 0-.1 0 0zM38.8 24.2c0-.1 0-.1 0 0 0-.1 0-.1 0 0zM37 21.9v.1h.1v-.1H37zM36.1 23.3c0-.1 0-.1 0 0-.1.1 0 .1 0 0zM36.5 23.1c-.1 0-.1 0 0 0l-.1.1.1-.1zM35.5 22.3c-.1-.1-.2-.1-.2 0h.1c0 .1 0 0 .1 0zM36.6 22c0-.1 0-.1-.1-.1h-.1v.1c.1.1.1.1.2 0 0 .1 0 .1 0 0zM34.9 23.1V23v.1zM34.6 22.6v-.1h-.1c0 .2 0 .2.1.1zM34.3 22.1h-.1.1c0 .1 0 .1 0 0zM36.4 21.4c0-.2 0-.2-.1-.2v.2c0 .1 0 .1.1 0zM37 25zM35 23.8zM35.3 22.8c0 .1 0 .1 0 0 .1.1.1.1 0 0 .1.1.2 0 .1 0h-.1zM33.7 23.6zM36.9 23.3zM36.1 22.6h.1l.1-.1s0-.1-.1-.1c-.1.1-.1.1-.1.2zM38.7 23.2zM34.9 22.1c-.1-.1-.1 0-.1 0v.1c-.1 0 0 0 .1-.1-.1.1 0 .1 0 0zM39.1 22s0 .1 0 0zM35.9 21.6v-.1c0-.1-.1-.1-.2-.1v.1l.2.1c-.1 0 0 0 0 0zM37.5 21.2l.1.1v-.1c-.1-.1-.1-.1-.1 0zM34.2 24.9zM35.4 18.5c.1 0 .1 0 0 0 .1 0 0 0 0 0zM33.8 22.3c-.1 0-.1 0 0 0zM35.6 21.8c-.1.1-.1.1-.1.2l.1.1h.1c0-.2 0-.3-.1-.3z"/></g><g><path transform="rotate(-43.525 35.195 20.45)" class="st6" d="M31.7 16.8h7v7.3h-7z"/><path class="st7" d="M34.8 19.2c-.1-.1-.1 0 0 0-.1 0 0 0 0 0zM35.3 21.6h-.1v.2c0 .1.1.1.2 0l-.1-.2zM35.1 22.3s0-.1 0 0c-.1-.1-.1-.1-.1 0 0 0 0 .1.1.1h.1l-.1-.1zM31.8 21.9zM36.1 24.6zM35.1 21.4h-.2V21.7h.2v-.1-.2zM34.1 20.5l-.1.1v.1h.2v-.1l-.1-.1zM31.8 20.1c0 .1 0 .1 0 0 0 .1 0 .1 0 0zM33.1 23c0-.1 0-.1 0 0-.1-.1-.1-.1 0 0-.1-.1-.1 0 0 0z"/><path class="st7" d="M34.8 21.9c0-.1 0-.1 0 0l.1-.1c0-.1 0-.1-.1.1l.2-.1v.1c-.1.1-.1.1-.2 0l.1.1h-.2l-.1-.1h.2zm.2 0c-.1 0-.1 0 0 0-.1.1-.1 0 0 0zM34.3 22.9l.1-.1h-.1c-.1 0-.1 0 0 .1zM33.1 21.5v.1c.1 0 .1-.1 0-.1zM35.5 22.6v.1-.1zM36.5 23.2zM37.5 22.8zM35.6 20.5h.1v-.2l-.1-.1h-.1l-.1.1v.1c.1 0 .1.1.2.1zM35.4 18.6c0-.1 0-.1 0 0-.1 0-.1 0 0 0zM36 19.7h0c-.1.1-.1.1 0 0zM35.9 20.2l.1-.2-.1.2c0-.1 0-.1 0 0zM36.4 18.2s.1 0 0 0c.1 0 0-.1 0 0zM35.1 20.2V20l-.1-.1v.2c0 .1 0 .1.1.1zM34.2 20.9c.1-.2 0-.2 0-.2v.1c-.1.1 0 .2 0 .1zM33.8 20.3l-.1.1v.1s0 .1.1.1h.2v-.1l-.2-.2zM34.7 21.4h.1v-.1l-.1-.1h-.1v.1c0 .1 0 .1.1.1zM32.3 18.3c-.1 0 0 0 0 0zM35.1 21.1c-.1 0-.1.1-.1.1l.1.1h.1v-.1l-.1-.1zM34.3 20.4c.1-.1 0-.1 0-.2h-.1v.2h.1zM34.6 24.1c-.1 0-.1 0 0 0zM33 20.9v-.1.1c-.1-.1-.1-.1 0 0-.1 0-.1 0 0 0zM33.4 23.7c.1 0 .1-.1 0 0zM33.6 21.4v.1s.1.1.2 0v-.1c0-.1 0-.1-.1-.1l-.1.1c0-.1 0-.1 0 0 0-.1 0 0 0 0zM34.6 22.4c.1 0 0 0 0 0zM34 21.7s-.1 0 0 0l-.1.1s0 .1.1.1c.1-.1.1-.1 0-.2zM32.5 19.7c-.1 0-.1 0 0 0-.1 0-.1 0 0 0-.1 0 0 0 0 0zM34.3 22.2c0 .1 0 .1 0 0v.1c.1-.1.1-.1 0-.1zM34.3 21.5c0-.1 0-.1 0 0v-.1h-.1s-.1.1 0 .1h.1v.1-.1zM32.3 21zM33.8 21.1s.1.1 0 0c.1.1.2.1.2.1v-.1l-.1-.1c0-.1 0-.1-.1.1zM33 20.3v-.1s-.1-.1-.1 0l.1.1c-.1 0 0 0 0 0zM33.5 21h.1v-.2l-.1-.1h-.1c0 .3 0 .3.1.3zM30.7 20.4c0-.1 0-.1 0 0 0-.1 0-.1 0 0 0-.1 0-.1 0 0zM33.5 20.3v-.1.1c0 .1-.2 0 0 0zM33.8 22.2c.1-.1 0-.1 0-.1v.1c-.1-.1-.1-.1 0 0zM33.3 22.4v-.1.1zM33.4 21.6c.1 0 .1 0 0 0 .1-.1.1-.1.1-.2h-.1c-.1.2-.1.2 0 .2zM33.1 21.2s0-.1 0 0c-.1 0-.1 0 0 0-.1.1 0 .1 0 0zM32.7 20.6l.1-.1c-.1 0-.1 0-.1.1zM34.1 19.9c.1 0 .1 0 0 0l.1.1h.4v-.2H34.3c-.1 0-.1 0-.2.1 0-.1 0-.1 0 0zM35.6 21.3c0-.1 0-.1 0 0l-.1-.1h-.1v.2s.1 0 .2-.1zM37 21.5c.1 0 .1 0 0 0zM33.3 19.9c0-.1 0-.1 0 0-.1-.1-.1-.1 0 0l-.1-.1s0 .1.1.1c-.1 0-.1 0 0 0zM33.7 19.6c0 .1.1.1 0 0 .1 0 .1-.1.1-.1-.1 0-.1 0-.1.1 0-.1 0-.1 0 0zM37.2 19.2c0-.1 0-.1 0 0zM33 18.9zM34.8 20.6h-.1v.2h.1v-.2zM33.3 19.7c.1 0 .1-.1 0 0-.1 0-.1 0 0 0zM34.5 20.9c-.1.1-.1.1-.1.2.1.1.1 0 .1 0l.1-.1v-.1h-.1c.1 0 .1 0 0 0zM33.5 20h.1v-.1s-.1 0-.1.1zM35.6 21.9s0-.1 0 0c-.1-.1-.1-.1-.2 0v.1h-.1v.2h.1c.1-.2.1-.2.2-.3.1.1.1.1 0 0zM35.3 23.4c.1 0 .1 0 0 0 0 .1 0 .1 0 0zM35.7 21.9v.1h.1v-.1zM33.9 20.1s.1 0 0 0l.1-.1s0-.1-.1-.1h-.1c0 .1 0 .1.1.2-.1 0 0 0 0 0z"/><path class="st7" d="M34.8 21.1c-.1.2-.1.2 0 .2h.2v-.1c-.1-.1-.1-.1-.2-.1zM33.9 18.3c0-.1 0-.1 0 0zM36.3 21.2c0-.1 0-.1 0 0-.1-.1-.2-.1-.2-.1H36v.2l.3-.1zM34.9 18.5c-.1 0-.1 0 0 0zM36.5 20.1v0zM35.5 19.5c.1-.1.1-.1 0 0v-.1c-.1 0-.1 0 0 .1-.1-.1-.1-.1 0 0zM35.4 19.2v-.1.1zM36.3 19.6v-.1h-.1l.1.1c-.1 0 0 .1 0 0zM35 19.6c.1-.1.1-.1.1-.2H35c-.1.2-.1.2 0 .2zM34.5 19zM31.4 21.1c0 .1 0 .1 0 0zM37 20.3s-.1 0 0 0v.1c.1 0 .1 0 0-.1.1 0 .1 0 0 0zM34.7 19.1V19h-.2v.1c0 .1.1 0 .2 0zM38.1 19.4c0 .1 0 0 0 0zM36.4 16.9c-.1 0-.1 0 0 0zM35 19.3h-.1c.1-.1.1 0 .1 0zM36.6 19.7s-.1 0 0 0c-.1 0-.1.1 0 0l-.1.1c.2 0 .2-.1.1-.1zM36.3 19.4s0 .1 0 0h.1-.1zM35.8 20.6c0 .2 0 .2.1.2v-.2c.1 0 .1-.1-.1 0zM35.2 19.6l-.1.1s0 .1.1.1h.2v-.1s-.1 0-.2-.1zM36.9 20.8h-.1.1c0 .1 0 .1 0 0zM36.5 21.3l-.1.1h.1c.1.1.1.1 0-.1.1.1.1.1 0 0zM36.1 21.7v.1h.1l-.1-.1c.1.1.1.1 0 0zM34.7 20.1c-.1.1-.1.1-.1.2h.2v-.1c.1 0 0 0-.1-.1zM37.9 18.2c-.1 0-.1 0 0 0-.1 0-.1 0 0 0-.1 0-.1 0 0 0zM37.5 20.5zM36.5 20.6s0-.1 0 0c0-.1 0-.1 0 0 0-.1-.1-.1 0 0-.1 0-.1 0 0 0zM37.7 21.8c0-.1 0-.1 0 0zM36.3 19c0-.1 0-.1 0 0zM35.9 19.9v-.1h-.1v.1h.1c0 .1 0 .1 0 0zM35.6 17.3c-.1 0-.1 0 0 0z"/><path class="st7" d="M36 21.3c-.1 0 0 0 0 0h.1c0-.1-.1-.1-.1 0zM34.3 17.4zM35.1 20.5H35s-.1.1 0 .2h.2l-.1-.2c.1 0 0 0 0 0zM34.1 19.1v-.2c-.1.2-.1.3 0 .2zM38.7 20.9zM32.3 22s.1 0 0 0zM36.5 22.2c0 .1 0 .1 0 0 0 .1 0 .1 0 0zM35.3 20.7l.1.1v-.1h-.1c.1-.2.1-.1 0 0z"/></g><g><path transform="rotate(-37.58 34.726 19.128)" class="st6" d="M31.2 15.5h7v7.2h-7z"/><path class="st7" d="M35 20.4c0 .1 0 .1 0 0 .1.1.1.1 0 0 .1 0 0 0 0 0zM34.8 18h.1v-.1-.1c0-.1-.1-.1-.2 0l.1.2c-.1 0-.1 0 0 0zM35 17.3s0 .1 0 0c.1.1.1.1.1 0 0 0 0-.1-.1 0 0-.1 0-.1 0 0zM38.2 18.1s.1 0 0 0c0-.1 0-.1 0 0zM34.3 15c0-.1 0-.1 0 0zM34.9 18.3h.2v-.1-.2H35h-.1v.3c0-.1 0-.1 0 0zM35.8 19.2l.1-.1V19l-.1-.1h-.1v.1l.1.2zM38 19.8c.1 0 .1 0 0 0 .1 0 .1 0 0 0zM37.1 16.9zM35.3 17.8c0 .1 0 .1 0 0l-.1.1h-.1v-.1c0-.1.1-.1.2 0l-.1-.1h.2s.1.1 0 .1h-.1zm-.2-.1zM35.9 16.8l-.1.1h.1v-.1zM36.9 18.4v-.1.1c0-.1 0-.1 0 0zM34.6 17v-.1h-.1l.1.1zM33.7 16.3s0-.1 0 0zM32.7 16.6s0-.1 0 0zM34.3 19.1h-.1v.2s0 .1.1.1h.2v-.1c-.1-.2-.1-.2-.2-.2zM34.3 21s0 .1 0 0c.1.1.1 0 0 0zM33.9 19.8h0c.1 0 0 0 0 0zM34 19.4h-.1.1zM33.3 21.3s-.1 0 0 0c-.1 0 0 0 0 0zM34.8 19.4s-.1.1 0 .2c0 0 0 .1.1.1 0 0 .1-.1 0-.2 0 0 0-.1-.1-.1zM35.7 18.7c-.1.1-.1.2 0 .2v-.1c.1-.1.1-.1 0-.1zM36.1 19.4c.1 0 .1-.1.1-.1v-.1s0-.1-.1-.1H36h-.1v.1l.2.2zM35.4 18.2h-.1v.1l.1.1h.1c-.1 0-.1-.1-.1-.2 0 .1 0 0 0 0zM37.4 21.6zM34.9 18.5c.1 0 .1-.1.1-.1h-.1s0 .1-.1.1h.1zM35.5 19.3c-.1.1 0 .1 0 .2h.1c.1 0 .1-.1 0-.2h-.1zM35.7 15.6c.1 0 .1 0 0 0zM37 19v.1c.1 0 .1 0 0-.1zM36.8 16.1c0 .1 0 .1 0 0 .1.1 0 0 0 0zM36.4 18.4v-.1s-.1-.1-.2 0v.1c0 .1 0 .1.1.1l.1-.1zM35.5 17.2c-.1 0 0 0 0 0zM36 18h.1v-.1s0-.1-.1-.1v.2zM37.4 20.2zM35.8 17.5s0-.1 0 0v-.1.1c-.1 0-.1 0 0 0zM35.8 18.2c-.1.1-.1.1 0 0v.1h.1s.1-.1 0-.1h-.1.1-.1zM37.6 18.9c.1 0 .1 0 0 0 .1 0 .1 0 0 0zM36.2 18.7c0-.1-.1-.1-.1-.1H36v.1l.1.1.1-.1zM36.9 19.5s-.1 0 0 0c0 .1 0 .2.1.2-.1-.1 0-.1-.1-.2zM36.5 18.7h-.1v.2l.1.1h.1c0-.2 0-.2-.1-.3zM39.2 19.7c0 .1-.1.1 0 0 0 .1 0 .1 0 0zM36.4 19.4v0c0-.1.1.1 0 0zM36.3 17.6c-.1.1-.1.1 0 .1h.1s0-.1-.1-.1zM36.8 17.4v.1-.1zM36.6 18.2c-.1 0-.1 0 0 0l-.1.1h.1c.1-.1.1-.1 0-.1zM36.9 18.6c0 .1 0 .1 0 0 .1 0 .1 0 0 0 .1 0 0 0 0 0zM37.2 19.2c-.1 0-.1.1-.1.1.1.1.1 0 .1-.1 0 .1 0 .1 0 0zM35.8 19.8c-.1 0-.1 0 0 0l-.1-.1h-.1H35.3v.2H35.6s.1 0 .2-.1c0 .1 0 .1 0 0zM34.4 18.3s0 .1 0 0c.1.1.2.1.2.1v-.1-.1h-.1l-.1.1zM33 18c0-.1 0-.1 0 0zM36.6 19.9c-.1 0-.1 0 0 0-.1.1-.1.1 0 0 0 .1 0 .1 0 0l.1.1c0-.1 0-.1-.1-.1zM36.1 20.1c-.1 0-.1 0-.1.1.1 0 .1 0 .1-.1 0 .1 0 .1 0 0zM32.6 20.2c.1 0 .1 0 0 0 .1 0 .1 0 0 0zM36.7 20.9zM35.2 19h.1v-.1-.1h-.1v.2c-.1 0-.1 0 0 0zM36.5 20.1c0 .1 0 .1 0 0 .1.1.1.1 0 0z"/><path class="st7" d="M35.4 18.8s.1 0 0 0c.1 0 .1-.1.1-.1 0-.1-.1-.1-.1 0l-.1.1c0-.1 0-.1.1 0 0-.1 0 0 0 0zM36.4 19.8h-.1v.1l.1-.1zM34.4 17.6c0 .1 0 .1 0 0 .1.1.1.1 0 0 .1.1.1.1.2.1v-.1h.1v-.1-.1h-.1l-.2.2c.1 0 .1 0 0 0zM34.9 16.2zM34.3 17.6h.1v-.1h-.1v.1zM36 19.6s-.1 0 0 0l-.1.1s0 .1.1.1h.1s0-.1-.1-.2c.1.1.1 0 0 0zM35.1 18.5c.1-.1.1-.2 0-.2h-.2v.1l.2.1zM35.8 21.5zM33.7 18.3c0 .1 0 .1 0 0 .1.1.1.1.2.1h.1v-.1-.1c-.2 0-.2 0-.3.1zM34.8 21.1c.1 0 .1 0 0 0 .1 0 0 0 0 0zM33.4 19.3v-.1.1zM34.3 20.1v.1c.1 0 .1 0 0-.1.1 0 .1 0 0 0zM34.3 20.3v.1-.1c.1.1.1.1 0 0 .1 0 0 0 0 0zM33.6 19.8v.2h.1l-.1-.2zM34.8 20c-.1.1-.1.1-.1.2h.1c.2-.2.2-.2 0-.2.1 0 .1 0 0 0zM35.3 20.6zM38.5 18.8c0 .1 0 .1 0 0zM32.9 19.1s.1 0 0 0V19c-.1 0-.1.1 0 .1-.1 0-.1 0 0 0zM35.1 20.5l-.1.2.1.1h.1c.1 0 0 0 0-.1s0-.1-.1-.2zM31.7 19.9c.1 0 .1 0 0 0 .1-.1 0-.1 0 0zM33.2 22.6zM34.8 20.3h-.1.2c-.1.1 0 0-.1 0zM33.2 19.8c.1 0 .1 0 0 0 .1 0 .1-.1 0 0 0-.1 0 0 0 0zM33.5 20.1s0-.1 0 0h-.1.1l-.1.1.1-.1zM34.1 18.9v-.2.2c-.1.1-.1.1 0 0zM34.6 19.9c.1 0 .1 0 0 0 .1-.1.1-.2.1-.2h-.2l-.1.1c.1.1.1.1.2.1zM33.1 18.6h.1-.1zM33.5 18.1c.1 0 .1 0 0 0 .1-.1.1-.1 0-.1v.1c-.1 0-.1 0 0 0zM34 17.8v-.1h-.1l.1.1c-.1-.1-.1-.1 0 0zM35.1 19.5c.1 0 .1 0 0 0 .1-.1.2-.1.1-.2h-.1v.2zM31.9 21.1c-.1 0-.1 0 0 0-.1 0 0 0 0 0zM32.5 18.8c0 .1 0 0 0 0zM33.5 18.9s-.1 0 0 0c-.1.1-.1.1 0 0 0 .1 0 .1 0 0zM32.4 17.6zM33.5 20.5zM34 19.6v.1h.1v-.1H34c0-.1 0-.1 0 0zM34 22.2c.1 0 .1 0 0 0z"/><path class="st7" d="M34 18.3c.1-.1 0-.1 0 0 0-.1 0-.1 0 0-.1-.1-.1 0-.1 0h.1zM35.3 22.3zM34.8 19.1h.2s.1-.1 0-.2h-.2c-.1.2 0 .2 0 .2zM35.7 20.5c0 .1-.1.1 0 .2.1-.2.1-.2 0-.2zM31.3 18.3c0 .1 0 .1 0 0 0 .1 0 .1 0 0zM37.7 17.9zM33.6 17.3c0-.1 0-.1 0 0 0-.1 0-.1 0 0zM34.6 18.9l-.1-.1h-.1s-.1.1 0 .1l.1.1h.1v-.1z"/></g><g><path transform="rotate(-58.929 34.432 17.74)" class="st6" d="M31.1 14.3h6.7v7h-6.7z"/><path class="st7" d="M33.8 16.7c-.1 0-.1 0 0 0-.1-.1-.1-.1 0 0-.1-.1-.1 0 0 0-.1 0-.1 0 0 0zM34.8 18.8c-.1 0-.1 0 0 0-.1.1-.1.1 0 .2h.2c-.1-.2-.2-.2-.2-.2zM34.8 19.4h-.1l.1.1s.1.1 0-.1zM31.7 19.9zM36.3 21.3c0 .1 0 .1 0 0 0 .1 0 0 0 0zM34.6 18.6h-.1v.2h.1s.1 0 .1-.1l-.1-.1c.1 0 0 0 0 0zM33.4 18v.1h.1s.1 0 .1-.1v-.1l-.2.1zM31.2 18.3zM33.1 20.6c0-.1 0-.1 0 0 0-.1 0-.1 0 0zM34.4 19.1V19h.2v.1s-.1 0-.1.1h-.1c0 .1-.1.1 0-.1zm.2 0c0 .1 0 .1 0 0 0 .1 0 .1 0 0zM34.2 20.2v-.1c-.1 0-.1.1 0 .1zM32.8 19.2c0 .1 0 0 0 0zM35.3 19.6v.1c.1.1.1.1 0-.1zM36.3 19.9c.1.1.1.1 0 0 .1 0 0 0 0 0zM37.1 19.3c.1 0 .1 0 0 0zM34.8 17.6c.1 0 .1 0 .1-.1v-.1h-.1-.1v.1l.1.1c-.1 0-.1.1 0 0zM34.1 15.9s0 .1 0 0zM34.9 16.8c-.1 0-.1.1 0 0-.1.1 0 .1 0 0 0 .1 0 .1 0 0 .1.1.1.1 0 0zM35 17.3c.1 0 .1 0 0 0l.1-.1c-.1 0-.1 0-.1.1 0-.1 0-.1 0 0zM35 15.3c0 .1 0 .1 0 0zM34.3 17.5v-.1h-.1v.1c0 .1 0 .1.1 0 0 .1 0 .1 0 0zM33.7 18.4v-.2.2c-.1.1-.1.1 0 0zM33.1 18c-.1 0-.1 0 0 0l-.1.1h.2s.1 0 .1-.1v-.1l-.2.1zM34.2 18.8s.1 0 0 0l.1-.1h-.1s-.1 0-.1.1c-.1-.1-.1-.1.1 0-.1 0-.1 0 0 0zM31.2 16.5s-.1 0 0 0zM34.5 18.4c0 .1-.1.1 0 .2 0 0 .1 0 .1-.1v-.1s0-.1-.1 0z"/><path class="st7" d="M33.6 17.9c0-.1 0-.1-.1-.2 0 0-.1 0-.1.1v.2l.2-.1zM34.8 21.3zM32.5 18.7v-.1.1c-.1 0 0 0 0 0zM33.6 21.2c0-.1 0-.1 0 0zM33.2 19v.1h.2V19l-.1-.1-.1.1c0-.1 0 0 0 0zM34.4 19.7c.1 0 0 0 0 0zM33.6 19.2c-.1.1-.1.1-.1.2 0 0 0 .1.1.1.2-.2.1-.2 0-.3zM31.7 17.7c0 .1 0 .1 0 0zM34.1 19.6s0 .1 0 0l.1.1v-.1c-.1-.1-.1-.1-.1 0zM33.8 19v-.1h-.1v.1h.1-.1.1zM31.9 19zM33.3 18.7l.1.1s.1 0 .1-.1v-.1h-.1s-.1 0-.1.1zM32.4 18.2s0-.1 0 0c0-.1-.1-.1 0 0-.1-.1-.1 0 0 0-.1 0-.1 0 0 0zM33 18.7l.1-.1H33s-.1 0-.1.1h.1zM30.3 18.8c0-.1 0-.1 0 0-.1-.1-.1-.1 0 0-.1 0-.1 0 0 0zM32.8 18v-.1.1c-.1 0-.1 0 0 0zM33.6 19.7v-.2h-.1s0 .1.1.2zM33.2 20.1c0-.1 0-.1 0 0-.1-.1-.1-.1 0 0-.1 0-.1 0 0 0zM33.1 19.3c0-.1 0-.1 0 0 .1-.1 0-.1 0-.1H33c-.1.1-.1.1.1.1zM32.7 19c0-.1 0-.1 0 0-.1 0-.1 0 0 0-.1 0 0 0 0 0zM32.2 18.5s.1-.1 0-.1v.1c-.1-.1-.1 0 0 0-.1 0 0 0 0 0zM33.3 17.5c.1 0 .1 0 0 0l.2.1H33.8v-.2H33.5c-.1 0-.1 0-.2.1 0-.1 0-.1 0 0-.1-.1-.1-.1 0 0zM35.1 18.3s-.1 0 0 0l-.1-.1s-.1 0-.1.1v.1s0 .1.1.1h.1v-.2zM36.4 18.2s.1 0 0 0zM32.5 17.7c0-.1 0-.1 0 0l-.1-.1c0 .2 0 .2.1.1zM32.8 17.3c.1 0 .1 0 0 0 .1 0 .1-.1 0 0l.1-.1c-.1 0-.1 0-.1.1zM36 16.1c-.1 0-.1 0 0 0-.1 0-.1 0 0 0-.1 0-.1 0 0 0zM32.1 16.8c-.1 0-.1 0 0 0-.1.1-.1.1 0 0-.1.1 0 .1 0 0zM34.1 18H34v.1c0 .1 0 .1.1.1h.1c0-.1 0-.2-.1-.2zM32.5 17.5l.1-.1-.1.1c0-.1 0-.1 0 0zM33.9 18.3c-.1.1-.1.2 0 .2h.1v-.1s0-.1-.1-.1c.1 0 .1 0 0 0zM32.7 17.7s0 .1 0 0h0c.1-.1 0 0 0 0zM35.2 19c0-.1 0-.1 0 0-.1-.1-.1-.1-.2 0h-.1v.1h.1l.2-.1s.1 0 0 0zM35.3 20.5s.1 0 0 0zM35.3 19v.1h.1V19h-.1zM33.1 17.8c.1 0 .1-.1 0 0l.1-.1-.1-.1s-.1 0-.1.1l.1.1c-.1 0 0 0 0 0zM34.3 18.4v.2h.1l.1-.1v-.1h-.2zM32.7 16zM35.6 18.1s0-.1 0 0c0-.1 0-.1 0 0-.1-.1-.1-.1-.2-.1v.2c.2.1.2.1.2-.1 0 .1 0 0 0 0zM33.6 16s0 .1 0 0c0 .1 0 .1 0 0zM35.5 17.1l.1.1c.1 0 .1-.1-.1-.1zM34.5 16.8c0-.1 0-.1 0 0v-.1c-.2 0-.1 0 0 .1-.1-.1-.1-.1 0 0zM34.4 16.5c-.1 0-.1 0 0 0-.1.1-.1.1 0 0-.1 0-.1 0 0 0zM35.3 16.7c0-.1 0-.1-.1-.1h-.1l.2.1c-.1 0-.1 0 0 0zM34 17c.1-.1 0-.1 0-.2 0 0-.1 0-.1.1 0 .2 0 .2.1.1zM33.4 16.6zM31.1 19.3c0 .1 0 .1 0 0zM36.1 17.1s-.1.1 0 .1v-.1c0 .1 0 .1 0 0zM33.6 16.6v-.1h-.1-.1c.1 0 .1 0 .2.1-.1 0 0 0 0 0zM36.9 16s-.1 0 0 0c0 .1 0 .1 0 0zM34.6 14.1c0 .1 0 .1 0 0zM34 16.8l.1-.1H34h-.1l.1.1zM35.5 16.7c0-.1 0 0 0 0-.1 0 0 0 0 0v.1c.1-.1.1-.1 0-.1zM35.2 16.5h.1-.1l.1-.1-.1.1zM35.1 17.7c0 .1.1.2.1.2v-.1c0-.1-.1-.1-.1-.1zM34.3 17l-.1.1s0 .1.1.1h.2v-.1c-.1-.1-.2-.1-.2-.1zM36.1 17.7c-.1 0-.1 0 0 0l-.1.1.1-.1zM35.9 18.2c-.1 0-.1 0 0 0l-.1.1h.1c.1 0 .1 0 0-.1.1 0 0 0 0 0zM35.6 18.7c0 .1 0 .1 0 0 0 .1.1.1 0 0 .1 0 .1 0 0 0zM33.9 17.5s0 .1 0 0c-.1.1-.1.1-.1.2h.2v-.1s0-.1-.1-.1zM36.3 15c0-.1 0 0 0 0zM36.5 17.2c.1 0 .1 0 0 0 .1 0 0 0 0 0zM35.6 17.5c.1 0 .1 0 0 0 .1 0 .1-.1 0 0 0-.1 0-.1 0 0-.1 0-.1.1 0 0zM37.1 18.3zM35.1 16.1c0-.1 0-.1 0 0zM35 17.1V17h-.1c-.1 0 0 .1.1.1-.1 0 0 0 0 0zM34 14.7z"/><path class="st7" d="M35.4 18.3l.1.1v-.1c0-.1-.1-.1-.1 0zM32.9 15.1zM34.3 17.8c-.1.1-.1.2 0 .2h.2c-.1-.2-.1-.2-.2-.2zM33.1 16.8c0-.1 0-.1-.1-.1 0 .1 0 .2.1.1zM37.8 17.2zM32.2 19.9zM36.1 19.1c0-.1 0-.1 0 0zM34.6 17.9l.1.1v-.1h-.1c0-.2 0-.1 0 0z"/></g><g><path transform="rotate(-52.476 34.456 16.31)" class="st6" d="M31.2 13.1h6.5v6.3h-6.5z"/><path class="st7" d="M33.4 16.9zM35.4 16.1c0 .1.1.1.1.1h.1V16l-.2.1c.1-.1.1 0 0 0zM36.1 16.1v.1s.1 0 .1-.1c0 .1 0 0-.1 0zM36.2 19.1s0 .1 0 0zM38 15s0-.1 0 0c0-.1 0 0 0 0z"/><path class="st7" d="M35.3 16.3v.1h.2v-.1-.1c-.1 0-.1 0-.2.1 0-.1 0-.1 0 0zM34.7 17.3l.1.1v-.1-.1l-.1.1zM34.6 19.4c.1 0 .1 0 0 0 .1 0 .1 0 0 0zM37 17.9c-.1 0-.1 0 0 0-.1 0-.1 0 0 0zM35.8 16.5c-.1 0-.1 0 0 0l-.1-.1c-.1 0-.1 0 .1.1l-.1-.1h.1v.1l.1-.1v.2s0 .1-.1.1v-.2zm0-.2c0 .1 0 .1 0 0 0 .1 0 .1 0 0zM36.7 16.8h-.1v.1s.1 0 .1-.1zM35.6 18h0c.1 0 .1 0 0 0zM36.3 15.7h0zM36.7 14.8c.1 0 .1-.1 0 0zM36.2 14zM34.4 16c0-.1 0-.1 0 0-.1-.1-.1-.1 0 0l-.1-.1v.2h.2c-.1 0-.1-.1-.1-.1zM32.7 16.4c0 .1.1.1 0 0zM33.6 15.8c.1 0 .1 0 0 0 .1 0 .1 0 0 0 .1 0 .1 0 0 0zM34.1 15.8c-.1 0 0 0 0 0zM32.3 15.6c0-.1 0-.1 0 0-.1-.1-.1-.1 0 0-.1 0-.1 0 0 0zM34.3 16.4h-.1v.1h.1v-.1c0 .1 0 0 0 0zM35 17.1h-.2.1c.2.1.2.1.1 0zM34.5 17.6c.1.1.1.1 0 0l.1.1s.1 0 0-.1v-.1-.1l-.1.2zM35.4 16.7c0-.1 0-.1 0 0l-.1-.1v.2l.1-.1c0 .1 0 0 0 0zM32.9 19.2c0 .1 0 .1 0 0 .1.1 0 0 0 0zM35.1 16.3s.1.1.1 0v-.1h-.1s-.1 0 0 .1zM34.5 17.1h-.2v.1h.2v-.1zM37.8 16.4zM35.1 18.3c0 .1 0 0 0 0zM37.6 17.5s0-.1 0 0c-.1-.1-.1-.1 0 0zM35.5 17.6h.1v-.2h-.1s-.1 0-.1.1l.1.1c-.1 0 0 0 0 0zM36.3 16.6c0-.1 0-.1 0 0zM35.7 17.2c.1.1.1.1.2.1 0 0 .1 0 .1-.1-.2-.1-.2-.1-.3 0zM34.2 18.9s-.1 0 0 0c-.1 0-.1 0 0 0zM36.1 16.9c.1 0 .1 0 0 0l.1-.1-.1.1c0-.1 0-.1 0 0zM35.5 17l-.2.1v.1h.1v-.1h.1V17zM35.4 18.8c-.1 0-.1 0 0 0-.1 0-.1 0 0 0 0 .1 0 .1 0 0zM35.2 17.5l.1-.1v-.1c-.2 0-.2.1-.1.2-.1-.1-.1 0 0 0zM34.7 18.3c-.1 0-.1 0 0 0-.1 0-.1.1-.1.1l.1-.1c0 .1 0 0 0 0zM35.2 17.8l-.1-.1H35v.2c.2 0 .2 0 .2-.1zM35 20.4c0-.1 0-.1 0 0zM34.6 17.9h-.1c0 .1 0 .1.1 0-.1.1-.1.1 0 0zM36.2 17.3c-.1-.1-.1 0-.1 0 0 .1 0 .1.1 0-.1.1-.1.1 0 0 0 .1 0 0 0 0zM36.5 17.7zM35.8 17.8c-.1-.1-.1-.1 0 0-.1-.1-.1 0-.1 0v.1c.1 0 .1-.1.1-.1zM35.4 18.1s-.1 0 0 0c0 .1 0 .1 0 0 0 .1 0 0 0 0zM35 18.5s-.1-.1-.1 0c-.1.1 0 .1.1 0-.1.1-.1.1 0 0zM34.1 17.4c0-.1 0-.1 0 0l.1-.1V17H34V17.3s0 .1.1.1c-.1 0-.1 0 0 0zM35.1 15.8s-.1 0 0 0l-.1.1s0 .1.1.1h.1s.1 0 .1-.1v-.1h-.2zM35.1 14.5zM34.2 18.1c-.1.1-.1.1 0 0 0 .1 0 .1 0 0 .1.1 0 0 0 0zM33.9 17.8c0-.1 0-.1 0 0 0-.1 0-.1 0 0l-.1-.1c0 .1 0 .1.1.1-.1 0-.1 0 0 0zM33.1 14.7c-.1.1-.1.1 0 0-.1.1-.1.1 0 0 0 .1 0 0 0 0zM33.4 18.5c-.1 0-.1 0 0 0-.1 0-.1 0 0 0 0 0 0-.1 0 0zM34.7 16.7v.1h.2v-.1h-.2c0-.1 0-.1 0 0zM34 18.1c0-.1 0-.1 0 0s0 .1 0 0zM34.9 16.9c.1.1.1.1.2.1v-.1h-.2c.1-.1 0-.1 0 0 .1-.1 0 0 0 0zM34.3 18v-.1h-.1l.1.1zM35.7 15.7s0 .1 0 0c-.1.1-.1.1 0 0-.1.1-.1.1 0 .2v.1h.1l.1-.1-.2-.2c0 .1 0 .1 0 0 0 .1 0 .1 0 0zM37.1 15.8zM35.7 15.7h.1v-.1h-.1zM34.3 17.6c0-.1 0-.1 0 0l-.1-.1s-.1 0-.1.1v.1c.1-.1.2-.1.2-.1z"/><path class="st7" d="M35.1 16.5h.2v-.1l-.1-.1h-.1v.2zM32.7 17.8c-.1 0-.1 0 0 0-.1 0-.1 0 0 0zM35 15.3c-.1 0-.1 0 0 0-.1.1-.1.2-.1.2h.2l-.1-.2c.1 0 .1 0 0 0zM32.8 16.9zM34 15.2h.1c0-.1-.1-.1-.1 0zM33.6 16.2c-.1 0-.1 0 0 0h-.1c0 .1 0 .1.1 0-.1 0-.1 0 0 0zM33.3 16.3zM33.6 15.4h-.1c0 .1 0 .1.1 0 0 .1 0 .1 0 0zM33.7 16.6c-.1-.1-.1-.1-.2 0 0 0 0 .1.1.1.2 0 .2 0 .1-.1.1.1 0 0 0 0zM33.3 17.2zM35.6 19.6zM34 14.7s.1.1.1 0H34c.1 0 .1-.1 0 0zM33.3 17h-.1v.2c0-.1 0-.1.1-.2 0 .1 0 0 0 0zM33.1 13.9c.1 0 0 0 0 0zM31.1 15.8zM33.5 16.7v-.1.2c-.1-.1 0-.1 0-.1zM33.6 15.2c0 .1 0 0 0 0 0-.1 0-.1 0 0zM33.4 15.5v-.1.1zM34.5 15.7c.1 0 .2-.1.2-.1h-.2c-.1 0-.1 0 0 .1zM33.7 16.4l.1.1s.1 0 .1-.1v-.2h-.1c-.1.1-.1.1-.1.2zM34.6 14.8c.1 0 .1 0 0 0zM35.1 15c0 .1 0 .1 0 0l.1.1V15c-.1-.1-.1 0-.1 0zM35.5 15.4c.1 0 .1 0 0 0 .1 0 .1-.1 0 0 0-.1 0-.1 0 0zM34.2 16.8s0 .1 0 0c.1.1.1.1.2.1v-.1-.1l-.2.1c0-.1 0-.1 0 0zM32.1 14.3s-.1 0 0 0zM34.2 14.3s0-.1 0 0zM34.4 15.2c-.1 0-.1 0 0 0-.1 0-.1 0 0 0-.1 0-.1.1 0 0zM35.3 13.9zM33 15.5c-.1 0-.1 0 0 0 0 .1 0 .1 0 0zM33.9 15.8l-.1.1h.1v-.1zM31.6 16.5z"/><path class="st7" d="M35.1 15.5c0 .1 0 0 0 0 0-.1 0-.1 0 0-.1-.1-.1 0 0 0zM31.8 17.5zM34.5 16.4c.1.1.1.1.2.1v-.2l-.2.1c0-.1 0 0 0 0zM33.4 17.5h-.1c.2.1.2.1.1 0zM34.3 13.1zM36.2 18.7s0-.1 0 0zM35.8 14.9c.1 0 .1 0 0 0zM34.6 16.2s.1 0 0 0l.1-.1h-.1v.1c-.1 0-.1 0 0 0z"/></g><g><path transform="rotate(-52.914 34.522 14.902)" class="st6" d="M31.6 11.8h5.9v6.1h-5.9z"/><path class="st7" d="M34 13.9c0 .1 0 .1 0 0zM34.7 15.8c-.1.1-.1.1 0 0v.2h.1l-.1-.2c.1.1.1 0 0 0zM34.7 16.5s0-.1 0 0c0-.1 0-.1 0 0 .1 0 .1 0 0 0zM31.9 16.5c0 .1 0 .1 0 0zM35.8 18.2c0 .1 0 0 0 0zM34.6 15.7l-.1.1v.1h.1v-.2zM33.6 15.1v.1h.2l-.2-.1zM31.7 15.1c-.1 0-.1 0 0 0-.1 0-.1 0 0 0zM33.1 17.3c0-.1 0-.1 0 0zM34.4 16.1c0-.1 0-.1 0 0l.1-.1-.1.1.1-.1v.1h-.2c0 .1 0 .1.1 0zm.1.1zM34.1 17.1V17c-.1 0-.1 0 0 .1zM32.9 16c.1.1.1.1 0 0 0 .1 0 0 0 0zM35.1 16.6c0 .1 0 .1 0 0 0 .1.1.1 0 0zM36 17zM36.8 16.5c-.1 0-.1 0 0 0zM34.9 14.9c.1 0 .1 0 .1-.1h-.1-.1v.1c-.1-.2 0-.2.1 0-.1-.1-.1 0 0 0zM34.4 13.3s0-.1 0 0zM35.1 14.1c-.1 0-.1 0 0 0-.1.1-.1.1 0 0-.1.1 0 .1 0 0 0 .1 0 .1 0 0zM35.1 14.5c.1 0 .1 0 0 0 0-.1 0-.1 0 0zM35.2 12.9c.1-.1 0-.1 0 0 0-.1 0-.1 0 0zM34.4 14.7v-.1h-.1v.1h.1zM33.8 15.4v-.2c-.1.3 0 .3 0 .2zM33.3 15c-.1 0-.1.1 0 0l-.1.1h.2l-.1-.1zM34.2 15.8s.1 0 0 0l.1-.1h-.1-.1l.1.1c-.1 0 0 0 0 0zM31.8 13.5c0 .1 0 0 0 0zM34.5 15.5s-.1.1 0 .1h.1v-.1h-.1zM33.8 15v-.1h-.1v.1h.1zM34.5 18zM32.7 15.5c0-.1 0-.1 0 0l-.1-.1c0 .1 0 .1.1.1 0 .1 0 .1 0 0zM33.5 17.8zM33.3 15.9v.1h.2v-.1s0-.1-.1-.1l-.1.1c.1-.1 0 0 0 0zM34.3 16.6c.1 0 .1 0 0 0zM33.7 16.1c-.1.1-.1.1 0 0-.1.1-.1.1-.1.2 0 0 0 .1.1.1.1-.2.1-.2 0-.3zM32.1 14.7s0-.1 0 0c0-.1 0-.1 0 0zM34.1 16.5l.1.1h-.1v-.1zM33.9 15.9v-.1h-.1v.1h.1zM32.2 15.8c0-.1 0 0 0 0zM33.5 15.6l.1.1h.1c-.1-.2-.1-.2-.2-.1 0-.1 0-.1 0 0zM32.7 15.1c0-.1-.1-.1-.1-.1s0 .1.1.1c-.1 0-.1 0 0 0zM33.2 15.6l.1-.1h-.1-.1l.1.1c-.1 0-.1 0 0 0zM30.8 15.4c-.1 0-.1 0 0 0zM33.1 15v-.1c-.1 0-.2 0 0 .1-.1 0-.1 0 0 0zM33.6 16.5c.1 0 .1-.1 0 0 0-.1 0-.1 0 0-.1 0-.1 0 0 0zM33.2 16.8c0-.1 0-.1 0 0zM33.2 16.2c0-.1 0-.1 0 0 .1-.1 0-.1 0-.1s-.1-.1 0 .1c-.1-.1-.1 0 0 0zM32.9 15.8c-.1 0-.1 0 0 0-.1 0 0 0 0 0zM32.5 15.4s.1-.1 0-.1c0 0-.1 0 0 .1-.1 0-.1 0 0 0zM33.6 14.6l.1.1H34v-.2H33.7c-.1-.1-.1-.1-.1.1-.1-.1-.1-.1 0 0zM35 15.5s0-.1 0 0l-.1-.1h-.1v.1s0 .1.1.1c0 .1.1 0 .1-.1 0 .1 0 0 0 0zM36.2 15.5zM32.9 14.7c0-.1-.1-.1 0 0-.1-.1-.1-.1 0 0-.1 0-.1 0 0 0-.1 0 0 0 0 0zM33.2 14.4l.1-.1c-.1 0-.1 0-.1.1 0-.1 0-.1 0 0zM36 13.6zM32.5 13.9zM34.2 15.1s-.1 0 0 0c-.1.1-.1.1-.1.2h.1v-.2c.1.1.1 0 0 0zM32.8 14.5c.1 0 .1 0 0 0zM34 15.4v.1h.1l-.1-.1c.1 0 .1-.1 0 0 .1 0 0 0 0 0zM33 14.7s0 .1 0 0h.1v-.1c0 .1 0 .1-.1.1zM35.1 16.1c0-.1 0-.1 0 0 0-.1 0-.1 0 0L35 16h-.1v.1h.2zM35.1 17.4c-.1 0-.1 0 0 0zM35.2 16.1h-.1l.1.1v-.1h.1-.1V16zM33.4 14.8s.1 0 0 0c.1-.1 0-.2 0-.2h-.1v.1c0 .1 0 .1.1.1z"/><path class="st7" d="M34.3 15.5v.2h.1l.1-.1-.1-.1h-.1zM33.2 13.2zM35.5 15.4c0-.1 0-.1 0 0-.1-.1-.1-.1-.2-.1v.2l.2-.1zM34 13.3zM35.5 14.4c.2.1.1.1 0 0zM34.7 14v-.1c-.1.1-.1.1 0 .1-.1 0-.1 0 0 0zM34.6 13.9c0-.1 0-.1 0 0-.1-.1-.1-.1 0 0-.1 0 0 0 0 0zM35.3 14.1V14v.1zM34.3 14.2c.1-.1.1-.1 0-.2 0 0-.1 0-.1.1-.1.1-.1.1.1.1-.1.1-.1.1 0 0zM33.7 13.8zM31.5 16zM36 14.5s0 .1 0 0c.1.1.1 0 0 0 .1 0 .1 0 0 0zM33.9 13.8v-.1h-.1c-.1 0 0 0 0 0 .1 0 .1 0 .1.1zM36.8 13.6c0 .1 0 0 0 0zM35 11.8zM34.2 14l.1-.1h-.1v.1zM35.6 14.1c0-.1-.1-.1 0 0-.1 0-.1 0 0 0s.1 0 0 0zM35.3 13.9h.1-.1l.1-.1v.1h-.1zM35.1 15c0 .1.1.2.1.2V15c0-.1 0-.1-.1 0zM34.4 14.2c-.1.1-.1.1 0 0-.1.1-.1.2 0 .2.1-.1.1-.1 0-.2.1 0 .1 0 0 0zM35.9 15c-.1.1-.1.1 0 0 0 .1 0 .1 0 0 .1 0 .1 0 0 0zM35.8 15.4c-.1 0-.1 0 0 0l-.1.1h.1v-.1zM35.4 15.8c0 .1 0 .1 0 0 0 .1.1.1 0 0 .1 0 .1 0 0 0zM34.1 14.7s-.1 0 0 0c-.1 0-.1.1-.1.1h.1v-.1c.1 0 .1 0 0 0zM36.4 12.7c.1 0 .1 0 0 0 0 0 0-.1 0 0 0-.1 0 0 0 0zM36.4 14.7c.1 0 .1 0 0 0 .1-.1 0 0 0 0zM35.6 14.8s0-.1 0 0c-.1-.1-.1-.1 0 0zM36.8 15.6c0 .1 0 .1 0 0zM35.3 13.5c-.1 0-.1 0 0 0zM35.1 14.4c-.1-.1-.1-.1 0 0l-.1-.1v.1h.1c-.1 0 0 0 0 0zM34.4 12.2z"/><path class="st7" d="M35.3 15.4c0 .1 0 .1 0 0 .1.1.1.1 0 0 .1.1.1.1 0 0 .1 0 0 0 0 0zM33.4 12.5c0-.1 0-.1 0 0zM34.4 14.9c-.1 0-.1.1 0 .2h.1l-.1-.2c.1.1.1.1 0 0zM33.4 14c.1-.1.1-.1 0 0l-.1-.1c0 .1.1.1.1.1zM37.6 14.8c0-.1 0-.1 0 0-.1 0 0 0 0 0zM32.4 16.6zM35.8 16.2s.1 0 0 0c.1 0 0 0 0 0zM34.7 15.1h.1V15h-.1v.1z"/></g></g><g><path class="st2" d="M40.1 19.1c1.1-.9 1.9-2 2.4-3.3-.2-.1-.5-.1-.7-.2 0 2 0 3.9.1 5.9 0 .2.7.3.7.1-.1-2-.1-3.9-.1-5.9 0-.2-.6-.3-.7-.2-.5 1.2-1.3 2.4-2.4 3.2-.2.4.5.6.7.4z"/></g><g><path class="st2" d="M39.2 22.1h5.1c.2 0 .4 0 .5-.2.1-.1.1-.2-.1-.2h-5.3c-.2 0-.6.4-.2.4z"/></g><g><path class="st3" d="M42.8 10c0-1.2 0-2.4.1-3.6 0-.2-.4-.4-.4-.2 0 1.2 0 2.4-.1 3.6 0 .1.4.4.4.2zM45.6 10.2c.3-.7.5-1.3.8-2 .1-.2-.4-.1-.5 0-.3.7-.5 1.3-.8 2-.1.2.4.1.5 0zM47.1 11.4c.6-.5 1.1-1 1.6-1.6.1-.1-.4-.2-.5 0-.4.6-.9 1.1-1.5 1.6-.1.1 0 .1.1.2 0-.2.2-.2.3-.2zM40.3 10.3c-.4-.8-.8-1.7-1.1-2.5-.1-.2-.5-.1-.5.1.4.8.8 1.7 1.1 2.5.1.1.6.1.5-.1z"/></g></svg>