<svg xmlns="http://www.w3.org/2000/svg" xmlns:xlink="http://www.w3.org/1999/xlink" width="110" height="100" viewBox="0 0 110 100"><defs><style>.a{clip-path:url(#b);}.b{fill:#f9f9f9;}.c{fill:#e3e3e3;}.d{fill:#efefef;}.e{fill:#fff;}.f{fill:#6a79a8;}.g{fill:#9fcded;}.h{fill:#bbdff5;}</style><clipPath id="b"><rect width="110" height="100"/></clipPath></defs><g id="a" class="a"><rect class="e" width="110" height="100"/><g transform="translate(-96.296 -145.666)"><g transform="translate(100 150)"><path class="b" d="M126.458,240.768c-2.173-.47-28.278-4.7-26.357-35.926s4.334-40.613,14.483-44.048,34.821-19.691,54.181-4.234,40.251,29.319,31.961,54-9.648,32.912-31.277,31.652S136.79,243,126.458,240.768Z" transform="translate(-100 -150)"/></g><g transform="translate(123.232 167.842)"><g transform="translate(0 0)"><path class="c" d="M318.773,955.92c-.876-.23-1.2-.5-.788-.82,2.877-2.214,15.962-2.135,22.309-2.127,7.983.01,16.289-.041,23.487.5,3.012.228,9.832.442,11.012,1.193,3.094,1.972-18.651,2.5-22.171,2.519C346.753,957.23,323.779,957.236,318.773,955.92Z" transform="translate(-317.807 -888.143)"/><g transform="translate(3.105 27.357)"><rect class="d" width="50.363" height="34.416" transform="translate(0.282 4.965)"/><path class="e" d="M351.786,626.043l46.771.013a2.34,2.34,0,0,1,2.339,2.34l0,28.471a2.439,2.439,0,0,1-2.439,2.438l-46.672-.013Z" transform="translate(-351.503 -621.129)"/><g transform="translate(0 4.771)"><path class="f" d="M349.184,624.965h5l12.054,0,14.536,0,12.6,0h5.418a2.346,2.346,0,0,0,.671,0,.293.293,0,0,1,.084,0l-.157-.143q0,1.717,0,3.434,0,4.1,0,8.2,0,4.981,0,9.961,0,4.286,0,8.573v3.725a1.662,1.662,0,0,0,0,.467.209.209,0,0,1,0,.059l.329-.186h-5l-12.054,0-14.536,0-12.6,0H350.1a2.348,2.348,0,0,0-.671,0,.288.288,0,0,1-.084,0l.157.143q0-1.717,0-3.434,0-4.1,0-8.2l0-9.961,0-8.573V626.2a7.178,7.178,0,0,0,0-1.361.316.316,0,0,1,0-.059c0-.238-.485-.157-.485.043v3.434q0,4.1,0,8.2,0,4.981,0,9.961,0,4.287,0,8.573,0,1.416,0,2.832a7.75,7.75,0,0,0,0,1.361.343.343,0,0,1,0,.059.148.148,0,0,0,.157.143h5l12.054,0,14.536,0,12.6,0c2.027,0,4.063.057,6.09,0h.084c.1,0,.329-.043.329-.186q0-1.717,0-3.434,0-4.1,0-8.2,0-4.981,0-9.961l0-8.573q0-1.416,0-2.832a7.753,7.753,0,0,0,0-1.361.332.332,0,0,1,0-.059.148.148,0,0,0-.157-.143h-5l-12.054,0-14.536,0-12.6,0c-2.027,0-4.063-.057-6.09,0h-.084C349.14,624.637,348.861,624.965,349.184,624.965Z" transform="translate(-348.986 -624.612)"/></g><path class="c" d="M351.848,583.688l50.363.01-3.64-4.736L355,578.952Z" transform="translate(-351.563 -578.728)"/><path class="g" d="M559.154,699.63l8.495.058v27.15l-8.495-.058Z" transform="translate(-538.224 -687.388)"/><path class="h" d="M567.138,671.814c-.536-.682-.808-.453-1.289.1-.142.165-.346.345-.553.27a.542.542,0,0,1-.245-.245l-1.092-1.718q-.6,1.075-1.183,2.164l-1.179-2.631-1.249,2.221c-.234.416-.6.895-1.073.814l-.032,25.944,8.494.058.035-28.915A4.771,4.771,0,0,1,567.138,671.814Z" transform="translate(-538.303 -660.491)"/><g transform="translate(20.695 9.085)"><path class="f" d="M565.151,670.059c-.385-.459-.835-.668-1.341-.248-.117.1-.2.236-.32.328a.215.215,0,0,1-.2.1q-.166.129-.221-.053a1.363,1.363,0,0,1-.2-.312l-.894-1.406c-.1-.159-.377-.053-.45.077q-.6,1.076-1.183,2.164l.471-.034-1.179-2.631c-.087-.195-.382-.123-.471.034l-.865,1.537c-.216.384-.587,1.386-1.145,1.348-.109-.007-.326.048-.326.2l-.011,9.21q-.008,7.282-.017,14.565,0,1.682,0,3.364c0,.126.116.163.224.164l8.495.058c.1,0,.264-.084.264-.2l.012-10.161.019-16.21q0-1.87,0-3.739c0-.259-.458-.184-.488.034a5.03,5.03,0,0,1-.621,1.887c-.137.235.352.248.461.06a5.3,5.3,0,0,0,.648-1.981l-.488.034-.012,10.161-.019,16.21,0,3.739.264-.2-8.495-.058.224.164q.005-4.605.011-9.21.008-7.282.017-14.565,0-1.682,0-3.364l-.326.2a1.409,1.409,0,0,0,1.291-.8c.487-.766.9-1.589,1.345-2.38l-.471.035,1.178,2.631c.086.192.386.126.471-.035q.58-1.088,1.183-2.164l-.45.077.794,1.25c.167.262.33.675.653.779a.744.744,0,0,0,.679-.185,3.707,3.707,0,0,0,.333-.348c.28-.295.478-.193.719.094C564.856,670.445,565.312,670.25,565.151,670.059Z" transform="translate(-556.792 -667.928)"/></g><g transform="translate(0.047)"><path class="f" d="M349.671,581.843h5l12.054,0,14.536,0,12.6,0h4.133c.645,0,1.313.051,1.957,0,.027,0,.056,0,.084,0,.12,0,.35-.144.24-.286l-1.578-2.053c-.657-.854-1.278-1.76-1.981-2.577-.162-.188-.3-.178-.528-.178h-1.15l-11.289,0-16.011,0-12.5,0a19.431,19.431,0,0,0-2.417,0c-.421.054-.66.705-.866,1.025l-2.035,3.153-.428.663c-.166.258.281.337.4.147L352.949,577l-.222.106h4.346l10.435,0,12.573,0,10.954,0h4.7a2.837,2.837,0,0,0,.587,0,.369.369,0,0,1,.076,0l-.2-.073,3.64,4.736.24-.286h-5l-12.054,0-14.536,0-12.6,0h-4.133c-.645,0-1.313-.051-1.957,0-.028,0-.056,0-.084,0C349.435,581.484,349.345,581.843,349.671,581.843Z" transform="translate(-349.453 -576.704)"/></g><g transform="translate(4.466 26.253)"><rect class="d" width="10.876" height="7.805"/><g transform="translate(1.26 0.747)"><g transform="translate(0 4.326)"><path class="f" d="M406.628,891.583h10.615c.211,0,.5-.319.175-.319H406.8c-.211,0-.5.319-.175.319Z" transform="translate(-406.482 -891.264)"/></g><g transform="translate(0.004 2.387)"><path class="f" d="M406.73,872.157h10.615c.278,0,.366-.362.04-.362H406.771c-.278,0-.366.362-.04.362Z" transform="translate(-406.521 -871.795)"/></g><g transform="translate(0.006)"><path class="f" d="M406.747,848.162h10.615c.267,0,.375-.333.048-.333H406.795c-.268,0-.375.333-.048.333Z" transform="translate(-406.544 -847.829)"/></g><g transform="translate(0.001 6.166)"><path class="f" d="M406.634,910.05h2.357c.2,0,.5-.3.179-.3h-2.357c-.2,0-.5.3-.179.3Z" transform="translate(-406.492 -909.747)"/><g transform="translate(4.131 0.01)"><path class="f" d="M448.11,910.132h2.357c.187,0,.508-.283.184-.283h-2.357c-.187,0-.508.283-.184.283Z" transform="translate(-447.971 -909.849)"/></g></g></g></g><g transform="translate(3.246 0.104)"><path class="f" d="M381.585,577.936v4.089c0,.125.481.042.481-.129v-4.089c0-.125-.481-.042-.481.129Z" transform="translate(-381.585 -577.747)"/></g><g transform="translate(46.666 0.268)"><path class="f" d="M817.585,579.59v3.817c0,.128.481.044.481-.129v-3.818c0-.128-.481-.044-.481.129Z" transform="translate(-817.585 -579.4)"/></g></g><g transform="translate(1.824)"><g transform="translate(0.006 7.305)"><path class="c" d="M338.589,376.962l52.681-.011-3.808,4.954-45.574.011Z" transform="translate(-338.349 -376.791)"/><path class="f" d="M336.328,375.656h5.239l12.582,0,15.221,0,13.158,0h5.679a2.574,2.574,0,0,0,.713,0,.319.319,0,0,1,.089,0l-.13-.141-3.808,4.954.318-.131h-5.706l-13.07,0-14.672,0-10.375,0a16.674,16.674,0,0,1-1.744,0c.133.014.107.086.093,0s-.152-.228-.2-.3l-.8-1.2L337.024,376l-.379-.569c-.088-.133-.555.025-.447.188l1.54,2.312,1.137,1.708a4.267,4.267,0,0,0,.6.906c.133.108.341.071.511.07H341.3l12.136,0,16.752,0,12.785,0c.729,0,1.5.067,2.223,0a.533.533,0,0,0,.424-.256c.289-.368.571-.742.856-1.113l2.38-3.1.476-.619c.07-.091-.06-.141-.13-.141h-5.239l-12.582,0-15.221,0-13.158,0c-2.126,0-4.267-.074-6.392,0-.03,0-.059,0-.089,0C336.335,375.384,336,375.656,336.328,375.656Z" transform="translate(-336.182 -375.35)"/></g><path class="d" d="M338.558,305.989l52.674-.1v7.1H338.558Z" transform="translate(-338.315 -305.502)"/><path class="e" d="M338.558,305.89h51.475v1.816a4.168,4.168,0,0,1-4.015,4.306h-47.46Z" transform="translate(-338.316 -305.502)"/><g transform="translate(0 0.152)"><path class="f" d="M366.8,311.016h22.156c.092,0,.33-.043.33-.182,0-2.384-.023-4.768.014-7.151a.142.142,0,0,0-.155-.135H342.937c-2.128,0-4.265-.059-6.393,0h-.089c-.092,0-.33.043-.33.182q0,3.575,0,7.151a.142.142,0,0,0,.155.135h21.854c.209,0,.5-.317.175-.317H336.455l.155.135q0-3.575,0-7.151l-.33.182h51.885a2.736,2.736,0,0,0,.713,0,.338.338,0,0,1,.089,0l-.155-.135c-.037,2.383-.014,4.768-.014,7.151l.33-.182H366.973c-.209,0-.5.317-.175.317Z" transform="translate(-336.125 -303.522)"/></g><g transform="translate(22.086)"><path class="h" d="M560.358,303.086l8.381,0s0,5.82,0,6.2q0,2.351,0,4.7c0,1.5.127,3.115-.684,4.469-.524-.682-.789-.453-1.259.1-.139.165-.338.345-.54.27a.537.537,0,0,1-.24-.245l-1.067-1.718q-.59,1.075-1.156,2.164l-1.151-2.631-1.22,2.221c-.231.421-.6.908-1.066.812,0-1.006,0-2.012,0-3.018Q560.361,309.747,560.358,303.086Z" transform="translate(-560.113 -302.974)"/><path class="f" d="M558.046,302.216l8.381,0-.139-.043c.023,3.371,0,6.744,0,10.115,0,1.745.218,3.65-.681,5.227l.464-.124a.854.854,0,0,0-1.315-.2c-.149.117-.247.285-.389.4-.252.212-.322-.055-.465-.285l-.921-1.484c-.079-.127-.422,0-.479.1q-.59,1.076-1.156,2.164l.479-.1-1.151-2.631c-.06-.137-.428.012-.479.1-.406.739-.793,1.494-1.22,2.221a1.35,1.35,0,0,1-.285.427l-.092.1q-.305.1-.211-.2a5.314,5.314,0,0,1,0-1.132q.006-2.445,0-4.889,0-4.971,0-9.943c0-.1-.481-.023-.481.129,0,5.447-.012,10.894,0,16.341,0,.031.072.041.087.043a1.383,1.383,0,0,0,1.3-.7c.524-.775.927-1.66,1.378-2.48l-.478.1,1.151,2.631c.059.136.43-.01.479-.1q.566-1.088,1.156-2.164l-.479.1.873,1.406c.163.263.293.6.641.617a.941.941,0,0,0,.584-.2c.161-.122.256-.311.412-.434.28-.22.422,0,.61.224.085.1.412-.033.464-.124a8.183,8.183,0,0,0,.688-4.252c-.011-1.659,0-3.319,0-4.978q0-2.245,0-4.489c0-.558,0-1.116,0-1.674,0-.049-.115-.043-.139-.043l-8.381,0C558.1,302,557.727,302.216,558.046,302.216Z" transform="translate(-557.903 -301.996)"/></g><g transform="translate(3.282 7.929)"><path class="f" d="M369.085,381.783v4.371c0,.091.481.019.481-.129v-4.371c0-.091-.481-.019-.481.129Z" transform="translate(-369.085 -381.614)"/></g><g transform="translate(48.744 7.929)"><path class="f" d="M825.585,381.783v4.172c0,.091.481.019.481-.129v-4.172c0-.091-.481-.019-.481.129Z" transform="translate(-825.585 -381.614)"/></g></g></g></g></g></g></svg>