<svg xmlns="http://www.w3.org/2000/svg" xmlns:xlink="http://www.w3.org/1999/xlink" width="110" height="100" viewBox="0 0 110 100"><defs><style>.a{clip-path:url(#b);}.b{fill:#f9f9f9;}.c{fill:#6a79a8;}.d{fill:#f9ab98;}.e,.f{fill:#fff;}.f{opacity:0.2;}</style><clipPath id="b"><rect width="110" height="100"/></clipPath></defs><g id="a" class="a"><rect class="e" width="110" height="100"/><g transform="translate(-94.908 -146.243)"><g transform="translate(100 150)"><path class="b" d="M125.74,238.3c-2.114-.457-27.511-4.576-25.641-34.951s4.216-39.51,14.09-42.852,33.876-19.156,52.71-4.119,39.158,28.523,31.093,52.532-9.386,32.018-30.428,30.793S135.791,240.477,125.74,238.3Z" transform="translate(-100 -150)"/></g><g transform="translate(107.562 158.56)"><g transform="translate(22.047 5.221)"><path class="c" d="M397.114,307.51l6.5-6.5,10.146-10.146c.7-.7,1.387-1.436,2.114-2.114,1.369-1.276,2.6.335,3.511,1.247l9.567,9.567c2.567,2.567,5.072,5.218,7.711,7.711.045.042.087.087.131.131.089.089.531-.088.454-.166l-6.772-6.772-10.166-10.166-1.28-1.28a2.888,2.888,0,0,0-1.186-.848c-1.523-.468-2.5.7-3.439,1.641l-9.644,9.644c-2.648,2.648-5.317,5.275-7.944,7.944l-.137.137c-.1.1.352.051.437-.034Z" transform="translate(-396.662 -288.071)"/></g><g transform="translate(0 0)"><circle class="d" cx="29.94" cy="29.94" r="29.94" transform="translate(0 42.342) rotate(-45)"/><circle class="e" cx="25.334" cy="25.334" r="25.334" transform="translate(17.008 17.008)"/><circle class="d" cx="18.425" cy="18.425" r="18.425" transform="translate(16.285 42.342) rotate(-45)"/><circle class="e" cx="13.819" cy="13.819" r="13.819" transform="translate(22.799 42.342) rotate(-45)"/><circle class="d" cx="6.909" cy="6.909" r="6.909" transform="translate(32.571 42.342) rotate(-45)"/><g transform="translate(12.158 12.259)"><path class="c" d="M353.086,372.239a29.848,29.848,0,1,0,2.166,3.937c-.081-.178-.555-.031-.482.129a29.827,29.827,0,0,1-6.535,33.983,29.564,29.564,0,0,1-32.462,5.616,29.831,29.831,0,0,1-.177-54.444,29.665,29.665,0,0,1,34.294,7.382,30.406,30.406,0,0,1,2.751,3.592c.1.146.562-.017.446-.195Z" transform="translate(-297.581 -358.587)"/></g></g><g transform="translate(41.533 15.364)"><path class="c" d="M592.919,488.464a1.02,1.02,0,0,1-.492-1.914l32.838-18.035a1.02,1.02,0,0,1,.982,1.788l-32.838,18.035A1.015,1.015,0,0,1,592.919,488.464Z" transform="translate(-591.898 -460.535)"/><g transform="translate(0.022 7.875)"><path class="c" d="M593.116,488.64a1,1,0,0,1-.481-1.873l32.838-18.035a1,1,0,0,1,.961,1.75L593.6,488.517A.993.993,0,0,1,593.116,488.64Z" transform="translate(-592.117 -468.609)"/></g><path class="f" d="M592.024,487.935a1.02,1.02,0,0,1,.4-1.385l32.838-18.035a1.02,1.02,0,0,1,1.385.4Z" transform="translate(-591.898 -460.535)"/><g transform="translate(26.669)"><path class="c" d="M876,399.508s-14.577,6.574-16.666,2.9c-2.068-3.639,10.907-12.7,10.907-12.7l-.491,7.113Z" transform="translate(-859.109 -389.703)"/><path class="f" d="M859.333,402.4c-2.068-3.639,10.907-12.7,10.907-12.7l-.491,7.113Z" transform="translate(-859.109 -389.703)"/></g></g><circle class="c" cx="1.457" cy="1.457" r="1.457" transform="translate(40.728 4.553)"/></g></g></g></svg>