<?xml version="1.0" encoding="utf-8"?>
<!-- Generator: Adobe Illustrator 23.0.0, SVG Export Plug-In . SVG Version: 6.00 Build 0)  -->
<svg version="1.1" id="Layer_1" xmlns="http://www.w3.org/2000/svg" xmlns:xlink="http://www.w3.org/1999/xlink" x="0px" y="0px"
	 viewBox="0 0 400 400" style="enable-background:new 0 0 400 400;" xml:space="preserve">
<style type="text/css">
	.st0{fill:#BECCDD;}
	.st1{fill:#3973BC;}
	.st2{fill:#3162A1;}
	.st3{fill:#6B9FE0;}
	.st4{fill:#4183D7;}
	.st5{fill:#EB712E;}
	.st6{fill:#FFAA6A;}
	.st7{fill:#F8CC8A;}
	.st8{fill:#FF712E;}
	.st9{fill:#F4B350;}
	.st10{fill:#CD4B1A;}
	.st11{fill:none;stroke:#BECCDD;stroke-linecap:round;stroke-miterlimit:10;}
	.st12{fill:#BFBFBF;}
	.st13{opacity:0.15;fill:#F22613;enable-background:new    ;}
	.st14{fill:#F22613;}
	.st15{fill:#FFFFFF;}
	.st16{fill:#1D8ECC;}
	.st17{fill:#1979AD;}
	.st18{fill:#26C281;}
	.st19{fill:#049372;}
	.st20{fill:none;stroke:#049372;stroke-width:3;stroke-linecap:round;stroke-linejoin:round;stroke-dasharray:26,12,0,12,163,0;}
	.st21{fill:#037B5F;}
	.st22{fill:none;stroke:#037D61;stroke-width:3;stroke-linecap:round;stroke-linejoin:round;stroke-dasharray:26,12,0,12,163,0;}
	.st23{fill:#212F3C;}
	.st24{fill:#22A7F0;}
	.st25{fill:#ECEEF0;}
	.st26{fill:none;stroke:#BDC3C7;stroke-width:3;}
	.st27{fill:#5B6C7D;}
	.st28{fill:none;stroke:#1D8ECC;stroke-width:3;}
	.st29{fill:#036951;}
	.st30{fill:#20A56E;}
	.st31{fill:#037D61;}
</style>
<g id="Group_62" transform="translate(8.426 -29.594)">
	<g id="Group_58" transform="translate(8.866 29.594)">
		<g id="Group_57" transform="translate(12.467)">
			<ellipse id="Ellipse_252" class="st12" cx="147" cy="329.9" rx="130.7" ry="19.6"/>
			<path id="Path_322" class="st10" d="M207.3,104.7c8.5-20.5-0.5-44-20.5-53.6c25.4-3.8,49,13.8,52.7,39.1
				c2.2,14.6-2.7,29.3-13.1,39.7c-29.1,29.1-79.3,13.6-79.3,13.6l-0.1-0.2C153.5,142.4,194.3,136.2,207.3,104.7z"/>
			<path id="Path_323" class="st5" d="M160.7,64.1c18.1-18.2,47.5-18.2,65.7-0.1c13.6,13.6,17.5,34.2,9.6,51.8
				c-7.8-7.8-18.4-12.2-29.5-12.2c-32.6,0-53.6,32.3-58.2,40.1c-0.7-0.2-1.2-0.3-1.2-0.3S131.6,93.2,160.7,64.1z"/>
			<path id="Path_324" class="st10" d="M155.1,70.7c-21.4,29.5-8.1,72.7-8.1,72.7s0.5,0.1,1.2,0.3c4.4-7.3,9.7-14.1,15.7-20.2
				C165.2,108.5,164.2,88.8,155.1,70.7z"/>
			<path id="Path_325" class="st10" d="M82.7,104.7c-8.5-20.5,0.5-44,20.5-53.6c-25.4-3.8-49,13.8-52.7,39.1
				c-2.2,14.6,2.7,29.3,13.1,39.7C92.7,159,143,143.5,143,143.5l0.1-0.2C136.6,142.4,95.7,136.2,82.7,104.7z"/>
			<path id="Path_326" class="st5" d="M168.2,145.1c0,12.8-10.4,23.2-23.2,23.2s-23.2-10.4-23.2-23.2c0-12.8,10.4-23.2,23.2-23.2
				l0,0C157.8,121.9,168.2,132.3,168.2,145.1z"/>
			<rect id="Rectangle_157" x="52.1" y="144" class="st3" width="185.9" height="185.9"/>
			<path id="Path_327" class="st3" d="M236.5,144.9h-183c-7.2,0-13.1,5.9-13.1,13.1l0,0v56.6h209.1V158
				C249.6,150.8,243.7,144.9,236.5,144.9z"/>
			<rect id="Rectangle_158" x="52.1" y="214.4" class="st4" width="185.9" height="11.6"/>
			<rect id="Rectangle_159" x="121.8" y="144" class="st6" width="46.5" height="185.9"/>
			<path id="Path_328" class="st5" d="M129.3,64.1C111.2,46,81.8,46,63.7,64.1C50,77.7,46.2,98.3,54.1,115.9
				c7.8-7.8,18.4-12.2,29.5-12.2c32.6,0,53.6,32.3,58.2,40.1c0.7-0.2,1.2-0.3,1.2-0.3S158.4,93.2,129.3,64.1z"/>
		</g>
		<path id="Path_329" class="st0" d="M2.4,168.9c-1.3,0-2.3-1-2.3-2.3c0-1.2,0.9-2.2,2.1-2.3l27.1-2c1.3-0.1,2.4,0.9,2.5,2.1
			c0.1,1.3-0.9,2.4-2.1,2.5l0,0l-27.1,2L2.4,168.9z"/>
		<path id="Path_330" class="st0" d="M25.8,136.9c-0.3,0-0.7-0.1-1-0.2L-1,124.2c-1.1-0.6-1.6-1.9-1.1-3.1c0.6-1.1,1.9-1.6,3.1-1.1
			l25.8,12.5c1.1,0.5,1.6,1.9,1.1,3.1C27.5,136.4,26.7,136.9,25.8,136.9L25.8,136.9z"/>
		<path id="Path_331" class="st0" d="M42.7,115.9c-0.8,0-1.5-0.4-1.9-1l-14.3-21c-0.7-1-0.4-2.5,0.6-3.2c1-0.7,2.5-0.4,3.2,0.6l0,0
			l14.3,21c0.7,1,0.4,2.5-0.6,3.2C43.6,115.7,43.2,115.9,42.7,115.9L42.7,115.9z"/>
	</g>
	<g id="Group_61" transform="translate(97.182 31.285)">
		<path id="Path_332" class="st13" d="M275.7,135.5l-10.6,11.1c-1.6,1.7-2.4,4.1-2.1,6.4l2.1,15.2c0.6,4.1-2.2,7.9-6.3,8.7
			l-15.1,2.7c-2.3,0.4-4.3,1.9-5.5,4L231,197c-2,3.7-6.5,5.1-10.2,3.3l-13.8-6.7c-2.1-1-4.6-1-6.7,0l-13.8,6.7
			c-3.7,1.8-8.2,0.3-10.2-3.3l-7.2-13.5c-1.1-2.1-3.1-3.5-5.5-4l-15.1-2.7c-4.1-0.7-6.9-4.6-6.3-8.7l2.1-15.2
			c0.3-2.3-0.4-4.7-2.1-6.4l-10.6-11.1c-2.9-3-2.9-7.7,0-10.7l10.6-11.1c1.6-1.7,2.4-4.1,2.1-6.4l-2.1-15.2
			c-0.6-4.1,2.2-7.9,6.3-8.7l15.1-2.7c2.3-0.4,4.3-1.9,5.5-4l7.2-13.5c2-3.7,6.5-5.1,10.2-3.3l13.8,6.7c2.1,1,4.6,1,6.7,0l13.8-6.7
			c3.7-1.8,8.2-0.3,10.2,3.3l7.2,13.5c1.1,2.1,3.1,3.5,5.5,4l15.1,2.7c4.1,0.7,6.9,4.6,6.3,8.7l-2.1,15.2c-0.3,2.3,0.4,4.7,2.1,6.4
			l10.6,11.1C278.6,127.8,278.6,132.5,275.7,135.5z"/>
		<path id="Path_333" class="st14" d="M277.2,129.4l-10.6,11.1c-1.6,1.7-2.4,4.1-2.1,6.4l2.1,15.2c0.6,4.1-2.2,7.9-6.3,8.7
			l-15.1,2.7c-2.3,0.4-4.3,1.9-5.5,4l-7.2,13.5c-2,3.7-6.5,5.1-10.2,3.3l-13.8-6.7c-2.1-1-4.6-1-6.7,0l-13.8,6.7
			c-3.7,1.8-8.2,0.3-10.2-3.3l-7.2-13.5c-1.1-2.1-3.1-3.5-5.5-4l-15.1-2.7c-4.1-0.7-6.9-4.6-6.3-8.7l2.1-15.2
			c0.3-2.3-0.4-4.7-2.1-6.4l-10.6-11.1c-2.9-3-2.9-7.7,0-10.7l10.6-11.1c1.6-1.7,2.4-4.1,2.1-6.4L143.7,86c-0.6-4.1,2.2-7.9,6.3-8.7
			l15.1-2.7c2.3-0.4,4.3-1.9,5.5-4l7.2-13.5c2-3.7,6.5-5.1,10.2-3.3l13.8,6.7c2.1,1,4.6,1,6.7,0l13.8-6.7c3.7-1.8,8.2-0.3,10.2,3.3
			l7.2,13.5c1.1,2.1,3.1,3.5,5.5,4l15.1,2.7c4.1,0.7,6.9,4.6,6.3,8.7l-2.1,15.2c-0.3,2.3,0.4,4.7,2.1,6.4l10.6,11.1
			C280.1,121.7,280.1,126.4,277.2,129.4z"/>
		<g id="Group_60" transform="translate(16.299 16.588)">
			<g id="Group_59">
				<path id="Path_334" class="st15" d="M167.3,105.5c-7.5,0-13.5-6.1-13.5-13.5c0-7.5,6.1-13.5,13.5-13.5c7.5,0,13.5,6.1,13.5,13.5
					C180.8,99.4,174.8,105.5,167.3,105.5z M167.3,86.2c-3.2,0-5.8,2.6-5.8,5.8c0,3.2,2.6,5.8,5.8,5.8c3.2,0,5.8-2.6,5.8-5.8
					C173.1,88.8,170.5,86.2,167.3,86.2L167.3,86.2z"/>
				<path id="Path_335" class="st15" d="M210.5,136.8c-7.5,0-13.5-6.1-13.5-13.5c0-7.5,6.1-13.5,13.5-13.5c7.5,0,13.5,6.1,13.5,13.5
					c0,0,0,0,0,0C224,130.8,218,136.8,210.5,136.8z M210.5,117.5c-3.2,0-5.8,2.6-5.8,5.8c0,3.2,2.6,5.8,5.8,5.8
					c3.2,0,5.8-2.6,5.8-5.8C216.3,120.1,213.7,117.5,210.5,117.5z"/>
				<path id="Path_336" class="st15" d="M171.7,137.1c-2.1,0-3.9-1.7-3.9-3.9c0-0.8,0.2-1.5,0.6-2.1l34-51.6c1.2-1.8,3.6-2.2,5.4-1
					c1.7,1.2,2.2,3.5,1.1,5.3l-34,51.6C174.2,136.4,173,137.1,171.7,137.1z"/>
			</g>
		</g>
	</g>
</g>
</svg>
