<?xml version="1.0" encoding="utf-8"?>
<!-- Generator: Adobe Illustrator 23.0.0, SVG Export Plug-In . SVG Version: 6.00 Build 0)  -->
<svg version="1.1" id="Layer_1" xmlns="http://www.w3.org/2000/svg" xmlns:xlink="http://www.w3.org/1999/xlink" x="0px" y="0px"
	 viewBox="0 0 400 400" style="enable-background:new 0 0 400 400;" xml:space="preserve">
<style type="text/css">
	.st0{fill:#BECCDD;}
	.st1{fill:#3973BC;}
	.st2{fill:#3162A1;}
	.st3{fill:#6B9FE0;}
	.st4{fill:#4183D7;}
	.st5{fill:#EB712E;}
	.st6{fill:#FFAA6A;}
	.st7{fill:#F8CC8A;}
	.st8{fill:#FF712E;}
	.st9{fill:#F4B350;}
	.st10{fill:#CD4B1A;}
	.st11{fill:none;stroke:#BECCDD;stroke-linecap:round;stroke-miterlimit:10;}
	.st12{fill:#BFBFBF;}
	.st13{opacity:0.15;fill:#F22613;enable-background:new    ;}
	.st14{fill:#F22613;}
	.st15{fill:#FFFFFF;}
	.st16{fill:#1D8ECC;}
	.st17{fill:#1979AD;}
	.st18{fill:#26C281;}
	.st19{fill:#049372;}
	.st20{fill:none;stroke:#049372;stroke-width:3;stroke-linecap:round;stroke-linejoin:round;stroke-dasharray:26,12,0,12,163,0;}
	.st21{fill:#037B5F;}
	.st22{fill:none;stroke:#037D61;stroke-width:3;stroke-linecap:round;stroke-linejoin:round;stroke-dasharray:26,12,0,12,163,0;}
	.st23{fill:#212F3C;}
	.st24{fill:#22A7F0;}
	.st25{fill:#ECEEF0;}
	.st26{fill:none;stroke:#BDC3C7;stroke-width:3;}
	.st27{fill:#5B6C7D;}
	.st28{fill:none;stroke:#1D8ECC;stroke-width:3;}
	.st29{fill:#036951;}
	.st30{fill:#20A56E;}
	.st31{fill:#037D61;}
</style>
<g id="Group_56" transform="translate(-2.5 -44.7)">
	<rect id="Rectangle_154" x="110.5" y="140" class="st16" width="24.3" height="24.3"/>
	<rect id="Rectangle_155" x="110.5" y="140" class="st17" width="24.3" height="4.1"/>
	<path id="Path_272" class="st18" d="M326.3,209.8l-48.5-84c-1.1-1.8-3.4-2.4-5.3-1.4l-168.1,97c-1.8,1.1-2.4,3.4-1.4,5.3l48.5,84
		c1.1,1.8,3.4,2.4,5.3,1.4l167.9-97c1.9-1,2.6-3.3,1.6-5.2C326.4,209.9,326.3,209.9,326.3,209.8z"/>
	<g id="Group_20" transform="translate(113.317 65.763)">
		<path id="Path_273" class="st19" d="M157.4,152.8c-1.8,1.1-4.2,0.6-5.3-1.2c-1.1-1.8-0.6-4.2,1.2-5.3c0,0,0.1-0.1,0.1-0.1
			c9.6-5.8,12.7-18.3,6.9-27.9c-5.7-9.4-17.7-12.6-27.3-7.3c-1.9,1-4.2,0.4-5.3-1.5c-1-1.8-0.4-4.1,1.3-5.2
			c13.4-7.7,30.6-3.1,38.4,10.3c7.8,13.1,3.5,30.1-9.6,37.9C157.8,152.6,157.6,152.7,157.4,152.8L157.4,152.8z"/>
	</g>
	<g id="Group_21" transform="translate(65.664 91.243)">
		<path id="Path_274" class="st19" d="M121.1,175.5c-13.4,7.8-30.6,3.3-38.4-10s-3.3-30.6,10-38.4c0.1-0.1,0.2-0.1,0.3-0.2
			c1.8-1.1,4.2-0.6,5.3,1.2c1.1,1.8,0.6,4.2-1.2,5.3c0,0-0.1,0.1-0.1,0.1c-9.6,5.8-12.7,18.3-6.9,27.9c5.7,9.4,17.7,12.6,27.3,7.3
			c1.8-1.1,4.2-0.5,5.3,1.4C123.6,172,123,174.4,121.1,175.5z"/>
	</g>
	<g id="Group_24" transform="translate(61.192 91.232)">
		<g id="Group_22">
			<path id="Path_275" class="st19" d="M101.3,133.5l-21,12.1c-1.9,1-4.2,0.4-5.3-1.5c-1-1.8-0.4-4.1,1.3-5.2l21-12.1
				c1.8-1.1,4.2-0.5,5.3,1.4c1.1,1.8,0.6,4.1-1.2,5.2C101.4,133.5,101.3,133.5,101.3,133.5z"/>
		</g>
		<g id="Group_23" transform="translate(12.075 20.85)">
			<path id="Path_276" class="st19" d="M113.5,154.6l-21,12.1c-1.8,1.1-4.2,0.6-5.3-1.2c-1.1-1.8-0.6-4.2,1.2-5.3
				c0,0,0.1-0.1,0.1-0.1l21-12.1c1.9-1,4.2-0.4,5.3,1.5C115.9,151.3,115.3,153.6,113.5,154.6z"/>
		</g>
	</g>
	<g id="Group_27" transform="translate(113.392 61.392)">
		<g id="Group_25">
			<path id="Path_277" class="st19" d="M154.2,103.3l-21,12.1c-1.9,1-4.2,0.4-5.3-1.5c-1-1.8-0.4-4.1,1.3-5.2l21-12.1
				c1.8-1.1,4.2-0.6,5.3,1.2c1.1,1.8,0.6,4.2-1.2,5.3C154.3,103.2,154.2,103.2,154.2,103.3z"/>
		</g>
		<g id="Group_26" transform="translate(12 20.85)">
			<path id="Path_278" class="st19" d="M166.3,124.4l-21,12.1c-1.8,1.1-4.2,0.6-5.3-1.2c-1.1-1.8-0.6-4.2,1.2-5.3
				c0,0,0.1-0.1,0.1-0.1l21-12.1c1.8-1.1,4.2-0.5,5.3,1.4c1.1,1.8,0.6,4.1-1.2,5.2C166.4,124.3,166.4,124.4,166.3,124.4z"/>
		</g>
	</g>
	<path id="Path_279" class="st20" d="M156.3,303.9l161.4-93.2L273,133.4l-161.3,93.2L156.3,303.9z"/>
	<path id="Path_280" class="st15" d="M246,240.6l-8.6,5c-0.2,0.2-0.5,0.2-0.8,0l-33.5-27.9l20.2,35.2c0.1,0.3,0,0.7-0.3,0.9l-8.6,5
		c-0.3,0.1-0.7,0-0.9-0.3l-16.8-29.1l-3.9,2.3c-0.3,0.1-0.7,0-0.9-0.3l-4.4-7.7c-0.1-0.3,0-0.7,0.3-0.9l3.9-2.3l-13.9-24.2
		c-0.1-0.3,0-0.7,0.3-0.9l8.6-5c0.2-0.2,0.5-0.2,0.8,0l33.8,28.1l-20.5-35.5c-0.1-0.3,0-0.7,0.3-0.9l8.6-5c0.3-0.1,0.7,0,0.9,0.3
		l13.9,24.2l3.9-2.3c0.3-0.1,0.7,0,0.9,0.3l4.4,7.7c0.1,0.3,0,0.7-0.3,0.9l-3.9,2.3l16.8,29.1C246.4,240,246.4,240.3,246,240.6z
		 M237.2,244.1l7.7-4.4l-16.8-29.1c-0.1-0.3,0-0.7,0.3-0.9l3.9-2.3l-3.8-6.6l-3.9,2.3c-0.3,0.1-0.7,0-0.9-0.3l-13.9-24.2l-7.6,4.2
		l21.7,38.1c0.2,0.3,0.2,0.6-0.2,0.8c-0.2,0.2-0.5,0.2-0.8,0l-36.2-30.1l-7.7,4.4l13.9,24.2c0.1,0.3,0,0.7-0.3,0.9l-3.9,2.3l3.8,6.6
		l3.9-2.3c0.3-0.1,0.7,0,0.9,0.3l16.8,29.1l7.6-4.2l-21.6-37.6c-0.2-0.3-0.2-0.6,0.2-0.8c0.2-0.2,0.5-0.2,0.8,0L237.2,244.1z"/>
	<path id="Path_281" class="st19" d="M387.3,274.8l-25.1-93.6c-0.5-2-2.6-3.3-4.6-2.7c0,0-0.1,0-0.1,0l-187.4,50.3
		c-2,0.5-3.3,2.6-2.7,4.6c0,0,0,0.1,0,0.1l25.1,93.6c0.5,2,2.6,3.3,4.6,2.7c0,0,0.1,0,0.1,0l187.4-50.3c2-0.4,3.2-2.4,2.8-4.4
		C387.4,275,387.4,274.9,387.3,274.8z"/>
	<g id="Group_28" transform="translate(149.798 89.521)">
		<path id="Path_282" class="st21" d="M181.7,179.7c-2,0.5-4.1-0.7-4.7-2.7c-0.5-2,0.7-4.1,2.7-4.7c10.8-3.2,16.9-14.5,13.8-25.3
			c-3.1-10.4-13.8-16.6-24.3-14c-2,0.5-4.1-0.7-4.7-2.7c-0.5-2,0.7-4.1,2.7-4.7c14.9-4.2,30.3,4.6,34.5,19.4
			c4.2,14.9-4.6,30.3-19.4,34.5C182,179.6,181.8,179.6,181.7,179.7L181.7,179.7z"/>
	</g>
	<g id="Group_29" transform="translate(94.339 102.168)">
		<path id="Path_283" class="st21" d="M143.5,192c-15,4.1-30.5-4.7-34.5-19.7c-4.1-15,4.7-30.5,19.7-34.5c0.1,0,0.2-0.1,0.3-0.1
			c2-0.5,4.1,0.7,4.7,2.7c0.5,2-0.7,4.1-2.7,4.7l0,0c-10.8,3.2-16.9,14.5-13.8,25.3c3.1,10.4,13.8,16.6,24.3,14
			c1.9-0.6,4,0.5,4.6,2.4c0,0.1,0.1,0.2,0.1,0.3C146.8,189.1,145.6,191.3,143.5,192L143.5,192z"/>
	</g>
	<g id="Group_32" transform="translate(91.673 102.234)">
		<g id="Group_30">
			<path id="Path_284" class="st21" d="M133.6,145.1l-23.4,6.3c-2,0.5-4.1-0.7-4.7-2.7c-0.5-2,0.7-4.1,2.7-4.7l23.4-6.3
				c1.9-0.6,4,0.5,4.6,2.4c0,0.1,0.1,0.2,0.1,0.3C136.8,142.4,135.6,144.4,133.6,145.1L133.6,145.1z"/>
		</g>
		<g id="Group_31" transform="translate(6.225 23.25)">
			<path id="Path_285" class="st21" d="M139.9,168.6l-23.4,6.3c-2,0.5-4.1-0.7-4.7-2.7c-0.5-2,0.7-4.1,2.7-4.7l23.4-6.3
				c1.9-0.6,4,0.5,4.6,2.4c0,0.1,0.1,0.2,0.1,0.3C143.1,166,141.9,168,139.9,168.6L139.9,168.6z"/>
		</g>
	</g>
	<g id="Group_35" transform="translate(149.798 86.712)">
		<g id="Group_33">
			<path id="Path_286" class="st21" d="M192.5,129.3l-23.4,6.3c-2,0.5-4.1-0.7-4.7-2.7c-0.5-2,0.7-4.1,2.7-4.7l23.4-6.3
				c1.9-0.6,4,0.5,4.6,2.4c0,0.1,0.1,0.2,0.1,0.3C195.8,126.7,194.6,128.7,192.5,129.3C192.6,129.3,192.6,129.3,192.5,129.3
				L192.5,129.3z"/>
		</g>
		<g id="Group_34" transform="translate(6.225 23.25)">
			<path id="Path_287" class="st21" d="M198.8,152.9l-23.4,6.3c-2,0.5-4.1-0.7-4.7-2.7c-0.5-2,0.7-4.1,2.7-4.7l23.4-6.3
				c2-0.5,4.1,0.7,4.7,2.7C202.1,150.3,200.9,152.3,198.8,152.9L198.8,152.9z"/>
		</g>
	</g>
	<path id="Path_288" class="st22" d="M199,321.6l179.9-48.2l-23.1-86.2l-179.9,48.2L199,321.6z"/>
	<g id="Group_36" transform="translate(171.925 112.74)">
		<path id="Path_289" class="st21" d="M191.1,163.9l6-1.7v-10.1c0-2.2-1.8-3.9-3.9-3.9h-6.5v25.7l10.4-2.7V164l-5.4,1.5h-0.3
			c-0.4,0-0.8-0.3-0.9-0.8l0,0C190.2,164.6,190.5,164,191.1,163.9z"/>
		<path id="Path_290" class="st23" d="M191.1,163.9c-0.5,0.2-0.8,0.7-0.8,1.2l0,0c0.1,0.4,0.5,0.7,0.9,0.8h0.3l5.4-1.5v-2.1
			L191.1,163.9z"/>
	</g>
	<path id="Path_291" class="st18" d="M357,260.7H163.1c-2.2,0-3.9,1.8-3.9,3.9v97c0,2.2,1.8,3.9,3.9,3.9h194.1
		c2.2,0,3.9-1.8,3.9-3.9v-97C360.9,262.5,359.1,260.8,357,260.7z"/>
	<g id="Group_37" transform="translate(145.075 124.65)">
		<path id="Path_292" class="st19" d="M163.4,216.7c-2.2,0-3.9-1.8-3.9-3.9c0-2.2,1.8-3.9,3.9-3.9c11.3,0,20.4-9.1,20.4-20.4
			c0-11.3-9.1-20.4-20.4-20.4c-2.2,0-3.9-1.8-3.9-3.9c0-2.2,1.8-3.9,3.9-3.9c15.6,0,28.2,12.6,28.2,28.2S179,216.7,163.4,216.7
			L163.4,216.7z"/>
	</g>
	<g id="Group_38" transform="translate(84.925 124.8)">
		<path id="Path_293" class="st19" d="M126.6,216.5c-15.5,0-28.1-12.6-28.1-28.1c0-15.5,12.6-28.1,28.1-28.1c0,0,0,0,0,0
			c2.2,0,3.9,1.8,3.9,3.9c0,2.2-1.8,3.9-3.9,3.9c0,0,0,0,0,0c-11.3,0-20.4,9.1-20.4,20.4c0,11.3,9.1,20.4,20.4,20.4
			c2.2,0,3.9,1.8,3.9,3.9C130.3,214.9,128.7,216.5,126.6,216.5z"/>
	</g>
	<g id="Group_41" transform="translate(84.85 124.65)">
		<g id="Group_39">
			<path id="Path_294" class="st19" d="M126.7,168.1h-24.3c-2.2,0-3.9-1.8-3.9-3.9c0-2.2,1.8-3.9,3.9-3.9c0,0,0,0,0,0h24.3
				c2.2,0,3.9,1.8,3.9,3.9C130.6,166.3,128.9,168.1,126.7,168.1C126.7,168.1,126.7,168.1,126.7,168.1z"/>
		</g>
		<g id="Group_40" transform="translate(0 24.15)">
			<path id="Path_295" class="st19" d="M126.7,192.5h-24.3c-2.2,0-3.9-1.8-3.9-3.9c0-2.2,1.8-3.9,3.9-3.9h24.3
				c2.2,0,3.9,1.8,3.9,3.9C130.5,190.8,128.8,192.5,126.7,192.5z"/>
		</g>
	</g>
	<path id="Path_296" class="st18" d="M269.5,297c-0.2,0-0.3,0-0.5-0.2c-0.2-0.2-0.5-0.3-0.5-0.6l-9.4-32l-4.1,1.2
		c-0.5,0.1-1-0.1-1.2-0.6l-2.6-8.6c0-0.3,0-0.5,0.2-0.8c0.2-0.2,0.3-0.5,0.6-0.5l4.1-1.2l-7.7-26.4c-0.1-0.5,0.1-1,0.6-1.2l9.5-2.7
		c0.4-0.1,0.8,0,1.1,0.3l25.2,33.7l-11-37.6c0-0.3,0-0.5,0.2-0.8c0.2-0.2,0.3-0.5,0.6-0.5l9.5-2.7c0.5-0.1,1,0.1,1.2,0.6l7.7,26.6
		l4.1-1.2c0.5-0.1,1,0.1,1.2,0.6l2.6,8.6c0,0.3,0,0.5-0.2,0.8c-0.2,0.2-0.3,0.5-0.6,0.5l-4.1,1.2l9.4,32c0,0.3,0,0.5-0.2,0.8
		c-0.2,0.2-0.3,0.5-0.6,0.5l-9.5,2.7c-0.4,0.1-0.8,0-1.1-0.3l-25.1-33.4L280,293c0.1,0.5-0.1,1-0.6,1.2l-9.5,2.7
		C269.7,297,269.7,297,269.5,297z M259.9,262.2c0.2,0,0.3,0,0.5,0.2c0.2,0.2,0.5,0.3,0.5,0.6l9.4,32l7.7-2.3l-12.1-41.4
		c-0.1-0.5,0.1-0.9,0.5-1.2c0.4-0.2,0.9-0.1,1.2,0.3l27.9,37.1l8-2.3l-9.4-32c-0.1-0.5,0.1-1,0.6-1.2l4.1-1.2l-2-6.6l-4.1,1.2
		c-0.5,0.1-1-0.1-1.2-0.6l-7.7-26.4l-7.7,2.3l12.2,41.8c0.1,0.5-0.1,0.9-0.5,1.2c-0.4,0.2-0.9,0.1-1.2-0.3l-28.1-37.5l-8,2.3
		l7.7,26.4c0.1,0.5-0.1,1-0.6,1.2l-4.1,1.2l2,6.6l4.1-1.2C259.7,262.2,259.9,262.2,259.9,262.2L259.9,262.2z"/>
	<g id="Group_44" transform="translate(145.075 124.65)">
		<g id="Group_42">
			<path id="Path_297" class="st19" d="M187.7,168.1h-24.3c-2.2,0-3.9-1.8-3.9-3.9c0-2.2,1.8-3.9,3.9-3.9h24.3
				c2.2,0,3.9,1.8,3.9,3.9C191.7,166.3,189.9,168.1,187.7,168.1z"/>
		</g>
		<g id="Group_43" transform="translate(0 24.15)">
			<path id="Path_298" class="st19" d="M187.7,192.5h-24.3c-2.2,0-3.9-1.8-3.9-3.9c0-2.2,1.8-3.9,3.9-3.9h24.3
				c2.2,0,3.9,1.8,3.9,3.9C191.6,190.8,189.9,192.5,187.7,192.5z"/>
		</g>
	</g>
	<path id="Path_299" class="st20" d="M166.9,357.8h186.3v-89.2H166.9V357.8z"/>
	<ellipse id="Ellipse_247" class="st24" cx="122.6" cy="260.9" rx="105.1" ry="104.7"/>
	<circle id="Ellipse_248" class="st16" cx="122.6" cy="260.4" r="88.9"/>
	<rect id="Rectangle_156" x="90.3" y="123.9" class="st24" width="64.6" height="16.2"/>
	<circle id="Ellipse_249" class="st15" cx="122.6" cy="260.4" r="80.8"/>
	<circle id="Ellipse_250" class="st25" cx="122.6" cy="260.4" r="72.8"/>
	<circle id="Ellipse_251" class="st15" cx="122.6" cy="260.7" r="64.6"/>
	<g id="Group_49" transform="translate(18.55 76.425)">
		<g id="Group_45" transform="translate(36.15)">
			<line id="Line_5" class="st26" x1="67.9" y1="111.3" x2="67.9" y2="127.5"/>
			<line id="Line_6" class="st26" x1="67.9" y1="111.3" x2="67.9" y2="119.3"/>
		</g>
		<line id="Line_7" class="st26" x1="67.7" y1="121" x2="71.7" y2="128"/>
		<line id="Line_8" class="st26" x1="41.1" y1="147.6" x2="48" y2="151.7"/>
		<g id="Group_46" transform="translate(0 36.075)">
			<line id="Line_9" class="st26" x1="31.3" y1="147.9" x2="47.4" y2="147.9"/>
			<line id="Line_10" class="st26" x1="31.3" y1="147.9" x2="39.4" y2="147.9"/>
		</g>
		<line id="Line_11" class="st26" x1="41.1" y1="220.4" x2="48" y2="216.3"/>
		<line id="Line_12" class="st26" x1="67.7" y1="247.1" x2="71.7" y2="240"/>
		<g id="Group_47" transform="translate(36.15 64.2)">
			<line id="Line_13" class="st26" x1="67.9" y1="192.6" x2="67.9" y2="176.4"/>
			<line id="Line_14" class="st26" x1="67.9" y1="192.6" x2="67.9" y2="184.6"/>
		</g>
		<line id="Line_15" class="st26" x1="140.4" y1="247.1" x2="136.4" y2="240"/>
		<line id="Line_16" class="st26" x1="167" y1="220.4" x2="160.1" y2="216.3"/>
		<g id="Group_48" transform="translate(64.275 36.075)">
			<line id="Line_17" class="st26" x1="112.6" y1="147.9" x2="96.4" y2="147.9"/>
			<line id="Line_18" class="st26" x1="112.6" y1="147.9" x2="104.4" y2="147.9"/>
		</g>
		<line id="Line_19" class="st26" x1="167" y1="147.6" x2="160.1" y2="151.7"/>
		<line id="Line_20" class="st26" x1="140.4" y1="121" x2="136.4" y2="128"/>
	</g>
	<g id="Group_50" transform="translate(52.675 88.664)">
		<path id="Path_300" class="st27" d="M65.9,131.9l8.2-8.2v52.6h-8.2V131.9z"/>
		<path id="Path_301" class="st27" d="M106.3,176.3H69.9v-8h28.2L106.3,176.3z"/>
	</g>
	<g id="Group_51" transform="translate(38.65 44.7)">
		<line id="Line_21" class="st28" x1="51.6" y1="95.3" x2="51.6" y2="79.2"/>
		<line id="Line_22" class="st28" x1="55.7" y1="95.3" x2="55.7" y2="79.2"/>
		<line id="Line_23" class="st28" x1="59.6" y1="95.3" x2="59.6" y2="79.2"/>
		<line id="Line_24" class="st28" x1="63.7" y1="95.3" x2="63.7" y2="79.2"/>
		<line id="Line_25" class="st28" x1="67.8" y1="95.3" x2="67.8" y2="79.2"/>
		<line id="Line_26" class="st28" x1="71.9" y1="95.3" x2="71.9" y2="79.2"/>
		<line id="Line_27" class="st28" x1="75.8" y1="95.3" x2="75.8" y2="79.2"/>
		<line id="Line_28" class="st28" x1="79.9" y1="95.3" x2="79.9" y2="79.2"/>
		<line id="Line_29" class="st28" x1="84" y1="95.3" x2="84" y2="79.2"/>
		<line id="Line_30" class="st28" x1="88" y1="95.3" x2="88" y2="79.2"/>
		<line id="Line_31" class="st28" x1="92" y1="95.3" x2="92" y2="79.2"/>
		<line id="Line_32" class="st28" x1="96" y1="95.3" x2="96" y2="79.2"/>
		<line id="Line_33" class="st28" x1="100.1" y1="95.3" x2="100.1" y2="79.2"/>
		<line id="Line_34" class="st28" x1="104.2" y1="95.3" x2="104.2" y2="79.2"/>
		<line id="Line_35" class="st28" x1="108.1" y1="95.3" x2="108.1" y2="79.2"/>
		<line id="Line_36" class="st28" x1="112.2" y1="95.3" x2="112.2" y2="79.2"/>
		<line id="Line_37" class="st28" x1="116.3" y1="95.3" x2="116.3" y2="79.2"/>
	</g>
	<g id="Group_55" transform="translate(72.85 68.85)">
		<g id="Group_52" transform="translate(99.075 43.725)">
			<path id="Path_302" class="st21" d="M191.1,163.7l6-1.7v-10.1c0-2.2-1.8-3.9-3.9-3.9h-6.5v0.3c1.4,0.6,2.3,2,2.3,3.5V173l8.2-2.1
				v-7.1l-5.4,1.5h-0.3c-0.4,0-0.8-0.3-0.9-0.8C190.2,164.4,190.5,163.8,191.1,163.7z"/>
			<path id="Path_303" class="st29" d="M191.1,163.7c-0.5,0.2-0.8,0.7-0.8,1.2l0,0c0.1,0.4,0.5,0.7,0.9,0.8h0.3l5.4-1.5V162
				L191.1,163.7z"/>
		</g>
		<g id="Group_54">
			<path id="Path_304" class="st30" d="M152,145l-3.9,1.1l-1.4,0.3l-1.2,0.3l-0.8,0.2c-0.2-0.5-0.5-0.9-0.6-1.4
				c-0.6-1.4-1.4-2.6-2-3.9c0.3-0.2,0.6-0.2,0.8-0.3c0.2-0.1,0.5-0.2,0.8-0.2c0.5-0.2,0.9-0.2,1.4-0.3l0,0c0.3,0,0.5-0.2,0.8-0.2
				l0,0c0.5,0,1.1-0.2,1.5-0.2h2.3C150.5,141.9,151.3,143.5,152,145z"/>
			<g id="Group_53" transform="translate(12.3)">
				<path id="Path_305" class="st30" d="M103.1,103.7l-4.4,2.6c2,1.4,3.9,2.9,5.7,4.5l4.7-2.7C107.2,106.5,105.1,105,103.1,103.7z"
					/>
				<path id="Path_306" class="st30" d="M137.6,140.8h-1.2c-1.2,0-2.3,0.1-3.5,0.3c-0.5,0.2-0.9,0.2-1.4,0.3
					c-0.6,0.2-1.1,0.3-1.7,0.5c-2.9-5.3-6.2-10.4-10-15.1c-3.1-4-6.6-7.8-10.3-11.3c-0.5-0.5-1-0.9-1.5-1.4c-0.8-0.6-1.5-1.4-2.3-2
					l4.8-2.7c1.7,1.4,3.2,2.6,4.8,4.1c0.9,0.8,1.8,1.7,2.7,2.4l0.5,0.5l1.4,1.4c2.4,2.4,4.7,5,6.8,7.6c1.8,2.3,3.6,4.5,5.3,6.9
					c1.5,2.3,3,4.5,4.4,6.8C136.8,139.5,137.1,140.1,137.6,140.8z"/>
			</g>
			<path id="Path_307" class="st31" d="M123.1,109.3c-0.6-0.5-1.1-0.9-1.7-1.4l-4.7,2.7c0.5,0.4,1,0.9,1.5,1.4L123.1,109.3z"/>
			<path id="Path_308" class="st21" d="M162.9,191.6v0.3h-8.2v-0.3c0-4.8-0.3-9.6-0.9-14.3c1.6-1.4,1.8-3.8,0.5-5.4
				c-0.4-0.5-1-0.9-1.7-1.1c-0.3-1.7-0.8-3.2-1.1-4.8c-0.1-0.7-0.3-1.4-0.6-2.1c-0.8-3-1.8-5.9-2.9-8.8l7.4-2
				c2.4,6.1,4.2,12.4,5.4,18.9c0.2,0.6,0.3,1.3,0.3,2C162.4,179.7,162.9,185.6,162.9,191.6z"/>
			<path id="Path_309" class="st19" d="M154.9,151.2l-3.9,1.1l-0.5,0.2l0,0l-3,0.8c-0.6-1.6-1.3-3.3-2.1-4.8c-0.2-0.5-0.4-1-0.6-1.5
				l0.8-0.2l1.2-0.3l1.4-0.3l3.9-1.1C153,147.2,154,149.1,154.9,151.2z"/>
			<path id="Path_310" class="st29" d="M155.2,173.3c-0.3-1.2-1.2-2.2-2.4-2.6c0.5,2.1,0.8,4.4,1.1,6.6
				C155,176.4,155.5,174.8,155.2,173.3z"/>
			<path id="Path_311" class="st29" d="M148.4,155l7.4-2c-0.3-0.6-0.5-1.2-0.8-1.8l-7.2,2C147.9,153.8,148.1,154.4,148.4,155z"/>
			<path id="Path_312" class="st30" d="M95.1,286.4v1.5h4.8c9.1-3.9,17.6-9.2,25.2-15.6H117C110.3,277.9,102.9,282.7,95.1,286.4z"/>
			<path id="Path_313" class="st30" d="M133.9,264c16.5-17.3,26.6-39.6,28.7-63.4h-8.2c-1.9,22.7-11.2,44.1-26.4,61
				C129.8,262.8,131.8,263.6,133.9,264z"/>
			<path id="Path_314" class="st30" d="M94,289.9L94,289.9c-0.2,0-0.3,0-0.5-0.2l-0.5-0.5l0,0v-1.8c-2.3,1.1-4.5,2-6.8,2.9v2.6
				c3-0.9,5.9-1.8,8.8-2.9H94V289.9z"/>
			<path id="Path_315" class="st30" d="M154.6,198.7h8.2c0.2-2.3,0.3-4.5,0.3-6.8h-8.2C154.9,194.3,154.7,196.5,154.6,198.7z"/>
			<path id="Path_316" class="st31" d="M125.3,264.6h8.2c0.2-0.2,0.3-0.5,0.6-0.6c-2.1-0.5-4.1-1.3-5.9-2.4
				C127.1,262.7,126.2,263.7,125.3,264.6z"/>
			<path id="Path_317" class="st31" d="M133.3,264.6h-8.2c-2.7,2.7-5.4,5.3-8.3,7.7h8.2C127.9,270,130.7,267.4,133.3,264.6z"/>
			<path id="Path_318" class="st31" d="M95.1,287.9v-1.5c-0.6,0.3-1.4,0.6-2,0.9v1.8l0,0c0.2,0.2,0.2,0.3,0.5,0.5
				c0.1,0.1,0.3,0.2,0.5,0.2h1.1c1.7-0.6,3.2-1.2,4.8-2h-4.8V287.9z"/>
			<path id="Path_319" class="st31" d="M154.4,200.6h8.2c0-0.6,0.2-1.4,0.2-2h-8.2C154.6,199.3,154.5,200,154.4,200.6z"/>
		</g>
	</g>
	<path id="Path_320" class="st15" d="M279.7,353.1h-10c-0.3,0-0.5-0.2-0.6-0.5l-15.4-40.8v40.5c0,0.3-0.3,0.6-0.6,0.6h-10
		c-0.3,0-0.6-0.3-0.6-0.6v-33.7H238c-0.3,0-0.6-0.3-0.6-0.6v-8.9c0-0.3,0.3-0.6,0.6-0.6h4.5v-27.9c0-0.3,0.3-0.6,0.6-0.6h10
		c0.3,0,0.5,0.2,0.6,0.5l15.4,41.1v-40.9c0-0.3,0.3-0.6,0.6-0.6h10c0.3,0,0.6,0.3,0.6,0.6v27.9h4.5c0.3,0,0.6,0.3,0.6,0.6v8.9
		c0,0.3-0.3,0.6-0.6,0.6h-4.5v33.7C280.3,352.7,280,353.1,279.7,353.1z M270.1,351.9h8.9v-33.7c0-0.3,0.3-0.6,0.6-0.6h4.5v-7.6h-4.5
		c-0.3,0-0.6-0.3-0.6-0.6v-27.9h-8.6v43.8c0,0.3-0.2,0.6-0.5,0.6c0,0-0.1,0-0.1,0c-0.3,0-0.6-0.2-0.8-0.5l-16.5-44.1h-8.8v27.9
		c0,0.3-0.3,0.6-0.6,0.6h-4.5v7.6h4.5c0.3,0,0.6,0.3,0.6,0.6v33.7h8.6v-43.5c0-0.3,0.2-0.6,0.5-0.6c0,0,0.1,0,0.1,0
		c0.3,0,0.6,0.2,0.8,0.5L270.1,351.9z"/>
	<path id="Path_321" class="st18" d="M233.9,241.5l-10-8.3c0.2,0.8,0.5,1.4,0.6,2.1l9.8,8L233.9,241.5z M224.1,221l-3-5.4l-2.9-5
		l-14.3-24.9l-0.5-0.5c-0.9-0.9-1.8-1.7-2.7-2.4v0.3l16,27.8l2.9,5.1l1.5,2.6l-2.7-2.3l-1.4-1.1c0.2,0.5,0.5,0.9,0.6,1.4
		c0.2,0.5,0.4,1,0.6,1.5l4.7,3.9c0.1,0.1,0.2,0.1,0.3,0.2l0,0c0.2,0,0.3,0,0.5-0.2l0,0C224.2,221.6,224.2,221.2,224.1,221z
		 M223.5,221.9c0.2,0,0.3,0,0.5-0.2L223.5,221.9z"/>
</g>
</svg>
