<?xml version="1.0" encoding="utf-8"?>
<!-- Generator: Adobe Illustrator 23.0.0, SVG Export Plug-In . SVG Version: 6.00 Build 0)  -->
<svg version="1.1" xmlns="http://www.w3.org/2000/svg" xmlns:xlink="http://www.w3.org/1999/xlink" x="0px" y="0px"
	 viewBox="0 0 160 160" style="enable-background:new 0 0 160 160;" xml:space="preserve">
<style type="text/css">
	.st0{fill:#F9F9F9;}
	.st1{fill:#E5E5E5;}
	.st2{fill:#6A79A8;}
	.st3{fill:#FFFFFF;}
	.st4{fill:#BBF9BC;}
	.st5{fill:#EDEDED;}
	.st6{fill:#D1D1D1;}
	.st7{opacity:0.3;fill:#BBDFF5;}
</style>
<g id="Ñëîé_1_1_">
</g>
<g id="Ñëîé_2">
	<g>
		<path class="st0" d="M42.6,146.2c-3.3-0.7-42.6-7-39.7-53.3c2.9-46.4,6.5-60.3,21.8-65.4c15.3-5.1,52.4-29.2,81.6-6.3
			s60.6,43.5,48.1,80.2c-12.5,36.6-14.5,48.9-47.1,47C74.8,146.5,58.2,149.5,42.6,146.2z"/>
		<g>
			<path class="st1" d="M103.5,41.3l-13.4-0.1c-0.2-1.8-1.7-3.1-3.5-3.1l-11.7,0l0-2.5c0-1.8-1.5-3.3-3.3-3.3
				c-1.8,0-3.3,1.5-3.3,3.3l0,2.5l-11.7,0c-1.8,0-3.2,1.3-3.5,3l-14.1-0.1c-2.7,0-4.9,2.2-4.9,4.9l-0.3,83.5c0,2.7,2.2,4.9,4.9,4.9
				l64.4,0.2c2.7,0,4.9-2.2,4.9-4.9l0.3-83.5C108.4,43.6,106.2,41.3,103.5,41.3z M71.7,37.3c-1,0-1.9-0.8-1.9-1.9s0.8-1.9,1.9-1.9
				c1,0,1.9,0.8,1.9,1.9C73.5,36.5,72.7,37.3,71.7,37.3z"/>
			<g>
				<path class="st0" d="M102.1,42.4l-13.4-0.1c-0.2-1.8-1.7-3.1-3.5-3.1l-11.7,0l0-2.5c0-1.8-1.5-3.3-3.3-3.3
					c-1.8,0-3.3,1.5-3.3,3.3l0,2.5l-11.7,0c-1.8,0-3.2,1.3-3.5,3l-14.1-0.1c-2.7,0-4.9,2.2-4.9,4.9l-0.3,83.5c0,2.7,2.2,4.9,4.9,4.9
					l64.4,0.2c2.7,0,4.9-2.2,4.9-4.9l0.3-83.5C107,44.7,104.8,42.5,102.1,42.4z M70.2,38.4c-1,0-1.9-0.8-1.9-1.9s0.8-1.9,1.9-1.9
					c1,0,1.9,0.8,1.9,1.9C72.1,37.6,71.3,38.4,70.2,38.4z"/>
				<g id="XMLID_13_">
					<path class="st2" d="M52,42.1c-2.7,0-5.3,0-8,0c-1.6,0-3.2,0-4.8,0c-1.1,0-2.2,0-3.3,0.3c-2.1,0.7-3.5,2.6-3.5,4.8
						c0,0.2,0,0.4,0,0.6c0,1.3,0,2.6,0,3.9c0,5.4,0,10.8-0.1,16.1c0,7.4,0,14.8-0.1,22.1c0,7.2,0,14.5-0.1,21.7
						c0,5.1,0,10.3-0.1,15.4c0,1.1,0,2.2,0,3.3c0,2.9,2.1,5.2,5,5.3c3.3,0.1,6.6,0,9.9,0c7,0,14,0.1,21,0.1c7.1,0,14.3,0.1,21.4,0.1
						c3.9,0,7.8,0,11.8,0c3,0,5.7-2,5.8-5.1c0-0.7,0-1.5,0-2.2c0-4.6,0-9.2,0-13.8c0-7.1,0-14.2,0.1-21.3c0-7.5,0-14.9,0.1-22.4
						c0-5.8,0-11.7,0.1-17.5c0-1.6,0-3.3,0-4.9c0-1.3,0.1-2.5-0.5-3.7c-0.9-1.7-2.7-2.7-4.6-2.7c-1.2,0-2.4,0-3.6,0
						c-3.1,0-6.3,0-9.4,0c-4.1,0-8.3,0-12.4,0c-7,0-13.9-0.1-20.9-0.1C54.6,42.1,53.3,42.1,52,42.1c-0.1,0-0.8,0.3-0.4,0.3
						c4.5,0,9,0,13.5,0c6.7,0,13.5,0,20.2,0.1c4.1,0,8.2,0,12.3,0c1.3,0,2.6,0,3.9,0c2,0,3.8,0.9,4.6,2.7c0.6,1.2,0.5,2.4,0.5,3.6
						c0,4.1,0,8.2,0,12.4c0,6.8,0,13.5-0.1,20.3c0,7.4,0,14.8-0.1,22.3c0,6.1,0,12.3-0.1,18.4c0,2.9,0,5.8,0,8.7
						c0,2.7-2.1,4.8-4.8,4.8c-1.4,0-2.8,0-4.2,0c-5.9,0-11.9,0-17.8-0.1c-7.4,0-14.8-0.1-22.1-0.1c-5.6,0-11.1,0-16.7-0.1
						c-1,0-2.1,0-3.1,0c-2.9-0.1-4.8-2.4-4.8-5.2c0-3.2,0-6.4,0-9.6c0-6.3,0-12.6,0.1-18.9c0-7.5,0-14.9,0.1-22.4
						c0-6.6,0-13.3,0.1-19.9c0-3.8,0-7.7,0-11.5c0-0.3,0-0.6,0-0.9c0-1.7,0.8-3.3,2.3-4.2c1.2-0.7,2.5-0.6,3.8-0.6c1.7,0,3.3,0,5,0
						c2.5,0,4.9,0,7.4,0C51.7,42.4,52.3,42.1,52,42.1z"/>
				</g>
			</g>
			<g>
				<path id="XMLID_11_" class="st1" d="M104.1,63.7l0,63.6c0,1.6-1.3,2.9-2.9,2.9l-60,0c-1.6,0-2.9-1.3-2.9-2.9l0-10.4l0-5.7
					l0-63.3c0-1.6,1.3-2.9,2.9-2.9l58.3,0c2.5,0,4.6,2.1,4.6,4.6l0,11.1L104.1,63.7z"/>
				<path id="XMLID_9_" class="st0" d="M102.8,64.7l0,63.6c0,1.6-1.3,2.9-2.9,2.9l-60,0c-1.6,0-2.9-1.3-2.9-2.9l0-10.4l0-5.7l0-63.3
					c0-1.6,1.3-2.9,2.9-2.9l58.3,0c2.5,0,4.6,2.1,4.6,4.6l0,11.1L102.8,64.7z"/>
				<path class="st3" d="M101,64.4l0,64c0,1.6-1.3,2.9-2.8,2.9l-58.4,0c-1.6,0-2.8-1.3-2.8-2.9l0-10.1l0-5.6l0-61.7
					c0-1.6,1.3-2.9,2.8-2.9l58.6,0c1.4,0,2.6,1.1,2.6,2.5L101,64.4z"/>
				<g id="XMLID_3_">
					<path class="st2" d="M102.4,64.8c0,2.6,0,5.2,0,7.8c0,6,0,11.9,0,17.9c0,6.8,0,13.5,0,20.3c0,4.9,0,9.8,0,14.7
						c0,0.9,0,1.9,0,2.8c0,1.4-0.9,2.7-2.4,2.8c-0.3,0-0.5,0-0.8,0c-4,0-8.1,0-12.1,0c-6.6,0-13.2,0-19.8,0c-6.2,0-12.5,0-18.7,0
						c-2.9,0-5.8,0.1-8.6,0c-1.7-0.1-2.7-1.5-2.7-3.1c0-1.3,0-2.6,0-3.9c0-2.2,0-4.5,0-6.7c0-2.9,0-5.9,0-8.8c0-5.1,0-10.2,0-15.4
						c0-6.8,0-13.6,0-20.4c0-5.8,0-11.6,0-17.4c0-1.7,0-3.4,0-5.1c0-1.5-0.1-3.1,1.4-3.9c0.8-0.4,2.2-0.2,3.1-0.2c2,0,3.9,0,5.9,0
						c6.2,0,12.4,0,18.6,0c6.6,0,13.2,0,19.8,0c3.8,0,7.7,0,11.5,0c0.5,0,0.9,0,1.4,0.1c2.1,0.5,3.5,2.4,3.5,4.5c0,2.7,0,5.5,0,8.2
						C102.4,60.9,102.4,62.8,102.4,64.8c0,0.2,0.7,0,0.7-0.2c0-4.7,0.1-9.4,0-14.1c0-2.2-1.6-4.2-3.9-4.6c-0.5-0.1-0.9-0.1-1.4-0.1
						c-1.4,0-2.7,0-4.1,0c-5.7,0-11.4,0-17.1,0c-6.9,0-13.8,0-20.6,0c-4.8,0-9.5,0-14.3,0c-1.1,0-2.3-0.1-3.3,0.4
						c-1.2,0.5-1.9,1.7-1.9,2.9c0,0.3,0,0.7,0,1c0,4.2,0,8.4,0,12.6c0,6.7,0,13.4,0,20.1c0,6.4,0,12.8,0,19.3c0,3.3,0,6.7,0,10
						c0,4.3,0,8.5,0,12.8c0,1.2,0,2.3,0,3.5c0,1.8,1.4,3,3.2,3.1c0.8,0,1.6,0,2.5,0c5,0,10,0,14.9,0c6.9,0,13.8,0,20.8,0
						c5.7,0,11.3,0,17,0c1.4,0,2.9,0,4.3,0c2,0,4-1,4-3.2c0.1-2.8,0-5.7,0-8.5c0-6.2,0-12.4,0-18.6c0-6.8,0-13.6,0-20.5
						c0-4.7,0-9.4,0-14c0-0.7,0-1.4,0-2C103.2,64.4,102.4,64.5,102.4,64.8z"/>
				</g>
				<g>
					<g>
						<path class="st4" d="M54,57h-9.8c-1,0-1.9,0.8-1.9,1.9v9.8c0,1,0.8,1.9,1.9,1.9H54c1,0,1.9-0.8,1.9-1.9v-9.8
							C55.8,57.9,55,57,54,57z"/>
						<g>
							<path class="st2" d="M44.1,62.1c1.4,1.4,2.9,2.9,4.3,4.3c0.2,0.2,0.6,0,0.7-0.1c1.8-2.2,3.8-4.5,6.1-6.1
								c0.4-0.3-0.2-0.4-0.5-0.2c-2.4,1.7-4.5,4-6.3,6.3c0.2,0,0.5-0.1,0.7-0.1c-1.4-1.4-2.9-2.9-4.3-4.3
								C44.6,61.6,43.9,61.9,44.1,62.1L44.1,62.1z"/>
						</g>
					</g>
					<path class="st0" d="M78.4,60.9H59.8c-0.3,0-0.6-0.3-0.6-0.6v-2.6c0-0.3,0.3-0.6,0.6-0.6h18.5c0.3,0,0.6,0.3,0.6,0.6v2.6
						C79,60.6,78.7,60.9,78.4,60.9z"/>
					<g>
						<g>
							<path class="st2" d="M60.8,59.1c4.7,0,9.5,0,14.2,0c0.7,0,1.4,0,2,0c0.4,0,0.6-0.5,0.1-0.5c-4.7,0-9.5,0-14.2,0
								c-0.7,0-1.4,0-2,0C60.4,58.6,60.3,59.1,60.8,59.1L60.8,59.1z"/>
						</g>
						<g>
							<path class="st2" d="M60.6,63.6c3.9,0,7.8,0,11.7,0c6.2,0,12.5,0,18.7,0c1.4,0,2.9,0,4.3,0c0.2,0,0.8-0.3,0.3-0.3
								c-3.9,0-7.8,0-11.7,0c-6.2,0-12.5,0-18.7,0c-1.4,0-2.9,0-4.3,0C60.7,63.3,60.1,63.6,60.6,63.6L60.6,63.6z"/>
						</g>
						<g>
							<path class="st2" d="M60.6,68.7c3.9,0,7.8,0,11.6,0c6.2,0,12.3,0,18.5,0c1.4,0,2.8,0,4.2,0c0.4,0,0.6-0.6,0.1-0.6
								c-3.9,0-7.8,0-11.6,0c-6.2,0-12.3,0-18.5,0c-1.4,0-2.8,0-4.2,0C60.2,68.1,60.1,68.7,60.6,68.7L60.6,68.7z"/>
						</g>
					</g>
				</g>
				<g>
					<g>
						<path class="st4" d="M54,74.6h-9.8c-1,0-1.9,0.8-1.9,1.9v9.8c0,1,0.8,1.9,1.9,1.9H54c1,0,1.9-0.8,1.9-1.9v-9.8
							C55.8,75.4,55,74.6,54,74.6z"/>
						<g>
							<path class="st2" d="M44.1,79.7c1.4,1.4,2.9,2.9,4.3,4.3c0.2,0.2,0.6,0,0.7-0.1c1.8-2.2,3.8-4.5,6.1-6.1
								c0.4-0.3-0.2-0.4-0.5-0.2c-2.4,1.7-4.5,4-6.3,6.3c0.2,0,0.5-0.1,0.7-0.1c-1.4-1.4-2.9-2.9-4.3-4.3
								C44.6,79.2,43.9,79.4,44.1,79.7L44.1,79.7z"/>
						</g>
					</g>
					<path class="st0" d="M78.4,78.5H59.8c-0.3,0-0.6-0.3-0.6-0.6v-2.6c0-0.3,0.3-0.6,0.6-0.6h18.5c0.3,0,0.6,0.3,0.6,0.6v2.6
						C79,78.2,78.7,78.5,78.4,78.5z"/>
					<g>
						<g>
							<path class="st2" d="M60.8,76.7c4.7,0,9.5,0,14.2,0c0.7,0,1.4,0,2,0c0.4,0,0.6-0.5,0.1-0.5c-4.7,0-9.5,0-14.2,0
								c-0.7,0-1.4,0-2,0C60.4,76.2,60.3,76.7,60.8,76.7L60.8,76.7z"/>
						</g>
						<g>
							<path class="st2" d="M60.6,81.2c3.9,0,7.8,0,11.7,0c6.2,0,12.5,0,18.7,0c1.4,0,2.9,0,4.3,0c0.2,0,0.8-0.3,0.3-0.3
								c-3.9,0-7.8,0-11.7,0c-6.2,0-12.5,0-18.7,0c-1.4,0-2.9,0-4.3,0C60.7,80.8,60.1,81.2,60.6,81.2L60.6,81.2z"/>
						</g>
						<g>
							<path class="st2" d="M60.6,86.3c3.9,0,7.8,0,11.6,0c6.2,0,12.3,0,18.5,0c1.4,0,2.8,0,4.2,0c0.4,0,0.6-0.6,0.1-0.6
								c-3.9,0-7.8,0-11.6,0c-6.2,0-12.3,0-18.5,0c-1.4,0-2.8,0-4.2,0C60.2,85.7,60.1,86.3,60.6,86.3L60.6,86.3z"/>
						</g>
					</g>
				</g>
				<g>
					<path class="st5" d="M54,92.2h-9.8c-1,0-1.9,0.8-1.9,1.9v9.8c0,1,0.8,1.9,1.9,1.9H54c1,0,1.9-0.8,1.9-1.9V94
						C55.8,93,55,92.2,54,92.2z"/>
					<path class="st0" d="M78.4,96H59.8c-0.3,0-0.6-0.3-0.6-0.6v-2.6c0-0.3,0.3-0.6,0.6-0.6h18.5c0.3,0,0.6,0.3,0.6,0.6v2.6
						C79,95.8,78.7,96,78.4,96z"/>
					<g>
						<g>
							<path class="st6" d="M60.8,94.3c4.7,0,9.5,0,14.2,0c0.7,0,1.4,0,2,0c0.4,0,0.6-0.5,0.1-0.5c-4.7,0-9.5,0-14.2,0
								c-0.7,0-1.4,0-2,0C60.4,93.8,60.3,94.3,60.8,94.3L60.8,94.3z"/>
						</g>
						<g>
							<path class="st6" d="M60.6,98.8c3.9,0,7.8,0,11.7,0c6.2,0,12.5,0,18.7,0c1.4,0,2.9,0,4.3,0c0.2,0,0.8-0.3,0.3-0.3
								c-3.9,0-7.8,0-11.7,0c-6.2,0-12.5,0-18.7,0c-1.4,0-2.9,0-4.3,0C60.7,98.4,60.1,98.8,60.6,98.8L60.6,98.8z"/>
						</g>
						<g>
							<path class="st6" d="M60.6,103.8c3.9,0,7.8,0,11.6,0c6.2,0,12.3,0,18.5,0c1.4,0,2.8,0,4.2,0c0.4,0,0.6-0.6,0.1-0.6
								c-3.9,0-7.8,0-11.6,0c-6.2,0-12.3,0-18.5,0c-1.4,0-2.8,0-4.2,0C60.2,103.3,60.1,103.8,60.6,103.8L60.6,103.8z"/>
						</g>
					</g>
				</g>
				<g>
					<path class="st5" d="M54,109.5h-9.8c-1,0-1.9,0.8-1.9,1.9v9.8c0,1,0.8,1.9,1.9,1.9H54c1,0,1.9-0.8,1.9-1.9v-9.8
						C55.8,110.3,55,109.5,54,109.5z"/>
					<path class="st0" d="M78.4,113.3H59.8c-0.3,0-0.6-0.3-0.6-0.6v-2.6c0-0.3,0.3-0.6,0.6-0.6h18.5c0.3,0,0.6,0.3,0.6,0.6v2.6
						C79,113,78.7,113.3,78.4,113.3z"/>
					<g>
						<g>
							<path class="st6" d="M60.8,111.6c4.7,0,9.5,0,14.2,0c0.7,0,1.4,0,2,0c0.4,0,0.6-0.5,0.1-0.5c-4.7,0-9.5,0-14.2,0
								c-0.7,0-1.4,0-2,0C60.4,111,60.3,111.6,60.8,111.6L60.8,111.6z"/>
						</g>
						<g>
							<path class="st6" d="M60.6,116c3.9,0,7.8,0,11.7,0c6.2,0,12.5,0,18.7,0c1.4,0,2.9,0,4.3,0c0.2,0,0.8-0.3,0.3-0.3
								c-3.9,0-7.8,0-11.7,0c-6.2,0-12.5,0-18.7,0c-1.4,0-2.9,0-4.3,0C60.7,115.7,60.1,116,60.6,116L60.6,116z"/>
						</g>
						<g>
							<path class="st6" d="M60.6,121.1c3.9,0,7.8,0,11.6,0c6.2,0,12.3,0,18.5,0c1.4,0,2.8,0,4.2,0c0.4,0,0.6-0.6,0.1-0.6
								c-3.9,0-7.8,0-11.6,0c-6.2,0-12.3,0-18.5,0c-1.4,0-2.8,0-4.2,0C60.2,120.5,60.1,121.1,60.6,121.1L60.6,121.1z"/>
						</g>
					</g>
				</g>
			</g>
			<g>
				<path class="st0" d="M88.7,42.4c-0.2-1.8-1.7-3.1-3.5-3.1l-11.7,0l0-2.5c0-1.8-1.5-3.3-3.3-3.3c-1.8,0-3.3,1.5-3.3,3.3l0,2.5
					l-11.7,0c-1.8,0-3.2,1.3-3.5,3c0,0.2,0,0.4,0,0.5l0,1.4c0,2,1.6,3.5,3.5,3.5l29.9,0c2,0,3.5-1.6,3.5-3.5l0-1.4
					C88.7,42.7,88.7,42.5,88.7,42.4z M70.2,38.4c-1,0-1.9-0.8-1.9-1.9c0-1,0.8-1.9,1.9-1.9c1,0,1.9,0.8,1.9,1.9
					C72.1,37.6,71.3,38.4,70.2,38.4z"/>
				<g>
					<path class="st2" d="M89,42.3c-0.3-1.8-1.7-3.1-3.5-3.2c-0.6,0-1.2,0-1.8,0c-2.6,0-5.2,0-7.8,0c-0.7,0-1.5,0-2.2,0
						c0.1,0,0.1,0.1,0.2,0.1c0-1.1,0.2-2.3-0.1-3.3c-0.4-1.6-2-2.7-3.7-2.5c-1.6,0.1-3.1,1.3-3.4,2.9c-0.2,1-0.1,2.2-0.1,3.2
						c0.2-0.1,0.3-0.2,0.5-0.3c-3.8,0-7.6,0-11.5,0c-1.1,0-2.1,0.3-2.9,1c-1.2,1-1.3,2.3-1.3,3.7c0,1.5,0.5,2.9,1.9,3.6
						c0.7,0.4,1.4,0.5,2.1,0.5c3.6,0,7.2,0,10.9,0c5,0,9.9,0,14.9,0c1.2,0,2.5,0,3.7,0c2.4,0,4.2-1.6,4.2-4
						C89,43.4,89.1,42.8,89,42.3c0-0.2-0.7-0.1-0.7,0.2c0.1,1.2,0.2,2.6-0.5,3.7c-0.6,1-1.6,1.5-2.7,1.5c-1.1,0-2.2,0-3.3,0
						c-4.5,0-9,0-13.5,0c-3.9,0-7.8,0-11.7,0c-1.4,0-2.8,0-3.8-1.3c-0.8-1-0.8-2.3-0.8-3.6c0.1-1.7,1.3-3.2,3.1-3.3
						c3.9-0.1,7.7,0,11.6,0c0.1,0,0.5-0.1,0.5-0.3c0-0.8,0-1.6,0-2.5c0-1.8,1.5-3.4,3.4-3c1.5,0.3,2.5,1.7,2.5,3.2
						c0,0.8,0,1.7,0,2.5c0,0.1,0.2,0.1,0.2,0.1c3.8,0,7.6,0,11.5,0c1.8,0,3.2,1.2,3.5,3C88.4,42.7,89,42.5,89,42.3z"/>
					<path class="st2" d="M70.4,38.2c-1.9-0.1-2.3-3.3-0.3-3.4C72,34.8,72.4,38.1,70.4,38.2c-0.2,0-0.7,0.4-0.3,0.3
						c1.1-0.1,2.2-0.7,2.3-1.9c0.1-1.2-0.9-2.2-2-2.2c-1,0-2.1,0.7-2.3,1.8c-0.2,1.3,0.8,2.2,2,2.3C70.3,38.6,70.8,38.3,70.4,38.2z"
						/>
				</g>
			</g>
		</g>
		<g>
			<path class="st1" d="M120,50.6h-0.2c-0.4,0-0.8,0.3-0.8,0.7l-1.6,11.9c0,0-1.5,17.6-1.5,23.5c-0.1,9,1.5,35.8,1.5,35.8h5.5
				c0,0,1.7-26.8,1.7-35.7c0-5.9-1.7-23.6-1.7-23.6l-1.9-11.9C120.9,50.9,120.4,50.6,120,50.6z"/>
			<g>
				<path class="st1" d="M120,51.5c0-0.6,0-1.2,0-1.8c0-0.1-0.7,0-0.7,0.2c0,0.6,0,1.2,0,1.8C119.3,51.8,120,51.7,120,51.5L120,51.5
					z"/>
			</g>
			<path class="st1" d="M120.4,117.7h-0.6c-0.7,0-1.3,0.6-1.3,1.3v7.5c0,0.7,0.6,1.3,1.3,1.3h0.6c0.7,0,1.3-0.6,1.3-1.3V119
				C121.7,118.2,121.1,117.7,120.4,117.7z"/>
			<g>
				<path class="st1" d="M125.2,98c-0.7,0.7-1,1.6-1.1,2.6c-0.2,1.2-0.4,2.5-0.4,3.8c-0.1,2.5,0.2,5,0.5,7.5
					c0.2,2.1,0.4,4.2,0.2,6.3c-0.1,0.7-0.2,1.4-0.3,2.1c-0.1,0.4-0.4,1.7-1,1.8c-0.4,0.1-0.6,0.6-0.1,0.5c1.3-0.2,1.7-1.7,1.9-2.8
					c0.3-1.7,0.4-3.5,0.3-5.3c-0.2-2.8-0.7-5.5-0.7-8.3c0-1.4,0-2.7,0.2-4.1c0.1-1.2,0.3-2.9,1.2-3.7
					C126.1,97.9,125.4,97.8,125.2,98L125.2,98z"/>
			</g>
			<g>
				<path class="st2" d="M119.3,51.5c0-0.6,0-1.2,0-1.8c0-0.1-0.7,0-0.7,0.2c0,0.6,0,1.2,0,1.8C118.6,51.8,119.3,51.7,119.3,51.5
					L119.3,51.5z"/>
			</g>
			<path class="st1" d="M119.2,117.7h-0.6c-0.7,0-1.3,0.6-1.3,1.3v7.5c0,0.7,0.6,1.3,1.3,1.3h0.6c0.7,0,1.3-0.6,1.3-1.3V119
				C120.5,118.2,119.9,117.7,119.2,117.7z"/>
			<path class="st0" d="M119.6,117.7L119.6,117.7c-0.6,0-1,0.4-1,0.9v8.2c0,0.5,0.4,0.9,0.9,0.9h0.1c0.5,0,0.9-0.4,0.9-0.9v-8.2
				C120.5,118.1,120.1,117.7,119.6,117.7z"/>
			<g>
				<path class="st2" d="M119.2,117.4c-1,0-2.1,0.2-2.3,1.4c-0.1,0.5,0,1.1,0,1.7c0,1.9,0,3.8,0,5.7c0,0.8,0.3,1.6,1.2,1.8
					c0.9,0.2,2.1,0,2.6-0.9c0.3-0.5,0.2-1.2,0.2-1.8c0-1,0-2,0-3c0-1,0-2,0-3C120.9,118.3,120.5,117.5,119.2,117.4
					c-0.3,0-0.7,0.5-0.2,0.5c1.5,0.1,1,2.7,1,3.8c0,1.5,0,3,0,4.5c0,0.1,0,0.2,0,0.3c-0.1,0.8-0.6,1-1.3,1c-1,0-1.2-0.7-1.2-1.5
					c0-1.5,0-3.1,0-4.6c0-0.7,0-1.5,0-2.2c0-0.2,0-0.4,0-0.5c0.2-0.8,0.9-0.8,1.5-0.8C119.6,117.9,119.7,117.4,119.2,117.4z"/>
			</g>
			<path class="st1" d="M119.2,50.6h-0.6c-0.4,0-0.8,0.3-0.8,0.7l-1.6,11.9c0,0-1.5,17.6-1.5,23.5c-0.1,9,1.5,35.8,1.5,35.8h5.5
				c0,0,1.7-26.8,1.7-35.7c0-5.9-1.7-23.6-1.7-23.6L120,51.3C120,50.9,119.6,50.6,119.2,50.6z"/>
			<path class="st0" d="M119.6,50.6c-0.3,0-0.6,0.3-0.6,0.7l-1.3,11.9c0,0-1.2,17.6-1.2,23.5c-0.1,9,1.2,35.8,1.2,35.8h4.3
				c0,0,1.3-26.8,1.3-35.7c0-5.9-1.6-23.6-1.6-23.6L120,51.3C119.9,50.9,119.6,50.6,119.6,50.6z"/>
			<g>
				<path class="st2" d="M119.3,50.4c-0.9,0-1.8,0.1-2,1.1c-0.1,0.8-0.2,1.7-0.3,2.5c-0.4,2.6-0.7,5.2-1.1,7.8
					c-0.5,3.6-0.7,7.3-0.9,10.9c-0.4,5.7-0.9,11.3-0.8,17c0.1,6.4,0.4,12.8,0.8,19.2c0.1,2.9,0.3,5.8,0.5,8.8c0.1,1.5,0,3.2,0.3,4.7
					c0,0.1,0,0.1,0,0.2c0,0.1,0.2,0.1,0.2,0.1c1.8,0,3.7,0,5.5,0c0.1,0,0.5-0.1,0.5-0.3c0.2-3.6,0.4-7.3,0.6-10.9
					c0.4-6.5,0.7-12.9,0.9-19.4c0.2-5.4,0-10.6-0.5-16c-0.3-4.4-0.6-8.8-1.1-13.1c-0.2-2-0.5-4-0.8-5.9c-0.2-1.3-0.4-2.6-0.5-3.9
					c-0.1-0.7-0.1-1.4-0.3-2C120.3,50.7,119.9,50.4,119.3,50.4c-0.3,0-0.8,0.4-0.3,0.4c0.7,0.1,0.7,1.4,0.8,1.9
					c0.2,1.2,0.3,2.3,0.5,3.5c0.3,2.3,0.6,4.5,0.9,6.8c0.5,3.8,0.7,7.7,1,11.5c0.4,5.4,0.8,10.8,0.6,16.3
					c-0.2,6.3-0.5,12.6-0.9,18.8c-0.2,2.8-0.3,5.6-0.5,8.4c-0.1,0.9-0.1,1.9-0.2,2.8c0,0.5-0.2,1.1-0.1,1.6c0,0.1,0,0.1,0,0.2
					c0.2-0.1,0.3-0.2,0.5-0.3c-1.8,0-3.7,0-5.5,0c0.1,0,0.2,0.1,0.2,0.1c-0.2-3.6-0.4-7.2-0.6-10.7c-0.3-6.4-0.7-12.9-0.8-19.3
					c-0.1-5.3,0.1-10.6,0.4-16c0.3-4.4,0.5-8.9,1-13.3c0.2-1.9,0.5-3.8,0.8-5.7c0.2-1.3,0.4-2.6,0.5-3.9c0.1-0.7,0.1-1.6,0.3-2.3
					c0.2-0.5,0.5-0.6,0.9-0.6C119.4,50.8,119.8,50.4,119.3,50.4z"/>
			</g>
			<g>
				<path class="st2" d="M124.4,98c-0.7,0.7-1,1.6-1.1,2.6c-0.2,1.2-0.4,2.5-0.4,3.8c-0.1,2.5,0.2,5,0.5,7.5
					c0.2,2.1,0.4,4.2,0.2,6.3c-0.1,0.7-0.2,1.4-0.3,2.1c-0.1,0.4-0.4,1.7-1,1.8c-0.4,0.1-0.6,0.6-0.1,0.5c1.3-0.2,1.7-1.7,1.9-2.8
					c0.3-1.7,0.4-3.5,0.3-5.3c-0.2-2.8-0.7-5.5-0.7-8.3c0-1.4,0-2.7,0.2-4.1c0.1-1.2,0.3-2.9,1.2-3.7
					C125.4,97.9,124.6,97.8,124.4,98L124.4,98z"/>
			</g>
			<g>
				<path class="st2" d="M116.7,64.4c1.2-0.3,2.4-0.3,3.6-0.1c0.2,0,0.9-0.3,0.5-0.4c-1.4-0.3-2.8-0.2-4.1,0.1
					C116.2,64.2,116.3,64.5,116.7,64.4L116.7,64.4z"/>
			</g>
			<g>
				<path class="st2" d="M116.3,66.1c1.2-0.3,2.4-0.3,3.6-0.1c0.2,0,0.9-0.3,0.5-0.4c-1.4-0.3-2.8-0.2-4.1,0.1
					C115.8,65.9,115.9,66.2,116.3,66.1L116.3,66.1z"/>
			</g>
			<g>
				<path class="st2" d="M116,67.9c1.5-0.3,3-0.3,4.5-0.1c0.2,0,0.9-0.3,0.5-0.4c-1.6-0.3-3.2-0.2-4.8,0.1
					C115.8,67.6,115.5,68,116,67.9L116,67.9z"/>
			</g>
		</g>
		<g id="XMLID_38_">
			<path id="XMLID_296_" class="st1" d="M115.4,137.5l-16-19.7l0.8-0.9c2.7-3.2,4.6-7.2,5-11.7c1.2-11.7-7.3-22.2-19-23.4
				c-11.7-1.2-22.2,7.3-23.4,19c-1.2,11.7,7.3,22.2,19,23.4c5.2,0.5,10.2-0.9,14.3-3.7l15.9,19.6c0.4,0.5,0.9,0.7,1.4,0.8
				c0.5,0.1,1.1-0.1,1.6-0.5C116,139.7,116.2,138.4,115.4,137.5z M67.5,101.4c0.9-9.2,9.2-15.9,18.3-14.9
				c9.2,0.9,15.9,9.2,14.9,18.3c-0.9,9.2-9.2,15.9-18.3,14.9S66.5,110.5,67.5,101.4z"/>
			<g id="XMLID_44_">
				<path id="XMLID_20_" class="st3" d="M117.1,137.7l-16-19.7l0.8-0.9c2.7-3.2,4.6-7.2,5-11.7c1.2-11.7-7.3-22.2-19-23.4
					c-11.7-1.2-22.2,7.3-23.4,19c-1.2,11.7,7.3,22.2,19,23.4c5.2,0.5,10.2-0.9,14.3-3.7l15.9,19.6c0.4,0.5,0.9,0.7,1.4,0.8
					c0.5,0.1,1.1-0.1,1.6-0.5C117.7,140,117.8,138.6,117.1,137.7z M69.1,101.6c0.9-9.2,9.2-15.9,18.3-14.9
					c9.2,0.9,15.9,9.2,14.9,18.3c-0.9,9.2-9.2,15.9-18.3,14.9C74.9,119,68.2,110.8,69.1,101.6z"/>
				<g id="XMLID_26_">
					<path id="XMLID_45_" class="st2" d="M117.5,137.7c-4.1-5.1-8.2-10.1-12.4-15.2c-0.9-1.2-1.9-2.3-2.8-3.5
						c-0.2-0.3-0.5-0.6-0.7-0.9c0,0-0.1-0.1-0.1-0.1c0,0.1,0.2-0.1,0.2-0.1c0.2-0.2,0.4-0.4,0.6-0.6c4.6-5,6.2-12.6,4.6-19.1
						c-1.4-5.6-5.1-10.5-10-13.4c-5-2.9-11.1-3.7-16.7-2.2c-5.5,1.5-10.3,5.1-13.2,10c-3,5.2-3.7,11.6-1.9,17.3
						c1.8,5.4,5.7,10,10.8,12.6c5.6,2.8,12.3,3.1,18.1,0.7c1.5-0.6,2.9-1.4,4.2-2.3c-0.2,0-0.5,0-0.7,0c2.3,2.9,4.7,5.7,7,8.6
						c2.9,3.5,5.7,7.1,8.6,10.6c0.6,0.7,1.2,1.2,2.1,1.2C117.2,141.5,118.7,139.4,117.5,137.7c-0.1-0.2-0.9-0.1-0.7,0.1
						c0.6,0.8,0.6,1.9,0,2.6c-0.7,0.9-1.9,0.7-2.6-0.1c-0.3-0.3-0.5-0.6-0.7-0.9c-1.2-1.4-2.4-2.9-3.5-4.3
						c-3.1-3.8-6.2-7.7-9.4-11.5c-0.8-0.9-1.5-1.9-2.3-2.8c-0.1-0.2-0.5-0.1-0.7,0c-4,2.7-8.8,4.1-13.6,3.6c-4.1-0.4-8.1-2-11.3-4.6
						c-6.3-5.1-9.1-13.7-7.2-21.6c1.9-7.8,8.4-14.1,16.4-15.6c8.2-1.6,16.8,2.1,21.4,9.1c5.1,7.7,4.6,18-1.3,25.1
						c-0.4,0.4-0.8,0.9-1.2,1.3c0,0,0,0.1,0,0.1c4.7,5.7,9.3,11.5,14,17.2c0.7,0.8,1.3,1.6,2,2.5
						C116.9,137.9,117.6,137.8,117.5,137.7z"/>
					<path id="XMLID_41_" class="st2" d="M69.5,101.6c0.7-6.8,5.6-12.6,12.3-14.3c6.7-1.7,13.9,1.3,17.7,7.1
						c3.7,5.7,3.4,13.3-0.6,18.8c-4.1,5.6-11.6,8.1-18.3,5.8C73.4,116.5,68.8,109.2,69.5,101.6c0-0.2-0.7-0.2-0.8,0
						c-0.7,7.1,3.3,14,9.8,17c6.3,2.9,14.1,1.6,19.2-3.2c5.2-5,6.6-13,3.5-19.4c-3.1-6.4-10-10.1-17-9.4c-7,0.6-13,5.6-14.9,12.4
						c-0.2,0.9-0.4,1.8-0.5,2.7C68.7,101.8,69.5,101.9,69.5,101.6z"/>
				</g>
			</g>
			<circle id="XMLID_43_" class="st7" cx="85.8" cy="103.3" r="16.7"/>
			<g id="XMLID_42_">
				<path id="XMLID_1_" class="st2" d="M69.5,101.6c0.7-6.8,5.6-12.6,12.3-14.3c6.7-1.7,13.9,1.3,17.7,7.1
					c3.7,5.7,3.4,13.3-0.6,18.8c-4.1,5.6-11.6,8.1-18.3,5.8C73.4,116.5,68.8,109.2,69.5,101.6c0-0.2-0.7-0.2-0.8,0
					c-0.7,7.1,3.3,14,9.8,17c6.4,2.9,14.1,1.6,19.2-3.2c5.2-5,6.6-13,3.5-19.5c-3.1-6.3-10-10.1-17-9.4c-7,0.6-13,5.6-14.9,12.4
					c-0.2,0.9-0.4,1.8-0.5,2.7C68.7,101.9,69.5,101.9,69.5,101.6z"/>
			</g>
		</g>
	</g>
</g>
</svg>
