<?xml version="1.0" encoding="utf-8"?>
<!-- Generator: Adobe Illustrator 23.0.0, SVG Export Plug-In . SVG Version: 6.00 Build 0)  -->
<svg version="1.1" xmlns="http://www.w3.org/2000/svg" xmlns:xlink="http://www.w3.org/1999/xlink" x="0px" y="0px"
	 viewBox="0 0 160 160" style="enable-background:new 0 0 160 160;" xml:space="preserve">
<style type="text/css">
	.st0{fill:#F8F8F8;}
	.st1{fill:#FFFFFF;}
	.st2{fill:#5D7183;}
	.st3{fill:#ABDFF5;}
	.st4{fill:#D5F2F8;}
	.st5{fill:#FFAC98;}
	.st6{fill:#FFCAC1;}
</style>
<g id="_x31_">
</g>
<g id="_x32_">
	<g>
		<path class="st0" d="M42.37,148.57c-3.29-0.71-42.84-7.13-39.93-54.47S9,32.51,24.38,27.31c15.38-5.21,52.75-29.86,82.09-6.42
			s60.98,44.46,48.42,81.88c-12.56,37.42-19.24,49.11-47.39,47.99C74.7,149.45,58.02,151.96,42.37,148.57z"/>
		<g>
			<path class="st1" d="M118.65,107.5c-2.73-3.86-6.06-8.13-7.06-12.84c-1.1-5.15,2.4-10.6,2.85-15.8
				c0.46-5.29,0.63-10.67,2.56-15.68c0.95-2.47,4.2-7.44,1.53-9.88c-1.45-1.32-3.57,0.99-5.13,3.29c-0.92,1.35-1.64,2.7-1.92,3.3
				c-0.97,2.08-1.75,4.24-2.38,6.44c-0.63,2.19-0.66,4.78-1.91,6.75c-0.09,0.14-0.19,0.28-0.33,0.37c-0.74,0.5-1.15-0.66-1.34-1.14
				c-0.6-1.52-0.73-3.19-0.81-4.81c-0.08-1.77-0.02-3.54-0.03-5.3c-0.01-2.28-0.22-4.59-0.34-6.86c-0.07-1.23-0.55-20.35-4.51-17.46
				c-2.32,1.69-2.34,5.34-2.36,7.85c-0.02,2.93,0.11,5.86,0.12,8.79c0.01,2.23,0.29,4.47,0.28,6.7c0,0.36-0.05,0.69-0.13,0.99
				c-0.31-3.64-0.72-7.98-1.06-10.75c-0.15-1.23-2.27-20.67-6.03-17.52c-2.2,1.84-2.05,5.87-1.89,8.36
				c0.18,2.93,0.51,5.84,0.73,8.76c0.25,3.37,0.69,10.08,1.03,14.72c-0.03,0-0.06,0.01-0.09,0.01c-0.79-5.69-2.78-15.2-3.41-17.56
				c-0.65-2.42-1.1-6.17-3.76-7.22c-3.81-1.5-0.56,20.35,0.75,28.31c-0.01,0.02-0.02,0.03-0.02,0.05
				c-1.45-7.34-4.44-19.13-6.83-16.71c-1.59,1.61-0.72,4.46-0.42,6.41c0.76,4.92,1.62,9.84,2.28,14.78
				c0.77,5.8,1.16,13.82,4.48,18.84c2.1,3.19,5.28,5.55,7.64,8.57c2.66,3.41,5.19,6.94,7.56,10.56c6.22,9.48,10.58,18,17.27,27.19
				c12.55-0.22,22.38-8.61,21.18-10.16C132.23,122.48,123.32,114.1,118.65,107.5z"/>
			<g>
				<g>
					<path class="st2" d="M91.13,68.55c-0.45-5.34-0.77-10.68-1.14-16.03c-0.25-3.5-0.64-6.99-0.85-10.49
						c-0.15-2.49-0.36-6.04,1.69-7.89c1.81-1.63,3.34,4.97,3.56,5.87c0.82,3.39,1.35,6.85,1.78,10.31
						c0.65,5.21,1.09,10.45,1.51,15.69c0.02,0.28,0.78,0.11,0.75-0.2c-0.7-8.62-1.23-17.48-3.27-25.92
						c-0.41-1.68-0.86-3.42-1.69-4.95c-0.47-0.86-1.19-1.8-2.29-1.52c-0.75,0.19-1.34,0.89-1.73,1.51c-0.75,1.19-1,2.65-1.09,4.03
						c-0.23,3.55,0.35,7.17,0.65,10.7c0.54,6.36,0.85,12.74,1.38,19.1C90.4,69.04,91.15,68.87,91.13,68.55L91.13,68.55z"/>
				</g>
				<g>
					<path class="st2" d="M91.13,68.55c-0.25-4.02-1.13-8.04-1.9-11.98c-0.68-3.49-1.45-6.95-2.3-10.39
						c-0.49-1.99-1.21-4.46-3.28-5.32c-0.81-0.34-1.56-0.01-1.94,0.77c-0.55,1.14-0.56,2.58-0.6,3.81
						c-0.05,2.02,0.06,4.05,0.22,6.06c0.4,5.13,1.11,10.24,1.9,15.33c0.05,0.29,0.8,0.11,0.75-0.2c-0.66-4.2-1.24-8.42-1.66-12.65
						c-0.21-2.12-0.38-4.25-0.45-6.38c-0.04-1.55-0.07-3.14,0.2-4.68c0.08-0.48,0.26-1.82,0.92-1.71c1.01,0.17,1.84,1.45,2.24,2.28
						c0.47,0.97,0.75,2.02,1,3.07c0.77,3.2,1.5,6.41,2.14,9.64c0.82,4.13,1.75,8.34,2.01,12.54C90.39,69.03,91.15,68.87,91.13,68.55
						L91.13,68.55z"/>
				</g>
				<g>
					<path class="st2" d="M81.81,90.32c1.83,4.15,5.35,6.84,8.24,10.19c3.18,3.68,5.94,7.83,8.6,11.9c0.15,0.24,0.88-0.02,0.69-0.31
						c-2.62-4-5.33-8.05-8.43-11.7c-2.89-3.41-6.51-6.09-8.35-10.28C82.43,89.83,81.69,90.06,81.81,90.32L81.81,90.32z"/>
				</g>
				<g>
					<path class="st2" d="M83.82,66.64c-0.58-2.66-1.23-5.32-2.04-7.93c-0.59-1.89-1.2-3.98-2.37-5.61
						c-0.62-0.86-1.61-1.4-2.51-0.56c-1.66,1.55-0.95,4.22-0.61,6.15c0.65,3.7,1.21,7.43,1.77,11.14c0.04,0.29,0.8,0.11,0.75-0.2
						c-0.44-2.9-0.92-5.79-1.38-8.69c-0.18-1.16-0.37-2.32-0.58-3.47c-0.19-1.06-0.36-2.18-0.14-3.25c0.1-0.45,0.51-1.77,1.16-1.61
						c0.46,0.11,0.84,0.78,1.06,1.14c1,1.6,1.57,3.49,2.12,5.27c0.79,2.57,1.43,5.19,2,7.81C83.13,67.13,83.88,66.94,83.82,66.64
						L83.82,66.64z"/>
				</g>
				<g>
					<path class="st2" d="M98.42,65.81c-0.03-2.93-0.27-5.85-0.39-8.78c-0.13-3.14-0.15-6.3-0.19-9.44
						c-0.03-2.47-0.21-5.2,0.71-7.54c0.33-0.83,1.42-3.01,2.5-1.95c0.74,0.71,1.04,1.9,1.3,2.85c0.39,1.45,0.63,2.94,0.83,4.43
						c0.38,2.85,0.58,5.72,0.7,8.59c0.05,1.18,0.11,2.37,0.19,3.55c0.21,3.27,0.11,6.52,0.23,9.79c0.06,1.5,0.16,3.02,0.6,4.46
						c0.19,0.63,0.49,1.84,1.27,1.98c0.93,0.17,1.46-0.79,1.79-1.49c0.59-1.27,0.8-2.67,1.06-4.03c0.55-2.95,1.59-5.89,2.91-8.59
						c0.64-1.3,1.41-2.56,2.27-3.73c0.42-0.57,0.86-1.12,1.35-1.63c0.49-0.51,1.32-1.36,2.1-1.15c1.02,0.27,1.47,1.65,1.51,2.57
						c0.05,1.14-0.3,2.28-0.7,3.34c-0.82,2.15-1.94,4.13-2.58,6.35c-0.87,3.01-1.22,6.14-1.49,9.25c-0.13,1.54-0.21,3.09-0.38,4.63
						c-0.16,1.41-0.52,2.78-0.92,4.13c-0.82,2.77-1.9,5.54-2.09,8.45c-0.18,2.88,0.85,5.62,2.2,8.11c0.69,1.29,1.48,2.52,2.3,3.74
						c0.12,0.17,0.85-0.06,0.7-0.28c-1.81-2.68-3.53-5.56-4.24-8.75c-0.66-2.99,0.2-6.01,1.09-8.85c0.44-1.42,0.91-2.84,1.26-4.29
						c0.37-1.52,0.5-3.04,0.62-4.59c0.26-3.26,0.5-6.54,1.2-9.74c0.32-1.48,0.74-2.96,1.32-4.36c0.39-0.95,0.87-1.86,1.28-2.79
						c0.79-1.78,1.8-4.23,0.75-6.11c-1.12-2.01-3.15-1.11-4.46,0.17c-2,1.95-3.45,4.58-4.52,7.13c-0.65,1.54-1.2,3.12-1.68,4.72
						c-0.43,1.43-0.61,2.91-0.95,4.37c-0.15,0.65-0.34,1.3-0.61,1.91c-0.12,0.28-0.39,1.07-0.75,1.07c-0.21,0-0.42-0.57-0.49-0.73
						c-0.58-1.29-0.79-2.71-0.9-4.11c-0.25-3.37-0.03-6.75-0.24-10.12c-0.09-1.46-0.18-2.92-0.25-4.39
						c-0.13-2.92-0.32-5.84-0.7-8.73c-0.2-1.55-0.45-3.11-0.87-4.62c-0.26-0.95-0.59-2.13-1.34-2.83c-0.6-0.56-1.43-0.46-2.09-0.04
						c-1.86,1.18-2.35,3.64-2.49,5.67c-0.21,2.96-0.04,5.95,0.02,8.92c0.06,3.11,0.16,6.21,0.33,9.33c0.08,1.45,0.15,2.9,0.16,4.35
						C97.67,66.19,98.43,66.06,98.42,65.81L98.42,65.81z"/>
				</g>
				<g>
					<path class="st2" d="M102.73,77.92c-1.64,4.21-1.46,8.96,0.47,13.03c0.1,0.22,0.77,0.55,0.59,0.17
						c-1.9-4.01-2.05-8.64-0.44-12.77C103.45,78.11,102.84,77.64,102.73,77.92L102.73,77.92z"/>
				</g>
				<g>
					<path class="st2" d="M86.47,76.92c4.32-0.01,8.56-1.09,12.36-3.15c0.44-0.24-0.23-0.33-0.46-0.2
						c-3.57,1.94-7.54,2.94-11.6,2.95C86.5,76.51,85.97,76.92,86.47,76.92L86.47,76.92z"/>
				</g>
			</g>
			<path class="st1" d="M82.39,78.11c0.81-2.52,3.78-7.66,0.98-9.96c-1.52-1.24-3.51,1.18-4.94,3.57c-0.84,1.4-1.49,2.78-1.74,3.4
				c-1.35,3.38-2.16,6.79-2.75,10.29c0.92-7.4,0.91-13.2,0.91-16c0-1.24-0.46-20.54-4.56-17.86c-2.4,1.57-2.08,5.33-2.22,7.83
				c-0.17,2.93-0.18,5.86-0.31,8.79c-0.15,3.45-0.02,10.43-0.16,13.88l0,0c-0.12-3.85-0.31-13.14-0.59-16.98
				c-0.09-1.23-1.87-20.46-5.78-17.5c-2.29,1.73-1.71,5.46-1.68,7.97c0.04,2.93,0.22,5.86,0.29,8.79c0.1,3.9,0.22,12.27,0.35,16.75
				c-0.25-5.12-2.1-17-2.68-19.7c-0.53-2.45-0.79-6.21-3.4-7.4c-4.02-1.82-1.47,22.2-0.79,27.93c-0.92-6.91-3.19-19.07-5.88-16.6
				c-1.67,1.53-0.94,4.42-0.74,6.39c0.52,4.96,1.13,9.91,1.54,14.87c0.36,4.35,1.75,8.3,2.19,12.64c0.59,5.87-2.1,9.73-5.83,13.92
				c-5.07,5.71-10.54,10.99-16.25,16.06c-1.39,1.24-2.79,2.38-2.79,2.38s1.81,3.69,3.79,5.83c2.6,2.81,13.89,6.36,13.89,6.36
				c5.95-7.72,9.28-12.04,15.23-19.77c2.97-3.86,5.93-7.74,8.92-11.59c2.45-3.14,5.99-3.75,8.62-6.54
				C83.2,98.31,79.44,87.28,82.39,78.11z"/>
			<g>
				<g>
					<path class="st2" d="M67.98,82.02c0.11-2.81,0.07-5.62,0.08-8.43c0.01-3.13,0.13-6.26,0.21-9.39c0.05-1.85,0.15-3.71,0.21-5.56
						c0.04-1.32,0.04-2.65,0.31-3.95c0.2-0.97,1.45-4.21,2.84-2.77c0.94,0.97,1.26,2.61,1.54,3.87c0.42,1.89,0.67,3.83,0.86,5.76
						c0.27,2.7,0.45,5.42,0.46,8.13c0.02,6.74-0.45,13.46-1.53,20.12c-0.05,0.33,0.71,0.21,0.75-0.08
						c1.49-9.25,1.98-18.73,1.09-28.08c-0.19-2.01-0.44-4.02-0.87-5.98c-0.29-1.33-0.63-3.02-1.61-4.04
						c-0.93-0.97-2.17-0.44-2.98,0.41c-1.88,1.98-1.52,5.2-1.65,7.71c-0.21,4.08-0.34,8.18-0.37,12.27
						c-0.02,3.37,0.04,6.74-0.09,10.1C67.21,82.44,67.97,82.31,67.98,82.02L67.98,82.02z"/>
				</g>
				<g>
					<path class="st2" d="M60.61,81.87c-0.19-5.61-0.24-11.22-0.36-16.83c-0.08-3.63-0.21-7.27-0.36-10.9
						c-0.06-1.45-0.13-2.97,0.28-4.38c0.2-0.7,0.84-2.21,1.75-2.25c1.03-0.04,1.7,1.92,1.97,2.63c0.68,1.8,1.1,3.71,1.46,5.6
						c0.59,3.07,1.02,6.2,1.27,9.31c0.46,5.66,0.42,11.37,0.6,17.05c0.01,0.35,0.76,0.2,0.75-0.08c-0.27-8.77-0.21-17.54-1.82-26.19
						c-0.37-1.99-0.79-4-1.51-5.89c-0.38-1-0.97-2.59-2.16-2.86c-1.95-0.45-3.06,2.28-3.27,3.74c-0.21,1.42-0.09,2.87-0.04,4.3
						c0.07,2.1,0.12,4.2,0.2,6.3c0.28,6.88,0.25,13.78,0.49,20.66C59.87,82.35,60.62,82.19,60.61,81.87L60.61,81.87z"/>
				</g>
				<g>
					<path class="st2" d="M60.61,81.93c-0.03-2.42-0.35-4.85-0.65-7.25c-0.37-2.96-0.79-5.91-1.26-8.86
						c-0.34-2.11-0.74-4.21-1.13-6.31c-0.27-1.4-0.58-2.86-1.35-4.09c-0.47-0.75-1.34-1.69-2.3-1.75c-0.98-0.07-1.48,0.82-1.74,1.62
						c-0.49,1.49-0.55,3.15-0.6,4.7c-0.16,4.53,0.16,9.08,0.54,13.59c0.27,3.21,0.53,6.44,1,9.63c0.04,0.29,0.8,0.11,0.75-0.2
						c-0.37-2.45-0.58-4.93-0.81-7.4c-0.4-4.33-0.73-8.68-0.77-13.03c-0.01-1.84,0.01-3.69,0.25-5.51c0.11-0.85,0.22-2.28,0.95-2.88
						c0.1-0.08,0.07-0.07,0.17-0.05c0.42,0.06,0.89,0.46,1.18,0.74c1.04,1.01,1.47,2.5,1.78,3.88c0.44,1.98,0.79,3.99,1.12,6
						c0.5,3.05,0.95,6.1,1.35,9.17c0.35,2.68,0.73,5.39,0.77,8.1C59.86,82.35,60.62,82.21,60.61,81.93L60.61,81.93z"/>
				</g>
				<g>
					<path class="st2" d="M53.87,83.01c-0.48-3.94-1.11-7.88-2.08-11.73c-0.41-1.62-0.86-3.29-1.62-4.78
						c-0.37-0.74-0.94-1.73-1.88-1.73c-1.53,0-2.19,1.98-2.26,3.21c-0.06,1.07,0.11,2.13,0.24,3.18c0.2,1.53,0.34,3.07,0.51,4.6
						c0.36,3.29,0.73,6.57,1.02,9.87c0.28,3.12,0.9,6.12,1.54,9.19c0.65,3.13,1.21,6.36,0.38,9.51c-0.75,2.87-2.49,5.33-4.37,7.57
						c-0.29,0.35,0.43,0.38,0.61,0.16c1.5-1.79,2.92-3.68,3.84-5.84c0.9-2.12,1.24-4.39,1.06-6.68c-0.22-2.88-0.97-5.69-1.54-8.51
						c-0.61-3-0.8-6.04-1.11-9.08c-0.32-3.09-0.67-6.17-1-9.26c-0.12-1.15-0.31-2.31-0.4-3.46c-0.09-1.11-0.09-2.37,0.55-3.33
						c0.25-0.38,0.54-0.78,0.99-0.54c0.4,0.21,0.68,0.68,0.89,1.06c0.77,1.34,1.21,2.9,1.6,4.39c1.09,4.06,1.76,8.26,2.27,12.43
						C53.15,83.49,53.91,83.32,53.87,83.01L53.87,83.01z"/>
				</g>
				<g>
					<path class="st2" d="M73.71,89.7c0.75-6.02,1.79-12.31,4.87-17.64c0.76-1.31,1.66-2.82,2.92-3.71
						c1.29-0.91,2.33,0.55,2.58,1.73c0.45,2.14-0.64,4.47-1.42,6.41c-1.86,4.6-1.91,9.48-2.14,14.37
						c-0.24,5.21-0.89,10.62-4.5,14.68c-2.06,2.32-5.02,3.32-7.36,5.26c-1.27,1.06-2.21,2.42-3.21,3.72
						c-1.23,1.59-2.46,3.19-3.68,4.79c-0.18,0.23,0.56,0.15,0.69-0.02c1.13-1.47,2.26-2.95,3.4-4.42c1.09-1.41,2.1-2.93,3.49-4.06
						c2.17-1.77,4.87-2.74,6.86-4.74c3.93-3.95,4.77-9.5,5.04-14.82c0.15-2.87,0.17-5.76,0.54-8.61c0.32-2.52,1.05-4.79,1.98-7.13
						c0.75-1.89,1.8-4.51,0.76-6.49c-1.14-2.17-3.25-1.28-4.58,0.16c-2.35,2.55-3.76,6-4.76,9.27c-1.13,3.71-1.75,7.54-2.23,11.38
						C72.93,90.06,73.68,89.92,73.71,89.7L73.71,89.7z"/>
				</g>
			</g>
			<g>
				<path class="st3" d="M107.41,150.88c-3.52-4.54-7.02-23.69-5.49-29.43c0.24-0.89-4.74-7.93-4.15-7.98
					c8.87-0.72,15.6-6.02,20-10.31c1.1,2.47,3.05,6.93,5.7,7.49c7.31,1.56,18.33,12.4,21.16,18.79c0,0-6.39,14.34-17.11,18.67
					C117.41,152.18,107.41,150.88,107.41,150.88z"/>
				<g>
					<path class="st2" d="M107.75,150.71c-0.92-1.21-1.49-2.68-2-4.1c-0.72-1.99-1.27-4.04-1.76-6.09
						c-1.05-4.46-1.82-9.05-2.02-13.64c-0.07-1.63-0.1-3.31,0.21-4.92c0.1-0.52,0.15-0.79-0.05-1.29c-0.27-0.66-0.64-1.29-1-1.9
						c-0.88-1.51-1.85-2.97-2.68-4.51c-0.1-0.18-0.17-0.43-0.29-0.6c-0.02-0.03-0.05-0.17-0.05-0.17c0.08,0.3-0.43,0.14,0.16,0.2
						c0.24,0.03,0.55-0.06,0.79-0.09c1.47-0.2,2.92-0.52,4.33-0.96c5.65-1.76,10.5-5.29,14.7-9.38c-0.23,0-0.46-0.01-0.69-0.01
						c1.01,2.26,2.04,4.75,3.87,6.48c0.87,0.83,1.77,1.06,2.89,1.39c1.08,0.32,2.11,0.78,3.11,1.31c4.83,2.56,9.07,6.45,12.59,10.58
						c1.69,1.98,3.33,4.12,4.41,6.51c0.15,0.33,0.89,0.12,0.75-0.2c-1.99-4.43-5.61-8.23-9.15-11.47c-2.02-1.85-4.19-3.57-6.53-5
						c-1-0.61-2.04-1.17-3.11-1.64c-0.98-0.42-2.02-0.59-3-0.98c-1.37-0.54-2.32-1.95-3.06-3.16c-0.78-1.29-1.4-2.66-2.01-4.03
						c-0.13-0.28-0.51-0.18-0.69-0.01c-3.97,3.86-8.55,7.24-13.86,8.97c-1.54,0.5-3.13,0.87-4.74,1.07
						c-0.45,0.06-1.57-0.09-1.5,0.63c0.05,0.47,0.48,1.02,0.71,1.42c0.45,0.78,0.92,1.54,1.39,2.31c0.47,0.77,0.93,1.54,1.37,2.33
						c0.25,0.45,0.71,1.09,0.73,1.62c0.02,0.57-0.24,1.24-0.29,1.82c-0.08,0.84-0.09,1.68-0.08,2.52c0.06,4.49,0.76,9,1.7,13.38
						c0.52,2.42,1.13,4.83,1.94,7.17c0.56,1.63,1.2,3.37,2.25,4.75C107.27,151.32,107.99,151.02,107.75,150.71L107.75,150.71z"/>
				</g>
				<g>
					<path class="st2" d="M116.31,102.41c0.31-0.11,0.71-0.14,0.85,0.23c0.13,0.33-0.03,0.68-0.24,0.93c-0.12,0.14,0.1,0.2,0.2,0.2
						c0.17,0,0.38-0.07,0.5-0.2c0.29-0.35,0.5-0.9,0.2-1.31c-0.4-0.54-1.27-0.31-1.79-0.13c-0.1,0.04-0.3,0.16-0.21,0.28
						C115.91,102.54,116.2,102.45,116.31,102.41L116.31,102.41z"/>
				</g>
				<g>
					<path class="st2" d="M97.17,111.8c-0.28,0.37-0.53,0.9-0.24,1.34c0.28,0.41,0.86,0.44,1.3,0.35c0.12-0.02,0.41-0.09,0.43-0.24
						c0.02-0.16-0.22-0.16-0.32-0.14c-0.3,0.06-0.61-0.01-0.74-0.32c-0.15-0.35,0.06-0.72,0.26-0.99c0.11-0.14-0.09-0.2-0.2-0.2
						C97.5,111.6,97.27,111.67,97.17,111.8L97.17,111.8z"/>
				</g>
				<g>
					<path class="st4" d="M104.27,121.88c6.76-0.32,13.22-3.74,17.25-9.18c0.28-0.38-0.42-0.5-0.63-0.22
						c-3.88,5.24-10.04,8.55-16.56,8.86C103.91,121.35,103.76,121.9,104.27,121.88L104.27,121.88z"/>
				</g>
			</g>
			<g>
				<g>
					<path class="st4" d="M103.91,114.75c0.9,1.31,1.7,2.63,2.44,4.05c0.12,0.22,0.84-0.03,0.75-0.2c-0.75-1.44-1.56-2.78-2.48-4.12
						C104.5,114.3,103.77,114.54,103.91,114.75L103.91,114.75z"/>
				</g>
				<g>
					<path class="st4" d="M108.52,113.17c0.81,1.2,1.53,2.44,2.17,3.73c0.15,0.29,0.86,0.02,0.69-0.33
						c-0.64-1.29-1.36-2.54-2.17-3.73C109.02,112.56,108.3,112.84,108.52,113.17L108.52,113.17z"/>
				</g>
				<g>
					<path class="st4" d="M112.52,110.99c0.89,1.26,1.78,2.52,2.67,3.78c0.18,0.25,0.9-0.02,0.69-0.32
						c-0.89-1.26-1.78-2.52-2.67-3.78C113.04,110.42,112.32,110.69,112.52,110.99L112.52,110.99z"/>
				</g>
				<g>
					<path class="st4" d="M115.76,107.96c1.04,1.12,1.93,2.41,2.86,3.62c0.19,0.25,0.91-0.03,0.69-0.32
						c-0.93-1.22-1.81-2.5-2.86-3.62C116.23,107.41,115.52,107.7,115.76,107.96L115.76,107.96z"/>
				</g>
			</g>
			<g>
				<path class="st5" d="M17.07,136.31c6.43-11.51,19.48-17.45,20.58-18.62c1.97-2.1,3.94-4.41,5.26-6.01
					c5.44,4.99,12.9,8.15,20.99,8.55c-1.35,2.6-3.2,5.07-3.09,7.14c0.19,3.69-1.88,15.65-7.31,22.69c0,0-7.82,1.53-22.37-4.67
					C20.08,140.68,17.07,136.31,17.07,136.31z"/>
				<g>
					<path class="st2" d="M17.44,136.24c2.87-5.1,7.08-9.31,11.74-12.79c1.71-1.28,3.49-2.46,5.3-3.58
						c1.06-0.65,2.18-1.24,3.19-1.96c0.92-0.66,1.66-1.65,2.41-2.49c1.08-1.23,2.13-2.5,3.16-3.77c-0.23,0.05-0.46,0.1-0.69,0.15
						c5.79,5.36,13.36,7.86,21.1,8.58c-0.04-0.03-0.09-0.06-0.13-0.09c-0.85,1.69-1.94,3.24-2.62,5.02
						c-0.55,1.41-0.41,2.76-0.51,4.23c-0.31,4.28-1.42,8.56-3,12.55c-1.12,2.83-2.53,5.54-4.27,8.04c-0.06,0.08,0.61,0.06,0.74-0.13
						c2.94-4.23,4.95-9.06,6.18-14.05c0.46-1.86,0.81-3.74,1.01-5.64c0.15-1.43-0.07-3.03,0.34-4.41c0.62-2.07,1.91-3.82,2.87-5.73
						c0.04-0.08-0.09-0.09-0.13-0.09c-7.67-0.71-15.15-3.22-20.88-8.52c-0.13-0.12-0.59,0.03-0.69,0.15
						c-0.9,1.11-1.81,2.21-2.75,3.29c-0.82,0.95-1.65,2.03-2.62,2.82c-0.92,0.74-2.06,1.28-3.06,1.89
						c-4.07,2.5-7.95,5.32-11.33,8.71c-2.37,2.38-4.46,5.03-6.11,7.96C16.64,136.48,17.33,136.43,17.44,136.24L17.44,136.24z"/>
				</g>
				<g>
					<path class="st2" d="M63.57,118.63c0.3,0.19,0.71,0.51,0.64,0.92c-0.05,0.28-0.27,0.38-0.53,0.38c-0.15,0-0.42,0.05-0.5,0.2
						c-0.08,0.15,0.07,0.2,0.2,0.2c0.53,0.01,1.21-0.17,1.49-0.67c0.33-0.59-0.25-1.09-0.7-1.38
						C63.98,118.16,63.29,118.45,63.57,118.63L63.57,118.63z"/>
				</g>
				<g>
					<path class="st2" d="M45.68,110.64c-0.79-0.22-1.71-0.19-2.43,0.24c-0.46,0.28-0.79,0.79-0.31,1.23
						c0.18,0.17,0.88-0.12,0.7-0.29c-0.27-0.25-0.24-0.55,0.07-0.74c0.44-0.28,1.04-0.18,1.51-0.05
						C45.43,111.08,46.09,110.75,45.68,110.64L45.68,110.64z"/>
				</g>
				<g>
					<path class="st6" d="M38.53,118.76c1.95,2.88,4.89,5.01,7.99,6.52c3.65,1.78,7.69,2.69,11.75,2.64c0.25,0,0.81-0.38,0.31-0.37
						c-7.1,0.08-15.23-3-19.34-9.06C39.12,118.3,38.39,118.54,38.53,118.76L38.53,118.76z"/>
				</g>
			</g>
			<g>
				<g>
					<path class="st6" d="M45.29,115.75c-0.83,1.08-1.62,2.17-2.61,3.1c-0.3,0.28,0.44,0.22,0.59,0.08c1.03-0.97,1.85-2.08,2.71-3.2
						C46.16,115.5,45.42,115.58,45.29,115.75L45.29,115.75z"/>
				</g>
				<g>
					<path class="st6" d="M49.6,118.23c-0.67,1.02-1.42,1.99-2.23,2.9c-0.31,0.35,0.4,0.47,0.63,0.22c0.85-0.95,1.62-1.97,2.32-3.03
						C50.54,117.97,49.77,117.96,49.6,118.23L49.6,118.23z"/>
				</g>
				<g>
					<path class="st6" d="M53.63,120.1c-0.7,1.12-1.39,2.24-2.09,3.35c-0.21,0.33,0.55,0.31,0.71,0.06c0.7-1.12,1.39-2.24,2.09-3.35
						C54.54,119.83,53.78,119.85,53.63,120.1L53.63,120.1z"/>
				</g>
				<g>
					<path class="st6" d="M56.82,124.93c0.49-1.22,1.09-2.44,1.8-3.54c0.21-0.33-0.55-0.32-0.71-0.07c-0.71,1.1-1.31,2.32-1.8,3.54
						C55.96,125.25,56.71,125.22,56.82,124.93L56.82,124.93z"/>
				</g>
			</g>
			<g>
				<g>
					<path class="st2" d="M68.69,41.23c-1.32-0.49-2.61-1.07-3.87-1.69c-2.36-1.14-4.76-2.46-6.66-4.29
						c-0.24-0.23-0.95,0.08-0.69,0.33c2.94,2.83,6.99,4.73,10.79,6.15C68.57,41.85,69.13,41.4,68.69,41.23L68.69,41.23z"/>
				</g>
				<g>
					<path class="st2" d="M71.98,37.67c-2.56-3.51-4.69-7.69-5.55-11.96c-0.07-0.34-0.82-0.15-0.75,0.2
						c0.87,4.31,3.03,8.55,5.62,12.09C71.49,38.27,72.2,37.98,71.98,37.67L71.98,37.67z"/>
				</g>
				<g>
					<path class="st2" d="M77.5,36.38c-0.25-3.39,0.47-6.72,1.77-9.85c0.04-0.09-0.66-0.04-0.74,0.14c-1.3,3.14-2.04,6.5-1.78,9.91
						C76.76,36.69,77.51,36.56,77.5,36.38L77.5,36.38z"/>
				</g>
			</g>
		</g>
	</g>
</g>
</svg>
